<svg width="437" height="349" viewBox="0 0 437 349" fill="none" xmlns="http://www.w3.org/2000/svg">
<g clip-path="url(#clip0_1254_304)">
<path fill-rule="evenodd" clip-rule="evenodd" d="M181 67.122C183.85 55.8316 191.439 49.719 201.953 46.4864C214.247 42.7052 226.006 37.4938 236.561 30.1833C244.123 24.944 251.15 18.8817 258.704 13.5444C267.175 7.56616 276.068 2.79699 286.221 0.373221C291.685 -0.925425 296.361 1.49275 301.276 2.62626C307.419 4.04526 312.89 7.30308 318.304 10.4993C327.89 16.1585 337.575 21.591 348.175 25.1511C349.237 25.5093 350.143 26.3406 350.939 26.836C359.157 26.836 367.132 27.0766 375.091 26.7604C381.713 26.4973 388.166 24.7816 394.93 24.888C404.876 25.0503 412.767 29.3521 419.356 36.0188C424.202 40.9223 428.08 46.839 432.144 52.4842C435.256 56.8084 434.112 62.392 437 67.0045C428.008 68.3087 189.064 68.3143 181 67.122Z" fill="#D8F3FF"/>
<path fill-rule="evenodd" clip-rule="evenodd" d="M319.699 105C321.014 108.493 323.628 110.693 326 111.673C325.553 112.092 325 112.255 324.532 112.545C322.071 114.064 320.935 115.321 319.56 118C318.71 116.666 318.053 115.303 316.97 114.219C315.85 113.102 314.544 112.319 313 111.561C316.119 110.325 318.355 108.26 319.699 105Z" fill="#80D9FF"/>
<path fill-rule="evenodd" clip-rule="evenodd" d="M125.79 186C124.671 184.002 123.479 182.452 122.166 180.972C120.799 179.428 118.623 178.958 117 177.414C121.227 175.747 124.073 172.937 125.974 169C127.963 172.953 130.562 175.962 135 177.695C131.065 179.587 127.831 181.987 125.79 186Z" fill="#BBEBFF"/>
<path fill-rule="evenodd" clip-rule="evenodd" d="M240.659 116.847C243.233 116.559 244.915 115.561 245.287 113.159C245.669 110.675 244.809 108.802 242.242 107.85C239.191 107.751 237.092 109.012 236.634 111.295C236.089 114.008 237.287 115.631 240.659 116.847ZM241.037 146C239.882 145.424 239.74 144.282 239.209 143.434C235.127 136.915 231.084 130.371 227.043 123.827C224.711 120.054 223.571 115.977 224.148 111.529C224.524 108.65 225.736 106.092 227.443 103.751C229.942 100.322 233.375 98.1504 237.412 97.3757C242.339 96.4312 247.068 97.201 251.229 100.445C254.286 102.828 256.38 105.771 257.364 109.493C258.381 113.329 258.219 117.128 256.583 120.78C255.086 124.122 252.915 127.08 251.038 130.205C248.223 134.895 245.304 139.524 242.487 144.214C242.068 144.915 241.608 145.489 241.037 146Z" fill="#00B2FF"/>
<path fill-rule="evenodd" clip-rule="evenodd" d="M240.215 116C236.792 114.784 235.575 113.162 236.128 110.449C236.593 108.168 238.724 106.907 241.821 107.005C244.427 107.958 245.3 109.83 244.912 112.314C244.535 114.715 242.827 115.712 240.215 116Z" fill="#FEFEFE"/>
<path fill-rule="evenodd" clip-rule="evenodd" d="M311.966 272.811C311.397 272.15 310.7 271.592 309.801 271.185C307.266 270.043 304.021 269.777 301.274 270.171C300.692 270.255 301.218 348.429 301.218 348.429C301.218 348.429 372.175 348.222 382.105 348.348C392.037 348.474 401.969 348.601 411.899 348.728C414.333 348.76 416.766 348.789 419.198 348.821C421.569 348.85 424.131 349.159 426.478 348.892C426.668 348.031 426.674 347.334 427.057 346.526C427.447 345.703 427.587 344.779 427.725 343.884C428.018 341.982 428.079 340.042 427.897 338.125C427.534 334.324 426.202 330.596 423.861 327.564C421.287 324.231 417.466 321.889 413.36 321.023C411.278 320.585 409.109 320.522 407.015 320.925C405.857 321.147 405.342 321.361 404.319 321.097C403.194 320.806 401.763 319.283 400.702 318.708C399.827 318.234 398.926 317.816 397.997 317.457C397.923 317.429 397.853 317.401 397.778 317.374C397.045 317.102 396.299 316.871 395.542 316.677C394.843 316.499 394.115 316.408 393.44 316.178C392.717 315.934 391.884 315.853 391.128 315.768C390.34 315.679 389.548 315.643 388.757 315.656C387.982 315.669 387.206 315.732 386.438 315.843C386.055 315.899 385.672 315.968 385.294 316.048C385.126 316.082 384.964 316.127 384.809 316.18C384.106 316.423 383.375 316.464 382.655 316.631C381.58 316.884 380.486 317.061 379.382 317.123C376.74 317.277 374.112 316.709 371.864 315.278C371.567 315.088 371.277 314.886 370.996 314.673C370.747 314.483 370.567 314.258 370.337 314.057C369.838 313.621 369.352 313.196 368.924 312.682C368.087 311.681 367.454 310.508 367.087 309.254C366.985 308.9 366.893 308.531 366.69 308.219C366.54 307.986 366.445 307.801 366.348 307.543C365.886 306.329 365.274 305.174 364.549 304.098C363.773 302.945 362.867 301.879 361.859 300.923C361.385 300.473 360.967 299.983 360.463 299.57C359.899 299.109 359.293 298.697 358.657 298.342C358.213 298.094 357.753 297.873 357.28 297.681C355.434 296.929 353.624 296.177 351.639 295.859C348.635 295.376 345.583 295.903 342.664 296.655C340.179 297.294 338.3 295.878 338.181 293.301C338.143 292.511 338.17 291.713 338.056 290.936C337.43 286.675 335.485 283.133 332.14 280.426C329.399 278.211 326.271 276.932 322.71 276.851C319.996 276.662 317.408 277.351 314.755 278.178C313.877 276.267 313.238 274.286 311.966 272.811Z" fill="#118A66"/>
<path fill-rule="evenodd" clip-rule="evenodd" d="M330.947 149.2C330.87 149.16 330.767 149.134 330.683 149.095C330.094 148.981 329.478 148.976 328.858 149.045C327.962 149.143 325.619 150.567 325.133 150.687C319.855 151.982 314.584 153.325 309.266 154.445C302.588 155.854 295.855 157.001 289.175 158.401C286.699 158.92 284.162 158.966 281.69 159.264C275.025 160.067 268.349 160.908 261.616 161.325C253.866 161.803 246.133 162.058 238.379 162.009C210.671 162.029 183.435 158.439 156.619 151.624C154.707 151.138 152.823 150.548 150.926 150.004C150.355 150.115 149.784 150.225 149.213 150.337C149.165 154.822 149.121 159.305 149.073 163.789C149.075 167.376 149.075 170.964 149.075 174.55C149.498 176.449 148.33 178.907 149.654 180.185C151.128 181.605 153.667 180.564 155.735 180.702C157.704 180.835 159.683 180.793 161.657 180.825C163.206 180.749 164.756 180.608 166.305 180.606C193.892 180.595 221.48 180.59 249.069 180.606C272.413 180.619 295.756 180.661 319.1 180.691C321.906 180.546 324.713 180.318 327.512 180.827C330.839 181.433 331.97 180.506 331.975 177.128C331.991 168.757 332.037 160.386 331.94 152.017C331.93 151.182 331.453 149.468 330.947 149.2Z" fill="#002943"/>
<path fill-rule="evenodd" clip-rule="evenodd" d="M290 213L290.025 198.037C296.345 198.027 302.663 198.013 308.983 198L309 212.845C302.667 212.895 296.333 212.947 290 213Z" fill="#002943"/>
<path fill-rule="evenodd" clip-rule="evenodd" d="M187 197.207L186.598 211C180.464 210.983 174.329 210.967 168.194 210.953L168 198.19C168.053 197.908 168.096 197.62 168.125 197.331C174.415 196.804 180.708 197.019 187 197.207Z" fill="#002943"/>
<path fill-rule="evenodd" clip-rule="evenodd" d="M331.973 217.336C331.949 214.233 331.919 214.207 328.628 214.187C323.825 214.159 319.02 214.101 314.216 214.192C308.128 214.309 309.267 213.417 309.093 209.019C302.848 209.051 296.604 209.082 290.359 209.115C290.354 209.399 290.349 209.682 290.346 209.967C290.293 214.46 290.832 214.175 286.317 214.177C274.836 214.179 263.355 214.19 251.875 214.172C248.019 214.166 247.891 214.016 247.855 210.058C247.829 207.218 247.873 204.377 247.85 201.537C247.842 200.336 248.282 199.647 249.57 199.721C249.712 199.729 249.854 199.721 249.996 199.721C263.458 199.769 276.921 199.816 290.384 199.862C296.614 199.856 302.845 199.848 309.077 199.839C311.741 199.797 314.407 199.683 317.069 199.736C318.683 199.767 319.318 199.191 319.287 197.546C319.187 192.063 319.181 186.579 319.138 181.096C295.788 181.067 272.438 181.024 249.088 181.011C221.493 180.994 193.898 180.999 166.302 181.011C164.753 181.011 163.203 181.155 161.653 181.234C161.66 183.934 161.668 186.635 161.676 189.337C161.717 191.995 161.85 194.657 161.763 197.311C161.706 199.112 162.292 199.877 164.152 199.746C165.391 199.658 166.652 199.856 167.905 199.927C174.279 199.578 180.656 199.719 187.032 199.844C187.397 199.83 187.761 199.815 188.126 199.798C196.261 199.859 204.397 199.918 212.535 199.978C218.019 200.017 223.502 200.053 228.988 200.093C229.006 203.911 228.923 207.736 229.083 211.55C229.17 213.628 228.422 214.208 226.422 214.19C216.399 214.106 206.374 214.141 196.35 214.138C194.232 214.138 192.116 214.184 190 214.146C186.97 214.088 186.968 214.064 186.755 211.142C186.702 210.438 186.668 209.733 186.625 209.029C180.409 209.018 174.192 209.008 167.975 209C167.624 214.164 167.621 214.065 162.343 214.187C157.911 214.287 153.449 213.624 149.043 214.61C149.03 218.208 149.015 221.806 149 225.405C149.053 225.826 149.141 226.248 149.153 226.67C149.333 232.776 149.332 232.779 155.642 232.784C159.04 232.787 162.44 232.823 165.836 232.764C167.3 232.738 167.883 233.319 167.804 234.771C167.712 236.469 167.726 238.172 167.694 239.873C167.688 243.54 167.683 247.207 167.678 250.876C167.671 255.676 167.665 260.479 167.658 265.281C167.644 278.036 167.959 290.789 168.034 303.546C168.054 306.736 168.409 314.703 168.389 317.895H185.501C185.501 317.895 186.574 261.341 186.801 246.743C186.875 242.038 187.321 237.288 187.395 232.611C198.228 232.654 209.061 232.739 219.894 232.718L282.23 232.901C284.216 232.907 286.206 232.968 288.187 232.878C289.891 232.8 290.366 233.585 290.353 235.168C290.272 245.259 289.351 316.039 290.192 317.605L308.709 318C308.709 318 309.228 245.364 309.178 235.745C309.165 233.309 309.677 232.925 312.297 232.901C317.667 232.853 323.037 232.93 328.405 232.889C331.745 232.863 331.939 232.647 331.973 229.229C332.013 225.264 332.005 221.299 331.973 217.336Z" fill="#D73E13"/>
<path fill-rule="evenodd" clip-rule="evenodd" d="M258 331.099C257.651 332.305 257.318 332.328 257 331C257.333 331.033 257.667 331.066 258 331.099Z" fill="#234F45"/>
<path fill-rule="evenodd" clip-rule="evenodd" d="M225.829 253.399C226.053 251.741 226.855 249.801 227.106 248.632C227.562 246.499 228.665 245.406 230.824 245.011C231.595 244.87 232.36 244.637 233.144 244.688C233.587 245.042 233.516 245.545 233.6 245.983C233.875 247.416 234.126 248.855 234.377 250.297C235.046 254.138 228.129 259.181 226.061 255.532C225.748 254.977 225.719 254.222 225.829 253.399Z" fill="#976940"/>
<mask id="mask0_1254_304" style="mask-type:alpha" maskUnits="userSpaceOnUse" x="208" y="250" width="79" height="98">
<path fill-rule="evenodd" clip-rule="evenodd" d="M208.342 250.764H286.468V347.35H208.342V250.764Z" fill="white"/>
</mask>
<g mask="url(#mask0_1254_304)">
<path fill-rule="evenodd" clip-rule="evenodd" d="M286.304 290.898C286.721 289.64 286.294 288.124 285.624 287.014C285.065 286.089 284.317 285.259 283.384 284.7C281.951 283.841 280.112 283.68 278.547 284.281C276.844 284.931 275.598 286.422 275.209 288.13C273.913 287.615 272.639 287.246 271.224 287.255C266.063 287.281 239.792 287.204 237.968 287.284C230.657 287.62 231.531 265.644 231.531 261.696C231.531 259.26 231.562 256.822 231.433 254.392C231.288 251.679 229.785 250.506 227.06 250.811C226.563 250.867 226.061 250.998 225.602 251.188C224.201 251.761 222.837 252.431 221.423 252.966C220.333 253.376 219.582 254.138 218.884 254.987C218.405 255.571 217.964 256.186 217.495 256.778C214.426 260.665 211.353 264.549 208.41 268.271C208.205 269.597 208.389 270.51 209.871 271.056C213.795 269.359 217.903 267.582 222.354 265.656C222.013 266.374 220.522 269.992 220.213 271.012C219.305 274.022 218.285 277.014 218.108 280.185C218.062 281.02 217.387 281.731 217.662 282.613C217.705 282.592 217.744 282.566 217.785 282.544C216.613 290.912 217.554 299.008 218.429 307.499C218.793 310.392 219.502 313.218 220.089 316.068C221.566 323.231 222.846 330.433 224.33 337.593C225.006 340.846 225.322 344.176 226.421 347.338C227.229 347.338 228.039 347.338 228.847 347.337C229.063 344.305 228.563 317.171 228.299 312.01H233.77C234.334 312.589 234.041 313.387 234.043 314.102C234.064 324.296 234.056 334.489 234.061 344.682C234.061 345.592 233.874 346.541 234.512 347.35C235.312 347.297 236.11 347.248 236.91 347.196C237.541 343.402 238.158 339.608 238.809 335.817C239.571 331.371 240.363 326.929 241.147 322.488C241.755 319.042 242.37 315.599 243.029 311.887C246.172 311.887 249.228 312.061 252.254 311.838C255.202 311.62 258.098 310.929 260.906 309.267C261.508 312.106 262.093 314.759 262.629 317.423C264.493 326.675 268.353 346.523 268.435 347.192C269.376 347.423 270.324 347.335 271.271 347.246C271.643 344.587 270.853 323.155 270.853 318.963C273.245 321.401 275.487 323.685 278.097 326.344V347.238C279.057 347.24 280.018 347.241 280.977 347.245C282.723 337.319 284.469 327.393 286.199 317.56C284.186 315.489 280.048 305.055 280.048 301.787C279.867 299.99 279.307 297.072 279.857 295.336C280.344 293.805 282.817 293.59 284.222 292.913C284.686 292.69 285.15 292.445 285.527 292.099C285.907 291.75 286.157 291.34 286.304 290.898Z" fill="#AA7B4C"/>
</g>
<path fill-rule="evenodd" clip-rule="evenodd" d="M220.212 271.012C220.454 269.972 217.154 274.735 215.267 277.142C211.368 282.115 210.493 288.015 211.112 294.068C211.896 301.746 215.62 305.73 218.43 307.499C218.048 303.801 215.849 289.786 220.212 271.012Z" fill="#D8AD8A"/>
<path fill-rule="evenodd" clip-rule="evenodd" d="M221.671 258.289C221.711 258.306 221.75 258.324 221.786 258.35C222.091 258.55 222.171 258.958 221.966 259.257C220.907 260.816 218.76 261.26 217.681 260.973C217.323 260.877 217.118 260.519 217.215 260.168C217.309 259.821 217.674 259.616 218.027 259.708C218.541 259.847 220.132 259.613 220.868 258.527C221.047 258.263 221.386 258.171 221.671 258.289Z" fill="#815733"/>
<mask id="mask1_1254_304" style="mask-type:alpha" maskUnits="userSpaceOnUse" x="207" y="266" width="3" height="5">
<path fill-rule="evenodd" clip-rule="evenodd" d="M207.46 266.458H209.923V270.414H207.46V266.458Z" fill="white"/>
</mask>
<g mask="url(#mask1_1254_304)">
<path fill-rule="evenodd" clip-rule="evenodd" d="M208.818 270.413C207.59 269.815 207.237 269.021 207.59 267.856C207.926 266.739 208.616 266.321 209.923 266.495C209.561 267.782 209.2 269.059 208.818 270.413Z" fill="#8B613B"/>
</g>
<path fill-rule="evenodd" clip-rule="evenodd" d="M229.832 250.647C230.988 249.426 232.78 248.308 233.67 247.498C235.297 246.022 236.838 245.763 238.827 246.679C239.537 247.007 240.294 247.257 240.906 247.745C241.056 248.289 240.704 248.658 240.517 249.063C239.899 250.39 239.258 251.706 238.615 253.023C236.905 256.535 228.309 256.674 228.77 252.518C228.84 251.887 229.257 251.254 229.832 250.647Z" fill="#AA7B4C"/>
<path fill-rule="evenodd" clip-rule="evenodd" d="M312.961 305.651C318.573 307.625 321.734 311.902 322.305 317.66C322.792 322.562 325.101 325.561 329.1 327.696C330.277 328.324 331.47 328.994 332.483 329.855C337.79 334.37 339.189 339.73 337.022 346.737C336.795 347.469 336.701 348.244 336.547 349C300.474 348.997 264.404 348.993 228.333 348.99C228.075 346.467 227.116 344.14 227.015 341.498C226.763 335.055 229.785 330.912 235.014 328.279C239.402 326.069 241.542 322.618 242.481 317.861C244.245 308.927 249.81 304.491 258.75 304.503C259.728 304.503 260.715 304.426 261.683 304.53C265.632 304.956 268.767 303.599 271.583 300.68C274.488 297.669 278.062 295.716 282.445 296.034C286.819 295.77 290.425 297.649 293.32 300.714C296.126 303.684 299.329 304.823 303.256 304.55C306.536 304.321 309.834 304.305 312.961 305.651Z" fill="#2FC56E"/>
<path fill-rule="evenodd" clip-rule="evenodd" d="M187.344 282.012C192.196 283.651 194.933 287.201 195.426 291.982C195.846 296.053 197.844 298.542 201.303 300.313C202.32 300.835 203.353 301.391 204.227 302.106C208.819 305.854 210.028 310.304 208.154 316.12C207.958 316.728 207.877 317.373 207.742 318C176.546 317.997 145.35 317.995 114.154 317.992C113.931 315.898 113.101 313.965 113.012 311.772C112.796 306.423 115.409 302.984 119.932 300.796C123.727 298.962 125.579 296.098 126.39 292.149C127.915 284.733 132.729 281.048 140.461 281.059C141.306 281.059 142.16 280.996 142.996 281.082C146.412 281.435 149.124 280.309 151.56 277.886C154.072 275.386 157.163 273.765 160.952 274.028C164.734 273.809 167.853 275.37 170.359 277.914C172.785 280.379 175.554 281.324 178.952 281.098C181.787 280.909 184.639 280.896 187.344 282.012Z" fill="#1FA77E"/>
<path fill-rule="evenodd" clip-rule="evenodd" d="M109 317.984C109.48 314.543 109.965 311.104 110.434 307.663C110.509 307.112 110.513 306.554 110.549 306C112.178 306.003 113.808 306.005 115.437 306.008C115.922 309.564 116.401 313.122 116.902 316.677C116.966 317.122 117.037 317.555 116.978 318C114.318 317.995 111.66 317.989 109 317.984Z" fill="#FA68B5"/>
<path fill-rule="evenodd" clip-rule="evenodd" d="M115.79 306C114.197 305.998 112.603 305.995 111.011 305.993H106.004C105.874 303.008 108.869 299.455 112.562 299.044C116.642 298.591 120.465 301.663 121 306H115.79Z" fill="#FFC0E1"/>
<path fill-rule="evenodd" clip-rule="evenodd" d="M421.638 142C422.547 144.419 424.358 145.942 426 146.621C425.689 146.911 425.308 147.024 424.984 147.225C423.281 148.275 422.493 149.146 421.541 151C420.952 150.077 420.497 149.132 419.748 148.384C418.974 147.608 418.068 147.068 417 146.543C419.158 145.687 420.706 144.259 421.638 142Z" fill="#BBEBFF"/>
<path fill-rule="evenodd" clip-rule="evenodd" d="M-36.8092 87.5203C-8.0965 59.3701 52.064 74.7527 52.064 111.339C88.6835 93.9003 113.748 119.008 117 128.287C113.891 130.623 112.195 133.017 110.484 133.033C63.7294 133.32 16.9675 133.368 -29.7906 133.461C-50.3249 137.149 -68.611 121.935 -36.8092 87.5203Z" fill="#EAF9FF"/>
</g>
<defs>
<clipPath id="clip0_1254_304">
<rect width="437" height="349" fill="white"/>
</clipPath>
</defs>
</svg>
