<svg  viewBox="0 0 476 400" fill="none" xmlns="http://www.w3.org/2000/svg">
<mask id="mask0_823_2728" style="mask-type:alpha" maskUnits="userSpaceOnUse" x="29" y="8" width="412" height="247">
<path fill-rule="evenodd" clip-rule="evenodd" d="M29.9713 8.02765H440.737V254.066H29.9713V8.02765Z" fill="white"/>
</mask>
<g mask="url(#mask0_823_2728)">
<path fill-rule="evenodd" clip-rule="evenodd" d="M383.46 59.4815C408.632 73.2146 426.77 99.9415 435.406 127.927C439.632 141.614 442.067 156.125 439.973 170.294C435.323 201.737 408.753 226.407 379.139 237.979C358.293 246.127 335.865 248.959 313.649 250.165C303.944 250.693 293.773 249.815 284.46 252.661C274.648 255.657 262.278 253.082 252.244 252.09C244.456 251.318 236.67 250.467 228.849 250.079C207.485 249.021 186.151 251.33 164.792 251.413C155.052 251.45 142.232 252.906 133.305 248.181C126.491 244.577 119.024 242.336 111.848 239.461C96.3212 233.239 81.1304 225.816 67.763 215.665C48.2731 200.863 32.6984 179.301 30.2912 154.951C28.2052 133.857 36.4568 112.247 51.1276 96.9423C62.3721 85.2094 77.0031 77.0574 87.8417 64.9492C97.1861 54.5088 103.353 41.516 112.879 31.2407C137.83 4.32615 181.709 2.1533 214.89 17.8487C235.196 27.4529 252.97 42.783 274.713 48.4265C303.264 55.8361 333.988 45.3322 362.792 51.6875C370.114 53.3021 377.018 55.9659 383.46 59.4815Z" fill="#D8F3FF"/>
</g>
<path fill-rule="evenodd" clip-rule="evenodd" d="M25.0893 113.016C36.493 101.777 60.3866 107.919 60.3866 122.526C74.9306 115.563 84.8852 125.588 86.1769 129.292C84.9419 130.225 84.2685 131.181 83.5888 131.187C65.0197 131.302 46.4475 131.321 27.8769 131.358C19.7213 132.83 12.4588 126.756 25.0893 113.016Z" fill="#F1FBFF"/>
<path fill-rule="evenodd" clip-rule="evenodd" d="M327.206 253.473C302.511 253.473 278.026 250.133 255.587 246.297L254.115 246.045C242.945 244.129 179.841 250.163 168.582 251.829L168.771 250.823C180.143 249.147 243.009 243.436 254.232 245.361L255.703 245.613C328.059 257.983 362.502 252.071 386.655 244.659C406.854 238.457 421.474 229.053 430.107 216.704C435.587 208.865 438.683 199.788 440.764 192.756C444.138 181.37 446.437 169.567 447.595 157.675C448.771 145.587 448.353 133.531 447.777 121.214C447.7 119.591 447.426 118.094 447.137 116.511C446.949 115.485 446.754 114.423 446.62 113.33C445.55 104.578 443.456 96.8197 440.398 90.2701C439.312 87.9417 437.52 85.6777 435.785 83.4905C434.938 82.4178 434.137 81.4075 433.417 80.3921C423.812 66.8522 409.107 57.1419 393.076 53.75C377.34 50.4205 360.977 52.9463 345.153 55.3902C340.174 56.1602 335.024 56.9548 329.975 57.554C307.291 60.2505 287.067 58.6737 269.869 52.8778C253.817 47.4663 239.33 38.082 225.321 29.0077C219.3 25.1071 213.075 21.0761 206.81 17.4132C180.633 2.10842 157.527 -2.72169 138.139 3.05941C120.708 8.25458 105.265 22.3123 92.2418 44.8434C86.9257 54.0404 82.0776 63.6516 77.388 72.9478C67.5732 92.4062 57.423 112.527 42.5646 129.567C41.3749 130.931 40.1621 132.28 38.9477 133.632C34.1135 139.016 29.113 144.582 25.6931 151.026C17.633 166.211 18.8873 186.921 28.8883 203.785C40.2421 222.933 61.126 235.794 83.3874 237.346C92.1529 237.96 101.053 236.88 109.661 235.837C115.938 235.076 122.429 234.29 128.846 234.156C147.267 233.79 162.351 240.245 169.176 251.469L168.582 251.829C161.885 240.821 147.024 234.443 128.861 234.851C122.479 234.983 116.005 235.768 109.746 236.526C101.104 237.573 92.1682 238.655 83.3397 238.04C60.8505 236.471 39.7573 223.48 28.2881 204.138C18.1685 187.07 16.9065 166.096 25.0776 150.701C28.5373 144.183 33.5656 138.583 38.4291 133.169C39.6403 131.82 40.8501 130.472 42.0382 129.111C56.8396 112.138 66.9699 92.0565 76.7662 72.6369C81.4589 63.3305 86.3132 53.7102 91.6386 44.4968C104.755 21.8077 120.331 7.64257 137.939 2.39525C157.522 -3.44556 180.812 1.40899 207.164 16.8135C213.441 20.4855 219.674 24.5211 225.699 28.4248C239.674 37.4776 254.124 46.8375 270.092 52.2192C287.192 57.9835 307.31 59.5449 329.894 56.8658C334.931 56.2676 340.073 55.4731 345.047 54.7041C360.934 52.252 377.361 49.716 393.221 53.071C409.421 56.4987 424.279 66.3113 433.985 79.9902C434.696 80.9913 435.49 81.9965 436.332 83.0589C438.092 85.2789 439.909 87.5746 441.029 89.9756C444.12 96.5926 446.233 104.421 447.311 113.247C447.443 114.319 447.635 115.37 447.821 116.386C448.103 117.922 448.395 119.512 448.474 121.181C449.05 133.525 449.47 145.608 448.289 157.742C447.126 169.679 444.818 181.525 441.433 192.95C439.335 200.034 436.217 209.181 430.677 217.101C421.955 229.579 407.211 239.075 386.86 245.322C367.498 251.267 347.284 253.473 327.206 253.473Z" fill="#74C5E3"/>
<mask id="mask1_823_2728" style="mask-type:alpha" maskUnits="userSpaceOnUse" x="321" y="0" width="79" height="79">
<path fill-rule="evenodd" clip-rule="evenodd" d="M321.261 0.000183105H399.992V78.7447H321.261V0.000183105Z" fill="white"/>
</mask>
<g mask="url(#mask1_823_2728)">
<path fill-rule="evenodd" clip-rule="evenodd" d="M399.992 39.3716C399.992 61.1172 382.368 78.7442 360.626 78.7442C338.885 78.7442 321.261 61.1172 321.261 39.3716C321.261 17.6261 338.885 -0.000915527 360.626 -0.000915527C382.368 -0.000915527 399.992 17.6261 399.992 39.3716Z" fill="#FED600"/>
</g>
<path fill-rule="evenodd" clip-rule="evenodd" d="M416.469 83.2972C416.463 83.1285 436.435 71.5377 419.071 49.7079C416.427 46.3835 404.159 33.1574 382.448 42.0079C381.578 42.3617 380.614 42.7401 379.694 43.098C378.57 43.5366 377.563 44.4897 376.595 45.2065C375.1 46.3119 373.633 47.4531 372.225 48.6669C369.433 51.075 366.871 53.7869 364.937 56.9374C362.853 60.3344 361.603 64.1578 361.209 68.1182C360.444 67.8063 359.669 67.522 358.884 67.2654C357.929 66.9535 356.959 66.6815 355.98 66.4483C355.084 66.2356 354.075 65.9146 353.15 65.9268C352.29 65.9391 351.422 65.57 350.564 65.4432C349.585 65.301 340.027 61.3283 328.539 66.751C327.715 67.1406 327.016 67.6151 326.299 68.1172C324.879 69.1132 323.571 70.2912 322.388 71.5377C321.283 72.7024 320.292 73.9714 319.451 75.3386C319.007 76.0595 318.605 76.8059 318.247 77.5739C317.92 78.2744 317.443 78.9769 317.316 79.7479C317.213 80.3676 317.211 81.0026 317.316 81.6212C317.35 81.838 317.413 82.0712 317.594 82.1949C317.72 82.2808 317.879 82.2961 318.03 82.3074C318.552 82.3493 319.073 82.3922 319.593 82.4321C320.018 82.4659 320.488 82.4464 320.885 82.6233C321.135 82.7379 321.334 82.9127 321.609 82.9731C322.08 83.0733 322.617 83.0088 323.093 83.0099C325.228 83.0242 327.364 83.0365 329.497 83.0467C333.766 83.0712 338.037 83.0917 342.306 83.1101C346.575 83.1285 350.844 83.1438 355.113 83.1602C359.384 83.1735 363.653 83.1858 367.922 83.198C372.194 83.2093 376.462 83.2185 380.733 83.2297C385.002 83.2369 389.272 83.2461 393.54 83.2543C397.811 83.2635 402.081 83.2696 406.351 83.2768" fill="white"/>
<path fill-rule="evenodd" clip-rule="evenodd" d="M71.0687 173.289C73.3257 173.415 75.05 175.346 74.9242 177.601C74.7969 179.857 72.8692 181.583 70.6122 181.458C68.3551 181.332 66.6309 179.401 66.7581 177.143C66.8838 174.889 68.8116 173.164 71.0687 173.289Z" fill="white"/>
<path fill-rule="evenodd" clip-rule="evenodd" d="M362.22 135.889C360.3 135.889 358.687 137.393 358.577 139.335C358.467 141.344 360.01 143.071 362.019 143.184C364.016 143.269 365.754 141.752 365.869 139.743C365.979 137.734 364.437 136.007 362.428 135.894C362.357 135.89 362.289 135.889 362.22 135.889ZM362.224 144.651C362.13 144.651 362.035 144.648 361.938 144.642C359.124 144.487 356.962 142.068 357.119 139.253C357.277 136.439 359.666 134.256 362.508 134.436C365.322 134.592 367.484 137.012 367.327 139.825C367.175 142.543 364.913 144.651 362.224 144.651Z" fill="white"/>
<path fill-rule="evenodd" clip-rule="evenodd" d="M334.619 199.87C334.619 201.564 333.245 202.938 331.551 202.938C329.857 202.938 328.484 201.564 328.484 199.87C328.484 198.176 329.857 196.802 331.551 196.802C333.245 196.802 334.619 198.176 334.619 199.87Z" fill="#FFF0BA"/>
<path fill-rule="evenodd" clip-rule="evenodd" d="M115.826 164.08C115.826 165.775 114.453 167.148 112.759 167.148C111.065 167.148 109.692 165.775 109.692 164.08C109.692 162.386 111.065 161.013 112.759 161.013C114.453 161.013 115.826 162.386 115.826 164.08Z" fill="#FFF0BA"/>
<path fill-rule="evenodd" clip-rule="evenodd" d="M153.655 53.6426C153.655 55.337 152.282 56.7103 150.588 56.7103C148.894 56.7103 147.521 55.337 147.521 53.6426C147.521 51.9482 148.894 50.5749 150.588 50.5749C152.282 50.5749 153.655 51.9482 153.655 53.6426Z" fill="#FFF0BA"/>
<path fill-rule="evenodd" clip-rule="evenodd" d="M473.024 340.665L385.024 249.225C375.518 239.52 366.622 229.269 357.779 218.976C351.076 211.175 344.504 203.261 337.874 195.399C335.002 195.307 332.354 194.413 330.137 192.659C328.614 191.452 327.587 191.537 326.071 192.689C321.599 196.086 316.918 196.036 312.395 192.783C310.943 191.739 309.998 191.415 308.332 192.58C303.112 196.224 298.486 196.637 292.724 191.868C291.496 190.849 291.066 191.394 290.099 192.098C284.066 196.492 281.24 196.163 276.151 192.903C273.951 191.491 272.44 191.687 270.761 192.988C266.459 196.327 262.222 195.787 257.982 192.988C255.977 191.664 254.415 191.491 252.211 193.161C247.377 196.827 242.429 195.625 238.195 192.262C236.845 191.19 236.284 190.695 234.917 192.02C230.227 196.571 224.845 195.954 220.67 192.851C218.662 191.359 217.549 191.816 215.809 193.017C211.375 196.084 206.806 195.963 202.524 192.679C201.003 191.513 199.999 191.491 198.461 192.659C195.226 195.116 191.59 196.055 187.598 194.498C187.172 194.332 186.523 194.389 186.301 194.097C183.703 190.712 181.303 192.211 178.404 193.911C173.891 196.554 169.378 195.531 165.521 192.283C164.107 191.091 163.541 191.226 162.187 192.323C157.453 196.159 152.475 196.351 147.435 192.465C146.023 191.372 145.46 191.142 144.267 192.418C142.285 194.536 139.597 194.659 136.92 194.684C136.349 195.212 135.692 195.669 135.219 196.275C125.63 208.559 115.432 220.338 105.11 232.005C99.9599 237.824 94.9271 243.764 89.268 249.12L88.4253 249.845C88.427 249.898 88.427 249.954 88.427 250.008L2.59906 340.665H473.024Z" fill="#FFB7E6"/>
<mask id="mask2_823_2728" style="mask-type:alpha" maskUnits="userSpaceOnUse" x="136" y="147" width="203" height="49">
<path fill-rule="evenodd" clip-rule="evenodd" d="M136.64 147.555H338.237V195.951H136.64V147.555Z" fill="white"/>
</mask>
<g mask="url(#mask2_823_2728)">
<path fill-rule="evenodd" clip-rule="evenodd" d="M338.237 195.934C335.357 195.841 332.701 194.934 330.476 193.156C328.945 191.932 327.916 192.018 326.395 193.186C321.909 196.632 317.214 196.58 312.676 193.282C311.22 192.224 310.272 191.894 308.599 193.075C303.364 196.77 298.722 197.19 292.942 192.354C291.71 191.322 291.279 191.872 290.31 192.585C284.257 197.043 281.423 196.709 276.317 193.403C274.109 191.972 272.592 192.171 270.911 193.49C266.594 196.875 262.344 196.328 258.09 193.49C256.077 192.149 254.511 191.972 252.301 193.667C247.451 197.383 242.487 196.164 238.241 192.753C236.886 191.665 236.325 191.162 234.951 192.507C230.247 197.123 224.846 196.497 220.658 193.35C218.645 191.837 217.526 192.3 215.782 193.518C211.334 196.628 206.75 196.506 202.455 193.178C200.928 191.994 199.923 191.972 198.379 193.156C195.133 195.648 191.486 196.6 187.481 195.021C187.054 194.853 186.404 194.91 186.179 194.614C183.573 191.181 181.167 192.704 178.258 194.426C173.732 197.106 169.202 196.068 165.332 192.774C163.913 191.565 163.345 191.704 161.988 192.817C157.24 196.705 152.245 196.901 147.192 192.958C145.771 191.851 145.208 191.617 144.012 192.91C142.023 195.061 139.326 195.184 136.64 195.209C137.524 193.139 139.165 191.617 140.5 189.881C150.397 177.013 160.016 163.938 169.046 150.434C170.413 148.391 171.795 147.549 174.347 147.555C216.207 147.652 258.064 147.622 299.924 147.604C301.833 147.604 303.378 147.674 304.708 149.648C315.191 165.212 326.252 180.354 337.86 195.087C338.044 195.321 338.114 195.648 338.237 195.934Z" fill="#FAFAFA"/>
</g>
<path fill-rule="evenodd" clip-rule="evenodd" d="M196.823 234.105C195.847 234.102 194.903 233.451 194.927 232.798C194.948 232.18 195.989 231.506 196.917 231.506C197.781 231.507 198.822 232.239 198.826 232.849C198.827 233.465 197.806 234.107 196.823 234.105Z" fill="white"/>
<path fill-rule="evenodd" clip-rule="evenodd" d="M153.412 222.409C152.489 222.422 152.048 221.727 152.043 220.413C152.039 219.211 152.507 218.569 153.283 218.515C154.056 218.46 154.597 219.018 154.638 220.223C154.68 221.445 154.386 222.355 153.412 222.409Z" fill="white"/>
<path fill-rule="evenodd" clip-rule="evenodd" d="M338.471 253.598C337.495 253.595 336.55 252.944 336.575 252.289C336.595 251.673 337.636 250.997 338.564 250.999C339.428 250.999 340.469 251.732 340.473 252.342C340.474 252.958 339.453 253.6 338.471 253.598Z" fill="white"/>
<path fill-rule="evenodd" clip-rule="evenodd" d="M303.384 227.607C302.408 227.605 301.463 226.954 301.488 226.299C301.511 225.683 302.552 225.008 303.477 225.008C304.341 225.008 305.382 225.741 305.386 226.352C305.39 226.968 304.366 227.61 303.384 227.607Z" fill="white"/>
<path fill-rule="evenodd" clip-rule="evenodd" d="M247.504 256.197C246.528 256.194 245.584 255.543 245.608 254.888C245.632 254.272 246.673 253.598 247.598 253.598C248.462 253.599 249.503 254.331 249.507 254.941C249.511 255.557 248.487 256.199 247.504 256.197Z" fill="white"/>
<path fill-rule="evenodd" clip-rule="evenodd" d="M156.538 261.395C155.562 261.392 154.618 260.741 154.642 260.086C154.666 259.47 155.707 258.796 156.632 258.796C157.496 258.797 158.537 259.529 158.541 260.139C158.545 260.755 157.521 261.397 156.538 261.395Z" fill="white"/>
<path fill-rule="evenodd" clip-rule="evenodd" d="M274.794 299.081C273.818 299.078 272.874 298.427 272.898 297.773C272.922 297.156 273.963 296.482 274.888 296.482C275.752 296.483 276.793 297.215 276.797 297.825C276.801 298.441 275.777 299.083 274.794 299.081Z" fill="white"/>
<path fill-rule="evenodd" clip-rule="evenodd" d="M202.795 286.085C201.871 286.098 201.429 285.403 201.425 284.089C201.421 282.887 201.888 282.245 202.665 282.191C203.437 282.136 203.978 282.694 204.02 283.9C204.063 285.121 203.768 286.031 202.795 286.085Z" fill="white"/>
<path fill-rule="evenodd" clip-rule="evenodd" d="M415.142 317.274C414.166 317.271 413.221 316.62 413.246 315.967C413.269 315.349 414.31 314.675 415.235 314.675C416.1 314.676 417.141 315.408 417.144 316.018C417.148 316.634 416.124 317.276 415.142 317.274Z" fill="white"/>
<path fill-rule="evenodd" clip-rule="evenodd" d="M380.055 289.984C379.079 289.981 378.134 289.33 378.159 288.675C378.182 288.059 379.223 287.385 380.149 287.385C381.013 287.385 382.054 288.118 382.058 288.729C382.061 289.345 381.037 289.987 380.055 289.984Z" fill="white"/>
<path fill-rule="evenodd" clip-rule="evenodd" d="M325.475 318.573C324.499 318.571 323.555 317.92 323.579 317.265C323.603 316.649 324.644 315.974 325.569 315.974C326.433 315.976 327.474 316.707 327.478 317.318C327.482 317.934 326.458 318.576 325.475 318.573Z" fill="white"/>
<path fill-rule="evenodd" clip-rule="evenodd" d="M234.509 325.071C233.533 325.068 232.589 324.417 232.613 323.762C232.634 323.146 233.675 322.472 234.603 322.472C235.467 322.473 236.508 323.205 236.512 323.816C236.513 324.432 235.492 325.074 234.509 325.071Z" fill="white"/>
<path fill-rule="evenodd" clip-rule="evenodd" d="M151.34 313.375C150.364 313.373 149.42 312.722 149.444 312.068C149.468 311.451 150.509 310.776 151.434 310.776C152.298 310.778 153.339 311.509 153.343 312.12C153.347 312.736 152.323 313.378 151.34 313.375Z" fill="white"/>
<path fill-rule="evenodd" clip-rule="evenodd" d="M114.427 287.385C113.503 287.398 113.063 286.703 113.058 285.389C113.054 284.187 113.521 283.545 114.297 283.49C115.07 283.436 115.611 283.993 115.653 285.199C115.694 286.422 115.401 287.331 114.427 287.385Z" fill="white"/>
<path fill-rule="evenodd" clip-rule="evenodd" d="M66.8724 310.776C65.8959 310.774 64.9517 310.123 64.9763 309.469C64.9989 308.852 66.0395 308.177 66.9649 308.177C67.8299 308.179 68.8705 308.91 68.8743 309.521C68.8781 310.137 67.8544 310.779 66.8724 310.776Z" fill="white"/>
<mask id="mask3_823_2728" style="mask-type:alpha" maskUnits="userSpaceOnUse" x="289" y="252" width="187" height="89">
<path fill-rule="evenodd" clip-rule="evenodd" d="M289.918 252.975H475.248V340.265H289.918V252.975Z" fill="white"/>
</mask>
<g mask="url(#mask3_823_2728)">
<path fill-rule="evenodd" clip-rule="evenodd" d="M433.441 268.87C442.811 272.121 448.09 279.166 449.043 288.651C449.854 296.724 453.712 301.661 460.389 305.179C462.353 306.214 464.345 307.315 466.035 308.734C474.897 316.17 477.233 324.996 473.614 336.536C473.236 337.742 473.08 339.02 472.82 340.265C412.596 340.259 352.371 340.254 292.145 340.247C291.713 336.094 290.112 332.262 289.941 327.911C289.522 317.299 294.566 310.474 303.3 306.138C310.625 302.499 314.2 296.815 315.767 288.979C318.711 274.267 328.001 266.96 342.93 266.981C344.563 266.982 346.211 266.855 347.826 267.026C354.421 267.726 359.656 265.491 364.356 260.684C369.205 255.727 375.173 252.509 382.49 253.032C389.794 252.599 395.814 255.693 400.649 260.74C405.333 265.629 410.68 267.506 417.239 267.057C422.712 266.682 428.218 266.654 433.441 268.87Z" fill="#44C69E"/>
</g>
<mask id="mask4_823_2728" style="mask-type:alpha" maskUnits="userSpaceOnUse" x="0" y="280" width="130" height="61">
<path fill-rule="evenodd" clip-rule="evenodd" d="M0 280.4H129.501V340.665H0V280.4Z" fill="white"/>
</mask>
<g mask="url(#mask4_823_2728)">
<path fill-rule="evenodd" clip-rule="evenodd" d="M100.288 291.373C106.836 293.617 110.524 298.481 111.191 305.028C111.757 310.603 114.453 314.012 119.118 316.439C120.49 317.154 121.881 317.916 123.063 318.894C129.255 324.03 130.889 330.123 128.36 338.091C128.095 338.924 127.985 339.805 127.805 340.665C85.7219 340.66 43.6389 340.657 1.55599 340.652C1.25497 337.785 0.135934 335.138 0.0168853 332.135C-0.275623 324.81 3.24816 320.097 9.35015 317.103C14.4692 314.59 16.9674 310.667 18.0626 305.257C20.1187 295.1 26.6119 290.054 37.0437 290.068C38.1832 290.068 39.3345 289.981 40.4638 290.101C45.0727 290.582 48.729 289.04 52.0147 285.721C55.4024 282.297 59.5725 280.076 64.6847 280.438C69.7901 280.137 73.9959 282.275 77.3733 285.759C80.6472 289.137 84.3835 290.431 88.9668 290.12C92.7915 289.86 96.6385 289.843 100.288 291.373Z" fill="#28BA8E"/>
</g>
<path fill-rule="evenodd" clip-rule="evenodd" d="M223.421 256.436C223.421 256.437 223.421 256.436 223.421 256.436L228.29 276.132L225.239 276.885L220.372 257.189C220.099 256.085 219.281 255.527 218.564 255.527V252.386H220.628V252.864C222.01 253.54 223.035 254.871 223.421 256.436Z" fill="#0994CF"/>
<mask id="mask5_823_2728" style="mask-type:alpha" maskUnits="userSpaceOnUse" x="219" y="245" width="6" height="15">
<path fill-rule="evenodd" clip-rule="evenodd" d="M219.013 245.01H224.487V259.525H219.013V245.01Z" fill="white"/>
</mask>
<g mask="url(#mask5_823_2728)">
<path fill-rule="evenodd" clip-rule="evenodd" d="M224.487 252.267C224.487 256.275 223.263 259.524 221.75 259.524C220.237 259.524 219.013 256.275 219.013 252.267C219.013 248.26 220.237 245.01 221.75 245.01C223.263 245.01 224.487 248.26 224.487 252.267Z" fill="#0175A7"/>
</g>
<path fill-rule="evenodd" clip-rule="evenodd" d="M239.066 278.013C239.066 281.977 235.853 285.189 231.89 285.189C227.929 285.189 224.714 281.977 224.714 278.013C224.714 274.051 227.929 270.838 231.89 270.838C235.853 270.838 239.066 274.051 239.066 278.013Z" fill="#DEBB04"/>
<path fill-rule="evenodd" clip-rule="evenodd" d="M228.128 287.239H225.401C222.756 287.239 220.614 285.121 220.614 282.509V273.518C220.614 270.906 222.756 268.787 225.401 268.787H228.13C230.773 268.787 232.915 270.905 232.915 273.518V282.509C232.915 285.121 230.771 287.239 228.128 287.239Z" fill="#FFD600"/>
<mask id="mask6_823_2728" style="mask-type:alpha" maskUnits="userSpaceOnUse" x="72" y="246" width="219" height="154">
<path fill-rule="evenodd" clip-rule="evenodd" d="M72.9997 400H290.321V246.235H72.9997V400Z" fill="white"/>
</mask>
<g mask="url(#mask6_823_2728)">
<path fill-rule="evenodd" clip-rule="evenodd" d="M72.9996 358.996H83.2506V352.845H72.9996V358.996Z" fill="#FFD600"/>
<path fill-rule="evenodd" clip-rule="evenodd" d="M253.417 389.554C243.332 389.554 235.16 381.38 235.16 371.297C235.16 361.214 243.332 353.039 253.417 353.039C263.5 353.039 271.674 361.214 271.674 371.297C271.674 381.38 263.5 389.554 253.417 389.554ZM253.417 342.594C237.565 342.594 224.714 355.444 224.714 371.297C224.714 387.149 237.565 400 253.417 400C269.267 400 282.12 387.149 282.12 371.297C282.12 355.444 269.267 342.594 253.417 342.594Z" fill="#030320"/>
<path fill-rule="evenodd" clip-rule="evenodd" d="M271.676 369.637L254.364 371.041L270.03 363.537C270.118 363.496 270.155 363.389 270.114 363.3C270.071 363.211 269.964 363.174 269.874 363.216L254.096 370.774L265.427 357.443C265.491 357.369 265.482 357.255 265.406 357.193C265.331 357.128 265.218 357.138 265.156 357.213L253.778 370.595L259.108 353.753C259.139 353.66 259.088 353.559 258.991 353.53C258.897 353.499 258.799 353.552 258.768 353.645L253.511 370.258L252.113 353.009C252.105 352.91 252.019 352.838 251.92 352.846C251.822 352.853 251.748 352.94 251.758 353.037L253.161 370.35L245.659 354.686C245.616 354.596 245.507 354.56 245.421 354.601C245.331 354.644 245.294 354.75 245.335 354.839L252.894 370.618L239.564 359.287C239.488 359.224 239.377 359.232 239.312 359.307C239.248 359.383 239.258 359.495 239.332 359.559L252.41 370.675L235.982 365.477C235.888 365.447 235.787 365.5 235.759 365.594C235.728 365.687 235.781 365.787 235.873 365.817L252.785 371.169L235.129 372.6C235.031 372.607 234.957 372.694 234.965 372.793C234.973 372.89 235.059 372.964 235.158 372.955L252.47 371.552L236.804 379.055C236.716 379.098 236.679 379.205 236.72 379.293C236.755 379.363 236.825 379.4 236.896 379.393C236.917 379.391 236.937 379.387 236.96 379.377L252.736 371.82L241.407 385.15C241.343 385.224 241.352 385.337 241.427 385.403C241.464 385.433 241.513 385.448 241.557 385.444C241.604 385.44 241.647 385.419 241.68 385.38L252.906 372.175L247.707 388.603C247.676 388.697 247.728 388.796 247.822 388.828C247.845 388.835 247.869 388.837 247.89 388.835C247.961 388.831 248.023 388.781 248.045 388.71L253.302 372.1L254.721 389.585C254.729 389.683 254.815 389.755 254.912 389.749C255.012 389.739 255.084 389.655 255.076 389.554L253.673 372.243L261.175 387.91C261.21 387.978 261.279 388.015 261.351 388.01C261.372 388.008 261.392 388.002 261.413 387.992C261.503 387.949 261.54 387.842 261.497 387.754L253.94 371.975L267.27 383.305C267.307 383.338 267.354 383.352 267.401 383.348C267.446 383.344 267.489 383.324 267.522 383.287C267.586 383.211 267.578 383.098 267.5 383.035L253.989 371.549L270.831 376.88C270.856 376.886 270.878 376.89 270.901 376.888C270.971 376.882 271.034 376.835 271.057 376.763C271.088 376.669 271.034 376.568 270.94 376.54L254.629 371.377L271.705 369.993C271.803 369.984 271.877 369.899 271.869 369.801C271.861 369.702 271.774 369.63 271.676 369.637Z" fill="#004765"/>
<path fill-rule="evenodd" clip-rule="evenodd" d="M249.317 370.272C249.317 373.102 251.611 375.398 254.442 375.398C257.273 375.398 259.568 373.102 259.568 370.272C259.568 367.442 257.273 365.147 254.442 365.147C251.611 365.147 249.317 367.442 249.317 370.272Z" fill="#0175A7"/>
<path fill-rule="evenodd" clip-rule="evenodd" d="M290.321 363.298C290.321 344.663 275.147 329.553 256.427 329.553C253.567 329.553 250.838 329.841 248.224 330.402C247.469 323.496 244.915 316.879 240.765 311.23L224.275 288.771V270.838L209.527 279.284L222.586 308.617C222.586 308.617 231.535 324.453 225.721 338.316C219.158 353.962 211.605 362.126 211.605 362.126H182.275C176.292 362.126 170.71 359.156 167.361 354.219C163.867 349.067 160.836 341.971 163.294 334.698C167.683 321.71 180.549 315.755 180.549 315.755H109.78C109.78 315.755 97.4234 319.392 79.1502 350.664H128.516L140.302 367.049H210.944C210.944 367.049 214.742 368.319 220.718 363.42L290.321 363.298Z" fill="#0175A7"/>
<path fill-rule="evenodd" clip-rule="evenodd" d="M165.338 317.548C167.142 317.548 178.338 319.185 180.246 316.171C186.792 305.831 168.654 304.813 165.74 305.401C156.279 307.306 139.144 310.191 127.536 304.91C115.929 299.631 111.451 301.459 107.803 304.795C104.155 308.129 104.81 316.349 115.589 317.548H165.338Z" fill="#FFD600"/>
<path fill-rule="evenodd" clip-rule="evenodd" d="M116.054 389.554C105.97 389.554 97.7969 381.38 97.7969 371.297C97.7969 361.214 105.97 353.039 116.054 353.039C126.138 353.039 134.312 361.214 134.312 371.297C134.312 381.38 126.138 389.554 116.054 389.554ZM116.054 342.594C100.202 342.594 87.351 355.444 87.351 371.297C87.351 387.149 100.202 400 116.054 400C131.906 400 144.756 387.149 144.756 371.297C144.756 355.444 131.906 342.594 116.054 342.594Z" fill="#030320"/>
<path fill-rule="evenodd" clip-rule="evenodd" d="M134.313 369.637L117.001 371.041L132.665 363.537C132.755 363.496 132.791 363.389 132.75 363.3C132.706 363.211 132.6 363.174 132.512 363.216L116.732 370.774L128.063 357.443C128.127 357.369 128.118 357.255 128.043 357.193C127.968 357.128 127.855 357.138 127.793 357.213L116.416 370.595L121.746 353.753C121.776 353.66 121.723 353.559 121.629 353.53C121.535 353.499 121.435 353.552 121.405 353.645L116.149 370.258L114.751 353.009C114.743 352.91 114.657 352.838 114.558 352.846C114.46 352.853 114.386 352.94 114.395 353.037L115.799 370.35L108.295 354.686C108.252 354.596 108.145 354.56 108.057 354.601C107.968 354.644 107.931 354.75 107.974 354.839L115.532 370.618L102.201 359.287C102.125 359.224 102.013 359.232 101.948 359.307C101.885 359.383 101.895 359.495 101.97 359.559L115.048 370.675L98.6189 365.477C98.5252 365.447 98.4255 365.5 98.3954 365.594C98.3653 365.687 98.4182 365.787 98.5119 365.817L115.423 371.169L97.7666 372.6C97.668 372.607 97.5952 372.694 97.6024 372.793C97.6108 372.89 97.6971 372.964 97.7947 372.955L115.108 371.552L99.4418 379.055C99.3524 379.098 99.3162 379.205 99.3576 379.293C99.391 379.363 99.4625 379.4 99.5333 379.393C99.5552 379.391 99.5759 379.387 99.5966 379.377L115.375 371.82L104.044 385.15C103.981 385.224 103.989 385.337 104.065 385.403C104.103 385.433 104.149 385.448 104.194 385.444C104.241 385.44 104.284 385.419 104.317 385.38L115.542 372.175L110.344 388.603C110.313 388.697 110.365 388.796 110.459 388.828C110.481 388.835 110.505 388.837 110.528 388.835C110.597 388.831 110.661 388.781 110.684 388.71L115.94 372.1L117.357 389.585C117.365 389.683 117.451 389.755 117.549 389.749C117.648 389.739 117.721 389.655 117.713 389.554L116.31 372.243L123.813 387.91C123.846 387.978 123.916 388.015 123.987 388.01C124.009 388.008 124.029 388.002 124.051 387.992C124.139 387.949 124.176 387.842 124.134 387.754L116.576 371.975L129.908 383.305C129.945 383.338 129.992 383.352 130.038 383.348C130.083 383.344 130.126 383.324 130.159 383.287C130.222 383.211 130.213 383.098 130.137 383.035L116.627 371.549L133.469 376.88C133.492 376.886 133.514 376.89 133.537 376.888C133.607 376.882 133.672 376.835 133.692 376.763C133.723 376.669 133.672 376.568 133.577 376.54L117.266 371.377L134.342 369.993C134.44 369.984 134.513 369.899 134.505 369.801C134.498 369.702 134.411 369.63 134.313 369.637Z" fill="#004765"/>
<path fill-rule="evenodd" clip-rule="evenodd" d="M109.903 370.272C109.903 373.102 112.198 375.398 115.029 375.398C117.858 375.398 120.154 373.102 120.154 370.272C120.154 367.442 117.858 365.147 115.029 365.147C112.198 365.147 109.903 367.442 109.903 370.272Z" fill="#0175A7"/>
<path fill-rule="evenodd" clip-rule="evenodd" d="M77.1 365.147C77.1 365.147 81.2795 337.887 111.234 326.215C141.19 314.543 152.591 331.043 154.193 334.151C156.847 339.298 160.422 354.824 150.459 365.147H77.1Z" fill="#0994CF"/>
<path fill-rule="evenodd" clip-rule="evenodd" d="M284.17 349.728C284.18 349.968 284.09 350.084 283.955 350.177C283.762 350.308 283.584 350.507 283.372 350.553C282.401 350.76 282.097 351.551 281.714 352.287C281.347 352.988 280.84 353.052 280.492 352.348C280.031 351.41 279.444 350.717 278.429 350.318C277.878 350.102 277.882 349.422 278.446 349.205C279.465 348.809 280.061 348.133 280.506 347.173C280.816 346.498 281.384 346.556 281.697 347.231C282.064 348.02 282.433 348.749 283.397 349.007C283.748 349.102 284.088 349.368 284.17 349.728Z" fill="#FFD600"/>
<path fill-rule="evenodd" clip-rule="evenodd" d="M275.967 341.499C275.988 341.898 275.836 342.094 275.61 342.247C275.29 342.466 274.995 342.798 274.641 342.875C273.021 343.219 272.517 344.538 271.875 345.763C271.264 346.933 270.421 347.039 269.841 345.866C269.07 344.303 268.094 343.147 266.403 342.482C265.482 342.122 265.491 340.989 266.43 340.626C268.131 339.967 269.121 338.841 269.862 337.241C270.38 336.116 271.325 336.212 271.848 337.337C272.459 338.653 273.076 339.868 274.68 340.298C275.264 340.455 275.832 340.9 275.967 341.499Z" fill="#FFD600"/>
<path d="M209.393 285.585L196.606 292.1C194.588 293.128 192.119 292.326 191.091 290.308C190.063 288.29 190.865 285.821 192.883 284.793L205.67 278.278C207.687 277.25 210.157 278.052 211.185 280.07C212.213 282.087 211.411 284.557 209.393 285.585Z" fill="black"/>
<path d="M218.937 278.538L209.803 283.192C208.794 283.706 207.559 283.305 207.045 282.296C206.531 281.287 206.933 280.053 207.941 279.539L217.075 274.885C218.084 274.371 219.319 274.772 219.833 275.781C220.347 276.79 219.946 278.024 218.937 278.538Z" fill="black"/>
</g>
</svg>
