<svg width="91" height="91" viewBox="0 0 91 91" fill="none" xmlns="http://www.w3.org/2000/svg">
<mask id="mask0_1250_4352" style="mask-type:alpha" maskUnits="userSpaceOnUse" x="28" y="0" width="35" height="52">
<path fill-rule="evenodd" clip-rule="evenodd" d="M28.5383 0.464355H62.9059V51.5174H28.5383V0.464355Z" fill="white"/>
</mask>
<g mask="url(#mask0_1250_4352)">
<path fill-rule="evenodd" clip-rule="evenodd" d="M50.1001 15.2955C49.6062 12.9245 47.4666 11.6385 44.3838 11.7841C41.8031 12.8126 40.9577 14.7754 41.3788 17.359C41.7861 19.8577 43.5014 20.872 46.1057 21.1357C49.4976 19.8211 50.6883 18.1157 50.1001 15.2955ZM44.6271 49.676C41.7149 44.8288 38.7037 40.0473 35.7931 35.1989C33.8544 31.9688 31.6191 28.9184 30.0614 25.4583C28.3582 21.6749 28.1431 17.7205 29.1187 13.707C30.0643 9.81797 32.142 6.72102 35.1982 4.19654C39.3631 0.757197 44.1317 -0.11148 49.1245 0.803792C53.2149 1.5539 56.7154 3.76969 59.2902 7.30804C61.0476 9.72187 62.306 12.3695 62.7241 15.3658C63.3682 19.992 62.269 24.2568 59.965 28.2191C55.9661 35.0932 51.9685 41.9686 47.9309 48.8185C47.4063 49.7097 47.2777 50.8999 46.1178 51.5173C45.5328 50.9911 45.0619 50.399 44.6271 49.676Z" fill="#00B2FF"/>
</g>
<path fill-rule="evenodd" clip-rule="evenodd" d="M3.77134 38.9994C3.04676 39.1921 2.3266 39.3913 1.61056 39.5973C1.31447 39.6823 1.1419 39.9919 1.22536 40.2886C1.30859 40.5852 1.6165 40.7565 1.91259 40.6715C2.6216 40.4676 3.33474 40.2705 4.05205 40.0797C4.34969 40.0004 4.52834 39.6944 4.45085 39.3962C4.37326 39.0978 4.06898 38.9201 3.77134 38.9994ZM9.22617 37.6891C9.9542 37.5325 10.6855 37.382 11.421 37.2378C11.7233 37.1786 12.0151 37.376 12.0727 37.6788C12.1304 37.9815 11.932 38.2752 11.6298 38.3348C10.9011 38.4775 10.176 38.6267 9.45491 38.7819C9.15358 38.8468 8.85829 38.6548 8.7952 38.3531C8.73211 38.0513 8.92507 37.7542 9.22617 37.6891ZM19.1704 35.9625C18.4283 36.0621 17.6894 36.1673 16.954 36.2788C16.6494 36.3248 16.4387 36.6094 16.4829 36.9147C16.5274 37.2199 16.8101 37.4298 17.1148 37.3838C17.8439 37.2736 18.5769 37.1691 19.3126 37.0704C19.618 37.0294 19.8335 36.7482 19.7943 36.4422C19.7549 36.1365 19.4756 35.9218 19.1704 35.9625ZM24.7223 35.3303L25.1986 35.2863C25.7815 35.2333 26.3661 35.1838 26.9523 35.1375C27.2593 35.1132 27.5263 35.343 27.549 35.6507C27.5717 35.9584 27.3412 36.2274 27.0341 36.2517L26.1627 36.3232L24.821 36.4433C24.5143 36.472 24.244 36.2463 24.2165 35.9391C24.1894 35.6318 24.4157 35.3593 24.7223 35.3303ZM33.3632 34.7678L32.5348 34.8008C32.2274 34.8139 31.9873 35.0742 31.9988 35.3828C32.0102 35.691 32.2687 35.9304 32.5764 35.9174C33.1239 35.8943 33.6731 35.8739 34.2239 35.8565L34.7967 35.8391C35.1042 35.8303 35.3478 35.5733 35.3407 35.2646C35.3333 34.9562 35.0781 34.7132 34.7704 34.7219C34.5745 34.7276 34.3829 34.7332 34.194 34.7394L33.3632 34.7678ZM40.3429 34.5961L41.8641 34.5542C42.1027 34.5468 42.3356 34.5393 42.5646 34.5311C42.8723 34.5204 43.1291 34.7617 43.1384 35.0701C43.1478 35.3784 42.9059 35.6373 42.5982 35.6481L41.5287 35.6825C41.1589 35.6931 40.7734 35.7033 40.3643 35.7134C40.0566 35.7209 39.8024 35.4768 39.7964 35.1682C39.7905 34.8596 40.0352 34.6036 40.3429 34.5961ZM50.2885 33.943C49.5774 34.0376 48.8479 34.1206 48.0939 34.1923C47.7876 34.2215 47.5614 34.4943 47.5892 34.8015C47.6167 35.1087 47.8875 35.3343 48.1942 35.305C48.9613 35.2318 49.7049 35.1475 50.43 35.0511C50.7352 35.0103 50.951 34.7292 50.912 34.4234C50.873 34.1176 50.594 33.9024 50.2885 33.943ZM55.7052 32.8886C56.2886 32.7331 56.8611 32.5653 57.4237 32.384L57.7958 32.2611C58.0879 32.1622 58.4034 32.3193 58.5005 32.6116C58.5975 32.904 58.4395 33.2213 58.1476 33.32L57.7597 33.4482C57.1785 33.6352 56.5877 33.8085 55.9863 33.9687C55.6884 34.0479 55.3841 33.8702 55.3066 33.5721C55.2289 33.2739 55.4075 32.9678 55.7052 32.8886ZM64.6157 28.8077C64.0244 29.225 63.4097 29.6203 62.776 29.9914C62.5097 30.1473 62.4186 30.4898 62.5725 30.756C62.7268 31.0222 63.0676 31.1118 63.334 30.9558C63.9954 30.5689 64.6367 30.1565 65.254 29.7206C65.5063 29.5424 65.5679 29.1938 65.3916 28.9417C65.2152 28.6895 64.8679 28.6297 64.6157 28.8077ZM68.6859 25.1503C69.1664 24.5936 69.6094 24.019 70.0117 23.4287C70.1859 23.1732 70.5325 23.1068 70.7864 23.2801C71.0401 23.4533 71.105 23.8007 70.9308 24.0563C70.5039 24.6823 70.0352 25.2909 69.5264 25.8796C69.3245 26.1137 68.9725 26.14 68.7404 25.9384C68.5082 25.737 68.4837 25.3842 68.6859 25.1503ZM72.6463 16.8061C72.5625 17.391 72.4433 17.969 72.2897 18.54C72.2096 18.8382 72.3853 19.1441 72.6823 19.2232C72.9795 19.3024 73.2855 19.1246 73.3657 18.8261C73.531 18.2119 73.6592 17.5896 73.7493 16.9597C73.7931 16.6541 73.5818 16.3717 73.2771 16.3294C72.9727 16.2869 72.6902 16.5005 72.6463 16.8061Z" fill="#FE86D5" stroke="#FE86D5" stroke-width="1.2"/>
<path d="M86.6915 2.61084L68.6302 9.06127L73.7906 11.6414L81.5311 6.4811L76.3708 12.9315L84.1113 18.0919L86.6915 2.61084Z" fill="#FFB5E6" stroke="#FE86D5" stroke-width="2" stroke-linejoin="round"/>
<path d="M40.1789 80.202V65.7064H43.421V80.202H40.1789ZM34.5789 79.9341V65.9744H37.7138V79.9341H34.5789ZM31.7656 91C30.5509 91 29.4791 90.8036 28.5503 90.4106C27.6393 90.0355 26.9248 89.4817 26.4067 88.7493C25.9066 88.017 25.6565 87.1506 25.6565 86.1503C25.6565 85.1679 25.9066 84.3104 26.4067 83.5781C26.9248 82.8457 27.6393 82.283 28.5503 81.89C29.4791 81.4971 30.5509 81.3006 31.7656 81.3006H37.6067C38.8213 81.3006 39.8842 81.4971 40.7952 81.89C41.724 82.283 42.4385 82.8457 42.9387 83.5781C43.4567 84.3104 43.7157 85.1679 43.7157 86.1503C43.7157 87.1506 43.4567 88.017 42.9387 88.7493C42.4385 89.4817 41.724 90.0355 40.7952 90.4106C39.8842 90.8036 38.8213 91 37.6067 91H31.7656ZM37.1244 87.9455C38.1604 87.9455 38.9464 87.7847 39.4823 87.4632C40.0181 87.1417 40.2861 86.7041 40.2861 86.1503C40.2861 85.5787 40.0181 85.1321 39.4823 84.8106C38.9464 84.4891 38.1604 84.3283 37.1244 84.3283H32.2478C31.2118 84.3283 30.4258 84.4891 29.89 84.8106C29.3541 85.1321 29.0861 85.5787 29.0861 86.1503C29.0861 86.7041 29.3541 87.1417 29.89 87.4632C30.4258 87.7847 31.2118 87.9455 32.2478 87.9455H37.1244ZM27.2909 80.1484C25.7369 80.1484 24.4776 79.7912 23.513 79.0767C22.5662 78.3443 22.0929 77.2904 22.0929 75.915V75.6202C22.0929 74.2448 22.5662 73.1909 23.513 72.4585C24.4776 71.7262 25.7369 71.36 27.2909 71.36C28.8271 71.36 30.0597 71.7262 30.9885 72.4585C31.9352 73.1909 32.4086 74.2448 32.4086 75.6202V75.915C32.4086 77.2904 31.9352 78.3443 30.9885 79.0767C30.0597 79.7912 28.8271 80.1484 27.2909 80.1484ZM27.2909 77.4154C27.934 77.4154 28.4431 77.2725 28.8182 76.9867C29.1933 76.7009 29.3809 76.3169 29.3809 75.8346V75.7006C29.3809 75.2183 29.1844 74.8343 28.7914 74.5485C28.4163 74.2448 27.9161 74.093 27.2909 74.093C26.63 74.093 26.1031 74.2448 25.7101 74.5485C25.335 74.8343 25.1474 75.2183 25.1474 75.7006V75.8346C25.1474 76.3347 25.335 76.7277 25.7101 77.0135C26.0852 77.2815 26.6122 77.4154 27.2909 77.4154ZM21.2355 70.3686V67.6356H33.2392V70.3686H21.2355ZM25.5225 69.4576V65.4385H28.979V69.4576H25.5225ZM36.4277 74.4145V71.4136H41.3042V74.4145H36.4277Z" fill="#00B2FF"/>
<path d="M56.7441 80.3628V76.5044H60.1738V80.3628H56.7441ZM46.6696 81.89V79.1571H70.2483V81.89H46.6696ZM64.0857 91V86.445H49.4293V83.5513H67.5154V91H64.0857ZM49.6705 77.3618V70.449H63.8178V68.9753H49.5365V66.1887H67.2742V73.1552H53.1001V74.6288H67.7833V77.3618H49.6705Z" fill="#00B2FF"/>
</svg>
