<svg width="30" height="43" viewBox="0 0 30 43" fill="none" xmlns="http://www.w3.org/2000/svg">
<ellipse cx="14.9651" cy="14.9119" rx="5.67638" ry="5.65714" fill="white"/>
<path d="M14.75 41.3293C14.6751 41.2437 14.5897 41.1456 14.4945 41.0355C14.094 40.5722 13.521 39.8971 12.833 39.0524C11.4567 37.3622 9.62235 34.9954 7.78904 32.2874C5.95476 29.5779 4.12769 26.536 2.76073 23.4951C1.3908 20.4476 0.5 17.4381 0.5 14.7833C0.5 6.93406 6.8699 0.583313 14.75 0.583313C22.6301 0.583313 29 6.93406 29 14.7833C29 17.4381 28.1092 20.4476 26.7393 23.4951C25.3723 26.536 23.5452 29.5779 21.711 32.2874C19.8776 34.9954 18.0433 37.3622 16.667 39.0524C15.979 39.8971 15.406 40.5722 15.0055 41.0355C14.9103 41.1456 14.8249 41.2437 14.75 41.3293ZM8.98214 14.7833C8.98214 17.9591 11.5676 20.5333 14.75 20.5333C17.9324 20.5333 20.5179 17.9591 20.5179 14.7833C20.5179 11.6076 17.9324 9.03331 14.75 9.03331C11.5676 9.03331 8.98214 11.6076 8.98214 14.7833Z" fill="#009EE2" stroke="#006F9F"/>
</svg>
