<svg width="28" height="40" viewBox="0 0 28 40" fill="none" xmlns="http://www.w3.org/2000/svg">
<g clip-path="url(#clip0_1096_1185)">
<path fill-rule="evenodd" clip-rule="evenodd" d="M14 0.0769043C6.265 0.0769043 0 6.29428 0 13.9887C0 22.2328 6.02 25.3243 10.29 32.469C13.02 37.0377 12.215 39.9231 14 39.9231C15.855 39.9231 15.05 36.969 17.71 32.5377C21.63 25.7708 28 22.2671 28 13.9887C28 6.29428 21.735 0.0769043 14 0.0769043Z" fill="#0083BB"/>
<path fill-rule="evenodd" clip-rule="evenodd" d="M14.018 37.7692C13.767 37.7692 13.6954 37.6988 13.2651 36.3961C12.9067 35.2695 12.3689 33.5443 10.971 31.4319C9.60868 29.3548 8.17477 27.6647 6.81256 26.0453C3.62212 22.1725 1.07693 19.1446 1.07693 13.6876C1.11279 6.75174 6.88425 1.15381 14.018 1.15381C21.1516 1.15381 26.9231 6.78696 26.9231 13.6876C26.9231 19.1446 24.4138 22.2077 21.1875 26.0805C19.8612 27.7 18.4631 29.39 17.1008 31.4319C15.7386 33.5091 15.165 35.1991 14.8066 36.3257C14.3764 37.6988 14.2689 37.7692 14.018 37.7692Z" fill="#26A8E0"/>
<path fill-rule="evenodd" clip-rule="evenodd" d="M14 19.4616C16.9738 19.4616 19.3846 17.0508 19.3846 14.077C19.3846 11.1032 16.9738 8.69238 14 8.69238C11.0262 8.69238 8.61539 11.1032 8.61539 14.077C8.61539 17.0508 11.0262 19.4616 14 19.4616Z" fill="#0083BB"/>
</g>
<defs>
<clipPath id="clip0_1096_1185">
<rect width="28" height="40" fill="white"/>
</clipPath>
</defs>
</svg>
