<svg width="30" height="42" viewBox="0 0 30 42" fill="none" xmlns="http://www.w3.org/2000/svg">
<ellipse cx="14.9651" cy="14.8286" rx="5.67638" ry="5.65714" fill="white"/>
<path d="M14.75 41.246C14.6751 41.1604 14.5897 41.0623 14.4945 40.9522C14.094 40.4889 13.521 39.8138 12.833 38.969C11.4567 37.2789 9.62235 34.9121 7.78904 32.2041C5.95476 29.4946 4.12769 26.4527 2.76073 23.4118C1.3908 20.3643 0.5 17.3547 0.5 14.7C0.5 6.85074 6.8699 0.5 14.75 0.5C22.6301 0.5 29 6.85074 29 14.7C29 17.3547 28.1092 20.3643 26.7393 23.4118C25.3723 26.4527 23.5452 29.4946 21.711 32.2041C19.8776 34.9121 18.0433 37.2789 16.667 38.969C15.979 39.8138 15.406 40.4889 15.0055 40.9522C14.9103 41.0623 14.8249 41.1604 14.75 41.246ZM8.98214 14.7C8.98214 17.8757 11.5676 20.45 14.75 20.45C17.9324 20.45 20.5179 17.8757 20.5179 14.7C20.5179 11.5243 17.9324 8.95 14.75 8.95C11.5676 8.95 8.98214 11.5243 8.98214 14.7Z" fill="#DB4DAA" stroke="#CC1F91"/>
</svg>
