<svg viewBox="0 0 20 20" fill="none" xmlns="http://www.w3.org/2000/svg">
<path d="M6.00002 9.99935L11.3334 9.99935M14.6667 5.33268L11.3334 9.99324L14.6667 14.666M19.3334 3.33094C19.3334 4.80198 18.1387 5.99587 16.6667 5.99587C15.1947 5.99587 14 4.80198 14 3.33094C14 1.8599 15.1947 0.666016 16.6667 0.666016C18.1387 0.666016 19.3334 1.8599 19.3334 3.33094ZM19.3334 16.6556C19.3334 18.1266 18.1387 19.3205 16.6667 19.3205C15.1947 19.3205 14 18.1266 14 16.6556C14 15.1845 15.1947 13.9906 16.6667 13.9906C18.1387 13.9906 19.3334 15.1845 19.3334 16.6556ZM6.00002 9.99326C6.00002 11.4643 4.80535 12.6582 3.33335 12.6582C1.86135 12.6582 0.666687 11.4643 0.666687 9.99326C0.666687 8.52222 1.86135 7.32833 3.33335 7.32833C4.80535 7.32833 6.00002 8.52222 6.00002 9.99326Z" stroke="#282828" stroke-linecap="square"/>
</svg>
