<svg width="51" height="14" viewBox="0 0 51 14" fill="none" xmlns="http://www.w3.org/2000/svg">
<path d="M5.348 1.528H7.154C7.154 5.518 6.118 8.864 1.47 11.3L0.448 9.886C4.27 7.87 5.348 5.42 5.348 1.752V1.528ZM1.218 1.528H6.482V2.998H1.218V1.528ZM5.53 4.706V6.12L0.77 6.554L0.532 4.986L5.53 4.706ZM9.548 0.282H11.41V13.246H9.548V0.282ZM7.14 5.252H10.528V6.764H7.14V5.252ZM16.1269 7.884H17.9889V13.288H16.1269V7.884ZM20.6909 7.884H22.5529V13.288H20.6909V7.884ZM13.4389 7.506H25.1849V8.99H13.4389V7.506ZM14.7969 0.897999H23.7849V6.12H14.7969V0.897999ZM21.9509 2.354H16.6309V4.65H21.9509V2.354ZM35.2918 0.282H37.1538V13.246H35.2918V0.282ZM27.0038 1.514H28.8518V9.564H27.0038V1.514ZM27.0038 8.472H28.1518C30.0418 8.472 32.1418 8.332 34.2838 7.912L34.4938 9.452C32.2678 9.914 30.1258 10.054 28.1518 10.054H27.0038V8.472ZM39.8967 8.808H41.0167C43.2847 8.808 45.0207 8.766 47.0227 8.472L47.1907 9.942C45.1607 10.264 43.3267 10.32 41.0167 10.32H39.8967V8.808ZM39.8967 1.36H46.4627V2.872H41.7447V9.298H39.8967V1.36ZM41.3247 4.958H45.9167V6.414H41.3247V4.958ZM48.1287 0.282H50.0047V13.246H48.1287V0.282Z" fill="#006F9F"/>
</svg>
