<svg width="54" height="14" viewBox="0 0 54 14" fill="none" xmlns="http://www.w3.org/2000/svg">
<path d="M10.234 5.182H12.516V6.708H10.234V5.182ZM8.848 0.267999H10.724V13.232H8.848V0.267999ZM0.952 1.514H2.814V9.564H0.952V1.514ZM0.952 8.528H2.072C3.92 8.528 5.922 8.402 8.008 7.982L8.204 9.508C6.062 9.956 3.976 10.068 2.072 10.068H0.952V8.528ZM17.6109 1.136C19.6549 1.136 21.1809 2.466 21.1809 4.328C21.1809 6.204 19.6549 7.534 17.6109 7.534C15.5809 7.534 14.0269 6.204 14.0269 4.328C14.0269 2.466 15.5809 1.136 17.6109 1.136ZM17.6109 2.732C16.6169 2.732 15.8609 3.32 15.8609 4.328C15.8609 5.35 16.6169 5.938 17.6109 5.938C18.6049 5.938 19.3609 5.35 19.3609 4.328C19.3609 3.32 18.6049 2.732 17.6109 2.732ZM22.3989 0.267999H24.2609V13.274H22.3989V0.267999ZM13.7189 10.642L13.4949 9.144C15.7769 9.144 18.9549 9.116 21.6849 8.71L21.8249 10.054C19.0109 10.614 15.9589 10.642 13.7189 10.642ZM35.7232 2.928H39.2512V4.426H35.7232V2.928ZM35.7232 6.946H39.2512V8.444H35.7232V6.946ZM33.4832 1.178C35.4152 1.178 36.8292 2.97 36.8292 5.798C36.8292 8.654 35.4152 10.446 33.4832 10.446C31.5372 10.446 30.1372 8.654 30.1372 5.798C30.1372 2.97 31.5372 1.178 33.4832 1.178ZM33.4832 2.872C32.5452 2.872 31.9012 3.894 31.9012 5.798C31.9012 7.73 32.5452 8.766 33.4832 8.766C34.4352 8.766 35.0652 7.73 35.0652 5.798C35.0652 3.894 34.4352 2.872 33.4832 2.872ZM38.9572 0.267999H40.8052V13.274H38.9572V0.267999ZM52.0881 0.282H53.8521V8.402H52.0881V0.282ZM50.5061 3.474H52.5781V4.986H50.5061V3.474ZM49.4001 0.533999H51.1361V7.982H49.4001V0.533999ZM42.7501 1.612H49.0361V3.04H42.7501V1.612ZM45.9141 3.46C47.5381 3.46 48.7141 4.384 48.7141 5.728C48.7141 7.072 47.5381 7.982 45.9141 7.982C44.2901 7.982 43.1141 7.072 43.1141 5.728C43.1141 4.384 44.2901 3.46 45.9141 3.46ZM45.9141 4.79C45.2281 4.79 44.7661 5.126 44.7661 5.728C44.7661 6.33 45.2281 6.666 45.9141 6.666C46.5861 6.666 47.0481 6.33 47.0481 5.728C47.0481 5.126 46.5861 4.79 45.9141 4.79ZM44.9761 0.407999H46.8101V2.592H44.9761V0.407999ZM49.4701 8.542C52.2421 8.542 53.9221 9.382 53.9221 10.894C53.9221 12.392 52.2421 13.246 49.4701 13.246C46.6841 13.246 45.0041 12.392 45.0041 10.894C45.0041 9.382 46.6841 8.542 49.4701 8.542ZM49.4701 9.928C47.7341 9.928 46.8661 10.222 46.8661 10.894C46.8661 11.552 47.7341 11.86 49.4701 11.86C51.1921 11.86 52.0601 11.552 52.0601 10.894C52.0601 10.222 51.1921 9.928 49.4701 9.928Z" fill="#727272"/>
</svg>
