<svg width="854" height="250" viewBox="0 0 854 250" fill="none" xmlns="http://www.w3.org/2000/svg">
<path fill-rule="evenodd" clip-rule="evenodd" d="M149.644 65.877C151.355 59.1634 155.912 55.5287 162.224 53.6065C169.605 51.3581 176.665 48.2592 183.002 43.9122C187.542 40.7967 191.761 37.192 196.296 34.0182C201.382 30.4634 206.721 27.6275 212.817 26.1863C216.098 25.4141 218.905 26.852 221.856 27.526C225.544 28.3698 228.829 30.307 232.079 32.2075C237.834 35.5727 243.649 38.803 250.013 40.9199C250.651 41.1329 251.195 41.6272 251.673 41.9218C256.607 41.9218 261.395 42.0649 266.173 41.8768C270.149 41.7204 274.023 40.7002 278.084 40.7634C284.055 40.86 288.794 43.4179 292.75 47.3822C295.659 50.2979 297.987 53.8162 300.427 57.1729C302.296 59.7442 301.608 63.0644 303.342 65.8071C297.944 66.5826 154.485 66.5859 149.644 65.877Z" fill="#D8F3FF"/>
<path fill-rule="evenodd" clip-rule="evenodd" d="M763 84.703C764.013 80.8842 766.711 78.8167 770.448 77.7233C774.818 76.4444 778.998 74.6817 782.75 72.2091C785.438 70.4369 787.936 68.3865 790.621 66.5812C793.633 64.5591 796.794 62.946 800.403 62.1262C802.345 61.687 804.007 62.5049 805.754 62.8883C807.938 63.3682 809.883 64.4702 811.807 65.5512C815.215 67.4654 818.657 69.3028 822.425 70.507C822.803 70.6282 823.125 70.9093 823.408 71.0769C826.329 71.0769 829.164 71.1583 831.993 71.0513C834.347 70.9623 836.641 70.382 839.045 70.418C842.581 70.4729 845.386 71.9279 847.728 74.1828C849.451 75.8414 850.829 77.8426 852.274 79.752C853.38 81.2146 852.973 83.1032 854 84.6633C850.804 85.1044 765.866 85.1063 763 84.703Z" fill="#BBEBFF"/>
<path fill-rule="evenodd" clip-rule="evenodd" d="M762.658 48.6688H644.141C643.518 47.7918 643.651 47.0961 644.026 46.2157C645.588 42.5378 648.141 39.4972 650.513 36.3933C653.467 32.5273 656.709 28.856 660.342 25.5707C663.085 23.0927 666.182 21.3452 669.648 19.9739C672.934 18.6757 676.187 19.6477 678.779 19.2316C685.822 21.9044 692.206 24.7419 698.853 26.6758C702.12 27.6244 705.808 27.4014 709.401 26.3496C713.854 25.0465 717.958 23.0244 722.132 21.1538C725.502 19.6427 729.134 18.4028 732.577 18.5592C736.826 18.7506 740.863 20.6396 744.288 23.6668C750.138 28.8327 754.184 35.3399 758.396 41.7339C759.851 43.9407 761.632 45.9661 762.658 48.6688Z" fill="#D8F3FF"/>
<path fill-rule="evenodd" clip-rule="evenodd" d="M641.937 187.065V191.615C640.534 192.063 639.054 191.705 637.5 191.815C637.01 190.355 637.427 188.897 637.215 187.387C638.753 186.89 640.237 187.3 641.937 187.065ZM637.372 177.694H641.925V173.225H637.372V177.694ZM641.816 159.061C642.224 160.587 641.894 162.036 642.072 163.702H637.442C637.062 162.29 637.394 160.841 637.227 159.301C638.778 158.898 640.25 159.224 641.816 159.061ZM575.073 237.374H653.539C653.539 237.374 653.77 222.717 653.892 222.666V148.473H623.927V195.436H606.821V183.999H584.483V196.015H576.01C576.008 203.496 576.003 210.979 576 218.462L575.073 237.374Z" fill="#DEEAF0"/>
<path fill-rule="evenodd" clip-rule="evenodd" d="M570.32 128.31C564.181 128.31 558.043 128.31 551.905 128.31C550.048 128.314 548.192 128.317 546.265 128.321V146.85H557.904V151.104H546.263C546.262 152.535 546.262 153.966 546.261 155.398H557.888C558.179 156.776 558.005 158.082 558.021 159.653H546.266V163.474H557.889C558.175 164.856 558.009 166.162 558.023 167.729H546.262C546.262 169.159 546.261 170.591 546.261 172.023H557.888C558.178 173.4 558.005 174.705 558.021 176.277H546.266C546.252 184.474 546.239 192.67 546.224 201.069H528.332V207.091V216.199V231.875H575.98V218.091C575.983 210.487 575.987 202.884 575.99 195.279V128.31H570.32Z" fill="#BCCFD8"/>
<path fill-rule="evenodd" clip-rule="evenodd" d="M539.787 216.451C542.984 215.281 546.317 214.947 549.618 215.375C553.552 215.884 556.997 217.821 560.27 220.055C563.135 222.01 566 223.972 569.06 225.612C573.271 227.871 577.664 226.554 580.76 223.75C581.87 222.743 582.873 221.617 583.934 220.556C584.33 220.16 587.819 216.385 588.98 214.571C589.941 213.073 591.433 212.081 592.849 211.182C596.387 208.937 600.319 207.61 604.524 208.177C608.183 208.669 611.618 209.875 614.625 212.334C618.017 215.11 620.213 218.464 621.026 222.79C621.25 223.984 621.622 224.328 623.056 224.958C624.038 223.961 625.104 222.92 626.126 221.838C628.624 219.186 631.754 217.946 635.238 217.164C640.127 216.067 644.348 217.531 648.344 220.098C650.617 221.557 652.257 223.669 653.525 226.066C653.921 226.813 654.068 227.719 655.042 228.299C657.125 226.344 659.429 224.596 662.117 223.446C664.52 223.278 666.697 223.762 668.664 225.317C670.673 226.904 671.698 230.073 671.166 232.526C670.502 235.595 668.474 237.154 665.843 238.291H526.502C526.545 235.727 526.323 233.146 526.967 230.62C528.017 226.811 529.798 223.452 532.696 220.728C533.553 219.922 534.523 219.315 535.476 218.672C536.062 218.276 538.861 216.789 539.787 216.451Z" fill="#1FA77E"/>
<path fill-rule="evenodd" clip-rule="evenodd" d="M621.799 186.967C621.647 189.389 622.058 191.835 621.558 194.298C619.748 193.453 618.312 191.41 616.316 186.966L621.799 186.967Z" fill="#F4F5F6"/>
<path fill-rule="evenodd" clip-rule="evenodd" d="M643.811 230.958H629.541C627.927 228.889 626.274 226.71 624.56 224.585C621.12 220.32 618.225 215.604 614.317 211.728C609.908 207.355 604.568 204.607 598.681 202.974C595.734 202.156 592.624 201.759 589.599 201.953C585.975 202.188 582.337 202.779 578.896 204.109C572.693 206.509 567.568 210.319 563.467 215.684C560.461 219.617 557.623 223.692 554.291 227.369C553.297 228.466 552.5 229.745 551.605 230.951H537.497C537.538 230.34 537.562 229.794 537.953 229.201C544.518 219.189 551.015 209.129 557.588 199.12C558.691 197.438 559.548 195.602 560.846 194.034C561.389 193.378 561.702 192.492 561.598 191.555C580.803 191.552 600.008 191.55 619.215 191.549C620.884 195.117 623.18 198.303 625.254 201.624C629.082 207.758 633.148 213.736 636.986 219.867C638.833 222.814 640.665 225.802 642.742 228.61C643.265 229.319 643.792 230.018 643.811 230.958Z" fill="#DFBC93"/>
<path fill-rule="evenodd" clip-rule="evenodd" d="M585.135 13.0124C587.904 12.7617 590.673 12.7846 593.44 12.9972C593.423 18.7253 595.869 101.819 596.153 105.226C591.577 105.447 587.001 105.465 582.425 105.217C582.425 104.481 585.155 13.9061 585.135 13.0124Z" fill="#DFBC93"/>
<path fill-rule="evenodd" clip-rule="evenodd" d="M570.548 158.565C583.43 158.554 596.315 158.552 609.196 158.558C609.737 158.559 610.276 158.653 610.817 158.702V169.092C609.755 169.752 568.954 169.522 568.954 169.522C568.501 165.877 569.009 162.275 568.658 158.718C569.288 158.664 569.917 158.567 570.548 158.565Z" fill="#F4DDB0"/>
<path fill-rule="evenodd" clip-rule="evenodd" d="M571.644 169.553C574.619 169.553 577.595 169.554 580.572 169.554C579.512 173.713 578.197 177.781 576.315 181.622C575.897 182.474 575.754 183.283 575.815 184.185C572.821 184.197 569.827 184.207 566.835 184.217C566.758 182.752 567.119 181.459 567.823 180.14C569.303 177.364 569.981 174.206 571.485 171.417C571.754 170.919 571.601 170.181 571.644 169.553Z" fill="#DFBC93"/>
<path fill-rule="evenodd" clip-rule="evenodd" d="M599.819 169.583C602.636 169.573 605.455 169.563 608.274 169.553C609.173 171.984 609.931 174.486 611.019 176.827C611.861 178.639 612.307 180.632 613.437 182.314C613.649 182.628 613.529 183.182 613.562 183.626C610.622 184.571 607.609 184.1 604.621 184.095C604.572 183.66 604.61 183.188 604.458 182.796C603.615 180.613 602.695 178.46 601.862 176.273C601.032 174.095 600.328 171.869 599.819 169.583Z" fill="#DFBC93"/>
<path fill-rule="evenodd" clip-rule="evenodd" d="M586.071 6.69918V0.51371C588.004 -0.158911 589.676 -0.189706 591.57 0.532222V6.7264C589.732 7.52366 587.899 7.55327 586.071 6.69918Z" fill="#F9EFDD"/>
<path d="M593.403 5.49902H584.238V10.0815H593.403V5.49902Z" fill="#F4DDB0"/>
<path d="M596.153 9.16504H581.489V13.7475H596.153V9.16504Z" fill="#F9EFDD"/>
<path d="M602.568 104.481H576.906V111.813H602.568V104.481Z" fill="#F4DDB0"/>
<path d="M624.564 183.3H555.827V193.382H624.564V183.3Z" fill="#F4DDB0"/>
<path fill-rule="evenodd" clip-rule="evenodd" d="M582.405 111.813L575.99 155.526L582.923 155.806L589.279 111.813H582.405Z" fill="#DFBC93"/>
<path fill-rule="evenodd" clip-rule="evenodd" d="M596.153 155.806L589.737 111.813H596.67L603.026 155.806H596.153Z" fill="#DFBC93"/>
<path fill-rule="evenodd" clip-rule="evenodd" d="M565.537 155.526C564.723 157.14 565.072 158.596 565.034 160.184C566.659 160.258 568.113 160.324 569.569 160.388C570.179 160.338 570.788 160.246 571.4 160.246C583.887 160.235 596.374 160.233 608.862 160.239C609.384 160.24 609.908 160.327 610.433 160.374C611.762 160.041 613.178 160.647 614.483 160.037V155.539L565.537 155.526Z" fill="#F9EFDD"/>
<path d="M652.059 230.958H624.564V238.291H652.059V230.958Z" fill="#F9EFDD"/>
<path d="M557.66 230.958H530.165V238.291H557.66V230.958Z" fill="#F9EFDD"/>
<path fill-rule="evenodd" clip-rule="evenodd" d="M401.939 61.8976H378.399L370.845 69.9174V61.8976H350.921C345.929 61.8976 341.889 57.8675 341.889 52.8947V27.9888C341.889 23.0188 345.929 18.9873 350.921 18.9873H399.198C404.186 18.9873 408.229 23.0188 408.229 27.9888V52.8947C408.229 57.8675 406.927 61.8976 401.939 61.8976Z" fill="#FFEBF8"/>
<mask id="mask0_266_864" style="mask-type:alpha" maskUnits="userSpaceOnUse" x="341" y="17" width="68" height="53">
<path fill-rule="evenodd" clip-rule="evenodd" d="M341.039 17.5239H408.011V69.9178H341.039V17.5239Z" fill="white"/>
</mask>
<g mask="url(#mask0_266_864)">
<path fill-rule="evenodd" clip-rule="evenodd" d="M350.65 18.8942C346.098 18.8942 342.394 22.632 342.394 27.2278V52.1812C342.394 56.7769 346.098 60.5148 350.65 60.5148H370.357C370.733 60.5148 371.037 60.8214 371.037 61.1985V67.5041L377.337 60.7307C377.463 60.594 377.643 60.5148 377.829 60.5148H401.111C404.947 60.5148 406.657 57.9442 406.657 52.1812V27.2278C406.657 22.632 402.954 18.8942 398.401 18.8942H350.65ZM370.357 69.9178C370.275 69.9178 370.189 69.9034 370.107 69.8689C369.849 69.7653 369.681 69.5134 369.681 69.2327V61.885H350.65C345.351 61.885 341.039 57.5311 341.039 52.1812V27.2278C341.039 21.8778 345.351 17.5239 350.65 17.5239H398.401C403.701 17.5239 408.011 21.8778 408.011 27.2278V52.1812C408.011 54.5791 408.011 61.885 401.111 61.885H378.124L370.851 69.7005C370.72 69.843 370.542 69.9178 370.357 69.9178Z" fill="#FE86D5"/>
</g>
<path fill-rule="evenodd" clip-rule="evenodd" d="M348.693 35.3687C350.54 35.0736 352.255 34.8016 354.138 34.5008C356.405 36.2064 358.808 38.0142 361.082 39.7226C364.245 39.2174 367.135 38.7597 370.175 38.2747L365.009 31.7071C366.286 31.1674 367.349 31.2148 368.328 30.9615C369.472 30.6607 370.343 31.1774 371.299 31.6956C374.462 33.3925 377.672 35.0002 380.866 36.6396C384.409 36.0768 387.933 35.4968 391.464 34.9614C394.407 34.5166 397.641 36.2193 398.873 38.8C395.226 39.3786 391.586 39.9572 388.071 40.5171C387.32 41.2123 386.669 41.788 386.053 42.3983C385.624 42.8301 384.618 44.1543 384.384 44.399C381.488 47.3596 378.577 50.3073 375.668 53.2522C374.796 54.1302 373.911 54.9909 373.154 55.735C371.771 55.9552 370.55 56.1495 369.377 56.3366C369.068 55.9149 369.16 55.5954 369.334 55.2255C370.595 52.5397 371.305 49.6337 372.585 46.9465C372.704 46.6975 373.809 44.1572 374.052 42.7581C372.881 42.9453 371.716 43.1309 370.556 43.3152C365.687 44.0895 355.738 45.7404 355.738 45.7404C355.738 45.7404 349.518 36.6727 348.693 35.3687Z" fill="#FE86D5"/>
<path fill-rule="evenodd" clip-rule="evenodd" d="M356.134 45.6105C356.53 45.4809 368.141 43.7696 374.209 42.7549C373.966 44.2187 373.807 45.4061 372.735 46.1733C369.59 46.6871 366.441 47.1577 363.309 47.7306C362.16 47.9422 361.098 47.8846 360.036 47.4168C358.798 46.8713 356.788 46.7346 355.738 45.74C355.738 45.74 355.738 45.74 356.134 45.6105Z" fill="#CC1F91"/>
<path fill-rule="evenodd" clip-rule="evenodd" d="M388.103 40.2058C391.534 39.6531 395.088 39.0817 398.65 38.5117C399.394 39.217 399.683 40.1022 399.724 41.2781C394.879 42.0568 389.69 42.8311 384.893 43.604C384.893 43.604 387.369 40.8923 388.103 40.2058Z" fill="#CC1F91"/>
<path fill-rule="evenodd" clip-rule="evenodd" d="M415.716 19.3906C414.553 26.8017 407.592 31.8666 400.168 30.7065C392.746 29.5421 387.669 22.5945 388.832 15.1864C389.998 7.77681 396.962 2.7133 404.384 3.87483C411.808 5.03923 416.882 11.9839 415.716 19.3906Z" fill="#FE86D5"/>
<path fill-rule="evenodd" clip-rule="evenodd" d="M409.481 12.3452L411.565 14.6208L400.308 23.8597L392.854 16.5207L395.052 14.6208L400.308 19.7505L409.481 12.3452Z" fill="white"/>
<path fill-rule="evenodd" clip-rule="evenodd" d="M433.711 86.4121C397.635 86.4121 368.284 115.763 368.284 151.839C368.284 187.916 397.635 217.267 433.711 217.267C469.788 217.267 499.139 187.916 499.139 151.839C499.139 115.763 469.788 86.4121 433.711 86.4121ZM433.711 218.576C396.912 218.576 366.974 188.639 366.974 151.839C366.974 115.04 396.912 85.1025 433.711 85.1025C470.51 85.1025 500.448 115.04 500.448 151.839C500.448 188.639 470.51 218.576 433.711 218.576Z" fill="#2FC56E"/>
<path fill-rule="evenodd" clip-rule="evenodd" d="M408.172 84.6807C410.844 84.946 412.557 86.7053 414.21 88.5572C414.188 89.3603 414.213 90.1689 414.136 90.9667C414.015 92.2214 413.699 93.4053 412.854 94.4163C410.337 97.432 406.127 97.5463 403.511 94.5997C403.144 94.186 402.8 93.8155 402.288 93.6131C402.414 91.5729 401.954 89.4737 402.905 87.5174C404.345 85.9857 406.067 84.9775 408.172 84.6807Z" fill="#A50000"/>
<path fill-rule="evenodd" clip-rule="evenodd" d="M382.337 109.979C382.379 109.328 382.013 108.815 381.705 108.311C380.911 107.009 380.557 105.625 380.713 104.111C381.635 101.3 383.369 99.4309 386.473 99.1557C388.405 98.9102 389.764 100.302 391.407 100.883C391.636 101.459 391.858 102.039 392.097 102.613C393.142 105.132 392.749 107.465 390.968 109.28C389.111 111.17 386.937 111.61 384.371 110.56C383.707 110.29 383.078 109.955 382.337 109.979Z" fill="#A50000"/>
<path fill-rule="evenodd" clip-rule="evenodd" d="M486.502 105.662C486.175 107.196 485.152 108.419 484.627 109.865C484.369 109.941 484.103 109.996 483.855 110.099C479.456 111.919 477.932 111.503 474.8 107.525C474.422 105.295 474.403 103.01 475.767 100.905C476.224 100.874 476.599 100.675 476.988 100.431C481.199 97.7912 485.79 99.9336 486.505 104.861C486.543 105.121 486.505 105.395 486.502 105.662Z" fill="#A50000"/>
<path fill-rule="evenodd" clip-rule="evenodd" d="M439.572 86.1443C439.026 88.49 438.104 90.5047 435.546 91.3313C431.654 92.5877 428.375 90.4957 427.655 86.2225C427.818 81.9692 430.229 79.6199 434.207 79.8349C436.81 79.977 438.838 81.962 439.525 85.0704C439.601 85.414 439.559 85.7863 439.572 86.1443Z" fill="#A50000"/>
<path fill-rule="evenodd" clip-rule="evenodd" d="M464.403 93.3613C463.039 95.2456 461.483 96.6154 458.892 96.6469C456.094 96.6811 452.579 94.2167 452.999 90.7171C453.084 90.0093 452.996 89.2826 452.989 88.5639C454.225 87.3452 455.041 85.7766 456.887 85.0922C459.475 84.1316 461.553 84.9995 463.204 86.6787C464.552 88.0494 465.427 89.9104 464.553 92.0429C464.391 92.4377 464.447 92.9198 464.403 93.3613Z" fill="#A50000"/>
<path fill-rule="evenodd" clip-rule="evenodd" d="M375.089 120.835C376.877 122.618 378.447 124.514 378.354 127.626C378.102 128.163 377.804 129.126 377.248 129.904C375.951 131.72 374.289 132.961 371.869 132.736C371.256 132.679 370.629 132.77 370.009 132.792C368.931 131.601 367.853 130.409 366.638 129.067C366.638 128.277 366.631 127.386 366.64 126.495C366.674 123.052 368.667 121.001 372.126 120.868C373.112 120.83 374.101 120.845 375.089 120.835Z" fill="#A50000"/>
<path fill-rule="evenodd" clip-rule="evenodd" d="M370.079 171.505C370.97 171.535 371.861 171.601 372.752 171.592C375.471 171.561 376.999 173.14 378.017 175.428C379.023 177.691 378.305 179.591 376.755 181.3C376.216 181.895 375.635 182.452 375.073 183.026C373.148 183.375 371.319 183.704 369.428 182.513C365.745 180.194 365.431 175.241 368.966 172.645C369.409 172.32 369.808 171.982 370.079 171.505Z" fill="#A50000"/>
<path fill-rule="evenodd" clip-rule="evenodd" d="M367.722 146.208C370.779 146.499 372.789 148.17 373.142 150.712C373.605 154.043 372.316 156.395 369.39 157.534C368.812 157.758 368.216 157.932 367.629 158.13C366.143 157.607 364.53 157.557 363.304 156.221C361.568 154.324 360.71 152.353 361.786 149.884C362.803 147.55 364.516 146.162 367.183 146.217C367.363 146.221 367.542 146.212 367.722 146.208Z" fill="#A50000"/>
<path fill-rule="evenodd" clip-rule="evenodd" d="M411.171 228.836C411.953 224.447 413.284 220.196 414.416 215.893C416.22 208.903 417.992 201.905 419.834 194.923C422.886 183.354 425.978 171.794 429.072 160.235C429.215 159.702 429.334 159.196 429.173 158.316C427.076 156.81 426.302 154.485 426.567 151.674C426.719 150.062 427.315 148.681 428.338 147.555C430.704 144.952 435.158 144.521 437.923 146.579C439.979 148.111 441.179 150.209 441.129 152.797C441.077 155.362 439.053 157.076 437.908 159.204C440.756 169.952 443.615 180.644 446.417 191.353C448.315 198.608 450.131 205.884 451.986 213.151C452.185 213.931 452.404 214.704 452.613 215.481C453.575 219.263 454.528 223.046 455.505 226.825C455.684 227.515 455.901 228.19 455.837 228.915C454.244 228.889 452.652 228.863 451.059 228.838C449.943 224.833 448.828 220.827 447.712 216.822C446.664 211.931 445.242 207.139 443.973 202.307C440.776 190.134 437.741 177.92 434.595 165.734C434.416 165.041 434.384 164.15 433.461 163.542C432.252 167.79 431.025 171.862 429.938 175.972C427.084 186.761 424.264 197.56 421.491 208.371C420.782 211.133 419.634 213.795 419.506 216.697C418.897 217.5 418.746 218.473 418.47 219.407C417.543 222.551 417.072 225.824 415.81 228.875C414.264 228.861 412.717 228.85 411.171 228.836Z" fill="#E8E8E8"/>
<path fill-rule="evenodd" clip-rule="evenodd" d="M492.017 120.967C492.82 120.898 493.622 120.79 494.427 120.766C497.442 120.678 499.658 122.147 500.445 124.726C501.223 127.271 500.265 129.915 497.952 131.562C497.589 131.821 497.189 132.027 496.805 132.258C493.366 133.009 490.775 131.886 489.356 129.253C488.063 126.851 488.871 123.235 491.04 121.853C491.405 121.621 491.693 121.266 492.017 120.967Z" fill="#A50000"/>
<path fill-rule="evenodd" clip-rule="evenodd" d="M496.945 171.611C499.331 172.888 500.819 174.687 500.673 177.584C500.502 180.993 497.605 183.555 494.193 183.195C493.483 183.119 492.781 182.983 492.074 182.873C491.247 181.827 489.962 181.164 489.41 179.908C488.45 177.727 488.379 175.601 490.072 173.667C491.702 171.806 493.572 170.685 496.153 171.519C496.401 171.6 496.68 171.583 496.945 171.611Z" fill="#A50000"/>
<path fill-rule="evenodd" clip-rule="evenodd" d="M414.109 215.376C413.728 215.859 413.355 216.349 412.964 216.826C411.089 219.112 408.057 219.778 405.462 218.476C403.125 217.305 401.898 214.619 402.459 211.884C402.548 211.45 402.682 211.024 402.795 210.594C404.161 208.551 405.815 207.093 408.52 207.241C411.638 207.412 414.101 209.795 414.184 212.948C414.205 213.756 414.137 214.567 414.109 215.376Z" fill="#A50000"/>
<path fill-rule="evenodd" clip-rule="evenodd" d="M484.457 194.303C484.599 194.53 484.725 194.768 484.882 194.984C487.033 197.956 486.94 200.581 484.592 202.999C482.558 205.094 479.427 205.294 476.703 203.503C476.404 203.307 476.101 203.118 475.8 202.926C474.902 201.365 474.185 199.769 474.495 197.882C475.059 194.456 479.1 191.044 483.546 193.746C483.85 193.93 484.153 194.118 484.457 194.303Z" fill="#A50000"/>
<path fill-rule="evenodd" clip-rule="evenodd" d="M499.579 146.054C501.532 146.132 503.241 146.719 504.492 148.328C506.933 151.466 505.603 156.19 501.842 157.586C501.099 157.863 500.287 157.952 499.507 158.127C498.223 157.788 496.994 157.427 495.925 156.505C494.468 155.245 493.931 153.642 493.671 151.855C494.261 148.515 495.993 146.339 499.579 146.054Z" fill="#A50000"/>
<path fill-rule="evenodd" clip-rule="evenodd" d="M464.464 210.546C464.562 210.978 464.67 211.409 464.757 211.843C465.304 214.541 464.055 217.311 461.782 218.445C459.27 219.7 456.326 219.124 454.463 216.991C453.998 216.459 453.591 215.875 453.158 215.315C453.122 214.508 453.059 213.702 453.055 212.896C453.043 210.328 454.531 208.648 456.667 207.699C458.838 206.734 461.063 206.951 462.888 208.72C463.463 209.277 463.942 209.935 464.464 210.546Z" fill="#A50000"/>
<path fill-rule="evenodd" clip-rule="evenodd" d="M391.391 202.906C389.835 203.678 388.511 204.816 386.52 204.7C382.204 204.448 379.489 200.237 381.294 196.325C381.664 195.522 382.364 194.894 382.514 193.979C383.183 193.743 383.858 193.522 384.519 193.267C387.173 192.246 389.423 193.007 391.275 194.967C393.09 196.888 392.937 199.15 392.021 201.441C391.824 201.935 391.601 202.419 391.391 202.906Z" fill="#A50000"/>
<path fill-rule="evenodd" clip-rule="evenodd" d="M427.538 218.069C427.637 216.279 428.308 214.767 429.729 213.636C433.083 210.966 437.281 212.028 439.062 215.973C439.361 216.639 439.565 217.311 439.607 218.036C439.479 218.643 439.404 219.266 439.216 219.853C438.333 222.61 436.258 224.111 433.449 224.067C430.776 224.026 428.511 222.285 427.762 219.652C427.616 219.144 427.609 218.598 427.538 218.069Z" fill="#A50000"/>
<path fill-rule="evenodd" clip-rule="evenodd" d="M418.985 229.04H474.532V145.096H418.985V229.04Z" fill="#317091"/>
<path fill-rule="evenodd" clip-rule="evenodd" d="M418.985 190.704H474.532V176.484H418.985V190.704Z" fill="#4C839F"/>
<path fill-rule="evenodd" clip-rule="evenodd" d="M418.985 163.685H474.532V149.464H418.985V163.685Z" fill="#4C839F"/>
<path fill-rule="evenodd" clip-rule="evenodd" d="M418.985 151.031H474.532V145.095H418.985V151.031Z" fill="#B4D6E7"/>
<path fill-rule="evenodd" clip-rule="evenodd" d="M452.437 229.04H458.415V151.032H452.437V229.04Z" fill="#B4D6E7"/>
<path fill-rule="evenodd" clip-rule="evenodd" d="M434.424 229.04H440.402V151.032H434.424V229.04Z" fill="#B4D6E7"/>
<path fill-rule="evenodd" clip-rule="evenodd" d="M418.985 229.04H424.962V151.032H418.985V229.04Z" fill="#B4D6E7"/>
<path fill-rule="evenodd" clip-rule="evenodd" d="M468.555 229.04H474.532V151.032H468.555V229.04Z" fill="#B4D6E7"/>
<path fill-rule="evenodd" clip-rule="evenodd" d="M418.985 212.158H474.532V204.759H418.985V212.158Z" fill="#B4D6E7"/>
<path fill-rule="evenodd" clip-rule="evenodd" d="M347.715 232.727V226.194C348.241 225.565 348.755 225.747 349.2 225.656C359.07 225.653 368.94 225.649 378.811 225.646C379.568 225.927 380.593 225.18 381.144 226.254C381.116 232.128 381.085 238 381.058 243.874C381.052 245.045 381.057 246.217 381.057 247.514H347.715V232.727Z" fill="#FF6969"/>
<path fill-rule="evenodd" clip-rule="evenodd" d="M355.744 187.194H372.199V182.364H355.744V187.194ZM358.536 209.442H369.346V193.312H358.536V209.442ZM378.811 225.645C368.94 225.648 359.07 225.652 349.2 225.655C349.194 210.704 349.19 195.753 349.185 180.802C359.063 180.805 368.939 180.809 378.816 180.811C378.814 195.756 378.812 210.7 378.811 225.645Z" fill="#C50000"/>
<path fill-rule="evenodd" clip-rule="evenodd" d="M376.195 169.281C375.318 169.205 374.517 169.1 373.69 169.372C373.645 170.194 373.534 170.963 373.766 171.742H376.195V169.281ZM351.636 169.28C351.9 170.232 351.423 171.075 352.007 171.82C352.856 171.789 353.635 171.936 354.415 171.708V169.28H351.636ZM357.34 171.777C358.322 171.812 359.14 171.937 359.957 171.704C360.06 170.837 360.166 170.069 359.882 169.29H357.34V171.777ZM362.742 171.843C363.723 171.758 364.549 171.963 365.41 171.688C365.447 170.851 365.555 170.081 365.302 169.198C364.422 169.315 363.555 168.992 362.742 169.399V171.843ZM368.15 169.286C368.142 170.163 367.998 170.936 368.255 171.738C369.113 171.873 369.928 171.869 370.779 171.742V169.321C369.913 169.14 369.13 169.189 368.15 169.286ZM379.046 171.801C378.509 173.366 378.919 174.978 378.811 176.565C368.936 176.568 359.063 176.569 349.189 176.571C349.152 174.984 349.116 173.394 349.08 171.806C349.08 170.988 349.08 170.17 349.08 169.216H346.347C345.909 167.337 346.74 166.303 348.366 165.319C353.741 162.067 359.465 160.419 365.761 160.744C371.519 161.042 376.591 163.195 381.292 166.361C382.358 167.081 381.7 168.254 381.759 169.231H379.046V171.801Z" fill="#C50000"/>
<path fill-rule="evenodd" clip-rule="evenodd" d="M349.188 176.572C359.063 176.57 368.937 176.568 378.811 176.565C379.044 176.577 379.278 176.585 379.51 176.599C380.938 176.692 381.838 177.499 381.837 178.685C381.837 179.871 380.936 180.686 379.515 180.782C379.282 180.798 379.049 180.802 378.815 180.811C368.939 180.808 359.062 180.805 349.186 180.802C348.724 180.759 348.238 180.794 347.807 180.657C346.873 180.361 346.316 179.675 346.325 178.685C346.333 177.631 346.933 176.942 347.94 176.669C348.337 176.563 348.771 176.6 349.188 176.572Z" fill="#FF6969"/>
<path fill-rule="evenodd" clip-rule="evenodd" d="M358.536 209.441H369.346V193.312H358.536V209.441Z" fill="#FF6969"/>
<path fill-rule="evenodd" clip-rule="evenodd" d="M355.744 187.194H372.199V182.363H355.744V187.194Z" fill="#FF6969"/>
<path fill-rule="evenodd" clip-rule="evenodd" d="M368.151 169.286C369.13 169.189 369.913 169.14 370.779 169.321V171.742C369.928 171.869 369.113 171.872 368.255 171.738C367.999 170.936 368.142 170.163 368.151 169.286Z" fill="#282828"/>
<path fill-rule="evenodd" clip-rule="evenodd" d="M362.742 171.843V169.4C363.555 168.992 364.423 169.315 365.302 169.199C365.556 170.081 365.447 170.851 365.41 171.689C364.549 171.965 363.723 171.758 362.742 171.843Z" fill="#282828"/>
<path fill-rule="evenodd" clip-rule="evenodd" d="M357.34 171.778V169.291H359.882C360.166 170.07 360.06 170.838 359.957 171.705C359.14 171.938 358.322 171.813 357.34 171.778Z" fill="#282828"/>
<path fill-rule="evenodd" clip-rule="evenodd" d="M351.636 169.281H354.415V171.709C353.635 171.938 352.855 171.79 352.007 171.821C351.423 171.076 351.9 170.233 351.636 169.281Z" fill="#282828"/>
<path fill-rule="evenodd" clip-rule="evenodd" d="M376.195 169.281V171.742H373.766C373.534 170.963 373.645 170.194 373.69 169.372C374.517 169.1 375.318 169.205 376.195 169.281Z" fill="#282828"/>
<path fill-rule="evenodd" clip-rule="evenodd" d="M380.755 246.91C381.438 241.436 380.882 235.941 381.052 230.458C381.094 229.105 381.058 227.75 381.058 226.171C383.724 226.05 386.115 225.941 388.507 225.832C395.977 226.178 403.448 226.211 410.918 225.81C411.696 225.813 412.475 225.815 413.253 225.818C420.725 226.196 428.197 226.199 435.669 225.816C436.447 225.815 437.226 225.814 438.004 225.813C445.476 226.201 452.948 226.194 460.419 225.819C462.731 225.922 465.04 226.027 467.615 226.142C468.283 233.092 467.304 240.045 468.146 246.928C452.419 246.972 436.692 247.049 420.966 247.049C407.563 247.048 394.159 246.96 380.755 246.91Z" fill="#C8C0AD"/>
<path fill-rule="evenodd" clip-rule="evenodd" d="M410.919 225.81C403.448 226.211 395.977 226.178 388.507 225.831C388.9 218.79 393.087 214.718 399.91 214.74C406.424 214.761 410.57 218.93 410.919 225.81Z" fill="#F4C9F5"/>
<path fill-rule="evenodd" clip-rule="evenodd" d="M435.669 225.816C428.198 226.199 420.726 226.196 413.254 225.818C413.648 218.872 417.827 214.742 424.46 214.742C431.093 214.741 435.267 218.865 435.669 225.816Z" fill="#F4C9F5"/>
<path fill-rule="evenodd" clip-rule="evenodd" d="M460.419 225.819C452.948 226.194 445.475 226.201 438.004 225.813C438.405 218.847 442.538 214.744 449.157 214.741C455.602 214.737 460.026 219.09 460.419 225.819Z" fill="#2F779F"/>
<path fill-rule="evenodd" clip-rule="evenodd" d="M543.012 211.168C548.789 212.936 552.043 216.768 552.63 221.926C553.131 226.317 555.508 229.003 559.623 230.916C560.834 231.479 562.063 232.079 563.105 232.85C568.567 236.895 570.007 241.696 567.777 247.973C567.543 248.628 567.447 249.323 567.288 250C530.161 249.997 493.037 249.994 455.912 249.991C455.646 247.732 454.66 245.647 454.555 243.28C454.296 237.508 457.406 233.797 462.788 231.438C467.304 229.459 469.507 226.367 470.474 222.105C472.289 214.103 478.017 210.129 487.218 210.14C488.225 210.14 489.24 210.07 490.236 210.164C494.301 210.545 497.527 209.33 500.426 206.715C503.416 204.018 507.094 202.268 511.605 202.553C516.107 202.316 519.818 204 522.798 206.745C525.686 209.405 528.982 210.426 533.024 210.182C536.4 209.977 539.794 209.962 543.012 211.168Z" fill="#2FC56E"/>
<mask id="mask1_266_864" style="mask-type:alpha" maskUnits="userSpaceOnUse" x="614" y="7" width="61" height="61">
<path fill-rule="evenodd" clip-rule="evenodd" d="M614.339 7.41846H674.798V67.8868H614.339V7.41846Z" fill="white"/>
</mask>
<g mask="url(#mask1_266_864)">
<path fill-rule="evenodd" clip-rule="evenodd" d="M674.798 37.6518C674.798 54.3503 661.264 67.8862 644.568 67.8862C627.873 67.8862 614.339 54.3503 614.339 37.6518C614.339 20.9534 627.873 7.41748 644.568 7.41748C661.264 7.41748 674.798 20.9534 674.798 37.6518Z" fill="#FED600"/>
</g>
<path fill-rule="evenodd" clip-rule="evenodd" d="M687.434 68.7768C687.429 68.649 702.799 59.8737 689.436 43.3465C687.402 40.8297 677.96 30.8163 661.252 37.517C660.583 37.7848 659.841 38.0713 659.133 38.3422C658.268 38.6744 657.493 39.3959 656.748 39.9386C655.597 40.7755 654.468 41.6395 653.385 42.5584C651.236 44.3816 649.264 46.4347 647.776 48.82C646.172 51.3918 645.21 54.2864 644.907 57.2848C644.319 57.0487 643.722 56.8335 643.118 56.6392C642.383 56.4031 641.636 56.1971 640.883 56.0206C640.193 55.8596 639.417 55.6165 638.706 55.6258C638.043 55.6351 637.375 55.3556 636.715 55.2596C635.962 55.152 628.606 52.1443 619.766 56.2498C619.131 56.5447 618.593 56.9039 618.042 57.2841C616.949 58.0381 615.942 58.93 615.031 59.8737C614.182 60.7555 613.418 61.7162 612.772 62.7513C612.429 63.2971 612.12 63.8623 611.845 64.4437C611.593 64.974 611.226 65.5059 611.128 66.0896C611.049 66.5587 611.048 67.0395 611.128 67.5079C611.155 67.672 611.203 67.8485 611.342 67.9422C611.44 68.0072 611.561 68.0188 611.678 68.0274C612.079 68.0591 612.48 68.0916 612.881 68.1218C613.207 68.1474 613.569 68.1326 613.875 68.2666C614.067 68.3533 614.22 68.4857 614.432 68.5313C614.794 68.6072 615.208 68.5584 615.574 68.5592C617.217 68.5701 618.861 68.5794 620.503 68.5871C623.788 68.6057 627.075 68.6212 630.36 68.6351C633.646 68.649 636.93 68.6606 640.216 68.673C643.503 68.6831 646.788 68.6924 650.073 68.7017C653.361 68.7102 656.646 68.7172 659.932 68.7257C663.218 68.7311 666.503 68.738 669.788 68.7442C673.075 68.7512 676.361 68.7559 679.647 68.7613" fill="#EAF9FF"/>
<path fill-rule="evenodd" clip-rule="evenodd" d="M400.679 128.338C400.263 127.553 399.821 126.944 399.335 126.364C398.827 125.758 398.02 125.573 397.418 124.967C398.986 124.311 400.041 123.208 400.748 121.662C401.484 123.215 402.448 124.396 404.095 125.076C402.635 125.82 401.436 126.762 400.679 128.338Z" fill="#80D9FF"/>
<path fill-rule="evenodd" clip-rule="evenodd" d="M626.94 88.2791C626.524 87.4942 626.083 86.885 625.596 86.3048C625.088 85.6986 624.282 85.5139 623.68 84.9077C625.247 84.2523 626.302 83.1492 627.009 81.6025C627.746 83.1563 628.709 84.3366 630.356 85.0171C628.896 85.7608 627.697 86.7033 626.94 88.2791Z" fill="#BBEBFF"/>
<path fill-rule="evenodd" clip-rule="evenodd" d="M536.401 96.4393C535.8 95.3056 535.162 94.4256 534.46 93.5876C533.726 92.712 532.561 92.4452 531.691 91.5695C533.956 90.6228 535.48 89.0295 536.5 86.7954C537.564 89.0397 538.957 90.7446 541.335 91.7276C539.226 92.8018 537.494 94.1632 536.401 96.4393Z" fill="#80D9FF"/>
<path fill-rule="evenodd" clip-rule="evenodd" d="M604.719 120.92C604.488 120.484 604.243 120.146 603.973 119.823C603.691 119.487 603.242 119.384 602.908 119.047C603.779 118.683 604.365 118.07 604.757 117.211C605.167 118.074 605.702 118.73 606.617 119.108C605.806 119.521 605.14 120.045 604.719 120.92Z" fill="#BBEBFF"/>
<path fill-rule="evenodd" clip-rule="evenodd" d="M268.455 84.8853C269.313 87.1667 271.019 88.6042 272.567 89.244C272.275 89.5181 271.914 89.6246 271.609 89.8139C270.003 90.8057 269.261 91.627 268.364 93.377C267.809 92.5055 267.38 91.6152 266.673 90.9073C265.943 90.1777 265.09 89.666 264.082 89.1711C266.118 88.3636 267.577 87.0149 268.455 84.8853Z" fill="#80D9FF"/>
<path fill-rule="evenodd" clip-rule="evenodd" d="M152.011 133.91C151.368 132.683 150.684 131.732 149.93 130.824C149.145 129.876 147.896 129.587 146.965 128.64C149.391 127.616 151.025 125.892 152.116 123.476C153.258 125.902 154.749 127.749 157.297 128.812C155.038 129.974 153.182 131.447 152.011 133.91Z" fill="#BBEBFF"/>
<path fill-rule="evenodd" clip-rule="evenodd" d="M221.145 92.2172C222.718 92.0417 223.746 91.4334 223.973 89.9693C224.206 88.4549 223.681 87.3132 222.112 86.7325C220.248 86.6724 218.965 87.4414 218.685 88.8325C218.352 90.4869 219.085 91.4758 221.145 92.2172ZM221.376 109.989C220.67 109.638 220.583 108.941 220.259 108.425C217.764 104.451 215.294 100.462 212.824 96.4725C211.399 94.1723 210.702 91.6868 211.055 88.9755C211.285 87.2206 212.025 85.6608 213.068 84.2342C214.596 82.144 216.694 80.8199 219.16 80.3477C222.171 79.7719 225.061 80.2412 227.604 82.219C229.472 83.6712 230.752 85.4656 231.353 87.7342C231.975 90.0728 231.876 92.3888 230.876 94.615C229.961 96.6519 228.634 98.4552 227.488 100.36C225.767 103.219 223.984 106.041 222.262 108.9C222.006 109.327 221.725 109.677 221.376 109.989Z" fill="#00B2FF"/>
<path fill-rule="evenodd" clip-rule="evenodd" d="M221.145 92.2175C219.085 91.4761 218.352 90.4872 218.685 88.8328C218.965 87.4417 220.248 86.6726 222.112 86.7328C223.681 87.3135 224.206 88.4552 223.973 89.9696C223.746 91.4337 222.718 92.042 221.145 92.2175Z" fill="#FEFEFE"/>
<path fill-rule="evenodd" clip-rule="evenodd" d="M264.218 186.558C263.877 186.164 263.46 185.831 262.922 185.588C261.404 184.907 259.462 184.748 257.818 184.983C257.47 185.033 257.784 231.68 257.784 231.68C257.784 231.68 300.259 231.557 306.203 231.632C312.148 231.707 318.093 231.783 324.037 231.858C325.495 231.877 326.951 231.895 328.407 231.914C329.826 231.931 331.36 232.116 332.765 231.956C332.878 231.442 332.882 231.026 333.111 230.544C333.344 230.053 333.428 229.502 333.511 228.968C333.687 227.833 333.723 226.675 333.614 225.532C333.397 223.263 332.599 221.039 331.198 219.23C329.657 217.241 327.37 215.843 324.912 215.326C323.666 215.065 322.367 215.028 321.114 215.268C320.421 215.4 320.112 215.529 319.5 215.371C318.827 215.197 317.97 214.288 317.335 213.945C316.812 213.662 316.272 213.413 315.716 213.199C315.672 213.182 315.629 213.165 315.585 213.15C315.146 212.987 314.7 212.849 314.246 212.733C313.828 212.627 313.392 212.573 312.988 212.436C312.555 212.29 312.056 212.241 311.604 212.191C311.133 212.138 310.658 212.116 310.185 212.124C309.721 212.132 309.256 212.17 308.797 212.236C308.567 212.269 308.338 212.311 308.112 212.358C308.011 212.379 307.915 212.405 307.822 212.437C307.401 212.582 306.963 212.606 306.532 212.706C305.888 212.857 305.234 212.962 304.573 213C302.992 213.091 301.418 212.752 300.072 211.898C299.895 211.785 299.721 211.665 299.553 211.538C299.404 211.424 299.297 211.29 299.159 211.17C298.86 210.91 298.569 210.656 298.313 210.35C297.812 209.752 297.433 209.052 297.213 208.304C297.152 208.093 297.097 207.873 296.976 207.687C296.886 207.548 296.829 207.437 296.771 207.283C296.495 206.559 296.128 205.869 295.694 205.228C295.23 204.539 294.687 203.904 294.084 203.333C293.8 203.065 293.55 202.772 293.248 202.525C292.911 202.25 292.548 202.005 292.167 201.793C291.901 201.645 291.626 201.513 291.343 201.398C290.238 200.95 289.154 200.501 287.966 200.311C286.168 200.023 284.341 200.337 282.594 200.786C281.106 201.168 279.981 200.323 279.91 198.785C279.888 198.313 279.903 197.837 279.835 197.374C279.461 194.831 278.296 192.717 276.294 191.102C274.653 189.78 272.781 189.017 270.649 188.969C269.025 188.856 267.476 189.267 265.887 189.76C265.362 188.621 264.979 187.439 264.218 186.558Z" fill="#118A66"/>
<path fill-rule="evenodd" clip-rule="evenodd" d="M275.244 111.903C275.197 111.879 275.135 111.863 275.085 111.839C274.731 111.77 274.361 111.767 273.989 111.809C273.45 111.869 272.042 112.735 271.751 112.808C268.58 113.595 265.413 114.412 262.219 115.093C258.207 115.95 254.162 116.647 250.149 117.499C248.661 117.814 247.137 117.842 245.652 118.023C241.648 118.511 237.638 119.023 233.592 119.276C228.937 119.567 224.291 119.722 219.633 119.692C202.987 119.704 186.625 117.521 170.515 113.377C169.367 113.082 168.235 112.723 167.095 112.392C166.752 112.46 166.409 112.527 166.066 112.595C166.037 115.322 166.01 118.048 165.982 120.775C165.983 122.956 165.983 125.138 165.983 127.318C166.237 128.473 165.535 129.968 166.331 130.745C167.216 131.608 168.741 130.975 169.984 131.059C171.167 131.14 172.356 131.114 173.542 131.134C174.472 131.088 175.403 131.002 176.334 131.001C192.907 130.994 209.481 130.991 226.055 131.001C240.079 131.009 254.103 131.034 268.126 131.052C269.812 130.964 271.498 130.825 273.18 131.135C275.179 131.504 275.858 130.94 275.861 128.886C275.871 123.796 275.898 118.705 275.84 113.616C275.834 113.108 275.547 112.066 275.244 111.903Z" fill="#002943"/>
<path fill-rule="evenodd" clip-rule="evenodd" d="M250.842 150.173L250.857 141.321C254.599 141.316 258.341 141.308 262.084 141.3L262.093 150.081C258.343 150.111 254.593 150.142 250.842 150.173Z" fill="#002943"/>
<path fill-rule="evenodd" clip-rule="evenodd" d="M188.785 141.008L188.541 148.779C184.807 148.769 181.073 148.76 177.34 148.752L177.221 141.562C177.254 141.403 177.279 141.241 177.297 141.078C181.125 140.781 184.956 140.903 188.785 141.008Z" fill="#002943"/>
<path fill-rule="evenodd" clip-rule="evenodd" d="M275.835 152.771C275.821 150.912 275.803 150.896 273.826 150.884C270.941 150.867 268.055 150.833 265.171 150.887C261.514 150.957 262.198 150.423 262.093 147.787C258.343 147.806 254.593 147.825 250.842 147.844C250.839 148.015 250.836 148.185 250.834 148.355C250.803 151.048 251.126 150.877 248.415 150.878C241.519 150.879 234.624 150.886 227.729 150.875C225.413 150.871 225.336 150.782 225.315 148.409C225.299 146.708 225.325 145.005 225.312 143.303C225.307 142.584 225.571 142.171 226.345 142.215C226.43 142.22 226.515 142.215 226.6 142.215C234.686 142.243 242.771 142.272 250.857 142.3C254.598 142.296 258.341 142.291 262.084 142.286C263.684 142.26 265.285 142.192 266.884 142.224C267.853 142.242 268.235 141.897 268.216 140.911C268.156 137.625 268.152 134.339 268.126 131.053C254.103 131.035 240.079 131.01 226.055 131.002C209.482 130.992 192.908 130.995 176.335 131.002C175.404 131.002 174.473 131.089 173.543 131.136C173.547 132.754 173.551 134.373 173.556 135.992C173.581 137.585 173.661 139.18 173.609 140.77C173.574 141.85 173.926 142.309 175.043 142.23C175.788 142.177 176.545 142.296 177.297 142.338C181.125 142.129 184.956 142.214 188.785 142.289C189.004 142.28 189.223 142.271 189.442 142.261C194.328 142.298 199.214 142.333 204.101 142.369C207.395 142.392 210.688 142.414 213.983 142.438C213.994 144.726 213.944 147.018 214.04 149.304C214.093 150.549 213.643 150.897 212.442 150.886C206.422 150.836 200.401 150.857 194.381 150.855C193.109 150.855 191.838 150.882 190.568 150.859C188.748 150.825 188.747 150.81 188.618 149.059C188.587 148.637 188.566 148.215 188.541 147.793C184.807 147.786 181.073 147.78 177.339 147.775C177.128 150.87 177.126 150.811 173.957 150.884C171.295 150.944 168.615 150.547 165.969 151.137C165.961 153.294 165.952 155.45 165.943 157.607C165.975 157.86 166.028 158.112 166.035 158.365C166.143 162.024 166.142 162.026 169.932 162.029C171.973 162.031 174.015 162.053 176.055 162.017C176.934 162.001 177.284 162.349 177.237 163.22C177.182 164.237 177.19 165.258 177.171 166.277C177.167 168.475 177.164 170.673 177.161 172.871C177.157 175.748 177.153 178.626 177.149 181.504C177.14 189.148 177.33 196.791 177.375 204.436C177.387 206.347 177.6 211.122 177.588 213.035H187.865C187.865 213.035 188.51 179.143 188.646 170.395C188.69 167.575 188.959 164.728 189.003 161.925C195.509 161.951 202.015 162.002 208.521 161.99L245.96 162.099C247.153 162.103 248.348 162.139 249.538 162.085C250.561 162.039 250.846 162.509 250.838 163.458C250.79 169.505 250.237 211.923 250.742 212.861L261.863 213.098C261.863 213.098 262.174 169.568 262.145 163.804C262.137 162.344 262.444 162.114 264.018 162.099C267.243 162.07 270.468 162.117 273.692 162.092C275.698 162.076 275.815 161.947 275.835 159.898C275.859 157.522 275.854 155.146 275.835 152.771Z" fill="#D73E13"/>
<path fill-rule="evenodd" clip-rule="evenodd" d="M231.395 221.2C231.22 221.416 231.054 221.42 230.895 221.183C231.062 221.189 231.228 221.194 231.395 221.2Z" fill="#234F45"/>
<path fill-rule="evenodd" clip-rule="evenodd" d="M212.173 174.492C212.308 173.495 212.791 172.329 212.941 171.626C213.215 170.343 213.879 169.686 215.177 169.448C215.641 169.363 216.101 169.223 216.573 169.254C216.839 169.467 216.796 169.769 216.847 170.033C217.012 170.894 217.163 171.76 217.314 172.627C217.716 174.937 213.557 177.969 212.313 175.775C212.125 175.441 212.107 174.987 212.173 174.492Z" fill="#976940"/>
<mask id="mask2_266_864" style="mask-type:alpha" maskUnits="userSpaceOnUse" x="201" y="172" width="48" height="59">
<path fill-rule="evenodd" clip-rule="evenodd" d="M201.657 172.908H248.639V230.99H201.657V172.908Z" fill="white"/>
</mask>
<g mask="url(#mask2_266_864)">
<path fill-rule="evenodd" clip-rule="evenodd" d="M248.54 197.042C248.79 196.286 248.534 195.374 248.131 194.707C247.795 194.151 247.345 193.652 246.784 193.316C245.922 192.799 244.816 192.702 243.876 193.063C242.851 193.455 242.102 194.351 241.868 195.378C241.088 195.069 240.322 194.847 239.471 194.852C236.368 194.867 220.57 194.821 219.473 194.869C215.077 195.072 215.602 181.856 215.602 179.482C215.602 178.017 215.621 176.551 215.543 175.09C215.456 173.458 214.552 172.753 212.914 172.937C212.615 172.97 212.313 173.049 212.037 173.163C211.194 173.507 210.374 173.911 209.524 174.232C208.868 174.479 208.417 174.937 207.997 175.448C207.709 175.799 207.444 176.168 207.162 176.524C205.316 178.862 203.468 181.198 201.699 183.436C201.575 184.233 201.686 184.782 202.577 185.111C204.936 184.09 207.407 183.022 210.084 181.863C209.879 182.295 208.982 184.471 208.796 185.084C208.25 186.894 207.637 188.694 207.53 190.6C207.503 191.102 207.097 191.53 207.262 192.061C207.288 192.048 207.312 192.032 207.336 192.019C206.631 197.051 207.197 201.92 207.724 207.026C207.943 208.765 208.368 210.465 208.721 212.178C209.61 216.486 210.38 220.817 211.272 225.123C211.678 227.079 211.868 229.081 212.529 230.983C213.015 230.983 213.502 230.983 213.988 230.982C214.118 229.159 213.818 212.842 213.659 209.738H216.949C217.288 210.086 217.112 210.566 217.113 210.996C217.125 217.127 217.12 223.256 217.123 229.386C217.123 229.933 217.011 230.504 217.395 230.99C217.876 230.958 218.356 230.929 218.837 230.897C219.217 228.616 219.587 226.334 219.979 224.055C220.437 221.381 220.913 218.71 221.385 216.039C221.75 213.967 222.12 211.896 222.516 209.664C224.406 209.664 226.244 209.769 228.064 209.635C229.837 209.504 231.578 209.088 233.267 208.089C233.629 209.796 233.981 211.392 234.303 212.994C235.424 218.557 237.745 230.493 237.794 230.895C238.36 231.034 238.93 230.981 239.5 230.928C239.724 229.329 239.249 216.44 239.249 213.919C240.687 215.386 242.035 216.759 243.604 218.358V230.923C244.182 230.924 244.76 230.925 245.337 230.927C246.387 224.958 247.437 218.989 248.477 213.076C247.266 211.83 244.778 205.556 244.778 203.591C244.669 202.51 244.332 200.755 244.663 199.711C244.956 198.79 246.443 198.661 247.288 198.254C247.567 198.12 247.846 197.973 248.073 197.765C248.301 197.555 248.451 197.309 248.54 197.042Z" fill="#AA7B4C"/>
</g>
<path fill-rule="evenodd" clip-rule="evenodd" d="M208.795 185.084C208.941 184.459 206.957 187.323 205.822 188.77C203.477 191.761 202.951 195.309 203.324 198.949C203.795 203.566 206.034 205.962 207.724 207.026C207.494 204.801 206.172 196.374 208.795 185.084Z" fill="#D8AD8A"/>
<path fill-rule="evenodd" clip-rule="evenodd" d="M209.673 177.433C209.697 177.443 209.72 177.454 209.742 177.469C209.925 177.59 209.974 177.835 209.85 178.015C209.213 178.952 207.922 179.219 207.273 179.047C207.058 178.989 206.935 178.774 206.993 178.563C207.049 178.354 207.269 178.23 207.481 178.286C207.791 178.369 208.747 178.228 209.19 177.576C209.297 177.417 209.501 177.362 209.673 177.433Z" fill="#815733"/>
<mask id="mask3_266_864" style="mask-type:alpha" maskUnits="userSpaceOnUse" x="201" y="182" width="2" height="3">
<path fill-rule="evenodd" clip-rule="evenodd" d="M201.127 182.345H202.608V184.724H201.127V182.345Z" fill="white"/>
</mask>
<g mask="url(#mask3_266_864)">
<path fill-rule="evenodd" clip-rule="evenodd" d="M201.943 184.724C201.205 184.365 200.993 183.887 201.205 183.186C201.407 182.515 201.822 182.264 202.608 182.368C202.39 183.142 202.173 183.91 201.943 184.724Z" fill="#8B613B"/>
</g>
<path fill-rule="evenodd" clip-rule="evenodd" d="M214.581 172.838C215.276 172.103 216.354 171.431 216.889 170.944C217.867 170.056 218.794 169.901 219.99 170.452C220.417 170.649 220.872 170.799 221.24 171.093C221.331 171.42 221.119 171.642 221.006 171.885C220.635 172.683 220.249 173.475 219.863 174.266C218.834 176.378 213.665 176.462 213.942 173.963C213.985 173.583 214.235 173.202 214.581 172.838Z" fill="#AA7B4C"/>
<path fill-rule="evenodd" clip-rule="evenodd" d="M264.252 206.387C267.618 207.543 269.514 210.05 269.856 213.423C270.147 216.295 271.533 218.052 273.93 219.303C274.636 219.671 275.352 220.064 275.959 220.568C279.142 223.214 279.981 226.354 278.682 230.459C278.546 230.888 278.489 231.343 278.397 231.785C256.764 231.783 235.131 231.781 213.499 231.779C213.344 230.301 212.77 228.938 212.708 227.39C212.558 223.615 214.37 221.188 217.506 219.645C220.137 218.35 221.421 216.328 221.984 213.541C223.042 208.306 226.379 205.707 231.741 205.714C232.327 205.714 232.919 205.669 233.5 205.73C235.868 205.98 237.748 205.185 239.437 203.474C241.179 201.711 243.322 200.566 245.951 200.752C248.574 200.597 250.737 201.699 252.473 203.494C254.156 205.234 256.076 205.902 258.432 205.742C260.399 205.608 262.376 205.598 264.252 206.387Z" fill="#2FC56E"/>
<path fill-rule="evenodd" clip-rule="evenodd" d="M188.739 191.258C191.639 192.255 193.275 194.415 193.57 197.323C193.821 199.8 195.015 201.314 197.083 202.392C197.691 202.709 198.308 203.048 198.831 203.482C201.576 205.763 202.298 208.47 201.178 212.009C201.061 212.378 201.013 212.771 200.932 213.152C182.284 213.15 163.637 213.149 144.989 213.147C144.856 211.874 144.36 210.697 144.307 209.363C144.177 206.109 145.739 204.017 148.442 202.686C150.711 201.57 151.818 199.828 152.303 197.425C153.214 192.913 156.092 190.671 160.714 190.678C161.219 190.678 161.73 190.64 162.23 190.692C164.271 190.907 165.892 190.222 167.349 188.748C168.85 187.226 170.698 186.24 172.963 186.4C175.224 186.267 177.088 187.217 178.586 188.764C180.036 190.264 181.691 190.839 183.722 190.702C185.417 190.586 187.122 190.579 188.739 191.258Z" fill="#1FA77E"/>
<path fill-rule="evenodd" clip-rule="evenodd" d="M142.151 213.261C142.44 211.171 142.732 209.083 143.014 206.994C143.059 206.66 143.061 206.321 143.083 205.984C144.063 205.986 145.044 205.987 146.024 205.989C146.316 208.148 146.604 210.309 146.905 212.467C146.944 212.737 146.986 213 146.951 213.27C145.351 213.267 143.752 213.263 142.151 213.261Z" fill="#FA68B5"/>
<path fill-rule="evenodd" clip-rule="evenodd" d="M146.025 205.99C145.045 205.989 144.064 205.987 143.084 205.986H140.003C139.923 204.258 141.765 202.203 144.038 201.965C146.549 201.703 148.901 203.48 149.231 205.99H146.025Z" fill="#FFC0E1"/>
<path fill-rule="evenodd" clip-rule="evenodd" d="M329.634 107.761C330.188 109.234 331.29 110.162 332.289 110.575C332.099 110.751 331.868 110.82 331.67 110.943C330.634 111.582 330.155 112.113 329.575 113.242C329.217 112.68 328.94 112.104 328.485 111.648C328.014 111.176 327.462 110.847 326.813 110.527C328.126 110.006 329.068 109.136 329.634 107.761Z" fill="#BBEBFF"/>
<path fill-rule="evenodd" clip-rule="evenodd" d="M10.3547 74.8074C27.6495 57.7327 63.8865 67.0631 63.8865 89.2551C85.9438 78.6772 101.041 93.9063 103 99.5347C101.127 100.951 100.106 102.404 99.0749 102.413C70.913 102.587 42.7465 102.617 14.5823 102.673C2.21363 104.91 -8.80076 95.682 10.3547 74.8074Z" fill="#EAF9FF"/>
</svg>
