<svg width="390" height="424" viewBox="0 0 390 424" fill="none" xmlns="http://www.w3.org/2000/svg">
<path d="M134.857 9.448H140.905V12.016H134.857V9.448ZM134.857 16.336H140.905V18.904H134.857V16.336ZM131.017 6.448C134.329 6.448 136.753 9.52 136.753 14.368C136.753 19.264 134.329 22.336 131.017 22.336C127.681 22.336 125.281 19.264 125.281 14.368C125.281 9.52 127.681 6.448 131.017 6.448ZM131.017 9.352C129.409 9.352 128.305 11.104 128.305 14.368C128.305 17.68 129.409 19.456 131.017 19.456C132.649 19.456 133.729 17.68 133.729 14.368C133.729 11.104 132.649 9.352 131.017 9.352ZM140.401 4.888H143.569V27.184H140.401V4.888ZM162.911 4.912H165.935V18.832H162.911V4.912ZM160.199 10.384H163.751V12.976H160.199V10.384ZM158.303 5.344H161.279V18.112H158.303V5.344ZM146.903 7.192H157.679V9.64H146.903V7.192ZM152.327 10.36C155.111 10.36 157.127 11.944 157.127 14.248C157.127 16.552 155.111 18.112 152.327 18.112C149.543 18.112 147.527 16.552 147.527 14.248C147.527 11.944 149.543 10.36 152.327 10.36ZM152.327 12.64C151.151 12.64 150.359 13.216 150.359 14.248C150.359 15.28 151.151 15.856 152.327 15.856C153.479 15.856 154.271 15.28 154.271 14.248C154.271 13.216 153.479 12.64 152.327 12.64ZM150.719 5.128H153.863V8.872H150.719V5.128ZM158.423 19.072C163.175 19.072 166.055 20.512 166.055 23.104C166.055 25.672 163.175 27.136 158.423 27.136C153.647 27.136 150.767 25.672 150.767 23.104C150.767 20.512 153.647 19.072 158.423 19.072ZM158.423 21.448C155.447 21.448 153.959 21.952 153.959 23.104C153.959 24.232 155.447 24.76 158.423 24.76C161.375 24.76 162.863 24.232 162.863 23.104C162.863 21.952 161.375 21.448 158.423 21.448ZM176.229 6.376C179.733 6.376 182.349 8.656 182.349 11.848C182.349 15.064 179.733 17.344 176.229 17.344C172.749 17.344 170.085 15.064 170.085 11.848C170.085 8.656 172.749 6.376 176.229 6.376ZM176.229 9.112C174.525 9.112 173.229 10.12 173.229 11.848C173.229 13.6 174.525 14.608 176.229 14.608C177.933 14.608 179.229 13.6 179.229 11.848C179.229 10.12 177.933 9.112 176.229 9.112ZM184.437 4.888H187.629V27.184H184.437V4.888ZM169.557 22.672L169.173 20.104C173.085 20.104 178.533 20.056 183.213 19.36L183.453 21.664C178.629 22.624 173.397 22.672 169.557 22.672ZM204.408 19.144H207.576V27.16H204.408V19.144ZM195.984 18.208H216.072V20.8H195.984V18.208ZM204.384 8.896H207.192V9.424C207.192 13.144 203.976 16.384 198.096 17.08L196.992 14.584C202.008 14.008 204.384 11.488 204.384 9.424V8.896ZM204.792 8.896H207.6V9.424C207.6 11.44 210 14.008 214.992 14.584L213.864 17.08C208.008 16.408 204.792 13.048 204.792 9.424V8.896ZM197.784 7.456H214.248V9.976H197.784V7.456ZM204.408 4.96H207.576V8.32H204.408V4.96ZM228.958 10.288H234.286V12.856H228.958V10.288ZM221.494 19.096H236.638V27.16H233.446V21.592H221.494V19.096ZM233.446 4.912H236.638V18.064H233.446V4.912ZM224.182 6.064C227.494 6.064 230.038 8.368 230.038 11.56C230.038 14.776 227.494 17.08 224.182 17.08C220.846 17.08 218.302 14.776 218.302 11.56C218.302 8.368 220.846 6.064 224.182 6.064ZM224.182 8.776C222.574 8.776 221.35 9.808 221.35 11.56C221.35 13.336 222.574 14.368 224.182 14.368C225.766 14.368 226.99 13.336 226.99 11.56C226.99 9.808 225.766 8.776 224.182 8.776ZM250.172 5.224C255.236 5.224 258.212 6.568 258.212 9.016C258.212 11.464 255.236 12.808 250.172 12.808C245.084 12.808 242.132 11.464 242.132 9.016C242.132 6.568 245.084 5.224 250.172 5.224ZM250.172 7.552C246.956 7.552 245.444 8.032 245.444 9.016C245.444 10.048 246.956 10.48 250.172 10.48C253.388 10.48 254.9 10.048 254.9 9.016C254.9 8.032 253.388 7.552 250.172 7.552ZM240.116 13.84H260.204V16.36H240.116V13.84ZM242.42 17.608H257.78V23.32H245.588V25.288H242.444V21.112H254.636V19.984H242.42V17.608ZM242.444 24.592H258.356V26.992H242.444V24.592ZM117.147 36.912H120.339V50.304H117.147V36.912ZM119.451 42.384H123.291V45H119.451V42.384ZM105.891 51.264H120.339V58.896H105.891V51.264ZM117.219 53.784H109.035V56.376H117.219V53.784ZM102.843 38.904H115.923V41.424H102.843V38.904ZM109.395 42.072C112.611 42.072 114.843 43.704 114.843 46.08C114.843 48.48 112.611 50.064 109.395 50.064C106.155 50.064 103.923 48.48 103.923 46.08C103.923 43.704 106.155 42.072 109.395 42.072ZM109.395 44.448C107.955 44.448 106.995 45 106.995 46.08C106.995 47.16 107.955 47.736 109.395 47.736C110.811 47.736 111.795 47.16 111.795 46.08C111.795 45 110.811 44.448 109.395 44.448ZM107.787 36.768H110.979V40.272H107.787V36.768ZM127.633 39.432H130.321C130.321 45.072 129.793 50.04 127.033 54.456L124.585 53.136C127.177 49.056 127.633 45.192 127.633 39.696V39.432ZM125.305 39.432H129.337V42H125.305V39.432ZM132.601 39.432H135.289C135.289 45.24 134.953 50.784 131.977 55.536L129.529 54.192C132.361 49.776 132.601 45.264 132.601 39.72V39.432ZM130.993 39.432H134.401V42H130.993V39.432ZM141.169 36.912H144.217V59.136H141.169V36.912ZM134.209 45.24H137.353V47.808H134.209V45.24ZM136.873 37.392H139.849V58.152H136.873V37.392ZM195.936 40.248H206.568V42.792H195.936V40.248ZM201.288 43.776C204.12 43.776 206.16 45.96 206.16 49.08C206.16 52.176 204.12 54.36 201.288 54.36C198.48 54.36 196.416 52.176 196.416 49.08C196.416 45.96 198.48 43.776 201.288 43.776ZM201.288 46.44C200.088 46.44 199.248 47.4 199.248 49.08C199.248 50.76 200.088 51.696 201.288 51.696C202.488 51.696 203.352 50.76 203.352 49.08C203.352 47.4 202.488 46.44 201.288 46.44ZM212.016 36.912H215.064V59.136H212.016V36.912ZM209.352 45.936H213.024V48.504H209.352V45.936ZM207.36 37.32H210.336V58.2H207.36V37.32ZM199.728 37.512H202.872V41.856H199.728V37.512ZM222.867 53.976H242.979V56.568H222.867V53.976ZM231.291 49.224H234.483V54.6H231.291V49.224ZM224.979 38.328H228.147V41.736H237.627V38.328H240.795V49.896H224.979V38.328ZM228.147 44.232V47.352H237.627V44.232H228.147ZM253.681 44.376H257.353V46.968H253.681V44.376ZM248.929 38.832H251.377V42.576C251.377 47.616 249.985 52.536 246.433 54.72L244.513 52.32C247.777 50.304 248.929 46.344 248.929 42.576V38.832ZM249.625 38.832H252.025V42.432C252.025 46.056 252.961 49.752 255.985 51.72L254.257 54.216C250.729 52.032 249.625 47.232 249.625 42.432V38.832ZM260.977 36.912H264.025V59.136H260.977V36.912ZM256.465 37.248H259.441V58.128H256.465V37.248ZM271.439 48.192H274.607V54.432H271.439V48.192ZM279.503 48.192H282.695V54.432H279.503V48.192ZM267.023 53.976H287.135V56.568H267.023V53.976ZM277.055 37.992C281.831 37.992 285.359 40.344 285.359 43.968C285.359 47.592 281.831 49.92 277.055 49.92C272.255 49.92 268.751 47.592 268.751 43.968C268.751 40.344 272.255 37.992 277.055 37.992ZM277.055 40.488C273.959 40.488 271.895 41.76 271.895 43.968C271.895 46.152 273.959 47.448 277.055 47.448C280.151 47.448 282.215 46.152 282.215 43.968C282.215 41.76 280.151 40.488 277.055 40.488Z" fill="black"/>
<path d="M161.74 50.736C166.54 50.736 169.612 52.32 169.612 54.96C169.612 57.552 166.54 59.136 161.74 59.136C156.94 59.136 153.868 57.552 153.868 54.96C153.868 52.32 156.94 50.736 161.74 50.736ZM161.74 53.136C158.74 53.136 157.036 53.76 157.036 54.96C157.036 56.136 158.74 56.736 161.74 56.736C164.74 56.736 166.444 56.136 166.444 54.96C166.444 53.76 164.74 53.136 161.74 53.136ZM154.108 37.896H168.172V40.416H154.108V37.896ZM151.852 46.824H171.868V49.368H151.852V46.824ZM159.268 42.96H162.436V47.472H159.268V42.96ZM166.324 37.896H169.492V39.72C169.492 41.472 169.492 43.368 168.892 45.672L165.724 45.336C166.324 43.056 166.324 41.448 166.324 39.72V37.896ZM178.418 50.952H181.682V59.136H178.418V50.952ZM186.098 50.952H189.362V59.136H186.098V50.952ZM173.882 49.272H194.018V51.84H173.882V49.272ZM183.89 37.656C188.642 37.656 191.93 39.6 191.93 42.648C191.93 45.648 188.642 47.592 183.89 47.592C179.162 47.592 175.874 45.648 175.874 42.648C175.874 39.6 179.162 37.656 183.89 37.656ZM183.89 40.2C180.986 40.2 179.138 41.064 179.138 42.648C179.138 44.208 180.986 45.072 183.89 45.072C186.818 45.072 188.642 44.208 188.642 42.648C188.642 41.064 186.818 40.2 183.89 40.2Z" fill="#00B2FF"/>
<path fill-rule="evenodd" clip-rule="evenodd" d="M136.686 164.348C136.453 165.055 136.236 165.763 135.844 166.416C135.25 167.404 134.4 168.001 133.269 168.127C130.884 168.392 128.921 167.52 127.365 165.753C126.541 164.819 126.427 163.711 126.903 162.551C127.026 162.261 127.282 162.018 127.235 161.667C129.772 161.016 132.188 160.016 134.625 159.083L136.83 162.177C136.783 162.9 136.735 163.622 136.686 164.348Z" fill="#FF71CE"/>
<path fill-rule="evenodd" clip-rule="evenodd" d="M144.446 148.147C144.07 149.353 143.597 150.502 142.641 151.364C142.661 151.042 142.699 150.719 142.703 150.398C142.72 148.755 141.271 147.722 139.783 148.321C139.076 148.605 138.5 149.049 138.093 149.74C137.644 150.499 137.386 151.313 137.176 152.162C136.826 153.583 136.893 155.044 136.735 156.486C135.833 155.635 135.117 154.627 134.421 153.61C134.07 151.503 134.371 149.488 135.232 147.55C135.76 146.373 136.495 145.362 137.497 144.567C139.804 142.734 142.583 143.312 144.004 145.912C144.073 146.037 144.158 146.153 144.233 146.272L144.248 146.266C144.196 146.404 144.237 146.515 144.353 146.595L144.347 146.559C144.282 146.704 144.324 146.832 144.413 146.952C144.363 147.083 144.363 147.21 144.46 147.323C144.397 147.447 144.379 147.567 144.485 147.678L144.484 147.645C144.394 147.812 144.339 147.979 144.456 148.158L144.446 148.147Z" fill="#FF71CE"/>
<path fill-rule="evenodd" clip-rule="evenodd" d="M123.159 153.224C125.803 152.289 128.413 152.391 130.984 153.511L131.044 153.584L131.131 153.561C131.46 153.748 131.786 153.933 132.113 154.117C132.265 154.459 132.68 154.547 132.843 154.912C133.294 155.914 133.796 156.89 134.278 157.878C133.832 157.702 133.373 157.549 132.94 157.347C131.551 156.697 130.09 156.293 128.573 156.161C127.446 156.063 126.365 156.278 125.437 157.023C124.268 157.963 123.974 160.087 126.081 160.942C126.323 161.038 126.557 161.145 126.795 161.248C126.103 161.527 125.379 161.656 124.646 161.678C122.782 161.734 121.242 160.732 120.56 159.056C119.871 157.357 120.324 155.502 121.714 154.226C122.154 153.82 122.697 153.584 123.159 153.224Z" fill="#FF71CE"/>
<path fill-rule="evenodd" clip-rule="evenodd" d="M126.348 161.68C126.11 161.574 125.874 161.466 125.634 161.369C123.512 160.498 123.811 158.341 124.985 157.384C125.918 156.626 127.007 156.409 128.142 156.509C129.667 156.643 131.137 157.054 132.531 157.712C132.97 157.92 133.429 158.073 133.88 158.254C134.089 158.436 134.182 158.689 134.277 158.945C131.744 159.933 129.235 160.987 126.602 161.679C126.518 161.678 126.433 161.679 126.348 161.68Z" fill="#94196A"/>
<path fill-rule="evenodd" clip-rule="evenodd" d="M139.25 164.201C139.154 164.226 139.059 164.253 138.963 164.278C138.253 163.95 137.693 163.448 137.203 162.855C136.961 162.563 136.668 162.318 136.397 162.05L134.231 159.019C134.144 158.782 134.056 158.549 133.855 158.376C133.396 157.446 132.916 156.525 132.49 155.582C132.331 155.237 131.937 155.155 131.793 154.835C132.041 154.86 132.195 154.818 132.132 154.504C131.944 153.578 131.276 152.966 130.604 152.43C129.628 151.654 128.518 151.121 127.19 151.554C126.936 151.637 126.667 151.617 126.626 151.288C126.593 151.006 126.773 150.812 127.062 150.812C128.276 150.803 129.445 150.98 130.463 151.695C130.751 151.896 130.991 152.155 131.345 152.241C131.604 152.026 131.422 151.786 131.376 151.57C131.103 150.256 131.34 149.007 131.845 147.787C131.967 147.486 132.173 147.292 132.488 147.455C132.859 147.649 132.693 147.931 132.487 148.142C131.322 149.3 131.707 152.663 133.265 153.849C133.413 153.959 133.565 154.022 133.752 154.001C134.443 154.978 135.149 155.942 136.036 156.757L136.034 156.735C135.936 156.854 136.018 156.922 136.105 156.994C136.182 157.22 136.326 157.395 136.502 157.549C137.158 158.645 137.813 159.733 138.464 160.824C138.578 161.415 138.904 161.925 139.119 162.475C139.34 163.037 139.511 163.604 139.25 164.201Z" fill="#8A1D65"/>
<path fill-rule="evenodd" clip-rule="evenodd" d="M138.913 160.771C138.22 159.585 137.527 158.396 136.83 157.206C138.755 155.343 140.642 153.442 142.372 151.385C142.67 151.357 142.967 151.313 143.267 151.297C144.536 151.229 145.507 151.748 146.181 152.848C147.467 154.952 147.287 158.351 145.765 160.287C145.153 161.065 144.353 161.514 143.378 161.635C142.237 161.779 141.144 161.569 140.072 161.195C139.687 161.059 139.299 160.911 138.913 160.771Z" fill="#FF71CE"/>
<path fill-rule="evenodd" clip-rule="evenodd" d="M141.708 152.24C139.944 154.196 138.021 156.006 136.062 157.784C135.871 157.624 135.712 157.441 135.629 157.208C135.605 157.117 135.58 157.03 135.555 156.941L135.558 156.965C135.728 155.533 135.655 154.085 136.03 152.674C136.253 151.833 136.53 151.025 137.01 150.272C137.444 149.587 138.059 149.146 138.815 148.865C140.405 148.269 141.952 149.294 141.935 150.923C141.93 151.243 141.89 151.564 141.868 151.883C141.813 152.003 141.762 152.122 141.708 152.24Z" fill="#94196A"/>
<path fill-rule="evenodd" clip-rule="evenodd" d="M121.518 368.712C121.545 369.268 121.337 369.542 121.029 369.755C120.592 370.06 120.186 370.522 119.702 370.629C117.484 371.107 116.792 372.946 115.914 374.653C115.077 376.284 113.925 376.432 113.131 374.797C112.073 372.619 110.739 371.006 108.422 370.082C107.161 369.579 107.173 368.001 108.459 367.495C110.788 366.577 112.147 365.006 113.157 362.78C113.867 361.209 115.163 361.344 115.878 362.912C116.715 364.745 117.558 366.439 119.754 367.039C120.556 367.256 121.333 367.876 121.518 368.712Z" fill="#FBCF1F"/>
<path fill-rule="evenodd" clip-rule="evenodd" d="M118.967 181.808C118.967 189.339 112.969 195.444 105.569 195.444C98.1703 195.444 92.1724 189.339 92.1724 181.808C92.1724 174.277 98.1703 168.173 105.569 168.173C112.969 168.173 118.967 174.277 118.967 181.808Z" fill="#EAF9FF"/>
<path fill-rule="evenodd" clip-rule="evenodd" d="M307.802 142.752C307.83 143.308 307.62 143.581 307.314 143.795C306.875 144.1 306.468 144.562 305.986 144.668C303.767 145.148 303.078 146.985 302.199 148.694C301.363 150.324 300.208 150.472 299.416 148.837C298.358 146.659 297.021 145.048 294.704 144.122C293.446 143.62 293.455 142.042 294.742 141.536C297.071 140.617 298.429 139.047 299.441 136.82C300.151 135.251 301.447 135.384 302.161 136.952C302.997 138.785 303.842 140.478 306.036 141.078C306.838 141.297 307.617 141.916 307.802 142.752Z" fill="#FBCF1F"/>
<mask id="mask0_666_1029" style="mask-type:alpha" maskUnits="userSpaceOnUse" x="321" y="241" width="9" height="10">
<path fill-rule="evenodd" clip-rule="evenodd" d="M321.069 241.077H330V250.996H321.069V241.077Z" fill="white"/>
</mask>
<g mask="url(#mask0_666_1029)">
<path fill-rule="evenodd" clip-rule="evenodd" d="M325.536 241.72C323.388 241.72 321.648 243.655 321.648 246.036C321.648 248.418 323.388 250.354 325.536 250.354C327.68 250.354 329.421 248.418 329.421 246.036C329.421 243.655 327.68 241.72 325.536 241.72ZM325.536 250.996C323.072 250.996 321.069 248.773 321.069 246.036C321.069 243.302 323.072 241.077 325.536 241.077C327.996 241.077 330 243.302 330 246.036C330 248.773 327.996 250.996 325.536 250.996Z" fill="#80D9FF"/>
</g>
<path fill-rule="evenodd" clip-rule="evenodd" d="M152.314 178.921C154.107 165.994 159.812 153.323 169.7 142.452C193.892 115.87 236.215 109.69 268.08 128.083C305.989 149.97 315.343 196.54 289.548 229.421C288.205 231.133 286.79 232.772 285.319 234.34C280.342 239.631 281.221 247.692 287.357 251.805C328.92 279.727 338.102 333.582 307.799 371.994C278.535 409.089 221.885 418.262 180.797 392.495C155.522 376.643 141.478 351.49 140.102 325.513C139.23 309.04 129.106 294.305 113.416 286.481C110.419 284.988 107.533 283.184 104.805 281.062C86.1685 266.558 81.568 241.157 94.1196 221.844C102.391 209.119 115.924 201.521 130.341 199.691C141.961 198.218 150.819 189.686 152.314 178.921Z" fill="#EAF9FF"/>
<path fill-rule="evenodd" clip-rule="evenodd" d="M282.07 163.898L282.026 165.543C281.844 172.21 282.173 179.009 283.56 187.221C285.607 199.358 289.595 211.229 296.003 222.347C300.098 229.45 305.1 236.078 311.08 242.146L311.477 242.553C323.73 255.215 330.003 272.487 327.771 288.357C326.247 299.215 321.213 307.585 308.854 323.002L304.928 327.909C299.412 334.89 295.681 340.446 292.888 346.252C291.189 349.776 289.962 353.212 289.232 356.603C289.022 357.581 288.919 358.401 288.781 360.011L288.7 361.001C288.5 363.38 288.327 364.597 287.924 365.892L287.801 366.266C287.642 366.731 287.492 367.127 287.244 367.721L286.737 368.922C286.164 370.286 285.898 371.009 285.673 371.893L285.404 372.952C284.605 376.026 283.926 378.277 283.087 380.512C280.817 386.544 277.762 391.919 273.868 396.496C261.16 411.44 237.868 418.779 215.808 415.397C195.202 412.238 176.014 400.381 163.25 383.668C155.312 373.273 150.332 361.818 149.082 350.361C148.928 348.949 148.87 347.792 148.826 345.617L148.79 343.653C148.672 338.199 148.293 335.642 146.842 332.532L146.709 332.251C144.699 328.042 142.031 324.671 136.422 318.61L108.383 288.321C102.966 282.468 99.8724 278.823 97.2021 274.835L96.7942 274.219C93.1957 268.709 91.1957 263.469 90.928 258.12C90.635 252.26 92.4638 246.17 96.0773 239.619C100.191 232.165 105.826 225.385 112.628 219.705C115.052 217.681 117.187 216.087 121.079 213.367L124.206 211.197C129.874 207.275 132.632 205.258 135.511 202.782L136.146 202.231C140.763 198.182 144.264 193.806 146.391 189.165C147.555 186.624 148.269 184.048 148.477 181.503C148.515 181.042 148.524 180.649 148.513 180L148.491 179.08C148.466 178.096 148.472 177.611 148.53 177.012L148.623 176.106C149.369 169.168 150.984 162.355 153.434 155.882C161.117 135.59 177.741 118.966 198.447 111.965C214.7 106.47 233.642 107.42 248.769 114.628C252.975 116.632 260.603 122.147 266.809 128.78C276.325 138.95 281.995 150.703 282.07 163.836V163.898ZM281.713 163.898L281.707 163.247C281.469 150.455 275.868 138.985 266.552 129.029C260.377 122.43 252.784 116.941 248.619 114.955C233.574 107.788 214.727 106.842 198.559 112.308C177.956 119.274 161.412 135.819 153.766 156.012C151.221 162.735 149.581 169.828 148.884 177.047C148.833 177.579 148.824 178.023 148.841 178.841L148.868 179.999C148.877 180.526 148.873 180.887 148.851 181.254L148.832 181.534C148.619 184.123 147.894 186.74 146.713 189.318C144.563 194.01 141.03 198.425 136.378 202.505L136.165 202.691C133.467 205.042 131.005 206.896 126.359 210.139L121.987 213.172C118.129 215.857 115.933 217.465 113.697 219.288L112.853 219.984C106.085 225.637 100.479 232.382 96.3872 239.797C92.8038 246.293 90.9938 252.32 91.283 258.101C91.5469 263.378 93.5244 268.559 97.0903 274.018C99.709 278.028 102.656 281.572 107.828 287.191L137.052 318.764C142.556 324.733 145.161 328.086 147.163 332.377L147.277 332.626C148.663 335.688 149.03 338.29 149.146 343.662L149.169 344.926C149.214 347.544 149.267 348.783 149.436 350.32L149.508 350.955C150.862 362.129 155.777 373.292 163.531 383.445C176.24 400.086 195.347 411.892 215.862 415.039C237.807 418.402 260.976 411.103 273.599 396.257C277.465 391.715 280.498 386.377 282.755 380.38C283.588 378.161 284.264 375.923 285.059 372.858L285.375 371.622C285.582 370.855 285.829 370.173 286.299 369.051L286.756 367.967C287.1 367.149 287.276 366.697 287.463 366.147L287.526 365.964C287.924 364.751 288.105 363.651 288.29 361.608L288.478 359.401C288.568 358.414 288.653 357.741 288.775 357.075L288.885 356.525C289.62 353.105 290.86 349.641 292.569 346.095C295.293 340.437 298.893 335.021 304.152 328.316L305.16 327.043L309.84 321.191C321.241 306.823 325.959 298.701 327.421 288.305C329.659 272.383 323.266 255.022 310.829 242.402L310.14 241.697C304.44 235.8 299.65 229.385 295.697 222.53C289.267 211.372 285.263 199.46 283.209 187.282C281.819 179.044 281.487 172.222 281.669 165.533L281.713 163.898Z" fill="#BBEBFF"/>
<path fill-rule="evenodd" clip-rule="evenodd" d="M199.253 295.437L223.592 235.443L221.137 234.402L196.798 294.396L199.253 295.437Z" fill="#006F9F"/>
<path fill-rule="evenodd" clip-rule="evenodd" d="M240.18 276.018L182.574 248.688L181.488 251.226L239.094 278.556L240.18 276.018Z" fill="#006F9F"/>
<path fill-rule="evenodd" clip-rule="evenodd" d="M223.592 294.426L199.32 234.402L196.798 235.414L221.07 295.437L223.592 294.426Z" fill="#006F9F"/>
<path fill-rule="evenodd" clip-rule="evenodd" d="M181.204 278.556L240.178 253.852L239.184 251.285L180.21 275.989L181.204 278.556Z" fill="#006F9F"/>
<path fill-rule="evenodd" clip-rule="evenodd" d="M88.2499 340.889L112.589 280.894L110.135 279.854L85.7953 339.849L88.2499 340.889Z" fill="#006F9F"/>
<path fill-rule="evenodd" clip-rule="evenodd" d="M129.174 322.768L71.5687 295.438L70.4824 297.976L128.089 325.306L129.174 322.768Z" fill="#006F9F"/>
<path fill-rule="evenodd" clip-rule="evenodd" d="M113.864 339.877L89.5924 279.854L87.0702 280.867L111.342 340.889L113.864 339.877Z" fill="#006F9F"/>
<path fill-rule="evenodd" clip-rule="evenodd" d="M70.2013 324.007L129.175 299.304L128.18 296.736L69.2074 321.44L70.2013 324.007Z" fill="#006F9F"/>
<path fill-rule="evenodd" clip-rule="evenodd" d="M183.575 276.499C189.846 292.154 207.465 299.698 222.847 293.313C238.23 286.93 245.641 268.998 239.368 253.343C233.096 237.687 215.478 230.143 200.097 236.527C184.714 242.912 177.302 260.843 183.575 276.499ZM177.8 278.894C170.23 259.997 179.175 238.356 197.743 230.65C216.309 222.944 237.572 232.05 245.143 250.946C252.713 269.843 243.768 291.484 225.202 299.191C206.636 306.896 185.371 297.791 177.8 278.894Z" fill="#00B2FF"/>
<path fill-rule="evenodd" clip-rule="evenodd" d="M72.569 321.951C78.8418 337.605 96.459 345.15 111.841 338.765C127.224 332.382 134.635 314.45 128.362 298.795C122.091 283.139 104.472 275.595 89.0909 281.978C73.7085 288.364 66.2962 306.294 72.569 321.951ZM66.7943 324.347C59.2242 305.45 68.1704 283.808 86.7368 276.103C105.303 268.396 126.566 277.501 134.137 296.398C141.707 315.295 132.762 336.936 114.196 344.643C95.6304 352.348 74.3653 343.245 66.7943 324.347Z" fill="#00B2FF"/>
<path fill-rule="evenodd" clip-rule="evenodd" d="M214.275 267.964C214.681 267.795 215.05 267.522 215.346 267.149C216.271 265.977 216.089 264.26 214.938 263.316L148.832 209.033C147.684 208.088 146.002 208.276 145.075 209.447C144.15 210.62 144.332 212.335 145.483 213.28L211.588 267.564C212.371 268.209 213.404 268.327 214.275 267.964Z" fill="#FED600"/>
<path fill-rule="evenodd" clip-rule="evenodd" d="M147.015 294.798C147.059 294.523 147.042 294.233 146.954 293.952C146.677 293.072 145.794 292.622 144.982 292.946L98.3279 311.623C97.5161 311.947 97.0851 312.924 97.3612 313.806C97.6382 314.686 98.5223 315.137 99.333 314.811L145.988 296.136C146.541 295.914 146.919 295.389 147.015 294.798Z" fill="#FED600"/>
<path fill-rule="evenodd" clip-rule="evenodd" d="M99.5243 313.583C99.2166 313.644 98.8929 313.628 98.5758 313.526C97.5809 313.205 97.0425 312.136 97.3768 311.141L116.539 253.895C116.871 252.9 117.949 252.355 118.945 252.675C119.941 252.996 120.479 254.064 120.145 255.06L100.982 312.307C100.756 312.985 100.183 313.455 99.5243 313.583Z" fill="#FED600"/>
<path fill-rule="evenodd" clip-rule="evenodd" d="M117.4 256.331C117.153 256.218 116.929 256.043 116.753 255.808C116.202 255.07 116.339 254.023 117.059 253.471L158.432 221.747C159.151 221.196 160.18 221.35 160.733 222.088C161.284 222.827 161.148 223.872 160.428 224.424L119.055 256.147C118.565 256.523 117.929 256.573 117.4 256.331Z" fill="#FED600"/>
<path fill-rule="evenodd" clip-rule="evenodd" d="M145.234 296.734C144.915 296.748 144.587 296.679 144.281 296.52C143.319 296.021 142.934 294.813 143.422 293.821L171.414 236.806C171.9 235.815 173.075 235.418 174.037 235.915C174.999 236.415 175.384 237.624 174.897 238.614L146.905 295.63C146.573 296.307 145.921 296.708 145.234 296.734Z" fill="#FED600"/>
<path fill-rule="evenodd" clip-rule="evenodd" d="M113.464 270.432C114.18 270.139 114.767 269.543 115.013 268.752C115.452 267.346 114.716 265.857 113.325 265.394C112.986 265.283 77.515 257.453 59.4485 284.753C58.6284 285.993 58.9643 287.667 60.2008 288.492C61.4361 289.318 63.104 288.982 63.9266 287.737C79.7073 263.89 111.356 270.433 111.659 270.524C112.273 270.707 112.907 270.659 113.464 270.432Z" fill="#FED600"/>
<path fill-rule="evenodd" clip-rule="evenodd" d="M135.44 223.687C147.383 220.965 148.431 213.14 148.306 209.806C148.069 203.513 143.41 197.168 138.72 196.75C137.667 196.655 136.731 197.514 136.645 198.667C136.558 199.82 137.346 200.832 138.406 200.925C140.67 201.127 144.284 205.262 144.461 209.976C144.65 215.024 140.673 218.542 133.34 219.853C132.267 220.045 131.581 221.119 131.755 222.261C131.927 223.403 132.918 224.173 133.966 223.986C134.474 223.895 134.966 223.796 135.44 223.687Z" fill="#FE86D5"/>
<path fill-rule="evenodd" clip-rule="evenodd" d="M234.2 102.641L199.474 112.419L165.809 92.8535L157.245 175.429L192.522 194.77L228.95 182.183L261.857 200.639L265.697 121.312L234.2 102.641Z" fill="#FFCB72"/>
<path fill-rule="evenodd" clip-rule="evenodd" d="M161.073 173.001L168.622 99.3472L198.735 116.641L233.622 106.802L261.869 123.348L258.277 194.146L228.894 177.769L192.476 190.114L161.073 173.001Z" fill="white"/>
<path fill-rule="evenodd" clip-rule="evenodd" d="M171.654 129.282C171.441 129.644 171.229 130.046 171.292 130.469C171.422 131.328 172.566 131.64 173.401 131.43C174.235 131.222 174.993 130.711 175.855 130.71C177.517 130.711 178.615 132.559 178.885 134.211C179.568 138.418 177.341 142.78 178.596 146.897C179.777 150.77 183.577 153.086 186.665 155.677C188.101 156.879 189.547 158.506 189.349 160.374C189.262 161.209 188.84 161.998 188.899 162.841C189.012 164.444 190.725 165.417 191.369 166.891C191.912 168.133 191.631 169.561 191.388 170.894C190.841 173.911 190.554 177.13 191.636 180.021C191.865 180.632 192.382 181.331 192.979 181.121C193.046 179.797 193.112 178.475 193.178 177.155C193.276 175.205 193.499 173.003 195 171.844C195.488 171.467 196.082 171.236 196.524 170.803C197.312 170.033 197.472 168.794 198.109 167.889C198.717 167.024 199.697 166.544 200.523 165.906C201.349 165.268 202.085 164.27 201.862 163.22C201.57 161.849 199.964 161.36 198.757 160.693C196.739 159.576 195.323 157.359 193.127 156.687C192.052 156.358 190.903 156.44 189.808 156.189C188.712 155.933 187.57 155.156 187.465 154.016C187.425 153.562 187.557 153.101 187.468 152.653C187.38 152.206 186.904 151.769 186.512 151.979C186.416 152.03 186.34 152.112 186.258 152.18C185.415 152.873 183.982 151.764 184.191 150.677C184.4 149.592 185.73 149.041 186.775 149.382C187.326 149.56 187.84 149.932 188.412 149.907C188.764 149.894 189.088 149.727 189.388 149.546C191.83 148.071 193.442 145.341 196.088 144.339C196.542 144.166 197.034 144.041 197.396 143.717C198.182 143.015 198.043 141.736 197.841 140.667C197.629 139.556 197.212 138.216 196.128 137.963C195.27 137.763 194.484 138.379 193.655 138.636C192.225 139.076 190.419 138.194 190.035 136.699C189.23 133.578 193.581 133.93 195.221 133.004C195.955 132.592 196.57 131.787 196.402 130.933C196.281 130.318 195.777 129.825 195.213 129.557C193.154 128.579 193.091 130.728 191.297 130.524C190.274 130.406 189.691 129.103 188.677 128.887C188.249 128.797 187.811 128.918 187.379 128.863C185.902 128.674 185.188 126.818 183.857 126.239C182.21 125.523 180.178 124.714 178.438 124.192C175.068 123.182 173.093 126.843 171.654 129.282Z" fill="#80D9FF"/>
<path fill-rule="evenodd" clip-rule="evenodd" d="M196.896 127.915C197.454 127.958 197.735 127.266 198.033 126.773C198.882 125.366 200.67 125.139 202.076 124.425C202.943 123.986 203.704 123.321 204.278 122.501C204.372 122.368 204.467 122.211 204.453 122.038C204.43 121.756 204.145 121.579 203.89 121.508C202.482 121.113 201.194 122.216 199.821 122.634C198.81 122.941 197.696 122.876 196.72 123.295C196.173 123.529 195.654 123.963 195.538 124.589C195.412 125.261 196.116 127.852 196.896 127.915Z" fill="#80D9FF"/>
<path fill-rule="evenodd" clip-rule="evenodd" d="M206.131 125.179C205.845 125.155 205.581 124.985 205.298 124.923C204.83 124.82 204.368 125.019 203.939 125.216C203.08 125.609 202.221 126.002 201.359 126.397C201.12 126.506 200.865 126.629 200.728 126.865C200.527 127.209 200.646 127.685 200.869 128.033C201.091 128.384 201.405 128.659 201.642 128.996C202.505 130.221 202.19 131.909 201.795 133.338C201.4 134.77 200.986 136.406 201.721 137.728C201.91 138.068 202.258 138.395 202.602 138.282C202.877 138.193 203.005 137.869 203.103 137.58C203.489 136.448 204.04 135.196 205.126 134.891C205.598 134.76 206.108 134.835 206.581 134.713C207.787 134.407 208.391 132.989 208.623 131.683C208.851 130.377 208.897 128.957 209.615 127.904C209.966 127.39 210.462 126.991 210.711 126.413C211.229 125.204 209.969 124.551 209.178 124.196C207.532 123.455 207.636 125.303 206.131 125.179Z" fill="#80D9FF"/>
<path fill-rule="evenodd" clip-rule="evenodd" d="M210.988 152.154C209.915 152.905 208.933 153.878 208.495 155.136C208.055 156.397 208.277 157.978 209.286 158.884C210.979 160.403 214.125 159.614 215.281 161.577C215.841 162.525 215.643 163.729 215.976 164.779C216.142 165.301 216.447 165.815 216.386 166.356C216.325 166.919 215.882 167.35 215.705 167.884C215.201 169.385 216.836 170.786 217.112 172.371C217.214 172.961 217.134 173.614 217.459 174.118C217.996 174.951 219.311 174.762 219.948 174.039C220.588 173.319 220.764 172.294 221.023 171.352C221.28 170.409 221.726 169.412 222.606 169.06C222.989 168.908 223.428 168.892 223.776 168.667C224.382 168.272 224.48 167.397 224.394 166.65C224.304 165.905 224.097 165.133 224.314 164.427C224.9 162.529 227.955 162.564 228.54 160.679C225.888 160.191 223.777 157.366 224.019 154.63C224.849 154.696 225.326 155.629 225.687 156.41C226.047 157.191 226.693 158.08 227.501 157.925C228.119 157.808 228.456 157.073 228.38 156.424C228.305 155.774 227.929 155.196 227.558 154.655C229.208 154.048 231.163 154.598 232.564 155.772C233.962 156.944 234.859 158.662 235.361 160.433C235.583 161.222 236.206 162.276 236.871 161.875C237.163 161.699 237.248 161.309 237.313 160.961C237.485 160.047 237.732 159.104 238.351 158.451C238.969 157.798 240.067 157.552 240.784 158.147C241.299 158.573 241.484 159.28 241.785 159.884C242.088 160.489 242.707 161.081 243.311 160.879C244.019 160.643 244.036 159.609 244.463 158.985C245.17 157.952 246.9 158.189 247.588 157.146C248.387 155.935 247.133 154.126 247.645 152.751C247.765 152.429 247.975 152.158 248.2 151.908C249.027 150.99 250.081 150.324 250.898 149.402C251.712 148.484 252.283 147.165 251.872 145.932C251.631 145.21 251.075 144.589 250.977 143.838C250.827 142.686 251.793 141.79 252.739 141.251C253.684 140.711 254.779 140.226 255.195 139.193C255.283 138.977 255.339 138.739 255.486 138.564C255.7 138.304 256.054 138.237 256.367 138.123C257.559 137.686 258.312 136.255 257.949 134.946C257.585 133.639 256.077 132.707 254.883 133.129C254.318 133.328 253.863 133.775 253.286 133.944C251.833 134.37 250.348 132.939 248.804 132.834C247.262 132.727 245.864 133.956 244.335 133.609C243.342 133.383 242.494 132.519 241.487 132.467C240.757 132.429 240.103 132.831 239.394 132.974C238.684 133.114 237.726 132.81 237.607 132.061C237.54 131.644 237.76 131.191 237.544 130.823C237.224 130.273 236.424 130.554 235.937 130.903C234.819 131.699 233.7 132.496 232.578 133.297C232.194 133.573 231.798 133.857 231.544 134.263C231.138 134.915 230.991 136.232 229.984 136.18C229.677 136.167 229.378 136.048 229.074 135.982C228.032 135.762 227.003 136.18 226.048 136.591C225.557 136.803 225.056 137.02 224.668 137.39C224.118 137.915 223.861 138.681 223.609 139.417C223.003 141.19 221.03 141.189 219.937 142.54C219.71 142.821 219.535 143.15 219.256 143.377C218.793 143.752 218.145 143.773 217.549 143.863C215.137 144.226 213.191 145.918 211.373 147.548C211.214 147.69 211.05 147.841 210.969 148.042C210.724 148.666 211.494 149.335 212.157 149.266C212.82 149.197 213.329 148.688 213.798 148.224C214.268 147.756 214.818 147.279 215.483 147.292C216.338 147.311 216.974 148.106 217.722 148.554C218.716 149.148 220.027 149.095 220.919 148.426C221.655 147.874 222.327 146.896 223.23 147.153C224.297 147.457 224.562 149.294 225.657 149.35C226.128 149.375 226.513 149.029 226.944 148.858C228.098 148.401 229.593 149.528 229.537 150.812C229.526 151.081 229.453 151.356 229.275 151.548C228.892 151.967 228.191 151.847 227.693 151.539C227.195 151.229 226.786 150.77 226.257 150.524C225.512 150.176 224.586 150.337 224.029 150.912C223.757 151.193 223.57 151.556 223.286 151.826C221.641 153.385 218.977 152.813 217.205 151.78C215.021 150.507 213.04 150.723 210.988 152.154Z" fill="#80D9FF"/>
<path fill-rule="evenodd" clip-rule="evenodd" d="M242.399 162.138C241.649 161.031 241.229 162.146 241.583 163.214C241.832 163.965 242.886 167.413 243.773 166.803C244.097 166.577 244.032 165.9 243.894 165.413C243.552 164.209 243.041 163.087 242.399 162.138Z" fill="#80D9FF"/>
<path fill-rule="evenodd" clip-rule="evenodd" d="M248.221 165.227C248.518 164.942 248.763 164.6 248.944 164.224C249.039 164.026 249.118 163.809 249.109 163.583C249.099 163.357 248.984 163.12 248.783 163.021C248.165 162.719 246.837 164.134 246.633 164.67C246.214 165.766 247.671 165.758 248.221 165.227Z" fill="#80D9FF"/>
<path fill-rule="evenodd" clip-rule="evenodd" d="M244.123 168.509C244.07 168.54 244.016 168.578 244.007 168.633C243.996 168.694 244.046 168.753 244.102 168.797C244.454 169.071 244.987 168.989 245.451 169.028C246.167 169.085 246.83 169.461 247.545 169.472C248.02 169.479 248.465 169.327 248.898 169.175C249 169.139 249.121 169.08 249.108 168.983C249.103 168.943 249.075 168.907 249.043 168.875C248.721 168.548 248.164 168.518 247.673 168.478C246.424 168.38 245.258 167.827 244.123 168.509Z" fill="#80D9FF"/>
<path fill-rule="evenodd" clip-rule="evenodd" d="M249.141 166.201C249.193 166.382 249.393 166.462 249.534 166.583C249.766 166.779 249.852 167.101 249.983 167.381C250.112 167.66 250.364 167.946 250.652 167.901C250.89 167.866 251.039 167.622 251.264 167.538C251.658 167.388 252.063 167.768 252.348 168.109C252.622 168.44 252.898 168.769 253.173 169.098C253.316 169.269 253.482 169.451 253.692 169.47C253.951 169.494 254.162 169.244 254.203 168.98C254.246 168.714 254.162 168.441 254.078 168.181C253.958 167.804 253.802 167.386 253.458 167.221C253.222 167.111 252.954 167.145 252.707 167.075C252.192 166.931 251.877 166.389 251.458 166.037C251.149 165.777 248.819 165.063 249.141 166.201Z" fill="#80D9FF"/>
<path fill-rule="evenodd" clip-rule="evenodd" d="M252.435 169.551C252.082 169.363 251.666 169.548 251.326 169.733C249.818 170.552 248.304 171.375 246.786 172.2C246.546 172.329 246.299 172.466 246.122 172.672C245.844 172.992 245.772 173.437 245.71 173.861C245.574 174.781 245.437 175.704 245.301 176.627C245.283 176.753 245.266 176.886 245.318 177.004C245.439 177.268 245.836 177.277 246.077 177.125C246.318 176.974 246.475 176.721 246.708 176.556C247.302 176.136 248.144 176.407 248.875 176.311C249.264 176.261 249.629 176.101 250.021 176.07C250.412 176.038 250.871 176.184 251.028 176.547C251.1 176.717 251.096 176.907 251.15 177.083C251.205 177.259 251.361 177.436 251.542 177.409C251.828 177.369 251.867 176.887 252.155 176.86C252.775 177.584 252.626 178.659 252.974 179.54C253.013 179.641 253.064 179.747 253.155 179.807C253.364 179.948 253.631 179.786 253.811 179.622C254.405 179.071 254.888 178.416 255.368 177.767C255.81 177.171 256.254 176.566 256.525 175.874C256.795 175.182 256.874 174.382 256.577 173.68C256.3 173.022 255.724 172.513 255.448 171.851C255.262 171.41 255.207 170.893 254.861 170.55C254.758 170.447 254.617 170.363 254.477 170.391C253.823 170.517 254.169 172.316 253.246 171.482C252.707 170.998 253.15 169.884 252.435 169.551Z" fill="#80D9FF"/>
<mask id="mask1_666_1029" style="mask-type:alpha" maskUnits="userSpaceOnUse" x="163" y="88" width="27" height="39">
<path fill-rule="evenodd" clip-rule="evenodd" d="M163.195 88H189.055V126.574H163.195V88Z" fill="white"/>
</mask>
<g mask="url(#mask1_666_1029)">
<path fill-rule="evenodd" clip-rule="evenodd" d="M179.419 99.2057C179.047 97.4143 177.437 96.4427 175.118 96.5527C173.176 97.3297 172.54 98.8128 172.856 100.765C173.163 102.653 174.454 103.419 176.413 103.618C178.965 102.625 179.861 101.337 179.419 99.2057ZM175.301 125.182C173.109 121.52 170.844 117.907 168.653 114.244C167.195 111.803 165.513 109.499 164.341 106.884C163.059 104.026 162.897 101.038 163.631 98.0055C164.343 95.0671 165.906 92.7272 168.206 90.8198C171.34 88.2211 174.928 87.5648 178.685 88.2563C181.763 88.8231 184.396 90.4973 186.334 93.1707C187.656 94.9945 188.603 96.9949 188.918 99.2588C189.402 102.754 188.575 105.977 186.842 108.97C183.833 114.164 180.825 119.359 177.787 124.534C177.392 125.208 177.295 126.107 176.422 126.574C175.982 126.176 175.628 125.729 175.301 125.182Z" fill="#FE86D5"/>
</g>
<path fill-rule="evenodd" clip-rule="evenodd" d="M272.581 242.283C274.469 244.15 274.488 247.199 272.628 249.091L261.145 260.779C259.286 262.671 256.25 262.692 254.365 260.825C252.48 258.957 252.46 255.909 254.319 254.017L265.804 242.329C267.663 240.436 270.697 240.416 272.581 242.283Z" fill="#00B2FF"/>
<path fill-rule="evenodd" clip-rule="evenodd" d="M256.918 242.283C258.803 240.416 261.839 240.436 263.698 242.329L275.183 254.017C277.042 255.909 277.02 258.957 275.136 260.825C273.251 262.692 270.215 262.671 268.355 260.779L256.872 249.091C255.013 247.199 255.033 244.15 256.918 242.283Z" fill="#00B2FF"/>
<path fill-rule="evenodd" clip-rule="evenodd" d="M92.1726 203.741C90.3341 203.741 88.8393 205.263 88.8393 207.132C88.8393 209.003 90.3341 210.523 92.1726 210.523C94.0112 210.523 95.5056 209.003 95.5056 207.132C95.5056 205.263 94.0112 203.741 92.1726 203.741ZM92.1726 211.028C90.0621 211.028 88.3447 209.281 88.3447 207.132C88.3447 204.985 90.0621 203.236 92.1726 203.236C94.2832 203.236 96.0002 204.985 96.0002 207.132C96.0002 209.281 94.2832 211.028 92.1726 211.028Z" fill="#80D9FF"/>
<path fill-rule="evenodd" clip-rule="evenodd" d="M314.182 383.744C314.182 385.897 312.466 387.638 310.353 387.638C308.24 387.638 306.525 385.897 306.525 383.744C306.525 381.591 308.24 379.849 310.353 379.849C312.466 379.849 314.182 381.591 314.182 383.744Z" fill="#FBCF1F"/>
<path fill-rule="evenodd" clip-rule="evenodd" d="M314.182 395.431C314.182 397.584 312.466 399.329 310.353 399.329C308.24 399.329 306.525 397.584 306.525 395.431C306.525 393.278 308.24 391.536 310.353 391.536C312.466 391.536 314.182 393.278 314.182 395.431Z" fill="#FBCF1F"/>
<path fill-rule="evenodd" clip-rule="evenodd" d="M314.182 407.118C314.182 409.271 312.466 411.016 310.353 411.016C308.24 411.016 306.525 409.271 306.525 407.118C306.525 404.968 308.24 403.224 310.353 403.224C312.466 403.224 314.182 404.968 314.182 407.118Z" fill="#FBCF1F"/>
<path fill-rule="evenodd" clip-rule="evenodd" d="M284.978 375.118C283.826 375.062 276.56 373.298 273.84 372.409C274.726 368.756 275.612 365.094 276.526 361.319C276.692 361.243 276.842 361.105 276.958 361.133C280.373 361.966 283.785 362.815 287.194 363.683C287.357 363.724 287.476 363.94 287.645 364.104C286.753 367.785 285.864 371.453 284.978 375.118ZM280.949 391.652C279.847 391.605 272.437 389.807 269.833 388.943C270.719 385.284 271.608 381.622 272.528 377.815C276.25 378.758 279.897 379.679 283.619 380.622C282.727 384.319 281.838 387.984 280.949 391.652ZM279.54 397.839C278.698 401.309 277.859 404.782 277.005 408.316C273.232 407.36 269.557 406.43 265.807 405.483C266.671 401.916 267.535 398.354 268.408 394.749C268.865 394.268 269.301 394.526 269.717 394.629C272.885 395.425 276.053 396.229 279.202 397.025C279.403 397.276 279.628 397.487 279.54 397.839ZM262.145 387.01C258.5 386.089 254.918 385.18 251.285 384.262C252.185 380.547 253.071 376.888 253.973 373.163C257.592 374.081 261.175 374.986 264.834 375.91C263.948 379.569 263.061 383.225 262.145 387.01ZM258.236 403.418C258.18 403.453 258.139 403.481 258.093 403.503C258.051 403.522 257.999 403.55 257.961 403.544C254.447 402.654 250.934 401.768 247.219 400.828C247.562 399.413 247.88 398.096 248.2 396.782C248.604 395.11 249.009 393.438 249.413 391.769C249.553 391.194 249.778 390.625 249.5 390.1C249.875 389.682 250.229 389.688 250.65 389.795C254.013 390.662 257.38 391.505 260.706 392.347C260.761 392.441 260.793 392.482 260.811 392.529C260.828 392.57 260.847 392.624 260.838 392.665C259.972 396.254 259.103 399.841 258.236 403.418ZM244.055 364.912C241.571 364.283 239.099 363.658 236.637 363.035C236.635 361.976 238.431 354.259 239.243 351.882C241.73 352.514 244.227 353.146 246.742 353.781C247.844 354.061 248.941 354.337 250.055 354.62C249.167 358.289 248.28 361.948 247.361 365.748C246.249 365.465 245.155 365.188 244.055 364.912ZM257.658 356.685C257.937 356.377 258.236 356.333 258.613 356.431C261.784 357.245 264.958 358.047 268.133 358.842C268.449 358.92 268.678 359.059 268.847 359.445C267.973 363.038 267.084 366.71 266.176 370.46C262.492 369.526 258.814 368.596 255.006 367.634C255.906 363.915 256.785 360.291 257.658 356.685ZM303.858 358.179C303.717 358.131 303.576 358.078 303.432 358.043C279.111 351.889 254.788 345.74 230.465 339.592L226.956 355.218C229.315 356.783 231.462 358.594 233.274 360.822C234.887 362.806 236.29 364.899 237.218 367.31C237.448 367.911 237.72 368.492 237.973 369.083C239.56 369.485 241.154 369.888 242.756 370.293C243.853 370.57 244.952 370.846 246.066 371.129C245.166 374.842 244.282 378.497 243.36 382.301C242.267 382.031 241.16 381.757 240.055 381.484C239.738 381.405 239.424 381.326 239.106 381.248C238.752 381.987 238.862 382.807 238.748 383.587C238.593 384.636 237.936 385.504 237.824 386.554C238.141 386.636 238.456 386.714 238.774 386.796C239.845 387.066 240.918 387.337 241.979 387.604C241.863 388.915 240.122 396.33 239.339 398.848C238.251 398.571 237.156 398.294 236.064 398.018C234.48 397.619 232.898 397.219 231.311 396.817C229.672 398.329 227.878 399.621 225.933 400.687C223.424 402.063 220.79 403.072 217.955 403.484C217.315 403.578 216.678 403.698 216.041 403.811L215.935 404.286C216.046 404.462 216.188 404.628 216.203 404.845C216.774 405.009 217.342 405.191 217.917 405.336C223.063 406.637 228.209 407.938 233.355 409.24C250.569 413.596 267.782 417.95 284.994 422.307C285.476 422.429 285.948 422.571 286.427 422.703C288.011 422.285 288.91 421.225 289.295 419.619C290.497 414.599 291.721 409.582 292.936 404.565C295.067 395.761 297.202 386.956 299.331 378.152C299.463 377.611 299.575 377.067 299.694 376.523L303.973 358.795C303.698 358.638 303.836 358.395 303.858 358.179Z" fill="#FED600"/>
<path fill-rule="evenodd" clip-rule="evenodd" d="M290.901 334.959C294.053 335.779 305.933 338.303 306.631 338.799C306.384 339.133 306.597 339.384 306.803 339.585C307.843 340.604 307.971 341.83 307.639 343.184C307.016 345.734 306.412 348.289 305.789 350.842C305.119 353.586 304.437 356.327 303.757 359.071C303.673 359.037 303.588 359.024 303.501 359.033C303.36 358.986 303.222 358.933 303.078 358.895C278.776 352.718 254.474 346.542 230.174 340.368C229.898 340.201 229.962 339.969 230.024 339.708C231.254 334.626 232.444 329.53 233.727 324.461C234.087 323.039 234.886 321.858 236.429 321.462C236.827 321.361 238.535 321.408 239.29 321.599C242.464 322.404 245.639 323.211 248.814 324.017C249.048 324.509 248.883 324.986 248.766 325.468C248.329 327.275 247.889 329.079 247.469 330.89C247.382 331.272 247.237 331.643 247.316 332.067C247.563 333.396 247.846 334.702 248.82 335.713C248.52 336.26 248.779 336.784 248.886 337.316C249.347 339.604 251.668 340.594 253.477 340.286C255.64 339.912 256.808 338.19 256.841 336.15C256.864 334.667 256.289 333.221 254.863 332.547C253.924 332.103 252.883 331.803 251.846 331.995C251.713 332.02 251.582 332.052 251.451 332.092C251.391 332.112 251.329 332.139 251.265 332.152C251.236 332.158 251.208 332.157 251.18 332.169C251.141 332.185 251.108 332.226 251.081 332.257C251.069 332.271 250.996 332.355 251.006 332.374C250.949 332.253 250.919 332.12 250.918 331.984C250.918 331.928 250.923 331.875 250.913 331.817C250.885 331.631 251.003 331.438 251.044 331.261C251.517 329.249 252.009 327.241 252.495 325.232C253.763 325.542 255.031 325.851 256.298 326.161C257.514 326.549 258.747 326.869 260.001 327.098C260.521 327.249 261.036 327.418 261.56 327.551C267.676 329.122 273.796 330.687 279.913 332.254C279.431 334.27 278.939 336.285 278.476 338.303C278.363 338.781 278.276 339.252 278.297 339.78C278.363 341.223 278.914 342.436 279.681 343.587C279.431 344.253 279.678 344.901 279.866 345.495C280.601 347.821 283.456 348.698 285.012 348.069C286.8 347.346 287.964 345.668 287.823 343.706C287.723 342.311 287.063 341.031 285.789 340.415C285.094 340.082 284.349 339.824 283.575 339.796C283.128 339.78 282.646 339.83 282.223 339.997C282.135 340.035 282.092 340.104 282.06 340.192C282.016 340.302 281.973 340.516 282.038 340.629C281.91 340.415 281.778 340.186 281.772 339.934C281.769 339.83 281.788 339.727 281.816 339.629C281.829 339.585 281.838 339.554 281.841 339.513C281.857 339.381 281.919 339.261 281.951 339.136C282.423 337.124 282.915 335.115 283.4 333.106" fill="#00B2FF"/>
<path fill-rule="evenodd" clip-rule="evenodd" d="M259.884 326.363C258.568 326.128 257.276 325.8 256.001 325.403C256.302 324.186 256.601 322.971 256.945 321.571C256.793 321.371 256.601 321.053 256.342 320.8C255.73 320.208 255.071 319.858 254.138 320.128C253.277 320.376 252.889 320.918 252.698 321.717C252.477 322.631 252.243 323.54 252.014 324.45C251.561 326.279 251.103 328.106 250.659 329.937C250.598 330.19 250.547 330.447 250.474 330.697C250.453 330.766 250.435 330.839 250.422 330.91C250.398 331.056 250.388 331.203 250.395 331.35C250.411 331.671 250.503 331.988 250.664 332.267C250.735 332.388 250.822 332.496 250.894 332.615C250.955 332.715 251.039 332.784 251.135 332.849C251.328 332.977 251.544 333.071 251.761 333.156C253.609 333.864 253.871 334.456 253.165 336.351C252.986 336.477 252.782 336.637 252.56 336.766C252.384 336.869 252.185 336.932 252.039 336.992C249.889 336.609 249.812 336.574 248.159 335.196C247.138 334.159 246.84 332.821 246.582 331.458C246.499 331.023 246.651 330.643 246.743 330.251C247.182 328.395 247.644 326.543 248.103 324.692C248.225 324.197 248.937 320.767 249.404 319.586C249.987 318.114 251.161 317.117 252.653 316.581C256.612 315.154 260.72 318.079 260.59 322.439C260.548 323.807 260.203 325.07 259.884 326.363Z" fill="#FE86D5"/>
<path fill-rule="evenodd" clip-rule="evenodd" d="M279.913 343.055C279.108 341.873 278.529 340.628 278.46 339.151C278.435 338.61 278.529 338.126 278.645 337.636C279.133 335.564 279.65 333.499 280.157 331.43C280.504 330.014 280.855 328.597 281.121 327.525C282.43 325.205 284.183 324.123 286.756 324.007C287.197 324.117 287.914 324.262 288.609 324.475C289.705 324.809 290.575 325.428 291.251 326.401C292.55 328.265 292.773 330.252 292.175 332.39C292.009 332.992 291.859 333.599 291.699 334.204L288.096 333.331C288.274 332.628 288.522 331.685 288.653 330.971C289.022 328.938 287.839 327.687 285.861 327.985C285.382 328.016 284.643 328.971 284.583 329.225C284.336 330.252 284.076 331.278 283.82 332.304C283.309 334.364 282.793 336.423 282.295 338.488C282.264 338.613 282.211 338.733 282.179 338.859C282.16 338.928 282.17 339.003 282.148 339.069C282.135 339.116 282.113 339.154 282.104 339.204C282.085 339.311 282.101 339.424 282.135 339.525C282.185 339.673 282.27 339.802 282.358 339.934C282.455 340.081 282.545 340.245 282.658 340.383C282.771 340.518 282.896 340.644 283.003 340.786C284.011 341.116 285.134 341.326 285.426 342.668C285.413 342.785 285.416 342.942 285.382 343.093C285.034 344.649 284.399 344.998 282.837 344.677C281.672 344.438 280.843 343.671 279.913 343.055Z" fill="#FE86D5"/>
<path fill-rule="evenodd" clip-rule="evenodd" d="M274.917 359.914C275.101 359.832 275.274 359.675 275.405 359.706C279.277 360.643 283.147 361.595 287.013 362.57C287.194 362.614 287.332 362.859 287.523 363.045C286.512 367.178 285.504 371.299 284.499 375.417C283.19 375.351 274.951 373.371 271.871 372.374C272.872 368.272 273.88 364.157 274.917 359.914Z" fill="#EAF9FF"/>
<path fill-rule="evenodd" clip-rule="evenodd" d="M272.268 377.25C276.059 378.224 279.772 379.176 283.56 380.148C282.652 383.964 281.747 387.748 280.843 391.536C279.719 391.489 272.177 389.631 269.526 388.739C270.428 384.963 271.329 381.179 272.268 377.25Z" fill="#EAF9FF"/>
<path fill-rule="evenodd" clip-rule="evenodd" d="M268.352 394.422C268.818 393.928 269.263 394.192 269.686 394.299C272.919 395.12 276.153 395.953 279.368 396.773C279.572 397.031 279.8 397.248 279.716 397.612C278.855 401.193 277.997 404.776 277.124 408.419C273.276 407.435 269.526 406.473 265.697 405.496C266.58 401.815 267.46 398.143 268.352 394.422Z" fill="#EAF9FF"/>
<path fill-rule="evenodd" clip-rule="evenodd" d="M235.25 390.948C234.142 392.856 232.609 394.403 231.248 396.097C233.813 396.741 236.377 397.386 238.93 398.027C239.679 395.632 241.345 388.584 241.456 387.339C240.139 387.009 238.809 386.676 237.48 386.34C236.755 387.886 236.112 389.464 235.25 390.948Z" fill="#EAF9FF"/>
<path fill-rule="evenodd" clip-rule="evenodd" d="M269.864 358.459C269.673 358.028 269.416 357.871 269.059 357.783C265.469 356.896 261.878 356.004 258.292 355.092C258.186 355.067 258.084 355.048 257.987 355.042C257.892 355.039 257.8 355.045 257.711 355.067C257.533 355.108 257.371 355.205 257.212 355.378C256.225 359.402 255.231 363.45 254.213 367.603C255.023 367.804 255.809 368.002 256.61 368.2C260.065 369.064 263.464 369.913 266.846 370.759C267.876 366.569 268.881 362.473 269.864 358.459Z" fill="#EAF9FF"/>
<path fill-rule="evenodd" clip-rule="evenodd" d="M260.563 391.828C260.554 391.803 260.54 391.781 260.523 391.753C260.507 391.724 260.483 391.69 260.456 391.643C259.598 391.426 258.733 391.206 257.872 390.986C255.288 390.332 252.692 389.675 250.092 389.002C249.877 388.946 249.676 388.917 249.483 388.955C249.289 388.996 249.101 389.1 248.907 389.317C248.979 389.455 249.018 389.59 249.035 389.732C249.084 390.153 248.926 390.596 248.819 391.042C248.402 392.771 247.984 394.5 247.567 396.229C247.239 397.587 246.91 398.951 246.558 400.413C247.514 400.658 248.458 400.897 249.393 401.133C251.262 401.607 253.091 402.072 254.908 402.531C255.816 402.761 256.722 402.99 257.626 403.22C257.667 403.232 257.72 403.198 257.763 403.179C257.792 403.166 257.823 403.144 257.853 403.126C257.872 403.116 257.888 403.107 257.91 403.091C258.804 399.391 259.699 395.682 260.591 391.97C260.599 391.935 260.582 391.891 260.568 391.853C260.564 391.844 260.565 391.835 260.563 391.828Z" fill="#EAF9FF"/>
<path fill-rule="evenodd" clip-rule="evenodd" d="M246.969 366.399C247.598 366.553 248.223 366.707 248.859 366.861C249.932 362.555 250.967 358.405 252.003 354.247C247.741 353.2 243.562 352.172 239.39 351.144C238.443 353.835 236.348 362.586 236.35 363.787C236.936 363.931 237.527 364.076 238.112 364.221C241.047 364.94 243.993 365.666 246.969 366.399Z" fill="#EAF9FF"/>
<path fill-rule="evenodd" clip-rule="evenodd" d="M303.504 358.128C303.454 358.338 303.404 358.546 303.354 358.757C303.053 358.584 303.2 358.323 303.225 358.087C303.322 358.078 303.416 358.09 303.504 358.128Z" fill="#FBDAC3"/>
<path fill-rule="evenodd" clip-rule="evenodd" d="M279.831 343.08C280.652 343.631 281.384 344.319 282.411 344.533C283.788 344.819 284.349 344.508 284.659 343.112C284.687 342.98 284.684 342.838 284.693 342.732C284.436 341.531 283.447 341.339 282.558 341.047C282.279 340.673 281.851 340.387 282.063 339.83C283.259 339.349 284.436 339.657 285.494 340.163C286.672 340.729 287.285 341.905 287.379 343.19C287.507 344.992 286.427 346.535 284.771 347.201C283.331 347.78 280.683 346.972 280.001 344.834C279.828 344.288 279.6 343.693 279.831 343.08Z" fill="#FED600"/>
<path fill-rule="evenodd" clip-rule="evenodd" d="M249.242 335.301C250.72 336.545 250.789 336.577 252.713 336.926C252.843 336.869 253.021 336.813 253.179 336.718C253.378 336.605 253.56 336.457 253.72 336.344C254.352 334.632 254.117 334.096 252.464 333.456C252.218 333.361 251.969 333.249 251.767 333.075C251.652 332.976 251.554 332.851 251.495 332.709C251.47 332.649 251.468 332.599 251.429 332.547C251.384 332.488 251.341 332.425 251.321 332.352C251.276 332.184 251.401 332.03 251.56 331.991C251.714 331.955 251.861 331.899 252.015 331.868C252.214 331.828 252.416 331.804 252.618 331.8C253.416 331.78 254.193 332.03 254.91 332.367C256.248 332.991 256.788 334.331 256.766 335.707C256.736 337.595 255.64 339.195 253.611 339.538C251.913 339.827 249.737 338.909 249.303 336.784C249.203 336.294 248.961 335.808 249.242 335.301Z" fill="#FED600"/>
<path fill-rule="evenodd" clip-rule="evenodd" d="M312.548 341.311C312.275 340.774 311.944 340.277 311.552 339.884C310.751 339.507 309.931 339.334 309.123 339.13C308.228 338.903 307.323 338.712 306.484 338.293C306.24 338.62 306.45 338.872 306.656 339.073C307.683 340.082 307.811 341.295 307.483 342.638C306.866 345.168 306.268 347.702 305.648 350.232C304.985 352.954 294.357 397.09 292.56 404.543C291.355 409.538 290.14 414.53 288.954 419.531C288.572 421.131 287.679 422.187 286.111 422.599C286.111 422.948 286.383 422.948 286.609 423.008C287.848 423.325 289.091 423.696 290.347 423.954C290.919 424.073 291.323 423.947 291.855 423.74C292.19 423.608 292.478 423.501 292.76 423.262C293.499 422.637 293.959 421.766 294.166 420.814C294.676 418.456 311.192 350.122 312.648 344.08C312.707 343.835 312.757 343.587 312.82 343.345C313.005 342.628 312.876 341.952 312.548 341.311Z" fill="#FE86D5"/>
<path fill-rule="evenodd" clip-rule="evenodd" d="M177.675 131.086C177.611 131.786 177.76 132.694 178.102 133.82C178.203 134.153 178.55 134.34 178.878 134.237C179.205 134.134 179.388 133.781 179.288 133.448C178.989 132.466 178.865 131.705 178.911 131.203C178.943 130.856 178.692 130.549 178.351 130.516C178.01 130.484 177.707 130.739 177.675 131.086ZM180.596 139.717C180.952 140.433 181.339 141.183 181.756 141.966C181.918 142.273 182.295 142.387 182.597 142.221C182.898 142.056 183.01 141.673 182.847 141.366C182.436 140.593 182.054 139.852 181.702 139.147C181.548 138.836 181.174 138.712 180.869 138.869C180.563 139.027 180.441 139.406 180.596 139.717ZM186.122 149.628C185.68 148.892 185.251 148.17 184.837 147.462C184.662 147.163 184.758 146.775 185.053 146.597C185.347 146.419 185.728 146.517 185.903 146.817C186.315 147.52 186.741 148.239 187.181 148.971C187.36 149.268 187.267 149.656 186.975 149.838C186.682 150.02 186.3 149.926 186.122 149.628ZM189.433 154.995C189.878 155.699 190.329 156.406 190.785 157.116C190.972 157.408 191.357 157.49 191.644 157.299C191.931 157.108 192.011 156.717 191.824 156.426C191.369 155.719 190.92 155.014 190.477 154.313C190.292 154.02 189.908 153.935 189.62 154.123C189.331 154.312 189.248 154.702 189.433 154.995ZM195.164 163.76L194.224 162.361C194.031 162.073 194.105 161.681 194.388 161.485C194.671 161.289 195.057 161.364 195.25 161.652C195.407 161.887 195.563 162.12 195.72 162.352L196.65 163.729C196.845 164.016 196.774 164.409 196.492 164.607C196.21 164.805 195.824 164.733 195.629 164.447C195.475 164.219 195.32 163.99 195.164 163.76ZM199.224 169.611L199.753 170.345C200.095 170.817 200.416 171.253 200.71 171.647C200.917 171.924 201.307 171.978 201.58 171.767C201.853 171.557 201.905 171.161 201.698 170.883L201.243 170.269C200.927 169.839 200.587 169.37 200.227 168.868C200.025 168.586 199.637 168.524 199.36 168.73C199.083 168.935 199.022 169.33 199.224 169.611ZM206.619 178.236C206.027 177.64 205.443 177.039 204.866 176.434C204.627 176.185 204.633 175.785 204.879 175.542C205.125 175.3 205.518 175.306 205.757 175.556C206.328 176.155 206.906 176.749 207.493 177.34C207.736 177.585 207.738 177.984 207.497 178.232C207.255 178.48 206.863 178.481 206.619 178.236ZM211.157 182.59C211.772 183.154 212.395 183.713 213.025 184.268C213.283 184.497 213.675 184.468 213.9 184.205C214.124 183.942 214.096 183.544 213.838 183.315C213.214 182.765 212.597 182.21 211.987 181.652C211.732 181.419 211.34 181.44 211.111 181.699C210.881 181.958 210.902 182.357 211.157 182.59ZM219.797 189.882C219.136 189.366 218.481 188.847 217.833 188.324C217.565 188.107 217.52 187.71 217.733 187.437C217.946 187.164 218.336 187.119 218.605 187.335C219.247 187.854 219.897 188.369 220.552 188.88C220.824 189.093 220.876 189.489 220.667 189.765C220.459 190.042 220.069 190.094 219.797 189.882ZM224.806 193.629L225.242 193.94C225.775 194.321 226.312 194.698 226.852 195.074C227.135 195.271 227.521 195.197 227.715 194.909C227.908 194.622 227.836 194.229 227.553 194.032L226.751 193.471L225.522 192.598C225.242 192.397 224.855 192.465 224.657 192.749C224.46 193.034 224.526 193.428 224.806 193.629ZM232.837 199.049L232.056 198.55C231.766 198.364 231.68 197.974 231.863 197.679C232.045 197.385 232.429 197.297 232.719 197.483C233.234 197.814 233.753 198.144 234.276 198.471L234.819 198.811C235.111 198.993 235.203 199.381 235.024 199.679C234.845 199.976 234.463 200.069 234.171 199.887C233.985 199.771 233.803 199.657 233.624 199.545L232.837 199.049ZM239.482 203.151L240.928 204.049C241.154 204.191 241.375 204.33 241.591 204.467C241.883 204.651 242.265 204.56 242.446 204.264C242.627 203.968 242.538 203.579 242.247 203.395L241.233 202.759C240.882 202.54 240.515 202.313 240.126 202.072C239.833 201.891 239.451 201.986 239.273 202.284C239.096 202.582 239.189 202.97 239.482 203.151ZM248.723 209.395C248.089 208.902 247.43 208.41 246.742 207.915C246.463 207.713 246.396 207.319 246.595 207.035C246.792 206.751 247.18 206.683 247.459 206.885C248.159 207.389 248.831 207.89 249.477 208.393C249.749 208.605 249.801 209.001 249.593 209.277C249.384 209.554 248.995 209.607 248.723 209.395ZM253.366 213.478C253.842 213.959 254.302 214.445 254.744 214.939L255.035 215.269C255.262 215.53 255.654 215.555 255.911 215.324C256.167 215.093 256.192 214.694 255.965 214.434L255.662 214.09C255.205 213.579 254.731 213.077 254.239 212.582C253.996 212.337 253.603 212.339 253.362 212.586C253.121 212.833 253.122 213.233 253.366 213.478ZM259.695 222.485C259.357 221.744 258.984 221.012 258.579 220.293C258.409 219.99 258.512 219.604 258.809 219.431C259.106 219.258 259.485 219.363 259.655 219.665C260.078 220.416 260.468 221.18 260.821 221.954C260.965 222.27 260.83 222.645 260.519 222.792C260.209 222.939 259.84 222.801 259.695 222.485ZM261.587 228.351C261.741 229.165 261.848 229.976 261.907 230.779C261.933 231.126 262.231 231.387 262.573 231.361C262.914 231.335 263.171 231.032 263.145 230.684C263.082 229.832 262.968 228.974 262.805 228.112C262.741 227.77 262.416 227.546 262.079 227.612C261.742 227.678 261.522 228.008 261.587 228.351ZM260.759 238.73C261.004 238.112 261.212 237.48 261.382 236.836C261.47 236.5 261.811 236.3 262.142 236.39C262.473 236.481 262.669 236.827 262.58 237.163C262.397 237.856 262.174 238.536 261.91 239.202C261.782 239.525 261.42 239.682 261.103 239.551C260.785 239.421 260.631 239.053 260.759 238.73Z" fill="#004765"/>
<path fill-rule="evenodd" clip-rule="evenodd" d="M195.487 338.986L183.812 415.252L236.129 423.327L247.804 347.061L195.487 338.986Z" fill="#E8E8E8"/>
<path fill-rule="evenodd" clip-rule="evenodd" d="M235.787 413.175L187.838 405.774L196.268 350.705L244.218 358.106L235.787 413.175Z" fill="white"/>
<path fill-rule="evenodd" clip-rule="evenodd" d="M223.473 405.811C221.08 405.441 218.773 405.085 216.419 404.722C216.382 404.059 216.576 403.43 216.511 402.771C216.422 401.869 216.23 401.042 215.723 400.29C215.185 399.494 214.588 398.796 213.686 398.357C212.144 397.605 210.621 397.586 209.085 398.288C207.427 399.047 206.508 400.384 206.185 402.159C206.132 402.451 206.094 402.745 206.042 403.091C203.669 402.725 201.34 402.365 198.993 402.003C199.137 401.576 199.495 401.302 199.796 401.01C200.791 400.041 201.654 398.96 202.531 397.89C203.58 396.612 204.606 395.317 205.513 393.934C206.542 392.365 207.534 390.775 208.437 389.125C209.633 386.941 210.703 384.709 211.607 382.387C212.064 381.212 212.439 380.011 212.873 378.832C213.259 377.783 213.399 376.658 213.881 375.643C213.906 375.591 213.91 375.526 213.914 375.467C214.009 374.117 214.532 372.859 214.718 371.522C215.192 368.122 215.74 364.732 216.267 361.341C216.312 361.052 216.328 360.765 216.487 360.483C216.894 359.754 217.226 359.548 218.048 359.656C218.165 359.671 218.281 359.691 218.452 359.718C218.637 360.003 218.832 360.305 219.081 360.69C219.127 360.864 219.026 361.127 218.986 361.389C218.682 363.414 218.419 365.447 218.047 367.459C217.623 369.762 217.51 372.1 217.227 374.417C217.068 375.71 217.015 377.048 217.065 378.383C217.101 379.341 217.135 380.324 217.051 381.297C217.009 381.784 217.143 382.284 217.17 382.78C217.266 384.563 217.446 386.337 217.724 388.097C217.947 389.512 218.246 390.917 218.573 392.312C218.935 393.857 219.269 395.42 219.795 396.911C220.53 398.995 221.231 401.098 222.196 403.095C222.619 403.971 223.024 404.856 223.473 405.811Z" fill="#CBF0FF"/>
<path fill-rule="evenodd" clip-rule="evenodd" d="M219.231 364.418L215.34 363.85C214.921 363.788 214.631 363.398 214.692 362.977C214.753 362.557 215.142 362.265 215.561 362.326L219.452 362.895C219.871 362.956 220.16 363.347 220.1 363.767C220.039 364.188 219.65 364.48 219.231 364.418Z" fill="#CBF0FF"/>
<path fill-rule="evenodd" clip-rule="evenodd" d="M218.55 390.948L207.982 389.403C207.488 389.331 207.146 388.87 207.218 388.374C207.289 387.878 207.749 387.535 208.242 387.607L218.811 389.152C219.305 389.224 219.647 389.684 219.575 390.18C219.502 390.676 219.044 391.02 218.55 390.948Z" fill="#CBF0FF"/>
<path fill-rule="evenodd" clip-rule="evenodd" d="M217.435 387.953L209.617 386.81C209.124 386.738 208.782 386.278 208.853 385.781C208.925 385.285 209.384 384.942 209.878 385.014L217.696 386.157C218.189 386.229 218.531 386.689 218.46 387.186C218.388 387.681 217.93 388.025 217.435 387.953Z" fill="#CBF0FF"/>
<path fill-rule="evenodd" clip-rule="evenodd" d="M192.746 386.416L217.785 379.679C218.271 379.549 218.551 379.012 218.41 378.481C218.268 377.95 217.758 377.626 217.272 377.757L192.233 384.494C191.746 384.625 191.466 385.162 191.608 385.692C191.749 386.223 192.259 386.547 192.746 386.416Z" fill="#FFD6F1"/>
<path fill-rule="evenodd" clip-rule="evenodd" d="M189.342 373.596L207.33 368.757C207.826 368.623 208.112 368.085 207.971 367.554C207.829 367.024 207.313 366.701 206.817 366.834L188.829 371.674C188.333 371.807 188.046 372.346 188.188 372.877C188.33 373.408 188.846 373.73 189.342 373.596Z" fill="#FFD6F1"/>
<path fill-rule="evenodd" clip-rule="evenodd" d="M191.206 380.65L197.741 378.892C198.227 378.761 198.506 378.225 198.365 377.694C198.223 377.163 197.714 376.838 197.228 376.969L190.693 378.728C190.206 378.859 189.927 379.395 190.069 379.926C190.211 380.457 190.719 380.781 191.206 380.65Z" fill="#FFD6F1"/>
<mask id="mask2_666_1029" style="mask-type:alpha" maskUnits="userSpaceOnUse" x="200" y="369" width="28" height="10">
<path fill-rule="evenodd" clip-rule="evenodd" d="M227.527 369.073L200.018 376.475L200.449 378.089L227.958 370.688L227.527 369.073Z" fill="white"/>
</mask>
<g mask="url(#mask2_666_1029)">
<path fill-rule="evenodd" clip-rule="evenodd" d="M201.341 377.849L227.066 370.928C227.559 370.795 227.862 370.326 227.743 369.88C227.624 369.434 227.128 369.18 226.635 369.313L200.91 376.234C200.417 376.367 200.115 376.836 200.234 377.282C200.353 377.728 200.848 377.982 201.341 377.849Z" fill="#FFD6F1"/>
</g>
<path fill-rule="evenodd" clip-rule="evenodd" d="M187.799 367.831L217.281 359.898C217.774 359.765 218.06 359.227 217.918 358.697C217.777 358.166 217.261 357.843 216.768 357.976L187.286 365.908C186.792 366.041 186.507 366.579 186.649 367.11C186.791 367.641 187.305 367.963 187.799 367.831Z" fill="#FFD6F1"/>
<path fill-rule="evenodd" clip-rule="evenodd" d="M155.514 393.969C155.947 395.59 157.658 396.543 159.328 396.094L189.007 388.109C190.676 387.66 191.683 385.975 191.251 384.354L187.006 368.447C186.573 366.825 184.862 365.873 183.193 366.322L153.515 374.307C151.844 374.757 150.837 376.441 151.27 378.062L155.514 393.969Z" fill="#FE86D5"/>
<mask id="mask3_666_1029" style="mask-type:alpha" maskUnits="userSpaceOnUse" x="148" y="363" width="46" height="37">
<path fill-rule="evenodd" clip-rule="evenodd" d="M186.899 363.65L148.154 374.074L154.898 399.347L193.643 388.922L186.899 363.65Z" fill="white"/>
</mask>
<g mask="url(#mask3_666_1029)">
<path fill-rule="evenodd" clip-rule="evenodd" d="M155.205 394.459C155.649 396.12 157.368 397.107 159.039 396.657L188.718 388.672C190.387 388.223 191.386 386.505 190.943 384.843L186.592 368.538C186.148 366.876 184.428 365.89 182.759 366.339L153.08 374.325C151.409 374.774 150.411 376.491 150.854 378.153L155.205 394.459ZM152.688 372.855L182.367 364.869C184.866 364.197 187.435 365.661 188.095 368.134L192.446 384.439C193.106 386.911 191.61 389.469 189.111 390.142L159.432 398.127C156.931 398.8 154.362 397.336 153.702 394.863L149.351 378.558C148.691 376.085 150.187 373.527 152.688 372.855Z" fill="#FFD6F1"/>
</g>
<path fill-rule="evenodd" clip-rule="evenodd" d="M154.763 377.711C154.931 377.323 155.387 377.136 155.781 377.294L171.884 383.729L182.719 370.045C182.982 369.712 183.47 369.646 183.808 369.898C184.145 370.151 184.205 370.626 183.941 370.96L176.74 380.056L187.518 384.358C187.913 384.516 188.096 384.958 187.928 385.346C187.831 385.573 187.634 385.731 187.409 385.792C187.249 385.835 187.074 385.828 186.91 385.763L175.749 381.307L172.74 385.108C172.632 385.244 172.484 385.337 172.324 385.381C172.162 385.424 171.987 385.417 171.824 385.352L167.357 383.567L159.977 393.008C159.866 393.148 159.718 393.242 159.557 393.285C159.333 393.346 159.085 393.307 158.888 393.161C158.549 392.911 158.487 392.436 158.748 392.101L165.881 382.978L155.173 378.698C154.779 378.54 154.595 378.099 154.763 377.711Z" fill="#FFD6F1"/>
</svg>
