<svg width="390" height="424" viewBox="0 0 390 424" fill="none" xmlns="http://www.w3.org/2000/svg">
<path d="M140.833 4.912H143.857V18.832H140.833V4.912ZM138.121 10.384H141.673V12.976H138.121V10.384ZM136.225 5.344H139.201V18.112H136.225V5.344ZM124.825 7.192H135.601V9.64H124.825V7.192ZM130.249 10.36C133.033 10.36 135.049 11.944 135.049 14.248C135.049 16.552 133.033 18.112 130.249 18.112C127.465 18.112 125.449 16.552 125.449 14.248C125.449 11.944 127.465 10.36 130.249 10.36ZM130.249 12.64C129.073 12.64 128.281 13.216 128.281 14.248C128.281 15.28 129.073 15.856 130.249 15.856C131.401 15.856 132.193 15.28 132.193 14.248C132.193 13.216 131.401 12.64 130.249 12.64ZM128.641 5.128H131.785V8.872H128.641V5.128ZM136.345 19.072C141.097 19.072 143.977 20.512 143.977 23.104C143.977 25.672 141.097 27.136 136.345 27.136C131.569 27.136 128.689 25.672 128.689 23.104C128.689 20.512 131.569 19.072 136.345 19.072ZM136.345 21.448C133.369 21.448 131.881 21.952 131.881 23.104C131.881 24.232 133.369 24.76 136.345 24.76C139.297 24.76 140.785 24.232 140.785 23.104C140.785 21.952 139.297 21.448 136.345 21.448ZM146.999 16.816H167.135V19.36H146.999V16.816ZM149.471 5.344H164.687V11.368H152.663V13.768H149.495V9.112H161.543V7.768H149.471V5.344ZM149.495 12.808H165.119V15.232H149.495V12.808ZM155.471 13.984H158.663V18.208H155.471V13.984ZM149.231 20.608H164.831V27.064H161.639V23.128H149.231V20.608Z" fill="#00B2FF"/>
<path d="M179.133 6.016C183.813 6.016 187.437 8.584 187.437 12.448C187.437 16.336 183.813 18.88 179.133 18.88C174.453 18.88 170.829 16.336 170.829 12.448C170.829 8.584 174.453 6.016 179.133 6.016ZM179.133 8.608C176.109 8.608 173.949 10.048 173.949 12.448C173.949 14.824 176.109 16.264 179.133 16.264C182.157 16.264 184.317 14.824 184.317 12.448C184.317 10.048 182.157 8.608 179.133 8.608ZM169.101 21.856H189.213V24.472H169.101V21.856ZM191.179 22.096H211.291V24.688H191.179V22.096ZM199.603 17.896H202.795V23.152H199.603V17.896ZM193.435 6.352H209.035V13.744H196.651V17.488H193.483V11.248H205.867V8.872H193.435V6.352ZM193.483 16.216H209.539V18.784H193.483V16.216ZM218.014 16.36H238.126V18.856H218.014V16.36ZM226.462 13.984H229.654V17.272H226.462V13.984ZM220.51 12.592H235.99V15.016H220.51V12.592ZM220.51 5.464H235.822V7.888H223.678V13.96H220.51V5.464ZM222.79 9.064H235.318V11.392H222.79V9.064ZM228.046 19.84C232.918 19.84 235.75 21.136 235.75 23.488C235.75 25.864 232.918 27.136 228.046 27.136C223.15 27.136 220.318 25.864 220.318 23.488C220.318 21.136 223.15 19.84 228.046 19.84ZM228.046 22.192C224.95 22.192 223.534 22.576 223.534 23.488C223.534 24.424 224.95 24.808 228.046 24.808C231.118 24.808 232.534 24.424 232.534 23.488C232.534 22.576 231.118 22.192 228.046 22.192ZM240.092 8.248H250.724V10.792H240.092V8.248ZM245.444 11.776C248.276 11.776 250.316 13.96 250.316 17.08C250.316 20.176 248.276 22.36 245.444 22.36C242.636 22.36 240.572 20.176 240.572 17.08C240.572 13.96 242.636 11.776 245.444 11.776ZM245.444 14.44C244.244 14.44 243.404 15.4 243.404 17.08C243.404 18.76 244.244 19.696 245.444 19.696C246.644 19.696 247.508 18.76 247.508 17.08C247.508 15.4 246.644 14.44 245.444 14.44ZM256.172 4.912H259.22V27.136H256.172V4.912ZM253.508 13.936H257.18V16.504H253.508V13.936ZM251.516 5.32H254.492V26.2H251.516V5.32ZM243.884 5.512H247.028V9.856H243.884V5.512ZM79.6616 41.448H85.7096V44.016H79.6616V41.448ZM79.6616 48.336H85.7096V50.904H79.6616V48.336ZM75.8216 38.448C79.1336 38.448 81.5576 41.52 81.5576 46.368C81.5576 51.264 79.1336 54.336 75.8216 54.336C72.4856 54.336 70.0856 51.264 70.0856 46.368C70.0856 41.52 72.4856 38.448 75.8216 38.448ZM75.8216 41.352C74.2136 41.352 73.1096 43.104 73.1096 46.368C73.1096 49.68 74.2136 51.456 75.8216 51.456C77.4536 51.456 78.5336 49.68 78.5336 46.368C78.5336 43.104 77.4536 41.352 75.8216 41.352ZM85.2056 36.888H88.3736V59.184H85.2056V36.888ZM107.716 36.912H110.74V50.832H107.716V36.912ZM105.004 42.384H108.556V44.976H105.004V42.384ZM103.108 37.344H106.084V50.112H103.108V37.344ZM91.7078 39.192H102.484V41.64H91.7078V39.192ZM97.1318 42.36C99.9158 42.36 101.932 43.944 101.932 46.248C101.932 48.552 99.9158 50.112 97.1318 50.112C94.3478 50.112 92.3318 48.552 92.3318 46.248C92.3318 43.944 94.3478 42.36 97.1318 42.36ZM97.1318 44.64C95.9558 44.64 95.1638 45.216 95.1638 46.248C95.1638 47.28 95.9558 47.856 97.1318 47.856C98.2838 47.856 99.0758 47.28 99.0758 46.248C99.0758 45.216 98.2838 44.64 97.1318 44.64ZM95.5238 37.128H98.6678V40.872H95.5238V37.128ZM103.228 51.072C107.98 51.072 110.86 52.512 110.86 55.104C110.86 57.672 107.98 59.136 103.228 59.136C98.4518 59.136 95.5718 57.672 95.5718 55.104C95.5718 52.512 98.4518 51.072 103.228 51.072ZM103.228 53.448C100.252 53.448 98.7638 53.952 98.7638 55.104C98.7638 56.232 100.252 56.76 103.228 56.76C106.18 56.76 107.668 56.232 107.668 55.104C107.668 53.952 106.18 53.448 103.228 53.448ZM121.034 38.376C124.538 38.376 127.154 40.656 127.154 43.848C127.154 47.064 124.538 49.344 121.034 49.344C117.554 49.344 114.89 47.064 114.89 43.848C114.89 40.656 117.554 38.376 121.034 38.376ZM121.034 41.112C119.33 41.112 118.034 42.12 118.034 43.848C118.034 45.6 119.33 46.608 121.034 46.608C122.738 46.608 124.034 45.6 124.034 43.848C124.034 42.12 122.738 41.112 121.034 41.112ZM129.242 36.888H132.434V59.184H129.242V36.888ZM114.362 54.672L113.978 52.104C117.89 52.104 123.338 52.056 128.018 51.36L128.258 53.664C123.434 54.624 118.202 54.672 114.362 54.672ZM140.765 49.608H160.853V52.056H140.765V49.608ZM143.189 56.28H158.597V58.752H143.189V56.28ZM143.189 53.232H146.381V57.792H143.189V53.232ZM141.725 38.736H159.821V41.136H141.725V38.736ZM150.821 41.808C155.549 41.808 158.261 42.984 158.261 45.216C158.261 47.424 155.549 48.624 150.821 48.624C146.093 48.624 143.381 47.424 143.381 45.216C143.381 42.984 146.093 41.808 150.821 41.808ZM150.821 44.04C147.941 44.04 146.645 44.4 146.645 45.216C146.645 46.056 147.941 46.392 150.821 46.392C153.677 46.392 154.997 46.056 154.997 45.216C154.997 44.4 153.677 44.04 150.821 44.04ZM149.213 36.816H152.405V40.248H149.213V36.816ZM167.979 39.12H170.571V40.536C170.571 44.712 168.603 48.576 164.331 49.968L162.723 47.448C166.395 46.248 167.979 43.32 167.979 40.536V39.12ZM168.651 39.12H171.219V40.536C171.219 43.128 172.731 45.864 176.235 47.04L174.675 49.536C170.547 48.168 168.651 44.472 168.651 40.536V39.12ZM174.939 42.216H179.163V44.808H174.939V42.216ZM163.587 38.136H175.539V40.656H163.587V38.136ZM166.299 51.144H181.443V59.136H178.251V53.688H166.299V51.144ZM178.251 36.912H181.443V50.136H178.251V36.912ZM194.977 37.224C200.041 37.224 203.017 38.568 203.017 41.016C203.017 43.464 200.041 44.808 194.977 44.808C189.889 44.808 186.937 43.464 186.937 41.016C186.937 38.568 189.889 37.224 194.977 37.224ZM194.977 39.552C191.761 39.552 190.249 40.032 190.249 41.016C190.249 42.048 191.761 42.48 194.977 42.48C198.193 42.48 199.705 42.048 199.705 41.016C199.705 40.032 198.193 39.552 194.977 39.552ZM184.921 45.84H205.009V48.36H184.921V45.84ZM187.225 49.608H202.585V55.32H190.393V57.288H187.249V53.112H199.441V51.984H187.225V49.608ZM187.249 56.592H203.161V58.992H187.249V56.592ZM211.828 53.976H231.94V56.568H211.828V53.976ZM220.252 49.056H223.444V54.576H220.252V49.056ZM213.916 38.544H229.732V49.464H213.916V38.544ZM226.612 41.088H217.06V46.944H226.612V41.088ZM239.834 38.448C243.218 38.448 245.666 41.52 245.666 46.368C245.666 51.264 243.218 54.336 239.834 54.336C236.45 54.336 234.002 51.264 234.002 46.368C234.002 41.52 236.45 38.448 239.834 38.448ZM239.834 41.352C238.178 41.352 237.074 43.104 237.074 46.368C237.074 49.68 238.178 51.456 239.834 51.456C241.49 51.456 242.618 49.68 242.618 46.368C242.618 43.104 241.49 41.352 239.834 41.352ZM248.09 36.912H251.306V59.136H248.09V36.912ZM250.586 45.288H254.522V47.928H250.586V45.288ZM255.984 53.976H276.096V56.568H255.984V53.976ZM264.408 49.224H267.6V54.6H264.408V49.224ZM258.096 38.328H261.264V41.736H270.744V38.328H273.912V49.896H258.096V38.328ZM261.264 44.232V47.352H270.744V44.232H261.264ZM286.798 44.376H290.47V46.968H286.798V44.376ZM282.046 38.832H284.494V42.576C284.494 47.616 283.102 52.536 279.55 54.72L277.63 52.32C280.894 50.304 282.046 46.344 282.046 42.576V38.832ZM282.742 38.832H285.142V42.432C285.142 46.056 286.078 49.752 289.102 51.72L287.374 54.216C283.846 52.032 282.742 47.232 282.742 42.432V38.832ZM294.094 36.912H297.142V59.136H294.094V36.912ZM289.582 37.248H292.558V58.128H289.582V37.248ZM304.556 48.192H307.724V54.432H304.556V48.192ZM312.62 48.192H315.812V54.432H312.62V48.192ZM300.14 53.976H320.252V56.568H300.14V53.976ZM310.172 37.992C314.948 37.992 318.476 40.344 318.476 43.968C318.476 47.592 314.948 49.92 310.172 49.92C305.372 49.92 301.868 47.592 301.868 43.968C301.868 40.344 305.372 37.992 310.172 37.992ZM310.172 40.488C307.076 40.488 305.012 41.76 305.012 43.968C305.012 46.152 307.076 47.448 310.172 47.448C313.268 47.448 315.332 46.152 315.332 43.968C315.332 41.76 313.268 40.488 310.172 40.488Z" fill="black"/>
<path fill-rule="evenodd" clip-rule="evenodd" d="M223.511 223.899L137.18 151.981C131.63 147.358 123.159 150.477 121.93 157.592L102.814 268.316L83.6975 379.04C82.4671 386.157 89.4041 391.935 96.181 389.441L201.629 350.635L307.077 311.828C313.854 309.334 315.391 300.439 309.843 295.817L223.511 223.899Z" fill="#EAF9FF"/>
<path fill-rule="evenodd" clip-rule="evenodd" d="M133.992 264.718H138.748V126.808H133.992V264.718Z" fill="#FE86D5"/>
<path fill-rule="evenodd" clip-rule="evenodd" d="M208.178 264.718H212.934V126.808H208.178V264.718Z" fill="#FE86D5"/>
<path fill-rule="evenodd" clip-rule="evenodd" d="M126.383 139.172H220.542V115.394H126.383V139.172Z" fill="#FFEBF8"/>
<path fill-rule="evenodd" clip-rule="evenodd" d="M190.127 131.273L188.275 126.992C188.096 126.577 188.27 126.089 188.663 125.893C188.95 125.756 189.289 125.803 189.527 126.02L192.229 128.457L207.529 121.453C208.772 120.885 210.228 121 211.33 121.825C211.628 122.048 211.871 122.301 211.982 122.582C211.982 122.582 208.611 125.411 204.784 126.86L201.197 134.945C200.861 135.703 200.307 136.33 199.614 136.745L198.733 137.269L200.194 129.074L192.758 132.35C192.348 132.53 191.892 132.564 191.46 132.444C190.87 132.287 190.379 131.853 190.127 131.273Z" fill="#FFA8E1"/>
<path fill-rule="evenodd" clip-rule="evenodd" d="M197.576 126.808L201.521 124.567L195.947 122.249C195.012 121.86 193.986 122.054 193.181 122.776L192.961 122.976L197.576 126.808Z" fill="#FFA8E1"/>
<path fill-rule="evenodd" clip-rule="evenodd" d="M135.894 128.71H152.063V127.759H135.894V128.71Z" fill="#FFA8E1"/>
<path fill-rule="evenodd" clip-rule="evenodd" d="M154.917 128.229L147.929 122.052L146.357 123.445L151.762 128.233L146.357 133.022L147.929 134.417L153.336 129.627L153.342 129.634L154.917 128.24L154.909 128.233L154.917 128.229Z" fill="#FFA8E1"/>
<path fill-rule="evenodd" clip-rule="evenodd" d="M126.383 183.874H220.542V160.096H126.383V183.874Z" fill="#FFEBF8"/>
<path fill-rule="evenodd" clip-rule="evenodd" d="M136.845 172.46H153.014V171.509H136.845V172.46Z" fill="#FFA8E1"/>
<path fill-rule="evenodd" clip-rule="evenodd" d="M133.992 171.978L140.978 165.803L142.552 167.196L137.145 171.985L142.552 176.774L140.978 178.167L135.573 173.379L135.565 173.385L133.992 171.992L133.998 171.985L133.992 171.978Z" fill="#FFA8E1"/>
<path fill-rule="evenodd" clip-rule="evenodd" d="M201.503 167.705C202.709 167.705 203.423 168.492 203.423 169.137C203.423 169.914 202.741 170.558 201.503 170.558C200.404 170.558 199.618 169.814 199.618 169.137C199.618 168.492 200.283 167.705 201.503 167.705ZM199.618 178.167V176.424H200.333V173.241H199.618V171.509H203.556V176.424H204.374V178.167H199.618Z" fill="#FFA8E1"/>
<path fill-rule="evenodd" clip-rule="evenodd" d="M201.995 164.851C197.539 164.851 193.912 168.477 193.912 172.935C193.912 177.393 197.539 181.02 201.995 181.02C206.453 181.02 210.08 177.393 210.08 172.935C210.08 168.477 206.453 164.851 201.995 164.851ZM201.995 182.922C196.489 182.922 192.009 178.443 192.009 172.935C192.009 167.429 196.489 162.949 201.995 162.949C207.503 162.949 211.983 167.429 211.983 172.935C211.983 178.443 207.503 182.922 201.995 182.922Z" fill="#FFA8E1"/>
<path fill-rule="evenodd" clip-rule="evenodd" d="M120.528 195.239C120.528 197.821 118.434 199.915 115.853 199.915C113.271 199.915 111.177 197.821 111.177 195.239C111.177 192.658 113.271 190.564 115.853 190.564C118.434 190.564 120.528 192.658 120.528 195.239Z" fill="#80D9FF"/>
<path fill-rule="evenodd" clip-rule="evenodd" d="M340.654 189.939L233.904 206.377C231.737 206.709 229.711 205.227 229.378 203.061L217.092 123.273C216.758 121.107 218.244 119.083 220.41 118.75L327.16 102.31C329.327 101.978 331.353 103.461 331.687 105.625L343.972 185.415C344.306 187.58 342.82 189.604 340.654 189.939Z" fill="white"/>
<path fill-rule="evenodd" clip-rule="evenodd" d="M220.317 118.14L327.068 101.7C329.57 101.316 331.911 103.03 332.296 105.53L344.582 185.321C344.968 187.822 343.252 190.16 340.748 190.547L233.998 206.985C231.494 207.37 229.154 205.655 228.769 203.154L216.483 123.366C216.097 120.864 217.814 118.525 220.317 118.14ZM343.364 185.508L331.078 105.718C330.797 103.891 329.085 102.638 327.255 102.919L220.504 119.358C218.674 119.64 217.42 121.349 217.701 123.179L229.987 202.966C230.269 204.795 231.979 206.048 233.81 205.767L340.56 189.329C342.39 189.046 343.645 187.336 343.364 185.508Z" fill="#F1C627"/>
<path fill-rule="evenodd" clip-rule="evenodd" d="M278.526 124.407L223.723 132.847L223.355 130.455L278.158 122.016L278.526 124.407Z" fill="#F1C627"/>
<path fill-rule="evenodd" clip-rule="evenodd" d="M256.461 132.359L224.409 137.295L224.004 134.665L256.055 129.729L256.461 132.359Z" fill="#F1C627"/>
<path fill-rule="evenodd" clip-rule="evenodd" d="M217.658 126.938C217.658 126.938 215.509 120.481 220.41 118.749L327.162 102.31C329.327 101.977 330.459 103.272 330.49 103.471L332.251 109.294C332.281 109.489 217.686 127.134 217.658 126.938Z" fill="#F1C627"/>
<path fill-rule="evenodd" clip-rule="evenodd" d="M310.983 108.655C311.127 109.597 310.48 110.484 309.537 110.63C308.59 110.777 307.708 110.125 307.563 109.181C307.417 108.235 308.064 107.352 309.008 107.207C309.952 107.06 310.838 107.711 310.983 108.655Z" fill="#FFF4E3"/>
<path fill-rule="evenodd" clip-rule="evenodd" d="M316.728 107.768C316.873 108.712 316.226 109.599 315.282 109.745C314.338 109.89 313.454 109.238 313.308 108.295C313.163 107.35 313.811 106.468 314.755 106.323C315.699 106.177 316.583 106.827 316.728 107.768Z" fill="#FFF4E3"/>
<path fill-rule="evenodd" clip-rule="evenodd" d="M322.473 106.886C322.618 107.829 321.97 108.716 321.026 108.859C320.082 109.003 319.199 108.354 319.055 107.411C318.907 106.466 319.555 105.581 320.501 105.435C321.444 105.292 322.328 105.942 322.473 106.886Z" fill="#FFF4E3"/>
<mask id="mask0_666_1026" style="mask-type:alpha" maskUnits="userSpaceOnUse" x="214" y="153" width="73" height="60">
<path fill-rule="evenodd" clip-rule="evenodd" d="M214.241 163.549L221.779 212.485L286.741 202.484L279.204 153.546" fill="white"/>
</mask>
<g mask="url(#mask0_666_1026)">
<path fill-rule="evenodd" clip-rule="evenodd" d="M262.978 192.719L258.798 194.83C258.798 194.83 259.143 197.717 258.665 197.788C258.187 197.862 256.583 201.44 256.583 201.44L253.852 202.156L251.967 201.366L250.313 202.7L245.779 202.516L244.081 203.562L238.199 201.623L237.206 198.352L238.109 195.961L235.954 192.765L238.058 189.896L242.003 190.071L244.408 187.253L247.446 186L251.105 187.495L252.362 187.398L252.245 186.632L250.487 184.749L250.707 179.82L252.379 179.853L252.731 182.151L253.106 180.134L258.595 181.445L258.147 182.982L255.536 184.46L254.609 186.072L255.75 186.487L256.148 187.796L256.735 186.53L260.893 184.909L261.202 185.646L258.178 188.267L258.39 190.288L259.547 192.073L261.696 190.76C261.696 190.76 262.691 192.763 262.978 192.719Z" fill="#80D9FF"/>
</g>
<mask id="mask1_666_1026" style="mask-type:alpha" maskUnits="userSpaceOnUse" x="214" y="153" width="73" height="60">
<path fill-rule="evenodd" clip-rule="evenodd" d="M214.241 163.549L221.779 212.485L286.741 202.484L279.204 153.546L214.241 163.549Z" fill="white"/>
</mask>
<g mask="url(#mask1_666_1026)">
<path fill-rule="evenodd" clip-rule="evenodd" d="M250.708 180.174C250.717 179.973 250.884 179.816 251.085 179.82L252.756 179.854C252.937 179.857 253.088 179.99 253.115 180.168L253.142 180.345C253.171 180.284 253.217 180.232 253.275 180.194C253.36 180.139 253.464 180.121 253.562 180.144L259.051 181.456C259.15 181.479 259.235 181.542 259.285 181.63C259.336 181.717 259.349 181.822 259.321 181.92L258.873 183.456C258.846 183.549 258.784 183.628 258.7 183.675L256.177 185.103L255.521 186.245L256.246 186.509C256.356 186.549 256.441 186.638 256.474 186.749L256.59 187.13L256.77 186.744C256.81 186.657 256.882 186.589 256.971 186.555L261.129 184.934C261.316 184.862 261.527 184.951 261.605 185.136L261.914 185.873C261.976 186.021 261.936 186.192 261.815 186.296L258.937 188.791L259.12 190.531L260.032 191.939L261.873 190.814C261.961 190.76 262.069 190.745 262.169 190.774C262.268 190.803 262.352 190.872 262.398 190.965L262.4 190.97L262.408 190.987L262.44 191.048C262.467 191.102 262.506 191.179 262.554 191.271C262.651 191.456 262.782 191.7 262.921 191.942C263.061 192.186 263.204 192.418 263.325 192.582C263.378 192.654 263.42 192.703 263.449 192.733C263.565 192.765 263.663 192.855 263.702 192.976C263.757 193.15 263.678 193.338 263.516 193.42L259.564 195.415C259.57 195.475 259.577 195.543 259.584 195.619C259.609 195.894 259.638 196.265 259.652 196.639C259.665 197.01 259.664 197.401 259.626 197.712C259.607 197.864 259.576 198.023 259.519 198.156C259.475 198.26 259.37 198.451 259.152 198.512C259.138 198.525 259.118 198.545 259.09 198.578C259.018 198.662 258.927 198.79 258.822 198.958C258.614 199.289 258.374 199.731 258.146 200.18C257.918 200.628 257.704 201.073 257.547 201.408C257.469 201.575 257.405 201.713 257.36 201.811L257.309 201.923L257.296 201.953L257.293 201.959L257.292 201.962C257.246 202.064 257.156 202.141 257.047 202.169L254.317 202.884C254.238 202.905 254.155 202.899 254.08 202.868L252.398 202.164L250.916 203.359C250.846 203.416 250.758 203.444 250.669 203.441L246.248 203.261L244.646 204.248C244.553 204.306 244.439 204.318 244.335 204.284L238.454 202.345C238.339 202.308 238.25 202.216 238.215 202.1L237.222 198.829C237.198 198.751 237.201 198.668 237.23 198.591L238.065 196.379L236.017 193.342C235.93 193.212 235.933 193.042 236.026 192.916L238.13 190.048C238.203 189.948 238.321 189.891 238.445 189.897L242.209 190.064L244.496 187.383C244.534 187.338 244.582 187.303 244.637 187.281L247.676 186.028C247.766 185.991 247.867 185.99 247.957 186.027L251.535 187.489L252.306 187.43L252.267 187.171L250.586 185.373C250.518 185.3 250.483 185.203 250.487 185.103L250.708 180.174ZM256.689 201.497C256.734 201.399 256.798 201.259 256.876 201.093C257.035 200.754 257.253 200.301 257.485 199.844C257.717 199.39 257.969 198.923 258.195 198.563C258.308 198.384 258.42 198.221 258.527 198.096C258.58 198.034 258.639 197.973 258.702 197.922C258.737 197.894 258.787 197.858 258.85 197.831C258.864 197.786 258.878 197.717 258.89 197.621C258.921 197.37 258.924 197.026 258.911 196.666C258.898 196.31 258.871 195.954 258.846 195.686C258.834 195.553 258.822 195.442 258.814 195.364L258.804 195.275L258.801 195.252L258.801 195.246L258.8 195.244C258.782 195.09 258.862 194.94 259.001 194.87L262.71 192.997C262.569 192.801 262.417 192.552 262.278 192.311C262.143 192.075 262.016 191.839 261.919 191.654L260.11 192.76C259.939 192.865 259.716 192.814 259.606 192.645L258.45 190.86C258.418 190.811 258.399 190.755 258.392 190.697L258.18 188.676C258.167 188.556 258.214 188.437 258.306 188.357L261.127 185.912L261.061 185.756L257.379 187.191L256.854 188.322C256.789 188.462 256.645 188.547 256.492 188.536C256.339 188.525 256.208 188.421 256.164 188.274L255.819 187.142L254.853 186.791C254.75 186.754 254.669 186.673 254.632 186.57C254.594 186.467 254.604 186.353 254.659 186.258L255.585 184.646C255.618 184.588 255.666 184.541 255.724 184.508L258.204 183.105L258.501 182.086L253.769 180.956L253.466 182.59C253.432 182.767 253.276 182.895 253.095 182.892C252.915 182.889 252.763 182.757 252.735 182.578L252.43 180.588L251.431 180.568L251.234 184.981L252.887 186.749C252.937 186.804 252.971 186.872 252.982 186.946L253.099 187.713C253.115 187.815 253.087 187.918 253.023 187.999C252.959 188.08 252.864 188.13 252.761 188.138L251.504 188.235C251.447 188.239 251.389 188.23 251.335 188.208L247.818 186.771L245.002 187.932L242.656 190.682C242.582 190.769 242.472 190.817 242.357 190.812L238.61 190.646L236.777 193.144L238.787 196.124C238.854 196.224 238.869 196.35 238.826 196.462L237.967 198.735L238.868 201.702L244.404 203.527L245.955 202.571C246.018 202.532 246.091 202.513 246.165 202.516L250.56 202.695L252.105 201.448C252.211 201.362 252.355 201.342 252.481 201.395L254.25 202.135L256.689 201.497Z" fill="#80D9FF"/>
</g>
<mask id="mask2_666_1026" style="mask-type:alpha" maskUnits="userSpaceOnUse" x="214" y="153" width="73" height="60">
<path fill-rule="evenodd" clip-rule="evenodd" d="M214.241 163.549L221.779 212.485L286.741 202.484L279.204 153.546" fill="white"/>
</mask>
<g mask="url(#mask2_666_1026)">
<path fill-rule="evenodd" clip-rule="evenodd" d="M236.77 180.471C237.436 187.018 248.423 195.744 248.423 195.744C248.423 195.744 256.094 185.178 254.938 177.672C254.164 172.658 249.472 169.218 244.458 169.99C239.439 170.762 236.261 175.421 236.77 180.471Z" fill="#FE86D5"/>
</g>
<mask id="mask3_666_1026" style="mask-type:alpha" maskUnits="userSpaceOnUse" x="214" y="153" width="73" height="60">
<path fill-rule="evenodd" clip-rule="evenodd" d="M214.241 163.549L221.779 212.485L286.741 202.484L279.204 153.546" fill="white"/>
</mask>
<g mask="url(#mask3_666_1026)">
<path fill-rule="evenodd" clip-rule="evenodd" d="M242.061 179.655C242.384 181.752 244.343 183.19 246.441 182.865C248.534 182.543 249.972 180.582 249.649 178.487C249.326 176.39 247.366 174.955 245.272 175.279C243.176 175.599 241.739 177.561 242.061 179.655Z" fill="white"/>
</g>
<path fill-rule="evenodd" clip-rule="evenodd" d="M229.052 185.496C230.716 196.3 240.859 203.728 251.659 202.064C262.462 200.4 269.895 190.266 268.233 179.464C266.57 168.662 256.427 161.222 245.626 162.886C234.826 164.55 227.39 174.696 229.052 185.496ZM220.048 186.879C217.621 171.117 228.472 156.312 244.239 153.885C260.007 151.456 274.808 162.307 277.237 178.075C279.665 193.843 268.811 208.64 253.045 211.068C237.278 213.494 222.477 202.649 220.048 186.879Z" fill="#E649B0"/>
<path fill-rule="evenodd" clip-rule="evenodd" d="M229.014 214.867L236.158 205.131L230.869 201.254L223.729 210.996L229.014 214.867Z" fill="#E649B0"/>
<mask id="mask4_666_1026" style="mask-type:alpha" maskUnits="userSpaceOnUse" x="204" y="208" width="28" height="33">
<path fill-rule="evenodd" clip-rule="evenodd" d="M204.178 208.578H231.78V240.179H204.178V208.578Z" fill="white"/>
</mask>
<g mask="url(#mask4_666_1026)">
<path fill-rule="evenodd" clip-rule="evenodd" d="M219.2 210.454L205.066 229.733C203.567 231.777 204.011 234.649 206.054 236.15L210.342 239.291C212.389 240.79 215.258 240.347 216.759 238.301L230.892 219.028C232.39 216.98 231.948 214.111 229.904 212.61L225.616 209.468C223.57 207.969 220.699 208.41 219.2 210.454Z" fill="#004765"/>
</g>
<path fill-rule="evenodd" clip-rule="evenodd" d="M328.97 153.344C330.92 167.38 321.123 180.341 307.086 182.291C293.05 184.241 280.088 174.441 278.138 160.404C276.188 146.369 285.989 133.407 300.024 131.459C314.062 129.509 327.021 139.309 328.97 153.344Z" fill="#FED600"/>
<path fill-rule="evenodd" clip-rule="evenodd" d="M290.894 152.778L285.937 161.539L305.204 172.729L321.169 147.427L312.822 142.143L301.977 159.11L290.894 152.778Z" fill="white"/>
<path fill-rule="evenodd" clip-rule="evenodd" d="M84.657 122.655C84.657 117.205 80.2385 112.787 74.79 112.787C80.2385 112.787 84.657 108.368 84.657 102.92C84.657 108.368 89.0754 112.787 94.5252 112.787C89.0754 112.787 84.657 117.205 84.657 122.655Z" fill="#FCD01E"/>
<mask id="mask5_666_1026" style="mask-type:alpha" maskUnits="userSpaceOnUse" x="73" y="101" width="23" height="23">
<path fill-rule="evenodd" clip-rule="evenodd" d="M73.4964 101H95.9208V123.424H73.4964V101Z" fill="white"/>
</mask>
<g mask="url(#mask5_666_1026)">
<path fill-rule="evenodd" clip-rule="evenodd" d="M80.1617 112.213C82.0832 113.252 83.6686 114.839 84.7093 116.76C85.7487 114.839 87.334 113.252 89.2569 112.213C87.334 111.172 85.7487 109.587 84.7093 107.665C83.6686 109.587 82.0832 111.172 80.1617 112.213ZM84.7093 123.424C83.9671 123.424 83.3647 122.823 83.3647 122.08C83.3647 117.38 79.5405 113.558 74.841 113.558C74.0988 113.558 73.4964 112.955 73.4964 112.213C73.4964 111.471 74.0988 110.868 74.841 110.868C79.5405 110.868 83.3647 107.044 83.3647 102.345C83.3647 101.602 83.9671 101 84.7093 101C85.4515 101 86.0539 101.602 86.0539 102.345C86.0539 107.044 89.8767 110.868 94.5762 110.868C95.3184 110.868 95.9208 111.471 95.9208 112.213C95.9208 112.955 95.3184 113.558 94.5762 113.558C89.8767 113.558 86.0539 117.38 86.0539 122.08C86.0539 122.823 85.4515 123.424 84.7093 123.424Z" fill="#FCD01E"/>
</g>
<path fill-rule="evenodd" clip-rule="evenodd" d="M61.2919 259.113H23.6892C22.9577 259.113 22.3647 258.544 22.3647 257.842C22.3647 257.141 22.9577 256.572 23.6892 256.572H61.2919C62.022 256.572 62.615 257.141 62.615 257.842C62.615 258.544 62.022 259.113 61.2919 259.113Z" fill="#EAF9FF"/>
<path fill-rule="evenodd" clip-rule="evenodd" d="M60.8173 240.18H34.2958C33.5643 240.18 32.9727 239.611 32.9727 238.909C32.9727 238.207 33.5643 237.638 34.2958 237.638H60.8173C61.5488 237.638 62.1404 238.207 62.1404 238.909C62.1404 239.611 61.5488 240.18 60.8173 240.18Z" fill="#EAF9FF"/>
<path fill-rule="evenodd" clip-rule="evenodd" d="M60.8172 250.329H51C50.2685 250.329 49.6755 249.76 49.6755 249.058C49.6755 248.356 50.2685 247.788 51 247.788H60.8172C61.5486 247.788 62.1403 248.356 62.1403 249.058C62.1403 249.76 61.5486 250.329 60.8172 250.329Z" fill="#EAF9FF"/>
<mask id="mask6_666_1026" style="mask-type:alpha" maskUnits="userSpaceOnUse" x="6" y="247" width="41" height="4">
<path fill-rule="evenodd" clip-rule="evenodd" d="M6 247.788H46.8374V250.329H6V247.788Z" fill="white"/>
</mask>
<g mask="url(#mask6_666_1026)">
<path fill-rule="evenodd" clip-rule="evenodd" d="M45.514 250.329H7.32373C6.59225 250.329 5.99927 249.76 5.99927 249.058C5.99927 248.356 6.59225 247.788 7.32373 247.788H45.514C46.2441 247.788 46.8371 248.356 46.8371 249.058C46.8371 249.76 46.2441 250.329 45.514 250.329Z" fill="#EAF9FF"/>
</g>
<path fill-rule="evenodd" clip-rule="evenodd" d="M60.8177 231.095H17.1454C16.4139 231.095 15.8209 230.527 15.8209 229.825C15.8209 229.123 16.4139 228.553 17.1454 228.553H60.8177C61.5492 228.553 62.1408 229.123 62.1408 229.825C62.1408 230.527 61.5492 231.095 60.8177 231.095Z" fill="#EAF9FF"/>
<path fill-rule="evenodd" clip-rule="evenodd" d="M115.745 255.618C115.745 258.058 113.713 260.044 111.215 260.044H66.8329C64.3373 260.044 62.3042 258.058 62.3042 255.618V231.667C62.3042 229.225 64.3373 227.241 66.8329 227.241H111.215C113.713 227.241 115.745 229.225 115.745 231.667V255.618Z" fill="#80D9FF"/>
<path fill-rule="evenodd" clip-rule="evenodd" d="M115.745 255.618C115.745 258.058 113.713 260.044 111.215 260.044H66.8333C64.3377 260.044 62.3046 258.058 62.3046 255.618V231.667C62.3046 229.225 64.3377 227.241 66.8333 227.241H111.215C113.713 227.241 115.745 229.225 115.745 231.667V255.618ZM111.215 225.081H66.8333C63.0966 225.081 60.0564 228.035 60.0564 231.667V255.618C60.0564 259.248 63.0966 262.204 66.8333 262.204H111.215C114.954 262.204 117.994 259.248 117.994 255.618V231.667C117.994 228.035 114.954 225.081 111.215 225.081Z" fill="#EAF9FF"/>
<path fill-rule="evenodd" clip-rule="evenodd" d="M110.693 232.891C110.314 232.419 109.608 232.33 109.116 232.694L89.0219 247.542L68.7892 232.692C68.297 232.33 67.5911 232.421 67.2133 232.893C66.8368 233.368 66.9309 234.046 67.423 234.407L80.8734 244.278L67.4203 254.211C66.9295 254.574 66.8368 255.252 67.2159 255.725C67.4365 256.001 67.7699 256.146 68.1074 256.146C68.3468 256.146 68.5888 256.073 68.7918 255.923L82.7222 245.636L88.3415 249.76C88.5432 249.908 88.7839 249.982 89.0245 249.982C89.2666 249.982 89.5086 249.908 89.7117 249.759L95.2852 245.639L109.113 255.92C109.319 256.072 109.561 256.146 109.802 256.146C110.137 256.146 110.47 256.002 110.691 255.728C111.071 255.257 110.981 254.578 110.49 254.212L97.1273 244.278L110.489 234.405C110.979 234.042 111.072 233.364 110.693 232.891Z" fill="#EAF9FF"/>
<path fill-rule="evenodd" clip-rule="evenodd" d="M89.42 296.047C89.42 292.806 86.7939 290.18 83.5547 290.18C86.7939 290.18 89.42 287.554 89.42 284.313C89.42 287.554 92.0474 290.18 95.2866 290.18C92.0474 290.18 89.42 292.806 89.42 296.047Z" fill="#FCD01E"/>
<path fill-rule="evenodd" clip-rule="evenodd" d="M294.206 267.609C293.811 267.609 293.417 267.456 293.122 267.15L286.464 260.285C285.884 259.686 285.899 258.732 286.497 258.151C287.093 257.571 288.049 257.585 288.631 258.184L294.297 264.027L301.596 257.727C302.172 257.23 303.028 257.239 303.593 257.749L310.171 263.683L317.199 257.368C317.789 256.838 318.689 256.855 319.256 257.406L326.341 264.261C326.941 264.84 326.956 265.796 326.376 266.395C325.797 266.993 324.841 267.009 324.242 266.431L318.17 260.554L311.177 266.836C310.602 267.351 309.731 267.351 309.158 266.833L302.56 260.883L295.192 267.243C294.906 267.488 294.556 267.609 294.206 267.609Z" fill="#AFFFED"/>
<path fill-rule="evenodd" clip-rule="evenodd" d="M50.3548 198.304C50.371 198.616 50.254 198.769 50.0805 198.889C49.8358 199.059 49.6072 199.318 49.3356 199.378C48.0918 199.647 47.7032 200.677 47.2111 201.636C46.7405 202.549 46.0937 202.632 45.6486 201.715C45.0556 200.494 44.3053 199.592 43.0064 199.071C42.2991 198.79 42.3059 197.906 43.0266 197.622C44.3336 197.107 45.096 196.228 45.6634 194.977C46.0614 194.099 46.7889 194.173 47.1896 195.052C47.6602 196.08 48.1335 197.029 49.3652 197.365C49.8143 197.489 50.2513 197.834 50.3548 198.304Z" fill="#FCD01E"/>
<path fill-rule="evenodd" clip-rule="evenodd" d="M350.034 378.755C350.05 379.067 349.933 379.22 349.76 379.34C349.515 379.51 349.286 379.77 349.015 379.829C347.771 380.098 347.382 381.129 346.89 382.087C346.419 383 345.773 383.083 345.328 382.166C344.735 380.945 343.984 380.043 342.685 379.522C341.978 379.241 341.985 378.357 342.706 378.073C344.013 377.558 344.775 376.679 345.342 375.428C345.74 374.55 346.468 374.624 346.869 375.505C347.339 376.532 347.812 377.48 349.044 377.816C349.493 377.94 349.93 378.285 350.034 378.755Z" fill="#FCD01E"/>
<path fill-rule="evenodd" clip-rule="evenodd" d="M339.453 368.349C339.48 368.875 339.283 369.133 338.99 369.334C338.578 369.622 338.193 370.059 337.736 370.16C335.638 370.613 334.985 372.35 334.154 373.964C333.363 375.504 332.271 375.643 331.521 374.098C330.52 372.041 329.258 370.519 327.067 369.644C325.876 369.169 325.887 367.678 327.101 367.2C329.305 366.332 330.59 364.849 331.546 362.743C332.217 361.261 333.442 361.388 334.119 362.869C334.911 364.601 335.708 366.201 337.784 366.768C338.543 366.976 339.279 367.559 339.453 368.349Z" fill="#FCD01E"/>
<path fill-rule="evenodd" clip-rule="evenodd" d="M372.238 211.428H295.807C289.455 211.428 284.287 206.26 284.287 199.908C284.287 193.556 289.455 188.389 295.807 188.389H372.238C378.59 188.389 383.758 193.556 383.758 199.908C383.758 206.26 378.59 211.428 372.238 211.428Z" fill="white"/>
<path fill-rule="evenodd" clip-rule="evenodd" d="M295.805 189.732C290.195 189.732 285.631 194.297 285.631 199.907C285.631 205.518 290.195 210.082 295.805 210.082H372.238C377.848 210.082 382.411 205.518 382.411 199.907C382.411 194.297 377.848 189.732 372.238 189.732H295.805ZM372.238 212.771H295.805C288.712 212.771 282.942 207 282.942 199.907C282.942 192.814 288.712 187.043 295.805 187.043H372.238C379.331 187.043 385.101 192.814 385.101 199.907C385.101 207 379.331 212.771 372.238 212.771Z" fill="#009EE2"/>
<path fill-rule="evenodd" clip-rule="evenodd" d="M300.173 204.819L298.78 205.552C297.785 206.075 296.619 205.229 296.81 204.12L297.076 202.569C297.151 202.128 297.006 201.679 296.685 201.367L295.558 200.269C294.752 199.483 295.197 198.115 296.311 197.953L297.869 197.727C298.31 197.663 298.694 197.384 298.891 196.984L299.586 195.573C300.085 194.565 301.524 194.565 302.021 195.573L302.719 196.984C302.917 197.384 303.299 197.663 303.741 197.727L305.298 197.953C306.412 198.115 306.855 199.483 306.05 200.269L304.923 201.367C304.603 201.679 304.458 202.128 304.533 202.569L304.799 204.12C304.99 205.229 303.826 206.075 302.83 205.552L301.435 204.819C301.041 204.611 300.568 204.611 300.173 204.819Z" fill="#00B2FF"/>
<path fill-rule="evenodd" clip-rule="evenodd" d="M323.306 204.819L321.913 205.552C320.918 206.075 319.753 205.229 319.944 204.12L320.209 202.569C320.284 202.128 320.139 201.679 319.819 201.367L318.692 200.269C317.886 199.483 318.331 198.115 319.444 197.953L321.001 197.727C321.443 197.663 321.825 197.385 322.023 196.984L322.72 195.573C323.218 194.563 324.657 194.563 325.155 195.573L325.853 196.984C326.05 197.385 326.432 197.663 326.874 197.727L328.432 197.953C329.545 198.115 329.99 199.483 329.185 200.269L328.058 201.367C327.736 201.679 327.591 202.128 327.666 202.569L327.933 204.12C328.122 205.229 326.958 206.075 325.963 205.552L324.57 204.819C324.174 204.611 323.701 204.611 323.306 204.819Z" fill="#00B2FF"/>
<path fill-rule="evenodd" clip-rule="evenodd" d="M346.06 204.819L344.667 205.552C343.67 206.075 342.506 205.229 342.697 204.12L342.963 202.569C343.038 202.128 342.893 201.679 342.573 201.367L341.445 200.269C340.639 199.483 341.084 198.115 342.198 197.953L343.755 197.727C344.197 197.663 344.579 197.385 344.777 196.984L345.473 195.573C345.972 194.563 347.411 194.563 347.908 195.573L348.606 196.984C348.804 197.385 349.186 197.663 349.628 197.727L351.185 197.953C352.299 198.115 352.744 199.483 351.938 200.269L350.81 201.367C350.49 201.679 350.345 202.128 350.42 202.569L350.686 204.12C350.877 205.229 349.712 206.075 348.717 205.552L347.324 204.819C346.928 204.611 346.455 204.611 346.06 204.819Z" fill="#00B2FF"/>
<path fill-rule="evenodd" clip-rule="evenodd" d="M368.435 204.819L367.042 205.552C366.046 206.075 364.882 205.229 365.072 204.12L365.339 202.569C365.414 202.128 365.267 201.679 364.947 201.367L363.821 200.269C363.015 199.483 363.459 198.115 364.574 197.953L366.131 197.727C366.573 197.663 366.955 197.384 367.153 196.984L367.849 195.573C368.348 194.565 369.787 194.565 370.284 195.573L370.981 196.984C371.178 197.384 371.56 197.663 372.003 197.727L373.561 197.953C374.675 198.115 375.118 199.483 374.313 200.269L373.186 201.367C372.866 201.679 372.721 202.128 372.796 202.569L373.061 204.12C373.252 205.229 372.087 206.075 371.092 205.552L369.698 204.819C369.304 204.611 368.831 204.611 368.435 204.819Z" fill="#DDDDDD"/>
<mask id="mask7_666_1026" style="mask-type:alpha" maskUnits="userSpaceOnUse" x="77" y="276" width="104" height="136">
<path fill-rule="evenodd" clip-rule="evenodd" d="M77.7012 276.967H180.866V411.692H77.7012V276.967Z" fill="white"/>
</mask>
<g mask="url(#mask7_666_1026)">
<path fill-rule="evenodd" clip-rule="evenodd" d="M123.933 411.116L172.608 395.437C178.865 393.421 182.303 386.715 180.289 380.457L149.613 285.225C147.598 278.967 140.891 275.528 134.633 277.544L85.9598 293.222C79.7014 295.238 76.2612 301.945 78.2778 308.204L108.952 403.435C110.969 409.692 117.675 413.131 123.933 411.116Z" fill="#004765"/>
</g>
<path fill-rule="evenodd" clip-rule="evenodd" d="M174.675 379.839L145.415 289.001C143.848 284.134 138.63 281.459 133.763 283.028L89.8681 297.167C84.9999 298.734 82.3258 303.952 83.8935 308.819L113.153 399.657C114.721 404.524 119.937 407.199 124.804 405.631L168.701 391.491C173.568 389.924 176.243 384.706 174.675 379.839Z" fill="white"/>
<path fill-rule="evenodd" clip-rule="evenodd" d="M118.563 292.752L107.631 296.211C105.112 297.007 102.424 295.612 101.628 293.093C101.299 292.056 101.874 290.948 102.911 290.62L119.21 285.464C120.246 285.136 121.353 285.71 121.682 286.748C122.478 289.267 121.082 291.955 118.563 292.752Z" fill="#004765"/>
<path fill-rule="evenodd" clip-rule="evenodd" d="M105.277 310.377L97.3079 312.952C97.0462 313.036 96.7657 312.893 96.6815 312.631L96.4076 311.783C96.3223 311.52 96.4664 311.24 96.7281 311.156L104.697 308.581C104.958 308.497 105.239 308.641 105.324 308.902L105.597 309.751C105.682 310.012 105.539 310.293 105.277 310.377Z" fill="#BBEBFF"/>
<path fill-rule="evenodd" clip-rule="evenodd" d="M167.839 367.609L111.702 385.741L90.0784 318.798L146.216 300.666L167.839 367.609Z" fill="#D8F3FF"/>
<path fill-rule="evenodd" clip-rule="evenodd" d="M94.798 311.306C95.2969 312.851 94.4499 314.507 92.9044 315.006C91.3601 315.505 89.7048 314.657 89.2059 313.112C88.707 311.568 89.5541 309.911 91.0984 309.413C92.6428 308.914 94.2991 309.762 94.798 311.306Z" fill="#BBEBFF"/>
<path fill-rule="evenodd" clip-rule="evenodd" d="M92.5721 312.131C92.7406 311.893 92.8027 311.584 92.7062 311.285C92.5443 310.784 92.0055 310.509 91.5044 310.67C91.0022 310.832 90.7272 311.37 90.8891 311.872C90.9856 312.17 91.2173 312.386 91.4922 312.479C91.0177 312.835 90.7505 313.409 90.7893 314.004C91.3226 314.365 92.0089 314.486 92.6685 314.272C93.3282 314.06 93.8138 313.561 94.0355 312.957C93.7184 312.45 93.1652 312.141 92.5721 312.131Z" fill="#009EE2"/>
<path fill-rule="evenodd" clip-rule="evenodd" d="M97.948 311.73C97.8903 311.73 97.8371 311.692 97.8182 311.636C97.7961 311.564 97.8349 311.487 97.9058 311.464L104.24 309.418C104.316 309.399 104.388 309.435 104.411 309.506C104.434 309.578 104.394 309.654 104.323 309.677L97.9901 311.723C97.9757 311.728 97.9613 311.73 97.948 311.73Z" fill="#009EE2"/>
<path fill-rule="evenodd" clip-rule="evenodd" d="M109.489 305.447C109.512 305.519 109.473 305.596 109.401 305.619L106.633 306.513C106.562 306.536 106.485 306.497 106.462 306.426C106.439 306.354 106.478 306.278 106.549 306.255L109.318 305.36C109.389 305.337 109.466 305.376 109.489 305.447Z" fill="#282828"/>
<path fill-rule="evenodd" clip-rule="evenodd" d="M110.964 305.764L96.6476 310.388C96.3017 310.5 95.9303 310.311 95.8194 309.965L95.6443 309.421C95.5323 309.075 95.7219 308.704 96.0667 308.592L110.384 303.968C110.73 303.857 111.1 304.047 111.212 304.393L111.387 304.936C111.499 305.282 111.31 305.652 110.964 305.764Z" fill="#BBEBFF"/>
<path fill-rule="evenodd" clip-rule="evenodd" d="M97.2194 309.474C97.1618 309.474 97.1086 309.438 97.0897 309.38C97.0676 309.309 97.1064 309.232 97.1773 309.209L105.18 306.624C105.257 306.602 105.328 306.642 105.35 306.711C105.374 306.783 105.335 306.86 105.264 306.883L97.2616 309.468C97.2472 309.472 97.2327 309.474 97.2194 309.474Z" fill="#009EE2"/>
<path fill-rule="evenodd" clip-rule="evenodd" d="M129.286 392.33L117.043 396.285C116.733 396.385 116.401 396.215 116.302 395.907L116.008 394.999C115.909 394.689 116.078 394.358 116.388 394.258L128.63 390.304C128.94 390.204 129.271 390.373 129.371 390.683L129.665 391.591C129.765 391.899 129.595 392.23 129.286 392.33Z" fill="#BBEBFF"/>
<path fill-rule="evenodd" clip-rule="evenodd" d="M117.425 395.268C117.368 395.268 117.315 395.23 117.296 395.174C117.274 395.102 117.312 395.025 117.383 395.002L120.886 393.871C120.963 393.849 121.034 393.889 121.057 393.958C121.08 394.029 121.041 394.107 120.97 394.129L117.468 395.261C117.453 395.266 117.439 395.268 117.425 395.268Z" fill="#009EE2"/>
<path fill-rule="evenodd" clip-rule="evenodd" d="M121.987 393.795C121.929 393.795 121.876 393.758 121.857 393.7C121.835 393.629 121.874 393.552 121.945 393.53L127.688 391.674C127.763 391.653 127.836 391.691 127.86 391.762C127.882 391.832 127.843 391.91 127.772 391.932L122.029 393.788C122.015 393.792 122 393.795 121.987 393.795Z" fill="#009EE2"/>
<path fill-rule="evenodd" clip-rule="evenodd" d="M144.102 390.909L118.025 399.332C117.717 399.431 117.386 399.263 117.286 398.953L116.992 398.045C116.892 397.736 117.062 397.404 117.371 397.305L143.448 388.882C143.756 388.782 144.088 388.952 144.188 389.261L144.481 390.168C144.581 390.477 144.412 390.809 144.102 390.909Z" fill="#BBEBFF"/>
<path fill-rule="evenodd" clip-rule="evenodd" d="M118.839 398.177C118.782 398.177 118.728 398.14 118.71 398.083C118.687 398.012 118.726 397.935 118.797 397.912L139.779 391.134C139.855 391.113 139.927 391.151 139.95 391.222C139.973 391.293 139.934 391.37 139.863 391.393L118.881 398.17C118.867 398.175 118.853 398.177 118.839 398.177Z" fill="#009EE2"/>
<path fill-rule="evenodd" clip-rule="evenodd" d="M116.875 392.236C116.824 392.236 116.77 392.223 116.722 392.199L115.315 391.479C115.049 391.343 114.869 391.095 114.823 390.798C114.762 390.415 114.959 390.024 115.303 389.845C115.602 389.688 115.951 389.707 116.225 389.883C116.345 389.58 116.615 389.362 116.95 389.313C117.333 389.257 117.722 389.459 117.897 389.804C118.033 390.073 118.033 390.38 117.897 390.644L117.177 392.052C117.116 392.168 116.998 392.236 116.875 392.236Z" fill="#C50000"/>
<path fill-rule="evenodd" clip-rule="evenodd" d="M167.704 373.126L168.43 375.373L169.181 374.65C169.21 374.621 169.246 374.607 169.295 374.613L170.327 374.761L169.602 372.513L167.704 373.126ZM168.368 375.759C168.356 375.759 168.345 375.756 168.335 375.754C168.289 375.742 168.253 375.709 168.238 375.663L167.403 373.079C167.392 373.046 167.394 373.008 167.411 372.976C167.428 372.944 167.457 372.919 167.491 372.908L169.647 372.212C169.682 372.202 169.718 372.203 169.75 372.221C169.784 372.236 169.807 372.266 169.819 372.299L170.653 374.884C170.667 374.928 170.658 374.977 170.627 375.014C170.597 375.049 170.556 375.067 170.503 375.06L169.321 374.892L168.462 375.72C168.437 375.744 168.402 375.759 168.368 375.759Z" fill="#13AEAE"/>
<path fill-rule="evenodd" clip-rule="evenodd" d="M155.538 371.549L125.977 381.095C125.675 380.734 125.839 380.291 125.838 379.908C125.832 377.323 125.967 374.741 125.975 372.155C125.978 371 125.97 369.836 126.057 368.676C126.123 367.819 126.062 366.943 125.162 366.264C124.201 365.745 123.126 365.122 122.107 364.396C121.11 363.688 120.377 362.812 120.038 361.615C119.811 360.81 119.507 360.027 119.272 359.224C119.135 358.756 118.93 358.335 118.632 357.953C118.81 357.742 118.765 357.542 118.679 357.289C118.137 355.706 117.639 354.109 117.094 352.527C116.679 351.324 116.383 350.087 115.934 348.892C115.747 348.396 115.414 347.896 115.482 347.309C116.222 347.554 116.763 348.118 117.363 348.563C119.678 350.282 122.1 351.852 124.355 353.652C124.695 353.923 125.162 354.012 125.435 354.4C125.591 354.159 125.634 353.906 125.6 353.678C125.263 351.303 125.4 348.887 125.045 346.485C123.87 346.297 122.805 346.017 122.216 344.725C122.226 344.521 122.244 344.16 122.263 343.799C122.637 343.242 122.936 342.598 123.468 342.195C124.376 341.511 125.272 340.807 126.354 340.367C127.84 339.762 129.376 339.35 130.955 339.242C131.81 339.183 132.747 339.112 133.584 339.593C133.828 339.733 134.185 339.833 134.461 339.544C134.463 339.868 134.607 340.13 134.796 340.385C135.201 340.932 135.2 341.483 134.895 342.111C134.655 342.607 134.339 343.036 134.008 343.458C133.894 343.603 133.817 343.734 133.794 343.951C133.79 344.183 133.995 344.352 134.139 344.536C135.409 346.151 136.211 348.069 137.492 349.681C137.822 350.098 137.848 350.719 138.307 351.117C138.843 351.368 139.356 351.027 139.858 350.899C141.255 350.543 142.152 350.726 142.896 351.859C143.604 352.937 144.658 353.722 145.302 354.843C145.326 354.885 145.422 354.886 145.501 354.91C145.859 354.664 145.623 354.175 145.911 353.879C146.788 354.106 147.706 354.253 148.55 354.587C149.411 354.925 150.304 355.141 151.177 355.415C152.05 355.689 152.93 355.935 153.855 356.152C153.44 357.491 153.068 358.687 152.697 359.883C152.359 359.862 152.02 359.842 151.712 359.823C151.546 359.94 151.405 360.04 151.254 360.147C150.923 361.698 150.241 363.18 150.211 364.814C151.257 365.357 152.315 365.507 153.395 365.568C153.493 365.744 153.621 365.891 153.687 366.098C154.217 367.803 154.77 369.499 155.323 371.197C155.365 371.324 155.465 371.432 155.538 371.549Z" fill="#13AEAE"/>
<path fill-rule="evenodd" clip-rule="evenodd" d="M117.193 348.81C117.642 350.005 118.219 351.846 118.633 353.048C119.178 354.629 120.203 356.45 119.37 357.954C119.257 358.158 118.81 357.742 118.633 357.954C117.525 357.231 116.413 356.516 115.31 355.785C114.096 354.979 112.863 354.197 111.771 353.224C111.215 352.731 110.794 352.105 110.478 351.465C110.184 350.867 109.899 350.246 109.713 349.582C109.385 348.404 109.37 347.222 109.435 346.023C109.48 345.163 109.523 344.303 109.563 343.442C109.617 342.274 109.672 341.105 109.715 339.937C109.725 339.664 109.693 339.39 109.681 339.101C109.16 338.778 108.617 338.506 108.114 338.148C106.713 337.146 106.926 335.154 107.724 334.207C108.12 333.738 108.637 333.546 109.107 333.241C109.569 332.975 110.141 333.029 110.591 332.731C111.096 333.366 111.2 334.169 111.45 334.899C111.956 336.365 112.396 337.855 112.872 339.331C113.223 340.421 113.579 341.513 113.914 342.61C114.348 344.03 114.77 345.452 115.209 346.87C115.259 347.03 115.389 347.164 115.481 347.309C115.414 347.896 117.007 348.314 117.193 348.81Z" fill="#13AEAE"/>
<path fill-rule="evenodd" clip-rule="evenodd" d="M134.461 339.544C134.185 339.832 133.829 339.733 133.584 339.592C132.748 339.112 131.81 339.183 130.955 339.242C129.377 339.35 127.84 339.762 126.354 340.366C125.272 340.807 124.376 341.51 123.468 342.195C122.936 342.598 122.637 343.242 122.263 343.799C121.499 342.71 120.638 341.675 119.995 340.519C119.149 338.997 118.116 337.608 117.193 336.105C119.921 337.326 122.476 338.867 125.248 340.227C125.414 338.655 125.099 337.18 125.074 335.7C125.047 334.202 124.903 332.705 124.798 330.99C125.309 331.714 125.734 332.255 126.092 332.838C126.452 333.422 126.975 333.89 127.155 334.613C127.255 335.025 127.658 335.359 127.902 335.743C128.325 336.41 128.887 336.987 129.125 337.782C129.227 338.124 129.542 338.404 129.822 338.8C130.146 338.231 130.452 337.785 130.667 337.298C131.603 335.171 132.736 333.142 133.751 331.054C133.792 330.971 133.912 330.927 133.996 330.862L133.985 330.861C134.24 331.092 134.083 331.38 134.096 331.645C134.216 334.041 134.341 336.436 134.461 338.832C134.472 339.069 134.461 339.307 134.461 339.544Z" fill="#FFD600"/>
<path fill-rule="evenodd" clip-rule="evenodd" d="M106.742 330.302C106.456 329.832 106.182 329.38 106.189 328.778C106.203 327.476 106.743 326.745 108.007 326.281C108.288 326.177 108.638 326.22 108.927 325.888C108.657 325.352 108.811 324.751 108.964 324.168C109.127 323.548 109.514 323.04 110.128 322.824C111.271 322.421 112.437 322.079 113.678 321.686C113.982 323.26 114.931 324.611 114.76 326.31C114.72 326.379 114.632 326.489 114.586 326.614C114.181 327.696 113.375 328.291 112.285 328.578C111.863 328.689 111.408 328.748 111.054 329.047C110.977 328.963 110.883 328.948 110.781 328.986C109.452 329.478 108.12 329.96 106.742 330.302Z" fill="#13AEAE"/>
<path fill-rule="evenodd" clip-rule="evenodd" d="M153.396 365.568C152.316 365.506 151.257 365.356 150.211 364.813C150.241 363.179 150.924 361.698 151.255 360.146C151.407 360.039 151.546 359.94 151.713 359.823C152.021 359.842 152.359 359.862 152.697 359.883C153.248 360.074 153.777 360.333 154.35 360.382C154.471 360.552 154.571 360.693 154.697 360.873C154.685 361.959 154.193 362.985 153.974 364.067C153.91 364.387 153.789 364.724 153.71 365.057C153.659 365.267 153.604 365.46 153.396 365.568Z" fill="#FFD600"/>
<path fill-rule="evenodd" clip-rule="evenodd" d="M106.742 330.301C108.12 329.959 109.451 329.478 110.781 328.986C110.883 328.948 110.977 328.962 111.054 329.046C111.177 329.623 111.63 330.101 111.583 330.738C111.154 330.862 110.746 330.982 110.361 331.094C110.104 331.712 110.715 332.165 110.591 332.731C110.14 333.028 109.569 332.976 109.107 333.241C108.723 332.868 108.807 332.259 108.418 331.885C108.048 331.849 107.701 331.949 107.311 332.114C106.883 331.586 106.575 331.027 106.742 330.301Z" fill="#FFD600"/>
<path fill-rule="evenodd" clip-rule="evenodd" d="M133.995 330.863C133.952 330.79 133.896 330.713 134.019 330.658C134.126 330.748 134.042 330.802 133.984 330.862L133.995 330.863Z" fill="#FEFEFE"/>
<path fill-rule="evenodd" clip-rule="evenodd" d="M225.111 341.397C225.111 352.807 215.862 362.056 204.452 362.056C193.043 362.056 183.793 352.807 183.793 341.397C183.793 329.988 193.043 320.739 204.452 320.739C215.862 320.739 225.111 329.988 225.111 341.397Z" fill="white"/>
<mask id="mask8_666_1026" style="mask-type:alpha" maskUnits="userSpaceOnUse" x="164" y="329" width="26" height="26">
<path fill-rule="evenodd" clip-rule="evenodd" d="M164.877 329.588H189.136V354.913H164.877V329.588Z" fill="white"/>
</mask>
<g mask="url(#mask8_666_1026)">
<path fill-rule="evenodd" clip-rule="evenodd" d="M165.058 329.603C164.765 330.492 164.912 331.407 164.924 332.31C165.022 339.843 165.14 347.379 165.251 354.913C166.425 354.862 167.6 354.782 168.773 354.764C175.56 354.659 182.349 354.57 189.135 354.474C187.604 352.191 186.308 349.827 185.485 347.154C183.807 341.698 184.724 336.654 187.401 331.785C187.786 331.087 188.315 330.449 188.395 329.612C185.771 329.603 183.148 329.589 180.528 329.588C175.372 329.588 170.215 329.597 165.058 329.603Z" fill="#FFA8E1"/>
</g>
<path fill-rule="evenodd" clip-rule="evenodd" d="M220.305 341.626C220.783 349.869 213.457 357.579 204.648 357.667C195.529 357.76 188.582 350.058 188.523 341.73C188.467 333.598 195.363 325.662 204.529 325.654C213.145 325.649 220.816 333.451 220.305 341.626Z" fill="#004765"/>
<path fill-rule="evenodd" clip-rule="evenodd" d="M243.431 328.882C243.742 329.766 243.611 330.683 243.616 331.585C243.658 339.121 243.678 346.655 243.703 354.191C242.53 354.162 241.354 354.102 240.179 354.107C233.392 354.127 226.603 354.162 219.815 354.192C221.305 351.882 222.558 349.493 223.331 346.806C224.909 341.32 223.899 336.294 221.132 331.474C220.735 330.784 220.195 330.156 220.101 329.32C222.721 329.263 225.344 329.201 227.965 329.152C233.12 329.058 238.276 328.97 243.431 328.882Z" fill="#FFA8E1"/>
<mask id="mask9_666_1026" style="mask-type:alpha" maskUnits="userSpaceOnUse" x="165" y="308" width="79" height="22">
<path fill-rule="evenodd" clip-rule="evenodd" d="M165.008 308.02H243.487V329.67H165.008V308.02Z" fill="white"/>
</mask>
<g mask="url(#mask9_666_1026)">
<path fill-rule="evenodd" clip-rule="evenodd" d="M204.34 316.273C202.914 316.33 201.484 316.307 199.934 316.323C199.916 314.449 199.901 312.781 199.885 310.965C202.707 310.938 205.47 310.913 208.509 310.884C208.524 312.662 208.539 314.272 208.555 316.003C207.197 316.487 205.751 316.217 204.34 316.273ZM238.269 317.638C236.943 317.598 235.594 317.886 234.364 317.503C233.852 316.467 234.451 315.387 233.732 314.381C231.933 314.397 230.054 314.413 228.173 314.432C228.183 315.412 228.19 316.394 228.201 317.517C225.969 317.953 223.84 317.781 221.718 317.725C218.665 317.843 215.612 317.958 212.61 317.75C211.848 314.479 213.177 311.126 211.554 308.02C206.821 308.063 202.287 308.106 197.751 308.146C197.06 308.15 196.529 308.427 195.952 309.457C195.975 312.028 196.003 315.015 196.032 318.001C192.731 318.021 189.429 318.044 186.129 318.069C184.254 318.084 182.379 318.102 180.25 318.121C180.268 315.777 180.023 313.563 180.35 311.336C179.516 310.963 178.77 310.997 178.086 311.981C177.658 312.665 178.482 313.855 177.51 314.597C176.584 315.298 175.357 314.493 174.367 315.209C174.074 316.123 174.548 317.167 173.961 318.222C173.283 318.228 172.575 318.235 171.867 318.241C171.142 318.247 170.413 318.226 169.69 318.27C167.628 318.389 165.476 320.224 165.063 322.184C164.876 323.081 165.194 328.557 165.503 329.67C173.287 329.598 181.073 329.526 188.903 329.453C191.887 326.053 195.522 323.751 199.903 322.563C201.427 322.15 202.981 322.593 204.453 322.062C209.402 322.163 213.747 323.802 217.545 327.008C218.428 327.752 218.805 329.052 220.101 329.32C222.722 329.264 225.344 329.199 227.965 329.151C233.12 329.058 238.276 328.97 243.432 328.881C243.445 326.809 243.527 324.733 243.46 322.664C243.364 319.626 241.334 317.728 238.269 317.638Z" fill="#006F9F"/>
</g>
<mask id="mask10_666_1026" style="mask-type:alpha" maskUnits="userSpaceOnUse" x="165" y="354" width="40" height="12">
<path fill-rule="evenodd" clip-rule="evenodd" d="M165.339 354.723H204.836V365.12H165.339V354.723Z" fill="white"/>
</mask>
<g mask="url(#mask10_666_1026)">
<path fill-rule="evenodd" clip-rule="evenodd" d="M204.827 364.633C204.129 364.936 203.391 364.817 202.673 364.825C192.31 364.927 181.948 365.025 171.587 365.104C170.79 365.109 170.009 365.203 169.188 364.872C166.307 363.716 165.454 362.574 165.384 359.38C165.351 357.946 165.353 356.511 165.339 354.948C173.507 354.872 181.473 354.799 189.638 354.723C191.345 356.446 193.387 358.016 195.767 359.191C198.237 360.411 200.748 361.186 203.515 361.09C203.952 361.077 204.396 361.237 204.836 361.317C204.517 362.421 204.589 363.527 204.827 364.633Z" fill="#006F9F"/>
</g>
<path fill-rule="evenodd" clip-rule="evenodd" d="M204.827 364.634C204.589 363.527 204.517 362.421 204.837 361.317C210.858 361.101 215.747 358.509 219.816 354.191C226.604 354.162 233.392 354.127 240.18 354.107C241.355 354.102 242.531 354.162 243.703 354.191C243.739 355.728 243.815 357.266 243.802 358.804C243.768 362.863 241.285 364.126 238.503 364.41C237.876 364.473 237.238 364.43 236.604 364.436C227.006 364.527 217.406 364.617 207.808 364.701C206.815 364.709 205.82 364.656 204.827 364.634Z" fill="#004765"/>
<path fill-rule="evenodd" clip-rule="evenodd" d="M186.129 318.069C184.254 318.084 182.378 318.102 180.251 318.121C180.268 315.777 180.023 313.563 180.35 311.336C182.467 311.486 182.478 311.498 182.893 314.155C183.752 314.97 185.06 313.998 186.001 314.986C186.302 315.92 186.098 317.001 186.129 318.069Z" fill="#004765"/>
<path fill-rule="evenodd" clip-rule="evenodd" d="M228.175 314.432C228.184 315.414 228.193 316.394 228.203 317.517C225.971 317.953 223.842 317.782 221.719 317.725C221.71 316.754 221.701 315.783 221.69 314.492C223.951 314.47 226.062 314.451 228.175 314.432Z" fill="#004765"/>
<path fill-rule="evenodd" clip-rule="evenodd" d="M201.07 314.952C201.98 315.5 203 315.149 204.112 315.155C204.101 314.018 204.092 313.077 204.083 312.031C203.023 312.041 202.085 312.05 201.044 312.06C201.053 313.059 201.061 313.941 201.07 314.952ZM208.508 310.884C208.524 312.663 208.539 314.271 208.555 316.003C207.196 316.486 205.75 316.216 204.341 316.273C202.913 316.329 201.484 316.308 199.934 316.323C199.916 314.449 199.902 312.78 199.885 310.964C202.707 310.938 205.47 310.912 208.508 310.884Z" fill="#004765"/>
<path fill-rule="evenodd" clip-rule="evenodd" d="M201.071 314.952C201.061 313.941 201.053 313.059 201.045 312.059C202.085 312.05 203.023 312.041 204.083 312.03C204.093 313.076 204.101 314.018 204.112 315.154C203 315.149 201.98 315.5 201.071 314.952Z" fill="#EAF0E5"/>
<path fill-rule="evenodd" clip-rule="evenodd" d="M212.213 339.876C212.213 341.656 210.77 343.099 208.991 343.099C207.211 343.099 205.768 341.656 205.768 339.876C205.768 338.096 207.211 336.654 208.991 336.654C210.77 336.654 212.213 338.096 212.213 339.876Z" fill="#F3CFF9"/>
<path fill-rule="evenodd" clip-rule="evenodd" d="M214.977 333.434C215.422 334.205 215.158 335.19 214.387 335.635C213.616 336.08 212.63 335.816 212.186 335.046C211.741 334.275 212.005 333.29 212.776 332.845C213.546 332.4 214.532 332.664 214.977 333.434Z" fill="#F3CFF9"/>
<path fill-rule="evenodd" clip-rule="evenodd" d="M182.249 335.147C182.249 336.927 180.806 338.369 179.026 338.369C177.247 338.369 175.804 336.927 175.804 335.147C175.804 333.366 177.247 331.923 179.026 331.923C180.806 331.923 182.249 333.366 182.249 335.147Z" fill="#FFD9F2"/>
<path fill-rule="evenodd" clip-rule="evenodd" d="M233.186 335.146L235.432 339.167L239.493 341.341L235.473 343.588L233.301 347.649L231.053 343.628L226.99 341.455L231.009 339.208L233.186 335.146Z" fill="#FFD9F2"/>
<path fill-rule="evenodd" clip-rule="evenodd" d="M167.236 339.72L157.76 401.626L200.226 408.181L209.703 346.275L167.236 339.72Z" fill="#E8E8E8"/>
<path fill-rule="evenodd" clip-rule="evenodd" d="M199.949 399.94L161.028 393.933L167.871 349.232L206.792 355.24L199.949 399.94Z" fill="white"/>
<path fill-rule="evenodd" clip-rule="evenodd" d="M189.954 393.963C188.011 393.662 186.138 393.373 184.228 393.079C184.198 392.541 184.355 392.03 184.303 391.495C184.23 390.763 184.074 390.092 183.662 389.481C183.226 388.835 182.742 388.269 182.009 387.912C180.757 387.301 179.521 387.286 178.274 387.856C176.929 388.472 176.183 389.557 175.921 390.998C175.878 391.235 175.847 391.474 175.805 391.755C173.878 391.458 171.988 391.165 170.083 390.871C170.2 390.525 170.49 390.303 170.734 390.066C171.542 389.279 172.242 388.402 172.955 387.533C173.806 386.495 174.639 385.445 175.375 384.322C176.21 383.048 177.015 381.758 177.749 380.419C178.719 378.646 179.588 376.834 180.322 374.949C180.693 373.995 180.997 373.021 181.35 372.063C181.663 371.212 181.776 370.299 182.167 369.475C182.187 369.433 182.191 369.38 182.195 369.332C182.272 368.236 182.696 367.215 182.847 366.129C183.232 363.37 183.677 360.619 184.104 357.865C184.141 357.631 184.154 357.399 184.283 357.169C184.613 356.577 184.883 356.411 185.55 356.498C185.645 356.51 185.739 356.526 185.878 356.548C186.028 356.78 186.186 357.025 186.389 357.338C186.426 357.479 186.344 357.692 186.312 357.905C186.065 359.549 185.851 361.199 185.55 362.832C185.205 364.701 185.113 366.599 184.883 368.48C184.755 369.529 184.711 370.616 184.752 371.699C184.781 372.477 184.809 373.275 184.741 374.065C184.707 374.46 184.815 374.866 184.837 375.268C184.915 376.715 185.062 378.155 185.287 379.584C185.468 380.733 185.711 381.873 185.976 383.006C186.27 384.26 186.541 385.528 186.968 386.738C187.565 388.43 188.134 390.137 188.917 391.758C189.26 392.469 189.589 393.188 189.954 393.963Z" fill="#CBF0FF"/>
<path fill-rule="evenodd" clip-rule="evenodd" d="M186.51 360.364L183.352 359.902C183.011 359.852 182.776 359.535 182.826 359.194C182.875 358.853 183.191 358.616 183.531 358.665L186.689 359.127C187.029 359.177 187.264 359.494 187.215 359.835C187.166 360.177 186.85 360.413 186.51 360.364Z" fill="#CBF0FF"/>
<path fill-rule="evenodd" clip-rule="evenodd" d="M185.957 381.898L177.378 380.644C176.978 380.585 176.7 380.212 176.758 379.809C176.816 379.406 177.189 379.128 177.59 379.186L186.168 380.44C186.569 380.498 186.847 380.872 186.789 381.275C186.73 381.677 186.358 381.956 185.957 381.898Z" fill="#CBF0FF"/>
<path fill-rule="evenodd" clip-rule="evenodd" d="M185.053 379.467L178.707 378.539C178.306 378.481 178.028 378.107 178.087 377.704C178.145 377.302 178.518 377.023 178.918 377.081L185.264 378.009C185.665 378.068 185.943 378.441 185.884 378.844C185.826 379.247 185.454 379.525 185.053 379.467Z" fill="#CBF0FF"/>
<path fill-rule="evenodd" clip-rule="evenodd" d="M314.247 277.877C313.328 277.831 307.536 276.455 305.369 275.762C306.074 272.913 306.781 270.057 307.511 267.11C307.64 267.052 307.762 266.943 307.853 266.966C310.576 267.617 313.297 268.279 316.015 268.954C316.144 268.986 316.239 269.155 316.373 269.284C315.664 272.155 314.955 275.016 314.247 277.877ZM311.036 290.774C310.156 290.739 304.251 289.335 302.175 288.66C302.88 285.807 303.588 282.949 304.322 279.98C307.291 280.716 310.198 281.435 313.165 282.17C312.452 285.052 311.745 287.911 311.036 290.774ZM309.914 295.601C309.242 298.308 308.572 301.017 307.89 303.772C304.885 303.027 301.954 302.302 298.965 301.563C299.653 298.779 300.341 296.002 301.038 293.189C301.402 292.814 301.748 293.015 302.081 293.096C304.607 293.717 307.132 294.344 309.644 294.966C309.803 295.161 309.982 295.326 309.914 295.601ZM296.045 287.152C293.139 286.433 290.284 285.727 287.387 285.009C288.106 282.11 288.812 279.256 289.531 276.351C292.415 277.065 295.272 277.772 298.189 278.494C297.482 281.346 296.775 284.202 296.045 287.152ZM292.928 299.953C292.885 299.979 292.851 300.002 292.816 300.018C292.782 300.033 292.741 300.056 292.71 300.049C289.909 299.358 287.108 298.665 284.146 297.932C284.419 296.828 284.674 295.801 284.927 294.775C285.25 293.471 285.573 292.168 285.896 290.864C286.007 290.415 286.186 289.973 285.964 289.563C286.264 289.237 286.546 289.241 286.882 289.326C289.562 290.001 292.246 290.66 294.899 291.316C294.942 291.389 294.968 291.421 294.982 291.457C294.996 291.491 295.011 291.533 295.003 291.564C294.313 294.363 293.62 297.161 292.928 299.953ZM281.623 269.913C279.643 269.423 277.674 268.936 275.71 268.45C275.708 267.622 277.14 261.603 277.788 259.752C279.77 260.243 281.761 260.735 283.765 261.232C284.645 261.449 285.52 261.665 286.408 261.885C285.699 264.748 284.993 267.603 284.26 270.565C283.373 270.346 282.5 270.131 281.623 269.913ZM292.468 263.496C292.691 263.257 292.928 263.223 293.229 263.299C295.757 263.934 298.287 264.559 300.819 265.177C301.07 265.239 301.252 265.349 301.387 265.65C300.692 268.453 299.984 271.315 299.26 274.242C296.322 273.514 293.389 272.787 290.354 272.037C291.072 269.137 291.772 266.309 292.468 263.496ZM329.299 264.662C329.186 264.625 329.075 264.583 328.959 264.554C309.569 259.757 290.179 254.959 270.79 250.162L267.992 262.351C269.873 263.574 271.584 264.984 273.03 266.724C274.315 268.272 275.433 269.905 276.174 271.784C276.358 272.252 276.573 272.706 276.775 273.167C278.041 273.481 279.312 273.795 280.588 274.111C281.463 274.328 282.339 274.544 283.227 274.764C282.511 277.661 281.804 280.512 281.069 283.48C280.198 283.269 279.317 283.054 278.435 282.841C278.182 282.78 277.932 282.719 277.678 282.658C277.397 283.234 277.484 283.874 277.393 284.481C277.27 285.3 276.746 285.978 276.656 286.798C276.909 286.86 277.161 286.922 277.414 286.984C278.267 287.196 279.122 287.408 279.969 287.617C279.877 288.639 278.488 294.423 277.864 296.387C276.997 296.172 276.123 295.956 275.253 295.741C273.991 295.428 272.73 295.116 271.465 294.803C270.157 295.982 268.727 296.99 267.177 297.822C265.178 298.896 263.077 299.683 260.817 300.004C260.306 300.076 259.799 300.171 259.29 300.258L259.207 300.628C259.295 300.767 259.409 300.896 259.42 301.065C259.875 301.194 260.328 301.334 260.787 301.448C264.889 302.464 268.992 303.48 273.095 304.495C286.816 307.893 300.538 311.289 314.261 314.687C314.643 314.782 315.022 314.892 315.402 314.995C316.666 314.67 317.383 313.843 317.689 312.59C318.646 308.674 319.622 304.762 320.592 300.848C322.291 293.979 323.992 287.111 325.691 280.243C325.795 279.821 325.884 279.396 325.98 278.972L329.391 265.143C329.172 265.019 329.28 264.831 329.299 264.662Z" fill="#FED600"/>
<path fill-rule="evenodd" clip-rule="evenodd" d="M319.245 245.96C321.759 246.597 331.239 248.558 331.794 248.944C331.597 249.202 331.768 249.398 331.933 249.554C332.76 250.346 332.863 251.297 332.599 252.349C332.102 254.331 331.621 256.317 331.123 258.298C330.589 260.43 330.042 262.56 329.501 264.692C329.436 264.664 329.368 264.655 329.298 264.662C329.185 264.625 329.074 264.583 328.959 264.554C309.568 259.757 290.179 254.959 270.789 250.162C270.568 250.033 270.62 249.851 270.67 249.652C271.651 245.702 272.601 241.744 273.624 237.805C273.911 236.701 274.549 235.783 275.78 235.476C276.098 235.397 277.461 235.434 278.063 235.583C280.596 236.208 283.129 236.833 285.661 237.46C285.849 237.843 285.717 238.213 285.624 238.588C285.275 239.991 284.924 241.394 284.59 242.801C284.519 243.097 284.404 243.386 284.466 243.714C284.664 244.747 284.89 245.762 285.667 246.546C285.428 246.971 285.634 247.379 285.72 247.791C286.088 249.569 287.939 250.339 289.383 250.098C291.109 249.809 292.041 248.47 292.067 246.888C292.086 245.734 291.626 244.61 290.489 244.087C289.74 243.743 288.909 243.509 288.082 243.659C287.976 243.678 287.87 243.703 287.767 243.735C287.717 243.749 287.669 243.771 287.618 243.781C287.595 243.785 287.572 243.784 287.55 243.793C287.52 243.806 287.493 243.837 287.471 243.861C287.462 243.873 287.404 243.938 287.411 243.952C287.366 243.859 287.341 243.755 287.341 243.651C287.34 243.606 287.345 243.565 287.338 243.52C287.315 243.375 287.409 243.226 287.442 243.088C287.818 241.525 288.212 239.966 288.6 238.405C289.611 238.645 290.623 238.886 291.634 239.125C292.604 239.428 293.589 239.676 294.589 239.854C295.004 239.972 295.415 240.102 295.833 240.207C300.714 241.427 305.595 242.642 310.477 243.86C310.092 245.426 309.7 246.99 309.33 248.559C309.241 248.93 309.169 249.296 309.188 249.706C309.24 250.826 309.68 251.769 310.29 252.664C310.093 253.181 310.288 253.685 310.439 254.147C311.026 255.953 313.303 256.635 314.543 256.146C315.97 255.583 316.9 254.278 316.789 252.756C316.708 251.671 316.181 250.676 315.165 250.199C314.611 249.939 314.016 249.74 313.4 249.718C313.041 249.705 312.656 249.745 312.319 249.875C312.249 249.902 312.216 249.957 312.189 250.025C312.154 250.112 312.119 250.278 312.172 250.366C312.07 250.198 311.964 250.021 311.959 249.825C311.957 249.744 311.973 249.665 311.996 249.588C312.005 249.556 312.012 249.529 312.015 249.498C312.025 249.397 312.077 249.303 312.101 249.205C312.48 247.641 312.872 246.082 313.259 244.521" fill="#00B2FF"/>
<path fill-rule="evenodd" clip-rule="evenodd" d="M277.679 282.658C277.701 282.306 277.723 281.954 277.743 281.602C277.772 281.203 277.791 280.802 277.795 280.397C277.827 279.398 277.814 278.4 277.674 277.401C277.495 276.121 277.277 274.85 276.832 273.628C276.78 273.486 276.793 273.321 276.775 273.167C276.573 272.706 276.357 272.252 276.173 271.784C275.433 269.905 274.315 268.271 273.031 266.724C271.524 264.912 269.736 263.451 267.761 262.194C266.948 261.856 266.134 261.521 265.391 261.039C265.183 260.97 264.971 260.914 264.758 260.86C264.061 260.581 263.346 260.34 262.614 260.137C262.612 260.136 262.61 260.136 262.608 260.135C262.362 259.993 262.037 259.909 261.752 259.92C261.006 259.748 260.246 259.616 259.473 259.527C259.449 259.521 259.426 259.513 259.403 259.507C259.091 259.467 258.782 259.396 258.47 259.391C258.157 259.384 257.846 259.392 257.535 259.396C257.385 259.394 257.235 259.385 257.083 259.385C245.64 259.385 236.363 268.662 236.363 280.105C236.363 291.549 245.64 300.826 257.083 300.826C266.728 300.826 274.835 294.235 277.143 285.311C277.251 285.044 277.349 284.772 277.392 284.481C277.419 284.309 277.431 284.133 277.44 283.958C277.51 283.586 277.569 283.212 277.619 282.833C277.64 282.775 277.651 282.715 277.679 282.658Z" fill="#00B2FF"/>
<mask id="mask11_666_1026" style="mask-type:alpha" maskUnits="userSpaceOnUse" x="284" y="232" width="12" height="16">
<path fill-rule="evenodd" clip-rule="evenodd" d="M284.449 232.167H295.128V247.908H284.449V232.167Z" fill="white"/>
</mask>
<g mask="url(#mask11_666_1026)">
<path fill-rule="evenodd" clip-rule="evenodd" d="M294.589 239.853C293.588 239.675 292.605 239.427 291.635 239.126C291.863 238.205 292.091 237.284 292.353 236.224C292.237 236.073 292.091 235.83 291.894 235.64C291.429 235.191 290.926 234.926 290.217 235.13C289.561 235.318 289.267 235.729 289.121 236.335C288.953 237.026 288.774 237.715 288.601 238.405C288.255 239.791 287.907 241.175 287.57 242.562C287.523 242.754 287.485 242.949 287.428 243.137C287.412 243.19 287.399 243.244 287.39 243.299C287.37 243.409 287.364 243.521 287.369 243.632C287.381 243.876 287.451 244.116 287.574 244.326C287.627 244.419 287.693 244.501 287.749 244.591C287.796 244.667 287.858 244.718 287.932 244.768C288.079 244.866 288.243 244.936 288.408 245C289.814 245.537 290.014 245.986 289.477 247.422C289.34 247.517 289.185 247.638 289.017 247.736C288.882 247.813 288.731 247.861 288.62 247.908C286.984 247.617 286.925 247.589 285.668 246.546C284.891 245.761 284.664 244.747 284.467 243.713C284.405 243.385 284.519 243.097 284.59 242.8C284.924 241.394 285.276 239.991 285.625 238.588C285.718 238.213 286.259 235.615 286.615 234.72C287.059 233.603 287.952 232.85 289.087 232.443C292.1 231.362 295.226 233.578 295.126 236.881C295.095 237.918 294.832 238.875 294.589 239.853Z" fill="#FE86D5"/>
</g>
<path fill-rule="evenodd" clip-rule="evenodd" d="M310.292 252.664C309.682 251.769 309.241 250.826 309.189 249.706C309.169 249.296 309.242 248.93 309.33 248.559C309.7 246.989 310.093 245.426 310.477 243.859C310.743 242.787 311.009 241.713 311.21 240.901C312.205 239.145 313.536 238.324 315.489 238.237C315.826 238.32 316.37 238.43 316.898 238.592C317.73 238.844 318.39 239.314 318.904 240.05C319.892 241.462 320.059 242.967 319.607 244.585C319.479 245.042 319.365 245.502 319.246 245.96L316.507 245.299C316.643 244.766 316.832 244.052 316.931 243.512C317.211 241.972 316.312 241.025 314.808 241.249C314.447 241.274 313.886 241.997 313.839 242.189C313.651 242.967 313.454 243.744 313.26 244.521C312.873 246.081 312.48 247.641 312.102 249.205C312.079 249.301 312.039 249.39 312.014 249.485C312.001 249.537 312.005 249.595 311.99 249.645C311.98 249.679 311.963 249.709 311.957 249.748C311.944 249.828 311.955 249.912 311.981 249.989C312.018 250.1 312.084 250.2 312.149 250.298C312.224 250.412 312.292 250.534 312.378 250.638C312.463 250.742 312.557 250.838 312.639 250.945C313.405 251.193 314.258 251.354 314.478 252.37C314.47 252.459 314.473 252.579 314.447 252.692C314.181 253.87 313.7 254.134 312.513 253.891C311.628 253.711 311 253.13 310.292 252.664Z" fill="#FE86D5"/>
<path fill-rule="evenodd" clip-rule="evenodd" d="M307.511 267.111C307.64 267.053 307.763 266.944 307.853 266.965C310.576 267.617 313.297 268.279 316.015 268.954C316.144 268.987 316.239 269.155 316.374 269.284C315.664 272.154 314.955 275.016 314.247 277.877C313.328 277.832 307.536 276.455 305.369 275.763C306.074 272.913 306.781 270.057 307.511 267.111Z" fill="#80D9FF"/>
<path fill-rule="evenodd" clip-rule="evenodd" d="M304.322 279.98C307.292 280.716 310.198 281.435 313.166 282.17C312.452 285.052 311.745 287.91 311.036 290.773C310.156 290.738 304.251 289.334 302.174 288.659C302.88 285.807 303.587 282.949 304.322 279.98Z" fill="#80D9FF"/>
<path fill-rule="evenodd" clip-rule="evenodd" d="M301.037 293.189C301.402 292.815 301.748 293.015 302.08 293.097C304.606 293.717 307.131 294.345 309.643 294.966C309.802 295.162 309.981 295.326 309.913 295.6C309.241 298.308 308.571 301.016 307.889 303.771C304.885 303.027 301.953 302.302 298.964 301.562C299.654 298.779 300.34 296.002 301.037 293.189Z" fill="#D8F3FF"/>
<path fill-rule="evenodd" clip-rule="evenodd" d="M274.798 290.577C273.875 292.143 272.597 293.412 271.464 294.802C273.601 295.331 275.738 295.86 277.865 296.387C278.489 294.423 279.877 288.638 279.969 287.617C278.871 287.345 277.764 287.071 276.656 286.797C276.053 288.065 275.516 289.359 274.798 290.577Z" fill="#D8F3FF"/>
<path fill-rule="evenodd" clip-rule="evenodd" d="M298.188 278.494C295.271 277.772 292.416 277.065 289.53 276.351C289.376 276.975 289.223 277.591 289.07 278.21C288.509 280.478 287.951 282.732 287.387 285.009C290.283 285.726 293.139 286.433 296.045 287.152C296.776 284.201 297.482 281.346 298.188 278.494Z" fill="#D8F3FF"/>
<path fill-rule="evenodd" clip-rule="evenodd" d="M301.386 265.65C301.252 265.348 301.07 265.239 300.819 265.178C298.287 264.559 295.757 263.934 293.229 263.298C293.154 263.279 293.083 263.267 293.014 263.263C292.947 263.26 292.882 263.264 292.819 263.278C292.694 263.308 292.579 263.376 292.468 263.497C291.772 266.308 291.072 269.137 290.354 272.037C290.926 272.179 291.479 272.315 292.043 272.455C294.479 273.057 296.874 273.651 299.26 274.241C299.984 271.315 300.692 268.454 301.386 265.65Z" fill="#80D9FF"/>
<path fill-rule="evenodd" clip-rule="evenodd" d="M294.982 291.457C294.974 291.438 294.964 291.421 294.951 291.4C294.937 291.378 294.92 291.352 294.898 291.316C294.235 291.152 293.565 290.986 292.899 290.821C290.899 290.328 288.891 289.832 286.881 289.325C286.713 289.282 286.559 289.261 286.409 289.29C286.259 289.319 286.114 289.4 285.964 289.563C286.02 289.666 286.05 289.769 286.062 289.875C286.1 290.194 285.979 290.527 285.896 290.863C285.573 292.167 285.25 293.471 284.927 294.775C284.674 295.801 284.419 296.828 284.146 297.93C284.886 298.114 285.617 298.295 286.34 298.473C287.786 298.832 289.201 299.182 290.607 299.529C291.309 299.703 292.009 299.875 292.709 300.048C292.741 300.055 292.782 300.032 292.815 300.017C292.837 300.008 292.862 299.991 292.885 299.977C292.899 299.969 292.912 299.962 292.928 299.952C293.62 297.161 294.313 294.362 295.003 291.564C295.009 291.537 294.996 291.504 294.985 291.474C294.982 291.469 294.983 291.462 294.982 291.457Z" fill="#D8F3FF"/>
<path fill-rule="evenodd" clip-rule="evenodd" d="M282.967 270.245C283.397 270.352 283.824 270.458 284.259 270.565C284.992 267.603 285.699 264.747 286.407 261.885C283.494 261.164 280.639 260.457 277.788 259.751C277.14 261.602 275.708 267.622 275.71 268.45C276.11 268.549 276.515 268.648 276.915 268.747C278.92 269.243 280.933 269.742 282.967 270.245Z" fill="#80D9FF"/>
<path fill-rule="evenodd" clip-rule="evenodd" d="M276.832 273.628C277.277 274.85 277.495 276.121 277.675 277.401C277.92 279.152 277.79 280.905 277.679 282.658C278.674 282.898 279.666 283.139 280.652 283.378C280.791 283.411 280.932 283.446 281.069 283.479C281.254 282.738 281.436 282.003 281.616 281.272C281.797 280.543 281.976 279.817 282.155 279.094C282.513 277.649 282.869 276.212 283.227 274.764C281.043 274.223 278.91 273.695 276.774 273.167C276.793 273.321 276.781 273.486 276.832 273.628Z" fill="#D8F3FF"/>
<path fill-rule="evenodd" clip-rule="evenodd" d="M329.501 264.691C329.464 264.842 329.427 264.992 329.39 265.142C329.171 265.018 329.279 264.83 329.298 264.661C329.368 264.654 329.436 264.663 329.501 264.691Z" fill="#FCDBC4"/>
<path fill-rule="evenodd" clip-rule="evenodd" d="M310.292 252.663C311 253.13 311.628 253.711 312.513 253.891C313.7 254.133 314.181 253.869 314.447 252.691C314.472 252.578 314.47 252.459 314.478 252.369C314.258 251.353 313.405 251.193 312.639 250.945C312.399 250.629 312.031 250.387 312.213 249.917C313.244 249.512 314.258 249.772 315.167 250.199C316.181 250.675 316.709 251.671 316.79 252.756C316.902 254.278 315.972 255.583 314.544 256.145C313.305 256.634 311.027 255.952 310.439 254.146C310.289 253.685 310.094 253.181 310.292 252.663Z" fill="#FED600"/>
<path fill-rule="evenodd" clip-rule="evenodd" d="M285.667 246.546C286.925 247.589 286.983 247.616 288.62 247.907C288.732 247.861 288.883 247.812 289.016 247.735C289.185 247.638 289.34 247.517 289.476 247.421C290.013 245.985 289.815 245.536 288.408 245C288.199 244.92 287.987 244.826 287.815 244.68C287.718 244.597 287.634 244.492 287.584 244.374C287.563 244.324 287.561 244.282 287.527 244.238C287.489 244.187 287.453 244.136 287.436 244.074C287.398 243.934 287.504 243.805 287.64 243.773C287.77 243.742 287.895 243.695 288.026 243.669C288.195 243.635 288.367 243.616 288.538 243.612C289.218 243.595 289.878 243.806 290.489 244.087C291.626 244.61 292.086 245.733 292.067 246.887C292.041 248.47 291.109 249.81 289.384 250.098C287.94 250.338 286.088 249.569 285.72 247.79C285.635 247.379 285.428 246.972 285.667 246.546Z" fill="#FED600"/>
<path fill-rule="evenodd" clip-rule="evenodd" d="M261.45 263.672C252.723 261.4 243.378 266.777 241.167 275.832C238.989 284.755 244.129 293.809 253.358 296.109C262.499 298.389 271.36 292.979 273.652 283.95C275.998 274.713 270.128 265.753 261.45 263.672Z" fill="white"/>
<path fill-rule="evenodd" clip-rule="evenodd" d="M336.676 251.309C336.456 250.889 336.19 250.499 335.873 250.19C335.228 249.895 334.569 249.76 333.919 249.6C333.197 249.424 332.47 249.272 331.795 248.944C331.598 249.202 331.769 249.398 331.933 249.555C332.762 250.346 332.864 251.297 332.599 252.349C332.103 254.331 331.622 256.316 331.124 258.298C330.589 260.43 322.037 295.009 320.591 300.848C319.623 304.762 318.646 308.673 317.689 312.59C317.383 313.843 316.666 314.67 315.402 314.995C315.403 315.267 315.622 315.269 315.803 315.313C316.802 315.562 317.802 315.854 318.811 316.057C319.273 316.149 319.597 316.051 320.025 315.888C320.295 315.784 320.526 315.702 320.753 315.514C321.347 315.022 321.719 314.342 321.885 313.595C322.294 311.747 335.584 258.211 336.755 253.478C336.803 253.287 336.842 253.094 336.892 252.902C337.042 252.341 336.94 251.812 336.676 251.309Z" fill="#FE86D5"/>
<path fill-rule="evenodd" clip-rule="evenodd" d="M268.724 257.482C268.946 257.625 268.858 257.825 268.79 257.992C268.524 258.65 268.671 259.45 268.105 260.006C267.337 259.818 266.566 259.632 265.797 259.445C263.793 258.954 261.788 258.462 259.784 257.97C258.92 257.728 258.054 257.488 257.156 257.237C257.357 256.422 257.544 255.67 257.761 254.791C261.403 255.685 265.063 256.584 268.724 257.482Z" fill="#00B2FF"/>
<path fill-rule="evenodd" clip-rule="evenodd" d="M259.784 257.97C261.788 258.462 263.792 258.954 265.797 259.446C265.661 259.977 265.526 260.508 265.391 261.039C264.466 260.735 260.157 259.702 259.403 259.508C259.53 258.995 259.657 258.482 259.784 257.97Z" fill="#FE86D5"/>
<path fill-rule="evenodd" clip-rule="evenodd" d="M245.104 276.351C245.104 277.031 244.553 277.582 243.873 277.582C243.193 277.582 242.64 277.031 242.64 276.351C242.64 275.671 243.193 275.12 243.873 275.12C244.553 275.12 245.104 275.671 245.104 276.351Z" fill="#FE86D5"/>
<path fill-rule="evenodd" clip-rule="evenodd" d="M272.277 283.288C272.277 283.968 271.726 284.519 271.046 284.519C270.365 284.519 269.813 283.968 269.813 283.288C269.813 282.608 270.365 282.057 271.046 282.057C271.726 282.057 272.277 282.608 272.277 283.288Z" fill="#FE86D5"/>
<path fill-rule="evenodd" clip-rule="evenodd" d="M255.308 293.522C255.308 294.202 254.757 294.754 254.077 294.754C253.396 294.754 252.844 294.202 252.844 293.522C252.844 292.842 253.396 292.291 254.077 292.291C254.757 292.291 255.308 292.842 255.308 293.522Z" fill="#FE86D5"/>
<path fill-rule="evenodd" clip-rule="evenodd" d="M262.062 266.322C262.062 267.002 261.51 267.553 260.83 267.553C260.15 267.553 259.598 267.002 259.598 266.322C259.598 265.642 260.15 265.09 260.83 265.09C261.51 265.09 262.062 265.642 262.062 266.322Z" fill="#FE86D5"/>
<path fill-rule="evenodd" clip-rule="evenodd" d="M251.085 269.818L249.419 267.516L250.014 267.085L251.68 269.388L251.085 269.818Z" fill="#004765"/>
<path fill-rule="evenodd" clip-rule="evenodd" d="M266.431 273.914L268.912 272.529L268.553 271.887L266.073 273.273L266.431 273.914Z" fill="#004765"/>
<path fill-rule="evenodd" clip-rule="evenodd" d="M247.35 284.52L244.698 285.539L244.962 286.225L247.614 285.204L247.35 284.52Z" fill="#004765"/>
<path fill-rule="evenodd" clip-rule="evenodd" d="M262.446 289.458L263.769 291.973L263.119 292.314L261.796 289.8L262.446 289.458Z" fill="#004765"/>
<path fill-rule="evenodd" clip-rule="evenodd" d="M259.901 270.995L255.258 278.523L255.269 278.526C255.063 278.848 254.939 279.23 254.939 279.641C254.939 280.783 255.864 281.708 257.006 281.708C258.148 281.708 259.073 280.783 259.073 279.641C259.073 279.637 259.071 279.633 259.071 279.629L259.901 270.995Z" fill="#00B2FF"/>
</svg>
