<svg width="390" height="424" viewBox="0 0 390 424" fill="none" xmlns="http://www.w3.org/2000/svg">
<path d="M94.3454 7.384H96.9614V8.776C96.9614 13.024 94.9694 16.84 90.6734 18.256L89.0894 15.736C92.7854 14.512 94.3454 11.608 94.3454 8.776V7.384ZM94.9934 7.384H97.5854V8.776C97.5854 11.368 99.0734 13.912 102.649 14.992L101.137 17.488C96.9134 16.216 94.9934 12.736 94.9934 8.776V7.384ZM89.9294 6.4H101.929V8.944H89.9294V6.4ZM103.705 4.912H106.897V18.088H103.705V4.912ZM106.009 10.024H109.849V12.64H106.009V10.024ZM99.6494 18.496C104.257 18.496 107.161 20.104 107.161 22.816C107.161 25.528 104.257 27.136 99.6494 27.136C95.0174 27.136 92.1134 25.528 92.1134 22.816C92.1134 20.104 95.0174 18.496 99.6494 18.496ZM99.6494 20.992C96.8174 20.992 95.2814 21.568 95.2814 22.816C95.2814 24.064 96.8174 24.688 99.6494 24.688C102.481 24.688 103.993 24.064 103.993 22.816C103.993 21.568 102.481 20.992 99.6494 20.992ZM111.504 21.928H131.616V24.544H111.504V21.928ZM119.856 16.984H123.024V22.624H119.856V16.984ZM119.736 6.136H122.52V7.744C122.52 12.472 119.088 16.648 113.28 17.704L111.96 15.04C117.024 14.224 119.736 10.816 119.736 7.744V6.136ZM120.36 6.136H123.144V7.744C123.144 10.888 125.856 14.224 130.944 15.04L129.624 17.704C123.792 16.624 120.36 12.544 120.36 7.744V6.136ZM153.674 4.912H156.89V27.136H153.674V4.912ZM147.122 7.216H150.29C150.29 14.008 147.986 19.576 140.09 23.392L138.434 20.848C144.818 17.776 147.122 13.744 147.122 7.792V7.216ZM139.61 7.216H148.634V9.736H139.61V7.216ZM174.744 4.936H177.936V21.28H174.744V4.936ZM177.024 11.176H180.888V13.792H177.024V11.176ZM163.608 24.208H178.728V26.752H163.608V24.208ZM163.608 19.624H166.8V24.76H163.608V19.624ZM161.088 6.496H164.256V9.688H168.6V6.496H171.768V17.776H161.088V6.496ZM164.256 12.112V15.28H168.6V12.112H164.256ZM202.635 4.912H205.851V27.136H202.635V4.912ZM196.083 7.216H199.251C199.251 14.008 196.947 19.576 189.051 23.392L187.395 20.848C193.779 17.776 196.083 13.744 196.083 7.792V7.216ZM188.571 7.216H197.595V9.736H188.571V7.216ZM209.401 16.816H229.537V19.36H209.401V16.816ZM211.873 5.344H227.089V11.368H215.065V13.768H211.897V9.112H223.945V7.768H211.873V5.344ZM211.897 12.808H227.521V15.232H211.897V12.808ZM217.873 13.984H221.065V18.208H217.873V13.984ZM211.633 20.608H227.233V27.064H224.041V23.128H211.633V20.608Z" fill="#00B2FF"/>
<path d="M241.536 5.224C246.6 5.224 249.576 6.568 249.576 9.016C249.576 11.464 246.6 12.808 241.536 12.808C236.448 12.808 233.496 11.464 233.496 9.016C233.496 6.568 236.448 5.224 241.536 5.224ZM241.536 7.552C238.32 7.552 236.808 8.032 236.808 9.016C236.808 10.048 238.32 10.48 241.536 10.48C244.752 10.48 246.264 10.048 246.264 9.016C246.264 8.032 244.752 7.552 241.536 7.552ZM231.48 13.84H251.568V16.36H231.48V13.84ZM233.784 17.608H249.144V23.32H236.952V25.288H233.808V21.112H246V19.984H233.784V17.608ZM233.808 24.592H249.72V26.992H233.808V24.592ZM258.338 16.36H278.45V18.856H258.338V16.36ZM266.786 13.984H269.978V17.272H266.786V13.984ZM260.834 12.592H276.314V15.016H260.834V12.592ZM260.834 5.464H276.146V7.888H264.002V13.96H260.834V5.464ZM263.114 9.064H275.642V11.392H263.114V9.064ZM268.37 19.84C273.242 19.84 276.074 21.136 276.074 23.488C276.074 25.864 273.242 27.136 268.37 27.136C263.474 27.136 260.642 25.864 260.642 23.488C260.642 21.136 263.474 19.84 268.37 19.84ZM268.37 22.192C265.274 22.192 263.858 22.576 263.858 23.488C263.858 24.424 265.274 24.808 268.37 24.808C271.442 24.808 272.858 24.424 272.858 23.488C272.858 22.576 271.442 22.192 268.37 22.192ZM280.416 8.248H291.048V10.792H280.416V8.248ZM285.768 11.776C288.6 11.776 290.64 13.96 290.64 17.08C290.64 20.176 288.6 22.36 285.768 22.36C282.96 22.36 280.896 20.176 280.896 17.08C280.896 13.96 282.96 11.776 285.768 11.776ZM285.768 14.44C284.568 14.44 283.728 15.4 283.728 17.08C283.728 18.76 284.568 19.696 285.768 19.696C286.968 19.696 287.832 18.76 287.832 17.08C287.832 15.4 286.968 14.44 285.768 14.44ZM296.496 4.912H299.544V27.136H296.496V4.912ZM293.832 13.936H297.504V16.504H293.832V13.936ZM291.84 5.32H294.816V26.2H291.84V5.32ZM284.208 5.512H287.352V9.856H284.208V5.512ZM58.3482 38.952H72.4362V41.472H58.3482V38.952ZM56.3082 53.64H76.3962V56.232H56.3082V53.64ZM70.7562 38.952H73.9242V41.592C73.9242 44.712 73.9242 47.736 73.1322 52.296L69.9402 52.032C70.7562 47.76 70.7562 44.592 70.7562 41.592V38.952ZM92.6663 36.912H95.8583V47.88H92.6663V36.912ZM94.9703 41.04H98.8103V43.656H94.9703V41.04ZM79.2503 37.872H82.4423V46.488H79.2503V37.872ZM79.2503 44.664H81.1223C84.0983 44.664 87.3863 44.448 90.8663 43.776L91.2263 46.368C87.6263 47.088 84.2423 47.28 81.1223 47.28H79.2503V44.664ZM81.1703 48.792H95.8583V54.96H84.4103V57.576H81.2183V52.584H92.6663V51.288H81.1703V48.792ZM81.2183 56.376H96.5063V58.896H81.2183V56.376ZM107.592 38.376C111.096 38.376 113.712 40.656 113.712 43.848C113.712 47.064 111.096 49.344 107.592 49.344C104.112 49.344 101.448 47.064 101.448 43.848C101.448 40.656 104.112 38.376 107.592 38.376ZM107.592 41.112C105.888 41.112 104.592 42.12 104.592 43.848C104.592 45.6 105.888 46.608 107.592 46.608C109.296 46.608 110.592 45.6 110.592 43.848C110.592 42.12 109.296 41.112 107.592 41.112ZM115.8 36.888H118.992V59.184H115.8V36.888ZM100.92 54.672L100.536 52.104C104.448 52.104 109.896 52.056 114.576 51.36L114.816 53.664C109.992 54.624 104.76 54.672 100.92 54.672ZM137.259 41.448H143.307V44.016H137.259V41.448ZM137.259 48.336H143.307V50.904H137.259V48.336ZM133.419 38.448C136.731 38.448 139.155 41.52 139.155 46.368C139.155 51.264 136.731 54.336 133.419 54.336C130.083 54.336 127.683 51.264 127.683 46.368C127.683 41.52 130.083 38.448 133.419 38.448ZM133.419 41.352C131.811 41.352 130.707 43.104 130.707 46.368C130.707 49.68 131.811 51.456 133.419 51.456C135.051 51.456 136.131 49.68 136.131 46.368C136.131 43.104 135.051 41.352 133.419 41.352ZM142.803 36.888H145.971V59.184H142.803V36.888ZM161.449 42.288H165.673V44.88H161.449V42.288ZM164.809 36.912H168.001V50.112H164.809V36.912ZM160.465 50.592C165.169 50.592 168.073 52.2 168.073 54.888C168.073 57.6 165.169 59.16 160.465 59.16C155.761 59.16 152.857 57.6 152.857 54.888C152.857 52.2 155.761 50.592 160.465 50.592ZM160.465 53.016C157.585 53.016 156.049 53.616 156.049 54.888C156.049 56.136 157.585 56.736 160.465 56.736C163.369 56.736 164.905 56.136 164.905 54.888C164.905 53.616 163.369 53.016 160.465 53.016ZM154.537 39.144H157.129V40.536C157.129 44.784 155.161 48.672 150.913 50.112L149.281 47.592C152.953 46.344 154.537 43.392 154.537 40.536V39.144ZM155.209 39.144H157.777V40.536C157.777 43.152 159.289 45.864 162.793 47.04L161.233 49.56C157.105 48.192 155.209 44.496 155.209 40.536V39.144ZM150.145 38.256H162.097V40.8H150.145V38.256ZM181.536 37.224C186.6 37.224 189.576 38.568 189.576 41.016C189.576 43.464 186.6 44.808 181.536 44.808C176.448 44.808 173.496 43.464 173.496 41.016C173.496 38.568 176.448 37.224 181.536 37.224ZM181.536 39.552C178.32 39.552 176.808 40.032 176.808 41.016C176.808 42.048 178.32 42.48 181.536 42.48C184.752 42.48 186.264 42.048 186.264 41.016C186.264 40.032 184.752 39.552 181.536 39.552ZM171.48 45.84H191.568V48.36H171.48V45.84ZM173.784 49.608H189.144V55.32H176.952V57.288H173.808V53.112H186V51.984H173.784V49.608ZM173.808 56.592H189.72V58.992H173.808V56.592ZM213.026 36.864H216.218V59.16H213.026V36.864ZM214.922 45.216H218.834V47.832H214.922V45.216ZM198.794 51.096H199.922C201.626 51.096 202.97 51.072 204.626 50.736L204.866 53.328C203.114 53.688 201.722 53.712 199.922 53.712H198.794V51.096ZM198.794 39.144H204.506V41.664H201.962V52.272H198.794V39.144ZM205.658 51.096H206.834C209.354 51.096 210.53 51.048 211.922 50.688L212.162 53.28C210.698 53.664 209.498 53.712 206.834 53.712H205.658V51.096ZM205.658 39.144H211.634V41.664H208.802V52.32H205.658V39.144ZM234.696 36.888H237.864V59.184H234.696V36.888ZM237.144 45.288H241.08V47.928H237.144V45.288ZM221.352 51.408H223.224C226.992 51.408 229.92 51.288 233.184 50.712L233.496 53.28C230.136 53.88 227.088 54.024 223.224 54.024H221.352V51.408ZM221.328 38.784H231.552V47.4H224.52V52.392H221.352V44.856H228.384V41.328H221.328V38.784ZM256.727 36.888H259.943V59.112H256.727V36.888ZM259.103 45.384H263.015V48H259.103V45.384ZM250.895 39.192H254.015C254.015 45.864 251.471 51.576 244.079 55.296L242.303 52.872C248.135 49.848 250.895 45.768 250.895 39.744V39.192ZM243.527 39.192H252.527V41.76H243.527V39.192ZM269.425 53.976H289.537V56.568H269.425V53.976ZM277.849 49.224H281.041V54.6H277.849V49.224ZM271.537 38.328H274.705V41.736H284.185V38.328H287.353V49.896H271.537V38.328ZM274.705 44.232V47.352H284.185V44.232H274.705ZM300.24 44.376H303.912V46.968H300.24V44.376ZM295.488 38.832H297.936V42.576C297.936 47.616 296.544 52.536 292.992 54.72L291.072 52.32C294.336 50.304 295.488 46.344 295.488 42.576V38.832ZM296.184 38.832H298.584V42.432C298.584 46.056 299.52 49.752 302.544 51.72L300.816 54.216C297.288 52.032 296.184 47.232 296.184 42.432V38.832ZM307.536 36.912H310.584V59.136H307.536V36.912ZM303.024 37.248H306V58.128H303.024V37.248ZM317.998 48.192H321.166V54.432H317.998V48.192ZM326.062 48.192H329.254V54.432H326.062V48.192ZM313.582 53.976H333.694V56.568H313.582V53.976ZM323.614 37.992C328.39 37.992 331.918 40.344 331.918 43.968C331.918 47.592 328.39 49.92 323.614 49.92C318.814 49.92 315.31 47.592 315.31 43.968C315.31 40.344 318.814 37.992 323.614 37.992ZM323.614 40.488C320.518 40.488 318.454 41.76 318.454 43.968C318.454 46.152 320.518 47.448 323.614 47.448C326.71 47.448 328.774 46.152 328.774 43.968C328.774 41.76 326.71 40.488 323.614 40.488Z" fill="black"/>
<mask id="mask0_666_1027" style="mask-type:alpha" maskUnits="userSpaceOnUse" x="16" y="145" width="361" height="217">
<path fill-rule="evenodd" clip-rule="evenodd" d="M16.2778 145.046H376.816V361H16.2778V145.046Z" fill="white"/>
</mask>
<g mask="url(#mask0_666_1027)">
<path fill-rule="evenodd" clip-rule="evenodd" d="M326.544 190.209C348.637 202.263 364.557 225.721 372.138 250.285C375.846 262.299 377.984 275.035 376.146 287.472C372.065 315.07 348.744 336.723 322.75 346.88C304.454 354.032 284.768 356.517 265.269 357.576C256.75 358.039 247.823 357.269 239.649 359.767C231.036 362.397 220.179 360.136 211.372 359.265C204.536 358.588 197.702 357.841 190.837 357.501C172.086 356.572 153.36 358.599 134.613 358.671C126.064 358.704 114.812 359.982 106.977 355.835C100.995 352.671 94.4419 350.705 88.1432 348.181C74.5147 342.719 61.1814 336.204 49.4485 327.294C32.3418 314.303 18.6715 295.377 16.5586 274.004C14.7277 255.49 21.9703 236.522 34.8473 223.089C44.7168 212.791 57.5588 205.636 67.072 195.008C75.2739 185.844 80.6869 174.44 89.0478 165.421C110.948 141.798 149.462 139.89 178.586 153.667C196.408 162.096 212.009 175.552 231.094 180.505C256.153 187.009 283.12 177.79 308.402 183.368C314.829 184.785 320.889 187.123 326.544 190.209Z" fill="#EAF9FF"/>
</g>
<path fill-rule="evenodd" clip-rule="evenodd" d="M11.9927 237.197C22.002 227.332 42.974 232.723 42.974 245.544C55.7396 239.433 64.477 248.231 65.6108 251.483C64.5268 252.301 63.9357 253.141 63.3391 253.146C47.0406 253.247 30.7393 253.264 14.4394 253.296C7.28113 254.588 0.906601 249.257 11.9927 237.197Z" fill="white"/>
<path fill-rule="evenodd" clip-rule="evenodd" d="M277.168 360.479C255.493 360.479 234.001 357.547 214.306 354.181L213.014 353.96C203.21 352.278 147.822 357.574 137.94 359.036L138.106 358.153C148.087 356.682 203.266 351.669 213.117 353.359L214.408 353.58C277.916 364.438 308.148 359.249 329.348 352.743C347.076 347.299 359.909 339.045 367.486 328.206C372.296 321.325 375.014 313.359 376.841 307.187C379.802 297.193 381.819 286.833 382.836 276.395C383.868 265.785 383.501 255.203 382.996 244.392C382.928 242.968 382.688 241.654 382.434 240.265C382.269 239.364 382.097 238.432 381.98 237.472C381.041 229.79 379.203 222.981 376.519 217.232C375.565 215.189 373.993 213.201 372.47 211.282C371.726 210.34 371.024 209.453 370.392 208.562C361.961 196.678 349.054 188.155 334.983 185.178C321.172 182.255 306.809 184.472 292.92 186.617C288.55 187.293 284.03 187.991 279.598 188.516C259.688 190.883 241.937 189.499 226.842 184.412C212.752 179.662 200.037 171.425 187.74 163.461C182.456 160.037 176.993 156.499 171.493 153.284C148.517 139.851 128.236 135.611 111.219 140.685C95.9198 145.245 82.3649 157.584 70.9341 177.36C66.268 185.433 62.0127 193.868 57.8965 202.028C49.2819 219.107 40.3728 236.768 27.3312 251.724C26.287 252.921 25.2225 254.106 24.1566 255.292C19.9134 260.018 15.5244 264.903 12.5227 270.559C5.44814 283.888 6.54905 302.065 15.3272 316.867C25.2927 333.674 43.623 344.962 63.1623 346.324C70.856 346.863 78.6677 345.915 86.2236 345C91.7326 344.332 97.4301 343.642 103.062 343.524C119.231 343.203 132.471 348.869 138.461 358.72L137.94 359.036C132.062 349.374 119.017 343.776 103.076 344.134C97.4741 344.25 91.7919 344.94 86.2981 345.605C78.7126 346.524 70.8695 347.473 63.1204 346.933C43.3812 345.556 24.8672 334.154 14.8004 317.177C5.91819 302.195 4.81046 283.786 11.9824 270.274C15.0191 264.553 19.4325 259.638 23.7014 254.886C24.7645 253.702 25.8264 252.519 26.8692 251.324C39.8607 236.426 48.7523 218.8 57.3507 201.755C61.4696 193.587 65.7304 185.143 70.4046 177.056C81.9171 157.141 95.5887 144.708 111.043 140.102C128.232 134.976 148.674 139.237 171.804 152.758C177.314 155.981 182.784 159.523 188.073 162.949C200.339 170.895 213.022 179.11 227.038 183.834C242.046 188.893 259.705 190.264 279.527 187.912C283.948 187.387 288.461 186.69 292.827 186.015C306.772 183.863 321.19 181.637 335.111 184.582C349.33 187.59 362.371 196.203 370.89 208.209C371.515 209.088 372.211 209.97 372.95 210.903C374.495 212.851 376.09 214.866 377.073 216.974C379.786 222.782 381.641 229.653 382.587 237.4C382.702 238.34 382.871 239.263 383.034 240.154C383.282 241.503 383.538 242.898 383.608 244.364C384.113 255.198 384.482 265.804 383.445 276.454C382.424 286.931 380.399 297.329 377.428 307.357C375.586 313.574 372.849 321.603 367.987 328.555C360.332 339.507 347.39 347.842 329.527 353.325C312.533 358.543 294.791 360.479 277.168 360.479Z" fill="#80D9FF"/>
<path fill-rule="evenodd" clip-rule="evenodd" d="M52.3499 290.1C54.331 290.211 55.8444 291.905 55.734 293.884C55.6223 295.865 53.9303 297.38 51.9492 297.27C49.9682 297.16 48.4548 295.465 48.5665 293.483C48.6768 291.504 50.3689 289.99 52.3499 290.1Z" fill="white"/>
<path fill-rule="evenodd" clip-rule="evenodd" d="M307.9 257.273C306.215 257.273 304.799 258.594 304.703 260.298C304.606 262.062 305.96 263.578 307.724 263.676C309.477 263.751 311.003 262.42 311.103 260.656C311.2 258.892 309.846 257.376 308.083 257.278C308.021 257.274 307.961 257.273 307.9 257.273ZM307.904 264.964C307.821 264.964 307.738 264.962 307.653 264.956C305.183 264.82 303.285 262.697 303.423 260.226C303.562 257.756 305.659 255.84 308.153 255.998C310.623 256.135 312.521 258.259 312.383 260.728C312.249 263.114 310.264 264.964 307.904 264.964Z" fill="white"/>
<path fill-rule="evenodd" clip-rule="evenodd" d="M283.674 313.431C283.674 314.918 282.469 316.123 280.982 316.123C279.495 316.123 278.29 314.918 278.29 313.431C278.29 311.944 279.495 310.738 280.982 310.738C282.469 310.738 283.674 311.944 283.674 313.431Z" fill="#FFF0BA"/>
<path fill-rule="evenodd" clip-rule="evenodd" d="M91.6348 282.017C91.6348 283.504 90.4296 284.709 88.9427 284.709C87.4557 284.709 86.2505 283.504 86.2505 282.017C86.2505 280.53 87.4557 279.324 88.9427 279.324C90.4296 279.324 91.6348 280.53 91.6348 282.017Z" fill="#FFF0BA"/>
<path fill-rule="evenodd" clip-rule="evenodd" d="M124.838 185.084C124.838 186.571 123.633 187.776 122.146 187.776C120.659 187.776 119.454 186.571 119.454 185.084C119.454 183.597 120.659 182.391 122.146 182.391C123.633 182.391 124.838 183.597 124.838 185.084Z" fill="#FFF0BA"/>
<path fill-rule="evenodd" clip-rule="evenodd" d="M111.044 371.926L201.235 369.103L258.466 304.013L343.055 302.164L263.092 146.35L181.015 146.192L124.007 204.003L36.7147 204.582L111.044 371.926Z" fill="#FFCC72"/>
<path fill-rule="evenodd" clip-rule="evenodd" d="M116.979 362.777L49.9097 212.652L127.767 212.043L184.792 153.888L258.185 153.94L329.791 294.125L254.375 295.675L197.146 360.369L116.979 362.777Z" fill="white"/>
<path fill-rule="evenodd" clip-rule="evenodd" d="M85.3687 268.321C85.3445 269.252 85.3636 270.258 85.9552 270.989C87.1517 272.472 89.7593 271.756 91.1815 270.406C92.6028 269.06 93.5421 267.222 95.2477 266.237C98.5383 264.337 102.734 266.593 105.078 269.421C111.044 276.631 111.418 287.455 118.414 293.84C124.997 299.846 135.055 299.902 144.004 301.293C148.165 301.937 152.809 303.376 154.467 307.146C155.208 308.834 155.24 310.814 156.281 312.344C158.261 315.264 162.717 315.151 165.609 317.215C168.042 318.953 169.053 321.986 170.033 324.793C172.257 331.149 175.22 337.591 180.532 341.842C181.655 342.742 183.441 343.478 184.395 342.396C183.075 339.805 181.756 337.221 180.439 334.639C178.494 330.824 176.522 326.388 178.221 322.473C178.775 321.197 179.694 320.081 180.098 318.755C180.813 316.392 179.77 313.855 180.036 311.412C180.292 309.072 181.704 307.043 182.639 304.887C183.572 302.733 183.936 299.997 182.342 298.257C180.261 295.988 176.55 296.892 173.431 297.005C168.212 297.191 162.98 294.598 157.902 295.83C155.413 296.431 153.23 297.904 150.787 298.674C148.337 299.442 145.227 299.273 143.77 297.227C143.193 296.412 142.946 295.385 142.281 294.637C141.615 293.889 140.195 293.601 139.648 294.448C139.514 294.652 139.457 294.895 139.366 295.121C138.457 297.397 134.41 296.929 133.629 294.625C132.853 292.329 134.883 289.76 137.324 289.213C138.608 288.927 140.032 289.043 141.137 288.344C141.818 287.915 142.275 287.229 142.673 286.544C145.886 280.951 146.082 273.927 150.221 269C150.932 268.155 151.764 267.355 152.129 266.325C152.913 264.096 151.237 261.824 149.663 260.03C148.026 258.161 145.733 256.093 143.309 256.849C141.393 257.448 140.513 259.517 139.153 260.952C136.807 263.421 132.269 263.806 129.87 261.408C124.853 256.401 133.848 252.1 136.078 248.469C137.078 246.847 137.412 244.617 136.144 243.187C135.23 242.157 133.692 241.797 132.282 241.931C127.139 242.426 129.367 246.58 125.598 248.24C123.443 249.187 120.859 247.379 118.616 248.127C117.67 248.445 116.939 249.177 116.021 249.564C112.892 250.891 109.447 248.186 106.176 248.605C102.134 249.129 97.2272 249.913 93.2108 250.908C85.4397 252.841 85.541 262.046 85.3687 268.321Z" fill="#80D9FF"/>
<path fill-rule="evenodd" clip-rule="evenodd" d="M133.922 237.307C135.085 236.739 134.928 235.162 135.007 233.927C135.239 230.401 138.585 227.923 140.658 225.004C141.935 223.207 142.766 221.124 143.059 218.981C143.11 218.627 143.136 218.236 142.925 217.939C142.585 217.455 141.829 217.466 141.245 217.633C138.011 218.547 136.583 222.031 134.271 224.374C132.563 226.098 130.266 227.272 128.746 229.158C127.894 230.211 127.309 231.6 127.728 232.864C128.18 234.224 132.295 238.097 133.922 237.307Z" fill="#80D9FF"/>
<path fill-rule="evenodd" clip-rule="evenodd" d="M150.296 220.869C149.664 221.173 148.915 221.165 148.248 221.392C147.145 221.765 146.391 222.714 145.703 223.615C144.327 225.424 142.95 227.23 141.567 229.042C141.181 229.547 140.783 230.093 140.755 230.717C140.714 231.624 141.495 232.399 142.354 232.799C143.215 233.201 144.183 233.352 145.062 233.713C148.249 235.025 149.465 238.668 150.222 241.908C150.981 245.153 151.93 248.816 154.958 250.468C155.736 250.891 156.837 251.099 157.438 250.463C157.917 249.956 157.83 249.174 157.715 248.497C157.267 245.838 157.038 242.754 158.993 240.839C159.842 240.012 161.001 239.531 161.869 238.721C164.076 236.66 163.774 233.185 162.805 230.383C161.835 227.582 160.349 224.787 160.694 221.876C160.862 220.459 161.468 219.083 161.348 217.661C161.096 214.694 157.706 214.976 155.636 215.257C151.333 215.834 153.613 219.273 150.296 220.869Z" fill="#80D9FF"/>
<path fill-rule="evenodd" clip-rule="evenodd" d="M188.314 266.761C187.048 269.39 186.203 272.34 186.727 275.219C187.255 278.106 189.417 280.856 192.373 281.442C197.331 282.421 202.587 277.388 206.988 279.815C209.115 280.985 210.049 283.492 211.847 285.107C212.743 285.913 213.898 286.546 214.373 287.642C214.869 288.779 214.482 290.092 214.719 291.307C215.384 294.721 220.102 295.541 222.371 298.235C223.22 299.242 223.776 300.573 224.962 301.16C226.921 302.14 229.271 300.303 229.72 298.216C230.171 296.131 229.396 293.988 228.867 291.91C228.332 289.832 228.11 287.438 229.437 285.782C230.016 285.065 230.853 284.542 231.282 283.724C232.029 282.294 231.262 280.523 230.275 279.208C229.286 277.89 228.034 276.657 227.684 275.074C226.746 270.818 232.73 267.452 231.803 263.217C226.109 265.271 218.905 262.28 216.381 256.821C218.068 256.014 220.017 257.244 221.574 258.322C223.129 259.401 225.363 260.361 226.765 259.16C227.837 258.241 227.688 256.468 226.829 255.322C225.972 254.174 224.608 253.501 223.293 252.89C225.842 249.889 230.246 248.734 234.254 249.386C238.262 250.039 241.887 252.29 244.805 255.087C246.101 256.334 248.468 257.636 249.323 256.129C249.699 255.465 249.436 254.63 249.182 253.896C248.516 251.97 247.963 249.903 248.452 247.969C248.94 246.036 250.806 244.336 252.854 244.659C254.322 244.887 255.455 246.024 256.704 246.83C257.956 247.637 259.808 248.062 260.762 247.001C261.882 245.759 260.782 243.78 260.929 242.116C261.173 239.362 264.799 237.869 264.995 235.117C265.224 231.922 260.801 229.899 260.292 226.714C260.172 225.969 260.283 225.216 260.445 224.491C261.053 221.82 262.371 219.371 262.952 216.707C263.531 214.049 263.197 210.903 261.046 209.029C259.788 207.928 258.026 207.375 257.012 206.06C255.46 204.044 256.356 201.259 257.606 199.174C258.852 197.088 260.452 194.938 260.131 192.509C260.065 192 259.914 191.486 260.005 190.987C260.136 190.256 260.754 189.732 261.239 189.164C263.081 186.995 262.977 183.433 260.838 181.358C258.698 179.287 254.744 179.214 252.881 181.355C251.997 182.37 251.605 183.726 250.667 184.695C248.306 187.136 243.849 186.09 240.73 187.624C237.613 189.153 236.237 193.054 232.885 194.115C230.704 194.803 228.107 194.113 226.09 195.147C224.631 195.896 223.798 197.393 222.572 198.462C221.346 199.526 219.148 200.02 218.095 198.737C217.511 198.02 217.443 196.915 216.618 196.459C215.393 195.773 214.145 197.207 213.576 198.416C212.277 201.182 210.97 203.952 209.666 206.731C209.218 207.685 208.762 208.668 208.712 209.723C208.635 211.419 209.792 214.081 207.778 215.114C207.161 215.434 206.453 215.545 205.789 215.761C203.52 216.512 201.977 218.463 200.57 220.317C199.844 221.267 199.109 222.245 198.757 223.382C198.264 224.994 198.601 226.74 198.918 228.415C199.682 232.462 195.839 234.677 195.195 238.468C195.059 239.254 195.081 240.076 194.784 240.818C194.298 242.053 193.055 242.819 191.997 243.657C187.702 247.057 185.767 252.452 184.017 257.589C183.864 258.038 183.707 258.509 183.773 258.98C183.977 260.438 186.21 260.844 187.426 259.969C188.638 259.093 189.072 257.555 189.472 256.146C189.875 254.735 190.425 253.209 191.734 252.49C193.415 251.562 195.527 252.355 197.473 252.364C200.057 252.375 202.547 250.804 203.551 248.53C204.379 246.656 204.616 244.047 206.653 243.521C209.063 242.895 211.59 246.087 213.785 244.963C214.727 244.48 215.098 243.391 215.748 242.582C217.493 240.42 221.638 240.878 222.934 243.376C223.207 243.901 223.365 244.505 223.232 245.068C222.944 246.291 221.448 246.854 220.142 246.828C218.835 246.799 217.536 246.389 216.236 246.514C214.408 246.692 212.782 248.037 212.325 249.753C212.103 250.595 212.138 251.491 211.881 252.323C210.389 257.128 204.579 259.035 199.998 259.068C194.355 259.108 190.738 261.74 188.314 266.761Z" fill="#80D9FF"/>
<path fill-rule="evenodd" clip-rule="evenodd" d="M260.878 251.588C258.177 250.764 258.283 253.104 260.066 254.373C261.319 255.265 266.877 259.48 268.276 257.354C268.789 256.576 268.014 255.565 267.253 254.957C265.368 253.449 263.188 252.297 260.878 251.588Z" fill="#80D9FF"/>
<path fill-rule="evenodd" clip-rule="evenodd" d="M274.844 251.838C275.139 250.83 275.252 249.769 275.176 248.711C275.135 248.151 275.037 247.576 274.727 247.093C274.42 246.608 273.864 246.234 273.293 246.276C271.541 246.407 270.386 251.212 270.613 252.651C271.07 255.593 274.296 253.709 274.844 251.838Z" fill="#80D9FF"/>
<path fill-rule="evenodd" clip-rule="evenodd" d="M271.165 258.892C271.101 259.035 271.041 259.194 271.102 259.342C271.165 259.509 271.358 259.595 271.537 259.637C272.661 259.896 273.657 259.054 274.678 258.588C276.255 257.869 278.178 258.007 279.683 257.175C280.683 256.625 281.392 255.708 282.072 254.808C282.235 254.596 282.4 254.303 282.236 254.076C282.169 253.982 282.058 253.927 281.946 253.885C280.804 253.458 279.599 254.053 278.518 254.547C275.776 255.805 272.55 255.828 271.165 258.892Z" fill="#80D9FF"/>
<path fill-rule="evenodd" clip-rule="evenodd" d="M279.761 249.201C280.065 249.491 280.544 249.421 280.956 249.493C281.631 249.606 282.158 250.128 282.726 250.523C283.291 250.913 284.102 251.177 284.618 250.766C285.043 250.43 285.068 249.79 285.413 249.372C286.02 248.636 287.239 248.91 288.179 249.245C289.083 249.57 289.99 249.89 290.898 250.216C291.364 250.382 291.893 250.547 292.33 250.346C292.864 250.098 293 249.376 292.785 248.82C292.571 248.26 292.104 247.829 291.653 247.421C290.998 246.834 290.227 246.204 289.365 246.277C288.781 246.329 288.293 246.698 287.73 246.848C286.56 247.152 285.34 246.463 284.126 246.259C283.227 246.107 277.862 247.374 279.761 249.201Z" fill="#80D9FF"/>
<path fill-rule="evenodd" clip-rule="evenodd" d="M288.659 254.184C287.766 254.199 287.178 255.033 286.735 255.78C284.779 259.096 282.812 262.427 280.842 265.762C280.53 266.289 280.21 266.835 280.108 267.446C279.945 268.394 280.32 269.364 280.688 270.281C281.49 272.274 282.291 274.271 283.094 276.267C283.207 276.542 283.326 276.828 283.564 277.003C284.102 277.398 284.875 276.975 285.167 276.403C285.453 275.831 285.465 275.153 285.723 274.564C286.381 273.063 288.316 272.669 289.612 271.665C290.303 271.13 290.823 270.402 291.54 269.909C292.26 269.408 293.311 269.19 294.033 269.745C294.366 270.002 294.579 270.386 294.888 270.678C295.191 270.968 295.698 271.152 296.016 270.898C296.52 270.498 296.041 269.49 296.562 269.114C298.595 269.874 299.546 272.188 301.234 273.567C301.426 273.726 301.649 273.88 301.89 273.898C302.458 273.947 302.784 273.327 302.941 272.8C303.448 271.038 303.625 269.189 303.798 267.359C303.959 265.675 304.117 263.971 303.839 262.286C303.559 260.601 302.787 258.912 301.407 257.837C300.113 256.826 298.414 256.449 297.121 255.435C296.249 254.757 295.545 253.785 294.486 253.486C294.17 253.395 293.798 253.382 293.562 253.594C292.451 254.573 295.194 257.783 292.454 257.145C290.854 256.776 290.423 254.052 288.659 254.184Z" fill="#80D9FF"/>
<path fill-rule="evenodd" clip-rule="evenodd" d="M283.503 275.351C281.458 276.862 278.571 276.428 277.062 274.381C275.549 272.334 275.985 269.45 278.03 267.938C280.076 266.429 282.961 266.861 284.472 268.91C285.984 270.955 285.552 273.84 283.503 275.351Z" fill="#FE86D5"/>
<path d="M259 404L104.5 271.5L218.5 204L131.5 156" stroke="#009EE2" stroke-width="2" stroke-linecap="round" stroke-linejoin="round" stroke-dasharray="4 4"/>
<circle cx="259.153" cy="360.752" r="9.57076" fill="white"/>
<mask id="mask1_666_1027" style="mask-type:alpha" maskUnits="userSpaceOnUse" x="236" y="339" width="45" height="68">
<path fill-rule="evenodd" clip-rule="evenodd" d="M236 339H281V406.124H236V339Z" fill="white"/>
</mask>
<g mask="url(#mask1_666_1027)">
<path fill-rule="evenodd" clip-rule="evenodd" d="M264.232 358.499C263.586 355.382 260.784 353.691 256.748 353.883C253.369 355.235 252.262 357.816 252.813 361.212C253.346 364.498 255.592 365.831 259.002 366.178C263.444 364.449 265.003 362.207 264.232 358.499ZM257.066 403.702C253.253 397.329 249.31 391.043 245.499 384.668C242.961 380.421 240.034 376.411 237.994 371.861C235.764 366.887 235.483 361.688 236.76 356.411C237.998 351.298 240.719 347.226 244.72 343.907C250.174 339.385 256.418 338.243 262.955 339.446C268.311 340.432 272.894 343.345 276.266 347.998C278.567 351.171 280.215 354.652 280.762 358.592C281.605 364.674 280.166 370.282 277.149 375.491C271.913 384.529 266.679 393.569 261.392 402.575C260.705 403.746 260.537 405.311 259.018 406.123C258.252 405.431 257.636 404.653 257.066 403.702Z" fill="#FE86D5"/>
</g>
<circle cx="104.185" cy="245.326" r="5.86357" fill="white"/>
<mask id="mask2_666_1027" style="mask-type:alpha" maskUnits="userSpaceOnUse" x="90" y="232" width="28" height="42">
<path fill-rule="evenodd" clip-rule="evenodd" d="M90 232H117.569V273.124H90V232Z" fill="white"/>
</mask>
<g mask="url(#mask2_666_1027)">
<path fill-rule="evenodd" clip-rule="evenodd" d="M107.297 243.946C106.901 242.037 105.184 241.001 102.711 241.118C100.641 241.946 99.9628 243.528 100.301 245.609C100.627 247.621 102.003 248.438 104.092 248.651C106.813 247.592 107.769 246.218 107.297 243.946ZM102.906 271.64C100.57 267.736 98.1546 263.884 95.8197 259.979C94.2645 257.377 92.4713 254.92 91.2218 252.133C89.8555 249.085 89.683 245.9 90.4656 242.667C91.2242 239.534 92.8909 237.04 95.3425 235.006C98.6836 232.236 102.509 231.536 106.514 232.273C109.795 232.878 112.603 234.662 114.669 237.513C116.079 239.457 117.088 241.59 117.424 244.003C117.94 247.73 117.059 251.165 115.21 254.357C112.002 259.894 108.796 265.432 105.557 270.95C105.136 271.667 105.033 272.626 104.102 273.123C103.633 272.7 103.255 272.223 102.906 271.64Z" fill="#FF9EDE"/>
</g>
<circle cx="218.494" cy="171.435" r="7.23124" fill="white"/>
<mask id="mask3_666_1027" style="mask-type:alpha" maskUnits="userSpaceOnUse" x="201" y="155" width="34" height="51">
<path fill-rule="evenodd" clip-rule="evenodd" d="M201 155H235V205.716H201V155Z" fill="white"/>
</mask>
<g mask="url(#mask3_666_1027)">
<path fill-rule="evenodd" clip-rule="evenodd" d="M222.331 169.733C221.843 167.377 219.726 166.1 216.676 166.244C214.123 167.266 213.287 169.216 213.703 171.782C214.106 174.265 215.803 175.272 218.38 175.534C221.735 174.228 222.913 172.534 222.331 169.733ZM216.917 203.886C214.036 199.071 211.057 194.321 208.177 189.504C206.259 186.296 204.048 183.266 202.507 179.828C200.822 176.07 200.609 172.142 201.574 168.155C202.51 164.291 204.565 161.215 207.589 158.707C211.709 155.29 216.427 154.427 221.366 155.337C225.413 156.082 228.876 158.283 231.423 161.798C233.162 164.196 234.407 166.826 234.82 169.802C235.457 174.398 234.37 178.635 232.091 182.571C228.134 189.399 224.18 196.229 220.185 203.034C219.666 203.919 219.539 205.102 218.391 205.715C217.813 205.192 217.347 204.604 216.917 203.886Z" fill="#FFA3DF"/>
</g>
<circle cx="131.665" cy="132.898" r="5.23506" fill="white"/>
<mask id="mask4_666_1027" style="mask-type:alpha" maskUnits="userSpaceOnUse" x="119" y="121" width="25" height="37">
<path fill-rule="evenodd" clip-rule="evenodd" d="M119 121H143.614V157.716H119V121Z" fill="white"/>
</mask>
<g mask="url(#mask4_666_1027)">
<path fill-rule="evenodd" clip-rule="evenodd" d="M134.443 131.666C134.089 129.961 132.557 129.036 130.349 129.141C128.5 129.88 127.895 131.292 128.196 133.15C128.488 134.947 129.717 135.676 131.582 135.866C134.011 134.921 134.864 133.694 134.443 131.666ZM130.523 156.391C128.437 152.905 126.281 149.467 124.196 145.98C122.807 143.657 121.206 141.463 120.091 138.975C118.871 136.254 118.717 133.41 119.416 130.524C120.093 127.727 121.581 125.499 123.77 123.684C126.753 121.21 130.168 120.586 133.744 121.244C136.674 121.783 139.181 123.377 141.025 125.922C142.283 127.658 143.185 129.562 143.484 131.716C143.945 135.044 143.158 138.111 141.508 140.96C138.644 145.904 135.781 150.848 132.889 155.775C132.513 156.415 132.421 157.271 131.591 157.715C131.172 157.337 130.834 156.911 130.523 156.391Z" fill="#FFB0E4"/>
</g>
</svg>
