<svg xmlns="http://www.w3.org/2000/svg" width="594" height="341" viewBox="0 0 594 341" fill="none">
<path fill-rule="evenodd" clip-rule="evenodd" d="M594 67.0914H432.948C432.102 65.8858 432.283 64.9296 432.792 63.7195C434.915 58.664 438.385 54.4846 441.607 50.2183C445.621 44.9043 450.027 39.858 454.964 35.3424C458.691 31.9362 462.899 29.5342 467.61 27.6493C472.074 25.865 476.496 27.2009 480.017 26.629C489.588 30.3029 498.263 34.2031 507.295 36.8613C511.735 38.1652 516.746 37.8587 521.629 36.4129C527.681 34.6218 533.258 31.8424 538.93 29.2712C543.509 27.1941 548.444 25.4898 553.123 25.7049C558.897 25.9679 564.383 28.5643 569.037 32.7254C576.986 39.826 582.484 48.7703 588.208 57.5591C590.185 60.5924 592.605 63.3764 594 67.0914Z" fill="#D8F3FF"/>
<path fill-rule="evenodd" clip-rule="evenodd" d="M429.719 255.209V261.411C427.808 262.022 425.79 261.533 423.671 261.685C423.004 259.694 423.571 257.707 423.283 255.648C425.379 254.971 427.402 255.529 429.719 255.209ZM423.497 242.435H429.703V236.343H423.497V242.435ZM429.554 217.035C430.111 219.114 429.662 221.089 429.904 223.361H423.592C423.074 221.437 423.526 219.462 423.299 217.361C425.414 216.813 427.42 217.256 429.554 217.035ZM338.573 323.789H445.535C445.535 323.789 445.851 303.809 446.017 303.739V202.602H405.169V266.62H381.85V251.03H351.4V267.409H339.85C339.847 277.608 339.841 287.807 339.836 298.008L338.573 323.789Z" fill="#DEEAF0"/>
<path fill-rule="evenodd" clip-rule="evenodd" d="M332.094 175.115C323.726 175.115 315.357 175.115 306.991 175.115C304.46 175.12 301.93 175.125 299.302 175.13V200.389H315.169V206.188H299.3C299.298 208.138 299.298 210.089 299.297 212.041H315.146C315.543 213.919 315.306 215.699 315.328 217.841H299.304V223.051H315.148C315.538 224.935 315.311 226.714 315.33 228.85H299.298C299.298 230.8 299.297 232.752 299.297 234.703H315.146C315.541 236.581 315.306 238.36 315.328 240.503H299.304C299.285 251.677 299.268 262.85 299.247 274.299H274.856V282.507V294.923V316.292H339.808V297.503C339.813 287.137 339.818 276.773 339.822 266.406V175.115H332.094Z" fill="#BCCFD8"/>
<path fill-rule="evenodd" clip-rule="evenodd" d="M290.472 295.267C294.83 293.672 299.373 293.217 303.873 293.799C309.236 294.494 313.931 297.134 318.393 300.18C322.299 302.845 326.204 305.52 330.376 307.755C336.117 310.834 342.105 309.039 346.325 305.216C347.838 303.844 349.206 302.309 350.652 300.863C351.191 300.322 355.948 295.176 357.53 292.704C358.84 290.662 360.874 289.309 362.804 288.084C367.628 285.024 372.987 283.215 378.719 283.988C383.707 284.658 388.389 286.302 392.489 289.654C397.112 293.438 400.106 298.011 401.214 303.908C401.52 305.536 402.027 306.004 403.981 306.864C405.321 305.505 406.774 304.085 408.167 302.61C411.572 298.995 415.839 297.305 420.588 296.238C427.253 294.744 433.006 296.739 438.453 300.239C441.552 302.228 443.788 305.106 445.516 308.373C446.056 309.391 446.257 310.627 447.584 311.418C450.423 308.753 453.564 306.369 457.229 304.802C460.505 304.573 463.472 305.233 466.154 307.352C468.893 309.516 470.289 313.836 469.565 317.18C468.659 321.364 465.894 323.489 462.307 325.038H272.363C272.421 321.544 272.118 318.026 272.995 314.581C274.428 309.389 276.855 304.81 280.805 301.097C281.974 299.999 283.296 299.17 284.595 298.295C285.394 297.755 289.21 295.727 290.472 295.267Z" fill="#1FA77E"/>
<path fill-rule="evenodd" clip-rule="evenodd" d="M402.269 255.075C402.061 258.376 402.621 261.711 401.94 265.069C399.473 263.917 397.515 261.131 394.794 255.074L402.269 255.075Z" fill="#F4F5F6"/>
<path fill-rule="evenodd" clip-rule="evenodd" d="M432.274 315.043H412.822C410.622 312.222 408.369 309.253 406.031 306.355C401.343 300.541 397.396 294.113 392.069 288.83C386.059 282.868 378.779 279.122 370.755 276.896C366.737 275.781 362.498 275.239 358.374 275.504C353.434 275.824 348.475 276.63 343.784 278.444C335.328 281.714 328.342 286.908 322.752 294.222C318.654 299.583 314.785 305.139 310.243 310.151C308.888 311.646 307.801 313.389 306.582 315.033H287.349C287.406 314.2 287.438 313.455 287.971 312.647C296.92 298.999 305.777 285.286 314.737 271.642C316.24 269.35 317.41 266.846 319.179 264.71C319.919 263.815 320.346 262.607 320.204 261.33C346.384 261.326 372.564 261.323 398.745 261.321C401.02 266.185 404.151 270.529 406.979 275.055C412.196 283.417 417.739 291.566 422.971 299.924C425.489 303.942 427.986 308.015 430.817 311.843C431.531 312.808 432.248 313.762 432.274 315.043Z" fill="#DFBC93"/>
<path fill-rule="evenodd" clip-rule="evenodd" d="M352.289 17.945C356.064 17.6033 359.838 17.6344 363.61 17.9242C363.587 25.7327 366.92 139.003 367.308 143.649C361.07 143.95 354.833 143.975 348.595 143.636C348.595 142.633 352.316 19.1632 352.289 17.945Z" fill="#DFBC93"/>
<path fill-rule="evenodd" clip-rule="evenodd" d="M332.405 216.358C349.964 216.343 367.529 216.341 385.089 216.349C385.826 216.351 386.56 216.478 387.298 216.545V230.708C385.85 231.608 330.231 231.295 330.231 231.295C329.614 226.325 330.306 221.415 329.827 216.567C330.687 216.493 331.544 216.361 332.405 216.358Z" fill="#F4DDB0"/>
<path fill-rule="evenodd" clip-rule="evenodd" d="M333.898 231.337C337.955 231.337 342.011 231.338 346.069 231.338C344.624 237.007 342.832 242.553 340.266 247.789C339.696 248.951 339.501 250.053 339.585 251.283C335.503 251.299 331.422 251.313 327.343 251.326C327.238 249.33 327.73 247.567 328.689 245.769C330.707 241.985 331.632 237.68 333.682 233.878C334.049 233.199 333.84 232.192 333.898 231.337Z" fill="#DFBC93"/>
<path fill-rule="evenodd" clip-rule="evenodd" d="M372.305 231.378C376.146 231.364 379.989 231.35 383.832 231.337C385.057 234.651 386.091 238.062 387.573 241.253C388.72 243.723 389.329 246.44 390.869 248.733C391.158 249.161 390.994 249.916 391.04 250.52C387.033 251.809 382.925 251.168 378.852 251.16C378.784 250.568 378.837 249.925 378.629 249.39C377.48 246.414 376.227 243.479 375.091 240.498C373.959 237.528 373 234.494 372.305 231.378Z" fill="#DFBC93"/>
<path fill-rule="evenodd" clip-rule="evenodd" d="M353.565 9.33869V0.906819C356.2 -0.01008 358.479 -0.0520597 361.061 0.932054V9.37579C358.556 10.4626 356.056 10.503 353.565 9.33869Z" fill="#F9EFDD"/>
<path d="M363.56 7.70264H351.066V13.9494H363.56V7.70264Z" fill="#F4DDB0"/>
<path d="M367.308 12.7002H347.318V18.947H367.308V12.7002Z" fill="#F9EFDD"/>
<path d="M376.054 142.633H341.072V152.628H376.054V142.633Z" fill="#F4DDB0"/>
<path d="M406.038 250.077H312.336V263.82H406.038V250.077Z" fill="#F4DDB0"/>
<path fill-rule="evenodd" clip-rule="evenodd" d="M348.568 152.627L339.822 212.215L349.274 212.596L357.938 152.627H348.568Z" fill="#DFBC93"/>
<path fill-rule="evenodd" clip-rule="evenodd" d="M367.308 212.596L358.562 152.627H368.014L376.678 212.596H367.308Z" fill="#DFBC93"/>
<path fill-rule="evenodd" clip-rule="evenodd" d="M325.573 212.215C324.464 214.415 324.94 216.4 324.887 218.564C327.103 218.665 329.085 218.755 331.069 218.843C331.901 218.775 332.732 218.649 333.565 218.649C350.588 218.634 367.61 218.632 384.633 218.639C385.345 218.642 386.059 218.76 386.774 218.824C388.587 218.371 390.517 219.196 392.295 218.364V212.233L325.573 212.215Z" fill="#F9EFDD"/>
<path d="M443.518 315.043H406.038V325.038H443.518V315.043Z" fill="#F9EFDD"/>
<path d="M314.835 315.043H277.355V325.038H314.835V315.043Z" fill="#F9EFDD"/>
<path fill-rule="evenodd" clip-rule="evenodd" d="M145.872 118.001C96.6931 118.001 56.6829 158.012 56.6829 207.19C56.6829 256.368 96.6931 296.379 145.872 296.379C195.051 296.379 235.061 256.368 235.061 207.19C235.061 158.012 195.051 118.001 145.872 118.001ZM145.872 298.164C95.7086 298.164 54.8977 257.354 54.8977 207.19C54.8977 157.026 95.7086 116.216 145.872 116.216C196.035 116.216 236.846 157.026 236.846 207.19C236.846 257.354 196.035 298.164 145.872 298.164Z" fill="#2FC56E"/>
<path fill-rule="evenodd" clip-rule="evenodd" d="M111.058 115.641C114.7 116.003 117.035 118.401 119.288 120.925C119.259 122.02 119.293 123.123 119.188 124.21C119.022 125.92 118.592 127.534 117.441 128.912C114.009 133.023 108.27 133.179 104.704 129.163C104.204 128.599 103.734 128.093 103.037 127.818C103.208 125.036 102.582 122.175 103.878 119.508C105.841 117.42 108.189 116.046 111.058 115.641Z" fill="#A50000"/>
<path fill-rule="evenodd" clip-rule="evenodd" d="M75.8401 150.127C75.8978 149.24 75.3988 148.54 74.9782 147.853C73.8956 146.079 73.4138 144.192 73.6259 142.127C74.8838 138.296 77.2465 135.748 81.4776 135.373C84.1112 135.038 85.9638 136.935 88.2038 137.727C88.5165 138.513 88.8193 139.304 89.1442 140.086C90.5689 143.52 90.0331 146.701 87.6055 149.174C85.0749 151.751 82.1103 152.35 78.6123 150.919C77.7075 150.55 76.8504 150.094 75.8401 150.127Z" fill="#A50000"/>
<path fill-rule="evenodd" clip-rule="evenodd" d="M217.835 144.243C217.39 146.334 215.994 148 215.279 149.972C214.928 150.076 214.565 150.151 214.226 150.291C208.23 152.772 206.153 152.205 201.883 146.782C201.367 143.742 201.342 140.627 203.202 137.758C203.824 137.715 204.336 137.444 204.865 137.112C210.606 133.513 216.865 136.434 217.84 143.15C217.891 143.506 217.838 143.878 217.835 144.243Z" fill="#A50000"/>
<path fill-rule="evenodd" clip-rule="evenodd" d="M153.861 117.636C153.117 120.834 151.86 123.58 148.373 124.707C143.068 126.42 138.598 123.568 137.617 117.743C137.839 111.945 141.125 108.742 146.547 109.035C150.096 109.229 152.861 111.935 153.797 116.172C153.901 116.641 153.844 117.148 153.861 117.636Z" fill="#A50000"/>
<path fill-rule="evenodd" clip-rule="evenodd" d="M187.71 127.475C185.852 130.043 183.73 131.911 180.198 131.953C176.384 132 171.592 128.641 172.165 123.87C172.28 122.905 172.161 121.914 172.152 120.935C173.836 119.274 174.948 117.135 177.465 116.202C180.993 114.893 183.825 116.076 186.076 118.365C187.914 120.234 189.107 122.77 187.915 125.677C187.694 126.216 187.77 126.873 187.71 127.475Z" fill="#A50000"/>
<path fill-rule="evenodd" clip-rule="evenodd" d="M65.9593 164.926C68.3967 167.356 70.5374 169.941 70.4111 174.183C70.0666 174.915 69.6608 176.228 68.9031 177.288C67.1351 179.764 64.8693 181.456 61.57 181.149C60.735 181.072 59.8804 181.196 59.0357 181.225C57.5656 179.602 56.0956 177.978 54.4404 176.148C54.4404 175.071 54.4305 173.857 54.4428 172.642C54.4882 167.948 57.2051 165.153 61.9206 164.971C63.2656 164.919 64.613 164.94 65.9593 164.926Z" fill="#A50000"/>
<path fill-rule="evenodd" clip-rule="evenodd" d="M59.1301 233.998C60.3451 234.039 61.5601 234.129 62.7739 234.116C66.4803 234.074 68.5634 236.227 69.9514 239.346C71.3221 242.43 70.3437 245.02 68.2312 247.351C67.4955 248.161 66.7047 248.92 65.9384 249.703C63.3134 250.178 60.8208 250.627 58.2424 249.003C53.2229 245.843 52.7937 239.091 57.6134 235.552C58.2166 235.108 58.761 234.649 59.1301 233.998Z" fill="#A50000"/>
<path fill-rule="evenodd" clip-rule="evenodd" d="M55.9177 199.515C60.0839 199.911 62.8242 202.189 63.306 205.654C63.9375 210.195 62.1793 213.401 58.1909 214.953C57.4037 215.259 56.5909 215.496 55.7902 215.766C53.7648 215.053 51.5664 214.985 49.8953 213.163C47.5278 210.577 46.3581 207.891 47.8257 204.524C49.2124 201.344 51.5468 199.451 55.1821 199.527C55.4273 199.532 55.6725 199.52 55.9177 199.515Z" fill="#A50000"/>
<path fill-rule="evenodd" clip-rule="evenodd" d="M115.145 312.15C116.212 306.167 118.027 300.372 119.569 294.507C122.029 284.978 124.444 275.438 126.955 265.921C131.115 250.15 135.33 234.391 139.548 218.635C139.743 217.908 139.905 217.218 139.685 216.019C136.827 213.966 135.772 210.797 136.133 206.964C136.34 204.767 137.153 202.885 138.547 201.35C141.773 197.801 147.845 197.213 151.614 200.02C154.416 202.108 156.052 204.967 155.983 208.495C155.913 211.992 153.153 214.328 151.593 217.229C155.476 231.88 159.373 246.456 163.193 261.053C165.78 270.944 168.255 280.862 170.784 290.768C171.055 291.831 171.353 292.886 171.639 293.944C172.95 299.099 174.249 304.258 175.581 309.408C175.825 310.349 176.12 311.269 176.033 312.258C173.862 312.222 171.692 312.186 169.52 312.152C167.999 306.692 166.478 301.232 164.958 295.772C163.528 289.106 161.59 282.573 159.86 275.986C155.503 259.392 151.366 242.742 147.077 226.131C146.833 225.186 146.789 223.971 145.531 223.142C143.883 228.933 142.211 234.484 140.729 240.086C136.838 254.794 132.994 269.516 129.213 284.252C128.247 288.017 126.683 291.646 126.509 295.601C125.677 296.696 125.471 298.023 125.096 299.296C123.832 303.582 123.19 308.044 121.469 312.202C119.362 312.184 117.253 312.168 115.145 312.15Z" fill="#E8E8E8"/>
<path fill-rule="evenodd" clip-rule="evenodd" d="M225.353 165.106C226.448 165.012 227.541 164.865 228.638 164.832C232.749 164.711 235.768 166.715 236.842 170.23C237.903 173.698 236.596 177.303 233.444 179.548C232.948 179.901 232.403 180.182 231.879 180.497C227.192 181.521 223.66 179.991 221.726 176.401C219.963 173.127 221.064 168.197 224.021 166.314C224.519 165.998 224.912 165.513 225.353 165.106Z" fill="#A50000"/>
<path fill-rule="evenodd" clip-rule="evenodd" d="M232.071 234.142C235.323 235.882 237.351 238.335 237.153 242.284C236.92 246.931 232.971 250.423 228.319 249.933C227.352 249.83 226.394 249.643 225.43 249.494C224.304 248.068 222.551 247.164 221.799 245.453C220.49 242.479 220.394 239.581 222.701 236.945C224.924 234.407 227.473 232.879 230.99 234.016C231.329 234.126 231.709 234.104 232.071 234.142Z" fill="#A50000"/>
<path fill-rule="evenodd" clip-rule="evenodd" d="M119.151 293.802C118.631 294.46 118.122 295.128 117.59 295.778C115.034 298.895 110.901 299.802 107.364 298.028C104.178 296.431 102.505 292.769 103.27 289.042C103.391 288.45 103.574 287.869 103.728 287.283C105.589 284.498 107.844 282.511 111.532 282.712C115.782 282.945 119.14 286.194 119.253 290.492C119.282 291.593 119.189 292.698 119.151 293.802Z" fill="#A50000"/>
<path fill-rule="evenodd" clip-rule="evenodd" d="M215.048 265.075C215.24 265.385 215.413 265.709 215.627 266.003C218.559 270.055 218.432 273.633 215.232 276.93C212.458 279.785 208.19 280.058 204.477 277.617C204.07 277.349 203.656 277.092 203.247 276.829C202.022 274.702 201.045 272.527 201.468 269.954C202.237 265.284 207.745 260.633 213.806 264.316C214.22 264.568 214.633 264.823 215.048 265.075Z" fill="#A50000"/>
<path fill-rule="evenodd" clip-rule="evenodd" d="M235.662 199.304C238.324 199.409 240.653 200.21 242.359 202.403C245.686 206.681 243.873 213.12 238.747 215.023C237.734 215.401 236.627 215.522 235.562 215.761C233.813 215.299 232.137 214.807 230.68 213.549C228.694 211.833 227.962 209.647 227.608 207.211C228.412 202.658 230.772 199.692 235.662 199.304Z" fill="#A50000"/>
<path fill-rule="evenodd" clip-rule="evenodd" d="M187.794 287.218C187.927 287.806 188.074 288.393 188.193 288.986C188.939 292.664 187.236 296.439 184.137 297.985C180.713 299.695 176.7 298.911 174.16 296.004C173.526 295.278 172.972 294.482 172.381 293.718C172.332 292.618 172.246 291.52 172.241 290.421C172.225 286.92 174.253 284.629 177.165 283.336C180.125 282.021 183.158 282.317 185.646 284.729C186.429 285.488 187.081 286.384 187.794 287.218Z" fill="#A50000"/>
<path fill-rule="evenodd" clip-rule="evenodd" d="M88.1817 276.803C86.0619 277.855 84.2559 279.406 81.5426 279.248C75.6587 278.905 71.9584 273.164 74.4179 267.832C74.9231 266.737 75.8769 265.882 76.0817 264.633C76.9939 264.312 77.9134 264.011 78.8146 263.664C82.4327 262.271 85.5003 263.309 88.0236 265.981C90.4978 268.6 90.2893 271.682 89.0412 274.806C88.7727 275.479 88.4686 276.139 88.1817 276.803Z" fill="#A50000"/>
<path fill-rule="evenodd" clip-rule="evenodd" d="M137.456 297.473C137.592 295.033 138.506 292.972 140.444 291.429C145.015 287.79 150.738 289.238 153.166 294.616C153.574 295.523 153.851 296.439 153.909 297.427C153.735 298.255 153.632 299.104 153.375 299.905C152.173 303.663 149.344 305.709 145.515 305.649C141.87 305.593 138.783 303.22 137.761 299.63C137.563 298.938 137.553 298.193 137.456 297.473Z" fill="#A50000"/>
<path fill-rule="evenodd" clip-rule="evenodd" d="M125.797 312.428H201.518V197.998H125.797V312.428Z" fill="#317091"/>
<path fill-rule="evenodd" clip-rule="evenodd" d="M125.797 260.169H201.518V240.785H125.797V260.169Z" fill="#4C839F"/>
<path fill-rule="evenodd" clip-rule="evenodd" d="M125.797 223.338H201.518V203.953H125.797V223.338Z" fill="#4C839F"/>
<path fill-rule="evenodd" clip-rule="evenodd" d="M125.797 206.089H201.518V197.997H125.797V206.089Z" fill="#B4D6E7"/>
<path fill-rule="evenodd" clip-rule="evenodd" d="M171.399 312.428H179.547V206.09H171.399V312.428Z" fill="#B4D6E7"/>
<path fill-rule="evenodd" clip-rule="evenodd" d="M146.844 312.428H154.993V206.09H146.844V312.428Z" fill="#B4D6E7"/>
<path fill-rule="evenodd" clip-rule="evenodd" d="M125.797 312.428H133.946V206.09H125.797V312.428Z" fill="#B4D6E7"/>
<path fill-rule="evenodd" clip-rule="evenodd" d="M193.37 312.428H201.518V206.09H193.37V312.428Z" fill="#B4D6E7"/>
<path fill-rule="evenodd" clip-rule="evenodd" d="M125.797 289.415H201.518V279.329H125.797V289.415Z" fill="#B4D6E7"/>
<path fill-rule="evenodd" clip-rule="evenodd" d="M28.6436 317.453V308.548C29.3608 307.69 30.0621 307.939 30.6678 307.815C44.1227 307.81 57.5775 307.805 71.0336 307.8C72.0647 308.184 73.4625 307.166 74.214 308.63C74.1748 316.637 74.1331 324.642 74.0963 332.649C74.0878 334.245 74.0951 335.843 74.0951 337.611H28.6436V317.453Z" fill="#FF6969"/>
<path fill-rule="evenodd" clip-rule="evenodd" d="M39.5888 255.385H62.0197V248.799H39.5888V255.385ZM43.3945 285.711H58.1306V263.724H43.3945V285.711ZM71.0338 307.799C57.5777 307.804 44.1228 307.809 30.6679 307.814C30.6606 287.433 30.6544 267.052 30.6483 246.671C44.113 246.675 57.5764 246.679 71.0399 246.683C71.0374 267.055 71.035 287.427 71.0338 307.799Z" fill="#C50000"/>
<path fill-rule="evenodd" clip-rule="evenodd" d="M67.4668 230.965C66.2714 230.862 65.1802 230.719 64.0522 231.09C63.9909 232.211 63.8401 233.259 64.1564 234.321H67.4668V230.965ZM33.989 230.964C34.3495 232.262 33.6985 233.411 34.4942 234.426C35.6516 234.385 36.7134 234.586 37.7776 234.274V230.964H33.989ZM41.7648 234.369C43.1036 234.417 44.2181 234.587 45.3314 234.269C45.4724 233.088 45.6171 232.04 45.2296 230.979H41.7648V234.369ZM49.1285 234.458C50.4662 234.342 51.5917 234.623 52.7651 234.247C52.8153 233.106 52.9637 232.056 52.6179 230.852C51.4188 231.012 50.2369 230.572 49.1285 231.127V234.458ZM56.5009 230.973C56.4898 232.168 56.2937 233.222 56.6431 234.315C57.8128 234.499 58.9236 234.494 60.0847 234.321V231.02C58.904 230.774 57.8361 230.84 56.5009 230.973ZM71.3535 234.401C70.6215 236.534 71.1806 238.732 71.0335 240.895C57.5725 240.899 44.1127 240.901 30.6529 240.904C30.6026 238.74 30.5536 236.573 30.5046 234.408C30.5046 233.292 30.5046 232.178 30.5046 230.877H26.7798C26.1827 228.316 27.3156 226.906 29.5311 225.566C36.858 221.132 44.6607 218.885 53.2432 219.329C61.0925 219.734 68.0075 222.67 74.415 226.985C75.8691 227.966 74.9716 229.566 75.0513 230.898H71.3535V234.401Z" fill="#C50000"/>
<path fill-rule="evenodd" clip-rule="evenodd" d="M30.6525 240.905C44.1136 240.902 57.5733 240.899 71.0331 240.895C71.3507 240.911 71.6693 240.922 71.9856 240.942C73.9326 241.068 75.1599 242.168 75.1587 243.785C75.1587 245.402 73.9302 246.513 71.993 246.644C71.6754 246.665 71.3579 246.671 71.0391 246.683C57.5757 246.68 44.1122 246.675 30.6488 246.671C30.0198 246.612 29.3565 246.66 28.7692 246.474C27.4966 246.07 26.7376 245.135 26.7487 243.785C26.7597 242.348 27.5775 241.409 28.9507 241.037C29.4914 240.893 30.0836 240.943 30.6525 240.905Z" fill="#FF6969"/>
<path fill-rule="evenodd" clip-rule="evenodd" d="M43.3944 285.711H58.1305V263.724H43.3944V285.711Z" fill="#FF6969"/>
<path fill-rule="evenodd" clip-rule="evenodd" d="M39.5887 255.385H62.0197V248.8H39.5887V255.385Z" fill="#FF6969"/>
<path fill-rule="evenodd" clip-rule="evenodd" d="M56.5012 230.973C57.8364 230.841 58.9031 230.774 60.0838 231.02V234.321C58.9239 234.494 57.8131 234.499 56.6434 234.316C56.294 233.222 56.4902 232.169 56.5012 230.973Z" fill="#282828"/>
<path fill-rule="evenodd" clip-rule="evenodd" d="M49.1292 234.458V231.127C50.2363 230.572 51.4194 231.012 52.6185 230.854C52.9643 232.057 52.8159 233.106 52.7657 234.248C51.5923 234.624 50.4656 234.342 49.1292 234.458Z" fill="#282828"/>
<path fill-rule="evenodd" clip-rule="evenodd" d="M41.7649 234.37V230.979H45.2298C45.6172 232.042 45.4725 233.089 45.3315 234.271C44.2183 234.588 43.1038 234.418 41.7649 234.37Z" fill="#282828"/>
<path fill-rule="evenodd" clip-rule="evenodd" d="M33.9888 230.965H37.7773V234.276C36.7143 234.587 35.6513 234.386 34.4951 234.428C33.6982 233.413 34.3492 232.264 33.9888 230.965Z" fill="#282828"/>
<path fill-rule="evenodd" clip-rule="evenodd" d="M67.4669 230.965V234.321H64.1565C63.8402 233.259 63.991 232.211 64.0523 231.09C65.1803 230.719 66.2715 230.862 67.4669 230.965Z" fill="#282828"/>
<path fill-rule="evenodd" clip-rule="evenodd" d="M73.684 336.787C74.6145 329.325 73.8568 321.835 74.0886 314.361C74.145 312.516 74.0971 310.669 74.0971 308.516C77.7312 308.352 80.9901 308.204 84.2502 308.054C94.4339 308.526 104.618 308.571 114.801 308.025C115.862 308.028 116.924 308.031 117.984 308.036C128.17 308.551 138.356 308.554 148.541 308.033C149.601 308.031 150.663 308.03 151.724 308.028C161.91 308.558 172.095 308.548 182.28 308.037C185.431 308.178 188.579 308.32 192.088 308.477C192.999 317.951 191.665 327.43 192.813 336.813C171.374 336.872 149.936 336.977 128.498 336.977C110.227 336.976 91.9548 336.856 73.684 336.787Z" fill="#C8C0AD"/>
<path fill-rule="evenodd" clip-rule="evenodd" d="M114.802 308.025C104.618 308.571 94.4341 308.526 84.2504 308.054C84.7862 298.455 90.4935 292.905 99.7945 292.934C108.675 292.964 114.326 298.646 114.802 308.025Z" fill="#F4C9F5"/>
<path fill-rule="evenodd" clip-rule="evenodd" d="M148.541 308.033C138.356 308.554 128.171 308.551 117.985 308.036C118.522 298.567 124.219 292.937 133.261 292.937C142.302 292.936 147.993 298.557 148.541 308.033Z" fill="#F4C9F5"/>
<path fill-rule="evenodd" clip-rule="evenodd" d="M182.28 308.037C172.095 308.548 161.908 308.558 151.724 308.028C152.27 298.533 157.904 292.94 166.927 292.936C175.713 292.931 181.744 298.865 182.28 308.037Z" fill="#2F779F"/>
<path fill-rule="evenodd" clip-rule="evenodd" d="M294.621 288.248C302.472 290.65 306.894 295.856 307.692 302.863C308.372 308.828 311.603 312.477 317.196 315.076C318.843 315.839 320.512 316.654 321.929 317.703C329.352 323.197 331.309 329.719 328.278 338.246C327.961 339.137 327.83 340.081 327.613 341C277.155 340.996 226.699 340.992 176.243 340.988C175.882 337.918 174.541 335.086 174.398 331.871C174.047 324.03 178.273 318.989 185.588 315.784C191.726 313.096 194.72 308.896 196.033 303.107C198.501 292.235 206.285 286.837 218.79 286.852C220.159 286.852 221.538 286.757 222.893 286.884C228.417 287.402 232.802 285.752 236.741 282.199C240.805 278.536 245.804 276.158 251.935 276.545C258.054 276.224 263.097 278.511 267.147 282.24C271.072 285.854 275.552 287.241 281.046 286.909C285.634 286.63 290.247 286.61 294.621 288.248Z" fill="#2FC56E"/>
<mask id="mask0_266_2086" style="mask-type:alpha" maskUnits="userSpaceOnUse" x="392" y="10" width="83" height="83">
<path fill-rule="evenodd" clip-rule="evenodd" d="M392.099 10.3193H474.514V92.7482H392.099V10.3193Z" fill="white"/>
</mask>
<g mask="url(#mask0_266_2086)">
<path fill-rule="evenodd" clip-rule="evenodd" d="M474.514 51.5325C474.514 74.2955 456.066 92.7473 433.306 92.7473C410.548 92.7473 392.099 74.2955 392.099 51.5325C392.099 28.7697 410.548 10.3179 433.306 10.3179C456.066 10.3179 474.514 28.7697 474.514 51.5325Z" fill="#FED600"/>
</g>
<path fill-rule="evenodd" clip-rule="evenodd" d="M491.74 93.9617C491.734 93.7876 512.685 81.8253 494.47 59.2959C491.696 55.865 478.825 42.215 456.05 51.3492C455.137 51.7143 454.126 52.1048 453.16 52.4742C451.982 52.9269 450.925 53.9105 449.909 54.6503C448.341 55.7911 446.802 56.9689 445.325 58.2216C442.396 60.7069 439.708 63.5056 437.679 66.7572C435.493 70.263 434.181 74.2089 433.769 78.2963C432.966 77.9744 432.153 77.681 431.33 77.4161C430.328 77.0942 429.31 76.8135 428.284 76.5729C427.343 76.3534 426.284 76.022 425.315 76.0347C424.412 76.0473 423.501 75.6663 422.601 75.5355C421.575 75.3888 411.547 71.2888 399.496 76.8853C398.632 77.2873 397.898 77.777 397.146 78.2952C395.656 79.3231 394.284 80.5389 393.043 81.8253C391.884 83.0274 390.844 84.337 389.962 85.748C389.496 86.492 389.074 87.2624 388.699 88.055C388.356 88.7779 387.856 89.5029 387.722 90.2987C387.614 90.9382 387.612 91.5935 387.722 92.232C387.758 92.4558 387.824 92.6964 388.013 92.8241C388.146 92.9127 388.313 92.9286 388.471 92.9402C389.018 92.9834 389.565 93.0278 390.111 93.0689C390.556 93.1038 391.05 93.0837 391.466 93.2663C391.729 93.3845 391.937 93.5649 392.225 93.6272C392.72 93.7306 393.283 93.6641 393.783 93.6652C396.022 93.68 398.263 93.6926 400.501 93.7032C404.979 93.7285 409.46 93.7496 413.938 93.7686C418.417 93.7876 422.895 93.8034 427.374 93.8203C431.854 93.834 436.333 93.8467 440.811 93.8594C445.292 93.871 449.77 93.8805 454.25 93.8921C458.729 93.8995 463.208 93.909 467.686 93.9174C472.166 93.9269 476.646 93.9332 481.125 93.9406" fill="#EAF9FF"/>
<path fill-rule="evenodd" clip-rule="evenodd" d="M101.012 175.381C100.417 174.258 99.7846 173.386 99.0884 172.555C98.3618 171.688 97.2073 171.424 96.3458 170.556C98.5895 169.618 100.099 168.039 101.11 165.826C102.165 168.049 103.544 169.739 105.901 170.713C103.811 171.777 102.095 173.126 101.012 175.381Z" fill="#80D9FF"/>
<path fill-rule="evenodd" clip-rule="evenodd" d="M409.567 120.44C409.021 119.316 408.442 118.445 407.804 117.614C407.138 116.747 406.079 116.482 405.29 115.615C407.346 114.677 408.73 113.098 409.657 110.885C410.623 113.108 411.888 114.798 414.048 115.771C412.132 116.836 410.56 118.185 409.567 120.44Z" fill="#BBEBFF"/>
<path fill-rule="evenodd" clip-rule="evenodd" d="M285.296 131.587C284.454 129.996 283.558 128.761 282.572 127.585C281.542 126.355 279.907 125.981 278.686 124.752C281.865 123.423 284.004 121.187 285.436 118.051C286.93 121.201 288.884 123.594 292.222 124.974C289.262 126.482 286.831 128.392 285.296 131.587Z" fill="#80D9FF"/>
<path fill-rule="evenodd" clip-rule="evenodd" d="M378.55 164.233C378.203 163.672 377.834 163.236 377.428 162.821C377.004 162.387 376.331 162.255 375.828 161.821C377.137 161.352 378.018 160.563 378.608 159.456C379.223 160.568 380.027 161.412 381.402 161.899C380.183 162.431 379.182 163.106 378.55 164.233Z" fill="#BBEBFF"/>
<path fill-rule="evenodd" clip-rule="evenodd" d="M3.69279 147.512C4.41664 149.438 5.85916 150.651 7.16622 151.191C6.91849 151.422 6.61529 151.512 6.35723 151.672C5.00114 152.509 4.37407 153.202 3.61538 154.678C3.14701 153.944 2.78441 153.191 2.1883 152.595C1.57155 151.978 0.850297 151.547 0 151.13C1.71866 150.448 2.95088 149.311 3.69279 147.512Z" fill="#BBEBFF"/>
</svg>
