<svg viewBox="0 0 16 16" fill="none" xmlns="http://www.w3.org/2000/svg">
<path d="M0.533447 11.2L0.179894 10.8464L0.0334473 10.9929V11.2H0.533447ZM11.2001 0.533325L11.5537 0.179772C11.3584 -0.0154903 11.0418 -0.0154903 10.8466 0.179772L11.2001 0.533325ZM15.4668 4.79999L15.8203 5.15355C16.0156 4.95828 16.0156 4.6417 15.8203 4.44644L15.4668 4.79999ZM4.80011 15.4667V15.9667H5.00722L5.15367 15.8202L4.80011 15.4667ZM0.533447 15.4667H0.0334473C0.0334473 15.7428 0.257305 15.9667 0.533447 15.9667L0.533447 15.4667ZM0.887001 11.5535L11.5537 0.886879L10.8466 0.179772L0.179894 10.8464L0.887001 11.5535ZM10.8466 0.886879L15.1132 5.15355L15.8203 4.44644L11.5537 0.179772L10.8466 0.886879ZM15.1132 4.44644L4.44656 15.1131L5.15367 15.8202L15.8203 5.15355L15.1132 4.44644ZM4.80011 14.9667H0.533447V15.9667H4.80011V14.9667ZM1.03345 15.4667V11.2H0.0334473V15.4667H1.03345Z" fill="black"/>
</svg>
