<svg width="94" height="32" viewBox="0 0 94 32" fill="none" xmlns="http://www.w3.org/2000/svg">
<g clip-path="url(#clip0_522_1723)">
<path fill-rule="evenodd" clip-rule="evenodd" d="M29.7872 9.34477C29.4875 7.8997 28.1895 7.11589 26.3193 7.20464C24.7537 7.83148 24.2408 9.02781 24.4962 10.6025C24.7433 12.1254 25.7839 12.7436 27.3639 12.9044C29.4217 12.1031 30.144 11.0637 29.7872 9.34477ZM26.4669 30.2996C24.7001 27.3452 22.8733 24.431 21.1076 21.4759C19.9315 19.5071 18.5754 17.648 17.6304 15.539C16.5971 13.233 16.4666 10.8229 17.0585 8.37665C17.6322 6.00626 18.8926 4.11869 20.7467 2.58002C23.2734 0.483746 26.1663 -0.0457106 29.1953 0.512146C31.6768 0.969331 33.8004 2.31986 35.3625 4.47648C36.4285 5.94769 37.192 7.56142 37.4457 9.38762C37.8364 12.2074 37.1696 14.8067 35.7719 17.2217C33.3458 21.4114 30.9206 25.6019 28.4712 29.777C28.1529 30.3201 28.0749 31.0456 27.3712 31.422C27.0163 31.1012 26.7306 30.7404 26.4669 30.2996Z" fill="#00B2FF"/>
<path fill-rule="evenodd" clip-rule="evenodd" d="M1.68133 23.7925C1.24176 23.9099 0.804859 24.0313 0.370459 24.1569C0.190835 24.2087 0.0861389 24.3973 0.136776 24.5782C0.187266 24.7589 0.374065 24.8634 0.553689 24.8116C0.983824 24.6873 1.41646 24.5672 1.85162 24.4509C2.03219 24.4026 2.14058 24.216 2.09357 24.0343C2.04649 23.8524 1.86189 23.7442 1.68133 23.7925ZM4.99058 22.9939C5.43225 22.8984 5.87592 22.8066 6.32211 22.7188C6.50548 22.6827 6.68252 22.803 6.71749 22.9876C6.75245 23.1721 6.63209 23.351 6.44877 23.3874C6.00667 23.4743 5.56678 23.5653 5.12935 23.6599C4.94654 23.6994 4.7674 23.5824 4.72913 23.3985C4.69085 23.2146 4.80792 23.0335 4.99058 22.9939ZM11.0234 21.9415C10.5732 22.0022 10.1249 22.0663 9.67879 22.1342C9.49398 22.1623 9.36619 22.3358 9.39299 22.5218C9.42002 22.7078 9.59147 22.8357 9.77629 22.8077C10.2186 22.7406 10.6633 22.6768 11.1097 22.6167C11.295 22.5918 11.4257 22.4203 11.4019 22.2338C11.378 22.0475 11.2086 21.9166 11.0234 21.9415ZM14.3915 21.5561L14.6804 21.5293C15.0342 21.497 15.3887 21.4668 15.7444 21.4386C15.9306 21.4238 16.0926 21.5639 16.1064 21.7514C16.1201 21.939 15.9803 22.1029 15.7941 22.1177L15.2653 22.1613L14.4514 22.2345C14.2654 22.252 14.1014 22.1144 14.0847 21.9272C14.0682 21.7399 14.2056 21.5739 14.3915 21.5561ZM19.6337 21.2133L19.1311 21.2334C18.9446 21.2414 18.799 21.4 18.8059 21.5881C18.8128 21.776 18.9696 21.9219 19.1563 21.914C19.4885 21.8999 19.8217 21.8875 20.1558 21.8768L20.5033 21.8663C20.6898 21.8608 20.8377 21.7043 20.8333 21.5161C20.8289 21.3281 20.6741 21.18 20.4873 21.1853C20.3685 21.1888 20.2523 21.1923 20.1377 21.196L19.6337 21.2133ZM23.8681 21.1087L24.7908 21.0832C24.9356 21.0786 25.0769 21.074 25.2158 21.069C25.4025 21.0626 25.5583 21.2096 25.5639 21.3975C25.5696 21.5855 25.4229 21.7433 25.2362 21.7499L24.5873 21.7708C24.3631 21.7772 24.1292 21.7835 23.881 21.7897C23.6943 21.7942 23.5401 21.6454 23.5365 21.4573C23.5328 21.2692 23.6814 21.1132 23.8681 21.1087ZM29.9016 20.7106C29.4702 20.7682 29.0276 20.8188 28.5702 20.8626C28.3844 20.8804 28.2472 21.0466 28.2641 21.2338C28.2808 21.421 28.445 21.5586 28.6311 21.5407C29.0965 21.496 29.5476 21.4448 29.9875 21.3859C30.1727 21.3611 30.3036 21.1898 30.2799 21.0034C30.2562 20.817 30.087 20.6858 29.9016 20.7106ZM33.1877 20.0679C33.5417 19.9731 33.889 19.8708 34.2304 19.7604L34.456 19.6855C34.6333 19.6252 34.8246 19.721 34.8835 19.8991C34.9424 20.0773 34.8466 20.2707 34.6694 20.3308L34.4341 20.4091C34.0816 20.523 33.7231 20.6286 33.3582 20.7262C33.1775 20.7745 32.993 20.6662 32.946 20.4845C32.8988 20.3027 33.0072 20.1162 33.1877 20.0679ZM38.5934 17.5806C38.2347 17.835 37.8618 18.0759 37.4774 18.3021C37.3158 18.3971 37.2606 18.6059 37.3539 18.7682C37.4475 18.9303 37.6543 18.985 37.8159 18.8899C38.2171 18.654 38.6062 18.4027 38.9807 18.1371C39.1337 18.0284 39.1711 17.816 39.0641 17.6623C38.9572 17.5086 38.7465 17.4722 38.5934 17.5806ZM41.0627 15.3514C41.3542 15.0121 41.6229 14.6619 41.867 14.3022C41.9727 14.1464 42.1829 14.1059 42.337 14.2116C42.4909 14.3171 42.5302 14.5289 42.4246 14.6846C42.1656 15.0662 41.8813 15.4372 41.5726 15.796C41.4501 15.9387 41.2365 15.9547 41.0958 15.8318C40.9549 15.709 40.94 15.494 41.0627 15.3514ZM43.4653 10.2657C43.4145 10.6222 43.3422 10.9744 43.249 11.3225C43.2004 11.5042 43.3069 11.6907 43.4872 11.7388C43.6675 11.7872 43.8531 11.6787 43.9018 11.4969C44.002 11.1226 44.0798 10.7432 44.1345 10.3593C44.161 10.173 44.0328 10.0009 43.848 9.97518C43.6633 9.94927 43.4919 10.0795 43.4653 10.2657Z" fill="#FE86D5" stroke="#FE86D5" stroke-width="1.2"/>
<path d="M51.9857 1.61377L41.0287 5.54529L44.1593 7.11789L48.8552 3.97268L45.7246 7.90417L50.4205 11.0495L51.9857 1.61377Z" fill="#FFB5E6" stroke="#FE86D5" stroke-width="1.4" stroke-linejoin="round"/>
<path d="M72.9668 17.4907V7.67401H75.1521V17.4907H72.9668ZM69.1919 17.3093V7.85544H71.3051V17.3093H69.1919ZM67.2955 24.8033C66.4768 24.8033 65.7543 24.6703 65.1282 24.4041C64.5141 24.1501 64.0325 23.7751 63.6833 23.2791C63.3461 22.7831 63.1776 22.1964 63.1776 21.5191C63.1776 20.8537 63.3461 20.273 63.6833 19.7771C64.0325 19.2811 64.5141 18.9 65.1282 18.6339C65.7543 18.3678 66.4768 18.2347 67.2955 18.2347H71.2329C72.0516 18.2347 72.768 18.3678 73.3821 18.6339C74.0082 18.9 74.4899 19.2811 74.827 19.7771C75.1762 20.273 75.3508 20.8537 75.3508 21.5191C75.3508 22.1964 75.1762 22.7831 74.827 23.2791C74.4899 23.7751 74.0082 24.1501 73.3821 24.4041C72.768 24.6703 72.0516 24.8033 71.2329 24.8033H67.2955ZM70.9078 22.7347C71.6061 22.7347 72.1359 22.6259 72.4971 22.4081C72.8584 22.1904 73.039 21.894 73.039 21.5191C73.039 21.1319 72.8584 20.8295 72.4971 20.6117C72.1359 20.394 71.6061 20.2851 70.9078 20.2851H67.6206C66.9222 20.2851 66.3925 20.394 66.0313 20.6117C65.67 20.8295 65.4894 21.1319 65.4894 21.5191C65.4894 21.894 65.67 22.1904 66.0313 22.4081C66.3925 22.6259 66.9222 22.7347 67.6206 22.7347H70.9078ZM64.2793 17.4544C63.2318 17.4544 62.3829 17.2125 61.7327 16.7286C61.0946 16.2327 60.7754 15.5189 60.7754 14.5875V14.3878C60.7754 13.4564 61.0946 12.7426 61.7327 12.2467C62.3829 11.7507 63.2318 11.5027 64.2793 11.5027C65.3148 11.5027 66.1456 11.7507 66.7718 12.2467C67.4099 12.7426 67.729 13.4564 67.729 14.3878V14.5875C67.729 15.5189 67.4099 16.2327 66.7718 16.7286C66.1456 17.2125 65.3148 17.4544 64.2793 17.4544ZM64.2793 15.6036C64.7128 15.6036 65.0559 15.5068 65.3088 15.3132C65.5617 15.1197 65.688 14.8596 65.688 14.533V14.4423C65.688 14.1157 65.5557 13.8556 65.2908 13.662C65.0379 13.4564 64.7007 13.3535 64.2793 13.3535C63.8338 13.3535 63.4786 13.4564 63.2137 13.662C62.9609 13.8556 62.8344 14.1157 62.8344 14.4423V14.533C62.8344 14.8717 62.9609 15.1379 63.2137 15.3314C63.4665 15.5129 63.8218 15.6036 64.2793 15.6036ZM60.1975 10.8314V8.98051H68.2889V10.8314H60.1975ZM63.0873 10.2144V7.49255H65.4172V10.2144H63.0873ZM70.4382 13.5713V11.539H73.7253V13.5713H70.4382Z" fill="#00B2FF"/>
<path d="M84.1332 17.5996V14.9866H86.4451V17.5996H84.1332ZM77.3419 18.6339V16.783H93.2356V18.6339H77.3419ZM89.0817 24.8033V21.7186H79.2024V19.7589H91.3937V24.8033H89.0817ZM79.3648 15.5673V10.8858H88.9007V9.88775H79.2747V8.00061H91.2313V12.7184H81.6767V13.7164H91.5739V15.5673H79.3648Z" fill="#00B2FF"/>
</g>
<defs>
<clipPath id="clip0_522_1723">
<rect width="94" height="32" fill="white"/>
</clipPath>
</defs>
</svg>
