<svg viewBox="0 0 20 20" fill="none" xmlns="http://www.w3.org/2000/svg">
<path d="M4.00008 9.99992C4.00008 10.3681 3.7016 10.6666 3.33341 10.6666C2.96522 10.6666 2.66675 10.3681 2.66675 9.99992C2.66675 9.63173 2.96522 9.33325 3.33341 9.33325C3.7016 9.33325 4.00008 9.63173 4.00008 9.99992Z" fill="#282828"/>
<path d="M10.6667 9.99992C10.6667 10.3681 10.3683 10.6666 10.0001 10.6666C9.63189 10.6666 9.33341 10.3681 9.33341 9.99992C9.33341 9.63173 9.63189 9.33325 10.0001 9.33325C10.3683 9.33325 10.6667 9.63173 10.6667 9.99992Z" fill="#282828"/>
<path d="M17.3334 9.99992C17.3334 10.3681 17.0349 10.6666 16.6667 10.6666C16.2986 10.6666 16.0001 10.3681 16.0001 9.99992C16.0001 9.63173 16.2986 9.33325 16.6667 9.33325C17.0349 9.33325 17.3334 9.63173 17.3334 9.99992Z" fill="#282828"/>
<path d="M4.00008 9.99992C4.00008 10.3681 3.7016 10.6666 3.33341 10.6666C2.96522 10.6666 2.66675 10.3681 2.66675 9.99992C2.66675 9.63173 2.96522 9.33325 3.33341 9.33325C3.7016 9.33325 4.00008 9.63173 4.00008 9.99992Z" stroke="#282828"/>
<path d="M10.6667 9.99992C10.6667 10.3681 10.3683 10.6666 10.0001 10.6666C9.63189 10.6666 9.33341 10.3681 9.33341 9.99992C9.33341 9.63173 9.63189 9.33325 10.0001 9.33325C10.3683 9.33325 10.6667 9.63173 10.6667 9.99992Z" stroke="#282828"/>
<path d="M17.3334 9.99992C17.3334 10.3681 17.0349 10.6666 16.6667 10.6666C16.2986 10.6666 16.0001 10.3681 16.0001 9.99992C16.0001 9.63173 16.2986 9.33325 16.6667 9.33325C17.0349 9.33325 17.3334 9.63173 17.3334 9.99992Z" stroke="#282828"/>
</svg>
