<svg width="35" height="52" viewBox="0 0 35 52" fill="none" xmlns="http://www.w3.org/2000/svg">
<mask id="mask0_1921_2199" style="mask-type:alpha" maskUnits="userSpaceOnUse" x="0" y="0" width="35" height="52">
<path fill-rule="evenodd" clip-rule="evenodd" d="M0.53833 0.464478H34.9059V51.5175H0.53833V0.464478Z" fill="white"/>
</mask>
<g mask="url(#mask0_1921_2199)">
<path fill-rule="evenodd" clip-rule="evenodd" d="M22.1001 15.2957C21.6062 12.9247 19.4666 11.6388 16.3838 11.7844C13.8031 12.8128 12.9577 14.7757 13.3788 17.3592C13.7861 19.8579 15.5014 20.8722 18.1057 21.136C21.4976 19.8213 22.6883 18.116 22.1001 15.2957ZM16.6271 49.6762C13.7149 44.829 10.7037 40.0476 7.79312 35.1991C5.8544 31.969 3.61906 28.9187 2.06143 25.4585C0.358197 21.6751 0.143105 17.7207 1.1187 13.7073C2.06434 9.81821 4.14202 6.72127 7.1982 4.19678C11.3631 0.757441 16.1317 -0.111236 21.1245 0.804036C25.2149 1.55414 28.7154 3.76993 31.2902 7.30829C33.0476 9.72211 34.306 12.3697 34.7241 15.366C35.3682 19.9923 34.269 24.257 31.965 28.2193C27.9661 35.0934 23.9685 41.9688 19.9309 48.8188C19.4063 49.7099 19.2777 50.9002 18.1178 51.5176C17.5328 50.9913 17.0619 50.3993 16.6271 49.6762Z" fill="#00B2FF"/>
</g>
</svg>
