<svg width="397" height="316" viewBox="0 0 397 316" fill="none" xmlns="http://www.w3.org/2000/svg">
<path fill-rule="evenodd" clip-rule="evenodd" d="M344.415 110.3C345.338 111.064 346.26 111.627 347.301 112.393C351.99 115.85 356.322 119.89 360.231 124.3C368.081 133.153 374.194 143.654 378.436 154.993C396.369 202.913 378.615 262.99 337.172 294.639C287.865 332.295 225.547 317.326 200.902 263.559C199.617 260.757 198.464 257.909 197.435 255.017C193.966 245.265 183.621 241.688 174.942 247.445C116.101 286.419 45.011 266.927 16.3212 203.885C-11.3869 143.008 11.281 62.0654 67.2118 22.4584C101.621 -1.90265 140.653 -5.80968 173.119 7.66127C177.164 9.34174 181.147 11.1181 185.241 12.7471C208.624 22.0616 232.649 33.024 249.462 53.2046C255.507 60.4604 260.579 68.8692 268.122 74.33C278.391 81.7672 291.603 82.6329 303.706 85.9512C313.735 88.6977 323.259 93.289 331.782 99.415C336.081 102.504 339.898 106.065 343.757 109.72C343.979 109.927 344.197 110.121 344.415 110.3Z" fill="#EAF9FF"/>
<path fill-rule="evenodd" clip-rule="evenodd" d="M334.697 292.25C316.679 298.963 299.033 299.618 283.052 291.999L282.469 291.691C281.462 291.169 279.367 290.088 277.799 289.315L276.323 288.603C272.728 286.896 268.875 285.264 264.659 283.725C252.258 279.191 238.886 276.225 224.696 275.512C206.722 274.607 188.606 277.416 170.632 284.667L169.945 284.939C147.257 293.856 122.532 292.078 104.596 279.771C97.9751 275.23 92.326 268.874 87.0865 260.493C82.9747 253.919 79.5741 247.055 74.4982 235.659L70.3189 226.262C65.1019 214.701 60.5556 206.396 55.1434 199.206C51.87 194.863 48.4333 191.206 44.7489 188.24C43.7809 187.46 42.916 186.872 41.359 185.923L39.3907 184.738C36.8263 183.187 35.5109 182.265 34.2283 181.006L33.8785 180.653C33.3989 180.159 32.9969 179.71 32.403 179.009L30.7248 177.01C29.7399 175.857 29.1117 175.202 28.3116 174.504L27.3335 173.649C24.0047 170.72 21.6386 168.458 19.3977 165.988C13.4316 159.42 8.73519 152.189 5.50432 144.31C-5.04307 118.591 -0.0507949 83.232 17.2128 55.8119C33.341 30.1911 59.1794 11.5726 87.0807 4.37316C104.433 -0.1062 121.309 -0.0142242 135.955 5.05024C137.514 5.58918 138.806 6.11953 140.966 7.09685L143.08 8.06523L145.232 9.0447C145.971 9.37429 146.558 9.58185 147.726 9.93792L148.656 10.2185C150.447 10.7628 151.341 11.1099 152.404 11.739C157.401 14.6961 162.328 18.1169 168.564 22.8342L169.019 23.1792C170.071 23.9776 171.073 24.7455 172.292 25.6889L179.433 31.2436C188.32 38.1375 193.147 41.6406 198.885 45.1813L199.908 45.8072C207.386 50.3427 216.239 52.9716 232.959 56.2159L235.219 56.6493L247.443 58.9389C251.104 59.6353 254.249 60.2576 257.29 60.8946L260.095 61.493C268.954 63.4186 276.887 65.495 284.66 68.0104C305.022 74.6 323.355 83.9732 340.765 97.5984C350.753 105.414 360.309 114.555 369.457 125.177C389.419 148.357 399.682 179.781 395.887 210.991C392.857 235.886 380.403 260.579 362.632 276.514C357.7 280.938 346.451 287.873 334.697 292.25ZM136.285 5.58632L135.827 5.426C121.259 0.388011 104.46 0.29676 87.1787 4.75787C59.3734 11.9323 33.6198 30.4899 17.5455 56.0245C0.34695 83.3415 -4.62639 118.567 5.86847 144.158C9.08111 151.993 13.7525 159.185 19.6885 165.72C21.9181 168.177 24.2749 170.431 27.594 173.351L28.7304 174.346C29.473 175.007 30.0905 175.659 31.0186 176.745L32.7003 178.748C33.1827 179.318 33.5368 179.718 33.9085 180.112L34.1604 180.376C35.5345 181.795 36.8267 182.725 39.5983 184.4L41.5688 185.586C42.9525 186.431 43.7962 186.993 44.6514 187.658L44.9951 187.93C48.7063 190.917 52.1655 194.598 55.4571 198.966C61.023 206.36 65.6715 214.919 71.0611 226.95L75.199 236.26C85.7292 259.802 93.0215 271.351 104.818 279.442C122.821 291.795 147.727 293.474 170.486 284.298L171.469 283.904C189.174 276.926 207.014 274.224 224.716 275.115C238.948 275.827 252.358 278.805 264.794 283.35C269.372 285.024 273.528 286.807 277.388 288.675C279.41 289.652 282.948 291.491 283.209 291.634L283.809 291.917C299.526 299.189 316.854 298.473 334.561 291.878C346.268 287.515 357.475 280.608 362.371 276.217C380.067 260.35 392.478 235.744 395.494 210.942C399.279 179.847 389.051 148.534 369.161 125.437C360.027 114.834 350.492 105.712 340.526 97.9119C323.151 84.3167 304.861 74.9643 284.538 68.3883C276.369 65.7451 268.025 63.5872 258.605 61.5785C255.592 60.9354 252.534 60.3206 249.023 59.6453L246.516 59.1672L233.625 56.7492C216.879 53.5255 207.875 50.935 200.373 46.5451L199.705 46.1471C193.712 42.5112 188.978 39.1273 180.222 32.3566L171.297 25.4205C170.484 24.7939 169.753 24.2342 169.006 23.6666L166.965 22.1263C161.373 17.9394 156.818 14.8109 152.204 12.0812C151.24 11.51 150.413 11.1768 148.86 10.6959L147.892 10.4028C146.714 10.0474 146.082 9.83736 145.413 9.55572L144.918 9.33886L141.138 7.61039C139.009 6.64202 137.713 6.09699 136.285 5.58632Z" fill="#80D9FF"/>
<path fill-rule="evenodd" clip-rule="evenodd" d="M61.9747 155.34C62.0242 156.307 61.655 156.779 61.1113 157.151C60.3398 157.681 59.6213 158.483 58.7686 158.667C54.8507 159.501 53.6291 162.688 52.0771 165.654C50.5992 168.482 48.5619 168.741 47.1601 165.902C45.292 162.122 42.935 159.327 38.8408 157.719C36.6159 156.847 36.6355 154.107 38.906 153.23C43.0215 151.635 45.4227 148.912 47.2075 145.044C48.4611 142.323 50.7512 142.556 52.0134 145.276C53.4913 148.458 54.9813 151.397 58.8587 152.437C60.2746 152.817 61.6482 153.89 61.9747 155.34Z" fill="#FBCF1F"/>
<path fill-rule="evenodd" clip-rule="evenodd" d="M306.511 13.9081C306.561 14.9176 306.194 15.4112 305.646 15.7997C304.877 16.3533 304.157 17.194 303.303 17.3864C299.386 18.2556 298.165 21.5903 296.613 24.6889C295.135 27.6476 293.095 27.9163 291.696 24.9483C289.83 20.9968 287.47 18.0761 283.375 16.3932C281.154 15.4822 281.171 12.6193 283.439 11.7009C287.555 10.0347 289.959 7.18657 291.742 3.14254C292.996 0.29776 295.285 0.541239 296.549 3.38749C298.026 6.71294 299.518 9.78417 303.395 10.8713C304.812 11.2709 306.187 12.3906 306.511 13.9081Z" fill="#FBCF1F"/>
</svg>
