<svg viewBox="0 0 390 425" fill="none" xmlns="http://www.w3.org/2000/svg">
<path d="M145.896 9.448H151.944V12.016H145.896V9.448ZM145.896 16.336H151.944V18.904H145.896V16.336ZM142.056 6.448C145.368 6.448 147.792 9.52 147.792 14.368C147.792 19.264 145.368 22.336 142.056 22.336C138.72 22.336 136.32 19.264 136.32 14.368C136.32 9.52 138.72 6.448 142.056 6.448ZM142.056 9.352C140.448 9.352 139.344 11.104 139.344 14.368C139.344 17.68 140.448 19.456 142.056 19.456C143.688 19.456 144.768 17.68 144.768 14.368C144.768 11.104 143.688 9.352 142.056 9.352ZM151.44 4.888H154.608V27.184H151.44V4.888ZM173.95 4.912H176.974V18.832H173.95V4.912ZM171.238 10.384H174.79V12.976H171.238V10.384ZM169.342 5.344H172.318V18.112H169.342V5.344ZM157.942 7.192H168.718V9.64H157.942V7.192ZM163.366 10.36C166.15 10.36 168.166 11.944 168.166 14.248C168.166 16.552 166.15 18.112 163.366 18.112C160.582 18.112 158.566 16.552 158.566 14.248C158.566 11.944 160.582 10.36 163.366 10.36ZM163.366 12.64C162.19 12.64 161.398 13.216 161.398 14.248C161.398 15.28 162.19 15.856 163.366 15.856C164.518 15.856 165.31 15.28 165.31 14.248C165.31 13.216 164.518 12.64 163.366 12.64ZM161.758 5.128H164.902V8.872H161.758V5.128ZM169.462 19.072C174.214 19.072 177.094 20.512 177.094 23.104C177.094 25.672 174.214 27.136 169.462 27.136C164.686 27.136 161.806 25.672 161.806 23.104C161.806 20.512 164.686 19.072 169.462 19.072ZM169.462 21.448C166.486 21.448 164.998 21.952 164.998 23.104C164.998 24.232 166.486 24.76 169.462 24.76C172.414 24.76 173.902 24.232 173.902 23.104C173.902 21.952 172.414 21.448 169.462 21.448ZM190.273 8.416H192.817V10.912C192.817 16.048 190.729 21.064 186.553 22.96L184.753 20.44C188.473 18.784 190.273 14.68 190.273 10.912V8.416ZM190.993 8.416H193.513V10.912C193.513 14.512 195.289 18.352 199.009 19.888L197.281 22.408C193.057 20.584 190.993 15.856 190.993 10.912V8.416ZM185.641 7.048H198.097V9.664H185.641V7.048ZM200.161 4.912H203.377V27.136H200.161V4.912ZM215.447 16.216H218.639V19.432H215.447V16.216ZM207.047 14.344H227.063V16.672H207.047V14.344ZM215.447 4.888H218.615V7.576H215.447V4.888ZM215.255 7.72H218.063V8.152C218.063 11.344 214.823 13.456 208.679 13.792L207.791 11.416C213.215 11.2 215.255 9.688 215.255 8.152V7.72ZM215.999 7.72H218.807V8.152C218.807 9.688 220.847 11.2 226.247 11.416L225.359 13.792C219.239 13.456 215.999 11.344 215.999 8.152V7.72ZM208.919 6.64H225.167V8.968H208.919V6.64ZM209.303 18.016H224.663V23.512H212.471V25.624H209.327V21.376H221.519V20.32H209.303V18.016ZM209.327 24.664H225.239V26.992H209.327V24.664Z" fill="#00B2FF"/>
<path d="M239.133 5.224C244.197 5.224 247.173 6.568 247.173 9.016C247.173 11.464 244.197 12.808 239.133 12.808C234.045 12.808 231.093 11.464 231.093 9.016C231.093 6.568 234.045 5.224 239.133 5.224ZM239.133 7.552C235.917 7.552 234.405 8.032 234.405 9.016C234.405 10.048 235.917 10.48 239.133 10.48C242.349 10.48 243.861 10.048 243.861 9.016C243.861 8.032 242.349 7.552 239.133 7.552ZM229.077 13.84H249.165V16.36H229.077V13.84ZM231.381 17.608H246.741V23.32H234.549V25.288H231.405V21.112H243.597V19.984H231.381V17.608ZM231.405 24.592H247.317V26.992H231.405V24.592ZM119.549 36.936H122.741V53.544H119.549V36.936ZM121.829 43.704H125.693V46.32H121.829V43.704ZM105.245 39.24H118.325V41.736H105.245V39.24ZM111.797 42.528C114.989 42.528 117.245 44.28 117.245 46.824C117.245 49.368 114.989 51.096 111.797 51.096C108.581 51.096 106.325 49.368 106.325 46.824C106.325 44.28 108.581 42.528 111.797 42.528ZM111.797 44.952C110.381 44.952 109.397 45.624 109.397 46.824C109.397 48.024 110.381 48.672 111.797 48.672C113.213 48.672 114.197 48.024 114.197 46.824C114.197 45.624 113.213 44.952 111.797 44.952ZM110.189 36.888H113.381V40.464H110.189V36.888ZM108.413 56.208H123.533V58.752H108.413V56.208ZM108.413 52.296H111.605V57.312H108.413V52.296ZM129.891 42.888H145.251V45.384H129.891V42.888ZM129.891 37.512H133.083V43.848H129.891V37.512ZM127.347 47.328H147.459V49.848H127.347V47.328ZM136.059 49.104H139.251V53.736H136.059V49.104ZM129.699 56.208H145.371V58.752H129.699V56.208ZM129.699 52.056H132.867V57.576H129.699V52.056ZM158.281 45.096H161.929V47.664H158.281V45.096ZM165.457 36.912H168.505V59.136H165.457V36.912ZM160.921 37.248H163.921V58.128H160.921V37.248ZM154.393 38.472C157.345 38.472 159.241 41.52 159.241 46.536C159.241 51.576 157.345 54.624 154.393 54.624C151.465 54.624 149.593 51.576 149.593 46.536C149.593 41.52 151.465 38.472 154.393 38.472ZM154.393 41.472C153.193 41.472 152.497 43.152 152.497 46.536C152.497 49.944 153.193 51.6 154.393 51.6C155.641 51.6 156.337 49.944 156.337 46.536C156.337 43.152 155.641 41.472 154.393 41.472ZM190.588 36.912H193.78V49.368H190.588V36.912ZM192.892 41.904H196.732V44.496H192.892V41.904ZM177.124 46.032H178.972C183.796 46.032 186.196 45.912 188.86 45.36L189.172 47.88C186.46 48.48 183.916 48.6 178.972 48.6H177.124V46.032ZM177.124 38.28H186.988V40.824H180.292V47.52H177.124V38.28ZM179.332 50.328H193.78V58.896H179.332V50.328ZM190.66 52.848H182.476V56.376H190.66V52.848ZM204.314 38.448C207.698 38.448 210.146 41.52 210.146 46.368C210.146 51.264 207.698 54.336 204.314 54.336C200.93 54.336 198.482 51.264 198.482 46.368C198.482 41.52 200.93 38.448 204.314 38.448ZM204.314 41.352C202.658 41.352 201.554 43.104 201.554 46.368C201.554 49.68 202.658 51.456 204.314 51.456C205.97 51.456 207.098 49.68 207.098 46.368C207.098 43.104 205.97 41.352 204.314 41.352ZM212.57 36.912H215.786V59.136H212.57V36.912ZM215.066 45.288H219.002V47.928H215.066V45.288ZM220.464 53.976H240.576V56.568H220.464V53.976ZM228.888 49.224H232.08V54.6H228.888V49.224ZM222.576 38.328H225.744V41.736H235.224V38.328H238.392V49.896H222.576V38.328ZM225.744 44.232V47.352H235.224V44.232H225.744ZM251.279 44.376H254.951V46.968H251.279V44.376ZM246.527 38.832H248.975V42.576C248.975 47.616 247.583 52.536 244.031 54.72L242.111 52.32C245.375 50.304 246.527 46.344 246.527 42.576V38.832ZM247.223 38.832H249.623V42.432C249.623 46.056 250.559 49.752 253.583 51.72L251.855 54.216C248.327 52.032 247.223 47.232 247.223 42.432V38.832ZM258.575 36.912H261.623V59.136H258.575V36.912ZM254.063 37.248H257.039V58.128H254.063V37.248ZM269.037 48.192H272.205V54.432H269.037V48.192ZM277.101 48.192H280.293V54.432H277.101V48.192ZM264.621 53.976H284.733V56.568H264.621V53.976ZM274.653 37.992C279.429 37.992 282.957 40.344 282.957 43.968C282.957 47.592 279.429 49.92 274.653 49.92C269.853 49.92 266.349 47.592 266.349 43.968C266.349 40.344 269.853 37.992 274.653 37.992ZM274.653 40.488C271.557 40.488 269.493 41.76 269.493 43.968C269.493 46.152 271.557 47.448 274.653 47.448C277.749 47.448 279.813 46.152 279.813 43.968C279.813 41.76 277.749 40.488 274.653 40.488Z" fill="black"/>
<path fill-rule="evenodd" clip-rule="evenodd" d="M105.808 373.146C105.837 373.753 105.61 374.052 105.272 374.285C104.794 374.618 104.349 375.123 103.819 375.239C101.391 375.761 100.634 377.768 99.6717 379.632C98.7554 381.413 97.4933 381.574 96.6243 379.79C95.466 377.412 94.0048 375.651 91.4675 374.642C90.0871 374.093 90.1004 372.37 91.5079 371.818C94.0586 370.816 95.5466 369.1 96.6524 366.67C97.4302 364.955 98.8497 365.102 99.6326 366.815C100.549 368.815 101.472 370.665 103.876 371.32C104.754 371.557 105.606 372.233 105.808 373.146Z" fill="#FBCF1F"/>
<path fill-rule="evenodd" clip-rule="evenodd" d="M103.014 169.101C103.014 177.323 96.4465 183.988 88.3444 183.988C80.2424 183.988 73.6746 177.323 73.6746 169.101C73.6746 160.879 80.2424 154.216 88.3444 154.216C96.4465 154.216 103.014 160.879 103.014 169.101Z" fill="#EAF9FF"/>
<path fill-rule="evenodd" clip-rule="evenodd" d="M309.789 126.463C309.82 127.07 309.59 127.368 309.254 127.602C308.774 127.935 308.329 128.44 307.801 128.555C305.37 129.079 304.616 131.084 303.653 132.95C302.738 134.729 301.473 134.891 300.606 133.106C299.447 130.728 297.983 128.97 295.447 127.959C294.069 127.411 294.079 125.687 295.488 125.136C298.038 124.132 299.526 122.418 300.633 119.987C301.411 118.274 302.83 118.42 303.612 120.131C304.527 122.132 305.453 123.981 307.856 124.636C308.733 124.875 309.587 125.55 309.789 126.463Z" fill="#FBCF1F"/>
<path fill-rule="evenodd" clip-rule="evenodd" d="M324.316 233.805H334.096V244.634H324.316V233.805Z" fill="white"/>
<path fill-rule="evenodd" clip-rule="evenodd" d="M329.208 234.506C326.856 234.506 324.95 236.619 324.95 239.218C324.95 241.818 326.856 243.933 329.208 243.933C331.556 243.933 333.462 241.818 333.462 239.218C333.462 236.619 331.556 234.506 329.208 234.506ZM329.208 244.634C326.51 244.634 324.316 242.206 324.316 239.218C324.316 236.234 326.51 233.805 329.208 233.805C331.902 233.805 334.096 236.234 334.096 239.218C334.096 242.206 331.902 244.634 329.208 244.634Z" fill="#00B2FF"/>
<path fill-rule="evenodd" clip-rule="evenodd" d="M139.529 165.948C141.493 151.836 147.74 138.003 158.568 126.135C185.058 97.1154 231.402 90.3677 266.293 110.448C307.804 134.342 318.047 185.183 289.801 221.08C288.331 222.949 286.781 224.738 285.17 226.45C279.72 232.226 280.683 241.026 287.402 245.516C332.913 276 342.967 334.794 309.785 376.729C277.742 417.226 215.71 427.239 170.718 399.11C143.042 381.804 127.664 354.344 126.157 325.984C125.202 308.001 114.116 291.914 96.936 283.373C93.6545 281.743 90.494 279.773 87.5077 277.457C67.1004 261.623 62.0628 233.893 75.8067 212.809C84.8634 198.915 99.6824 190.621 115.47 188.624C128.193 187.015 137.892 177.701 139.529 165.948Z" fill="#EAF9FF"/>
<path fill-rule="evenodd" clip-rule="evenodd" d="M281.612 149.548L281.564 151.344C281.365 158.623 281.725 166.045 283.244 175.01C285.485 188.26 289.853 201.22 296.869 213.357C301.353 221.112 306.831 228.348 313.378 234.972L313.813 235.416C327.23 249.24 334.099 268.096 331.655 285.421C329.986 297.276 324.474 306.413 310.941 323.244L306.642 328.601C300.602 336.222 296.516 342.288 293.459 348.626C291.597 352.473 290.254 356.224 289.455 359.927C289.225 360.994 289.112 361.89 288.961 363.647L288.872 364.728C288.653 367.325 288.464 368.653 288.022 370.067L287.888 370.476C287.714 370.983 287.549 371.416 287.278 372.064L286.723 373.375C286.096 374.865 285.804 375.654 285.557 376.618L285.263 377.775C284.389 381.131 283.645 383.588 282.726 386.028C280.241 392.613 276.895 398.481 272.631 403.478C258.716 419.792 233.212 427.805 209.056 424.113C186.491 420.664 165.481 407.719 151.505 389.473C142.812 378.125 137.36 365.62 135.991 353.111C135.822 351.571 135.758 350.308 135.711 347.933L135.671 345.788C135.541 339.834 135.127 337.043 133.537 333.648L133.392 333.34C131.192 328.746 128.27 325.066 122.128 318.449L91.425 285.382C85.4931 278.992 82.106 275.013 79.1821 270.659L78.7354 269.986C74.7951 263.972 72.6051 258.251 72.312 252.411C71.9911 246.014 73.9937 239.365 77.9504 232.214C82.4546 224.076 88.6247 216.674 96.0734 210.473C98.7273 208.263 101.065 206.524 105.328 203.554L108.751 201.185C114.958 196.903 117.978 194.701 121.131 191.998L121.826 191.396C126.881 186.977 130.715 182.199 133.044 177.133C134.319 174.359 135.1 171.546 135.328 168.768C135.37 168.264 135.379 167.836 135.367 167.127L135.343 166.123C135.316 165.048 135.323 164.518 135.386 163.865L135.487 162.876C136.305 155.301 138.073 147.863 140.756 140.797C149.169 118.644 167.372 100.495 190.045 92.8523C207.843 86.8527 228.583 87.8904 245.148 95.7593C249.753 97.9469 258.106 103.968 264.901 111.209C275.322 122.312 281.53 135.143 281.612 149.48V149.548ZM281.221 149.548L281.214 148.837C280.954 134.872 274.821 122.35 264.62 111.481C257.858 104.277 249.545 98.2843 244.983 96.1168C228.51 88.2916 207.872 87.259 190.168 93.227C167.607 100.832 149.492 118.894 141.12 140.939C138.333 148.279 136.537 156.022 135.774 163.903C135.717 164.484 135.708 164.968 135.726 165.861L135.757 167.125C135.767 167.701 135.762 168.095 135.738 168.496L135.716 168.801C135.484 171.628 134.69 174.485 133.396 177.299C131.042 182.422 127.174 187.242 122.08 191.695L121.846 191.899C118.892 194.465 116.197 196.489 111.109 200.03L106.322 203.341C102.098 206.273 99.6926 208.028 97.244 210.018L96.3202 210.778C88.9086 216.949 82.77 224.313 78.2898 232.408C74.3659 239.499 72.384 246.079 72.7007 252.391C72.9897 258.152 75.155 263.808 79.0597 269.768C81.9271 274.145 85.1544 278.014 90.8175 284.149L122.818 318.617C128.844 325.134 131.697 328.794 133.889 333.479L134.015 333.751C135.532 337.094 135.933 339.934 136.061 345.798L136.086 347.178C136.135 350.037 136.194 351.389 136.378 353.067L136.457 353.76C137.94 365.96 143.321 378.145 151.812 389.23C165.728 407.397 186.65 420.286 209.114 423.721C233.144 427.393 258.515 419.425 272.336 403.217C276.57 398.258 279.891 392.431 282.363 385.884C283.274 383.461 284.015 381.018 284.886 377.672L285.232 376.323C285.458 375.486 285.729 374.741 286.243 373.516L286.743 372.332C287.12 371.44 287.312 370.946 287.518 370.345L287.587 370.146C288.022 368.822 288.221 367.62 288.423 365.39L288.629 362.981C288.728 361.903 288.821 361.169 288.954 360.441L289.074 359.841C289.88 356.107 291.237 352.326 293.109 348.455C296.091 342.278 300.033 336.365 305.792 329.045L306.896 327.655L312.02 321.266C324.505 305.581 329.67 296.714 331.271 285.365C333.722 267.983 326.722 249.029 313.104 235.252L312.349 234.482C306.107 228.044 300.863 221.041 296.533 213.557C289.493 201.376 285.108 188.371 282.86 175.077C281.338 166.083 280.974 158.636 281.173 151.333L281.221 149.548Z" fill="#80D9FF"/>
<path fill-rule="evenodd" clip-rule="evenodd" d="M73.675 193.044C71.6619 193.044 70.0251 194.706 70.0251 196.747C70.0251 198.789 71.6619 200.449 73.675 200.449C75.6882 200.449 77.3246 198.789 77.3246 196.747C77.3246 194.706 75.6882 193.044 73.675 193.044ZM73.675 201C71.364 201 69.4835 199.092 69.4835 196.747C69.4835 194.402 71.364 192.494 73.675 192.494C75.9861 192.494 77.8662 194.402 77.8662 196.747C77.8662 199.092 75.9861 201 73.675 201Z" fill="#00B2FF"/>
<ellipse cx="201.594" cy="253.807" rx="89.3386" ry="89.4383" fill="white"/>
<path d="M295.951 252.803C295.951 200.632 253.619 158.34 201.4 158.34C196.11 158.34 190.921 158.774 185.867 159.608" stroke="#FE86D5" stroke-width="36"/>
<path d="M295.951 252.803C295.951 274.072 288.929 293.7 277.08 309.49C259.865 332.428 232.46 347.266 201.594 347.266" stroke="#FFD600" stroke-width="36"/>
<path d="M201.594 347.266C232.46 347.266 259.865 332.425 277.08 309.48" stroke="#CD5CF4" stroke-width="36"/>
<path d="M201.594 347.266C180.351 347.266 160.748 340.236 144.979 328.373" stroke="#2FC56E" stroke-width="36"/>
<path d="M131.842 189.828C116.556 206.537 107.236 228.758 107.236 253.148C107.236 283.908 122.06 311.218 144.979 328.373" stroke="#00B2FF" stroke-width="36"/>
<path d="M131.394 189.828C145.152 174.322 166.994 162.918 188.042 159.345" stroke="#FFA927" stroke-width="36"/>
<path d="M144.307 271.51L143.32 266.422H140.811V265.279H143.096L142.871 264.127H140.811V262.984H142.647L141.68 258.004H144.053L144.834 263.082H147.197L148.379 258.004H150.498L151.68 263.082H154.043L154.824 258.004H157.197L156.231 262.984H158.067V264.127H156.006L155.781 265.279H158.067V266.422H155.567L154.57 271.51H152.002L150.801 266.324H148.076L146.875 271.51H144.307ZM149.395 260.66L148.828 263.082H150.049L149.483 260.66H149.395ZM145.186 265.377H146.67L146.983 264.029H144.981L145.186 265.377ZM148.301 265.377H150.586L150.264 264.029H148.613L148.301 265.377ZM152.217 265.377H153.692L153.897 264.029H151.904L152.217 265.377ZM145.742 269.029H145.82L146.445 266.324H145.332L145.742 269.029ZM153.057 269.029H153.135L153.545 266.324H152.432L153.057 269.029ZM169.62 272.154C166.739 272.154 164.796 270.396 164.61 268.082L164.601 267.955H166.925L166.934 268.023C167.12 269.176 168.184 270.094 169.63 270.094C171.28 270.094 172.413 268.932 172.413 267.271V267.252C172.413 265.611 171.261 264.459 169.649 264.459C168.858 264.459 168.175 264.693 167.657 265.162C167.403 265.377 167.169 265.65 167.003 265.963H164.845L165.528 257.711H173.985V259.781H167.491L167.101 264.068H167.267C167.852 263.121 168.946 262.555 170.274 262.555C172.901 262.555 174.806 264.508 174.806 267.203V267.223C174.806 270.152 172.667 272.154 169.62 272.154ZM176.027 275.523L176.876 269.654H179.386L177.687 275.523H176.027ZM186.808 272.154C183.459 272.154 181.447 269.312 181.447 264.762V264.742C181.447 260.191 183.459 257.359 186.808 257.359C190.158 257.359 192.189 260.191 192.189 264.742V264.762C192.189 269.312 190.158 272.154 186.808 272.154ZM186.808 270.113C188.605 270.113 189.65 268.102 189.65 264.762V264.742C189.65 261.402 188.605 259.41 186.808 259.41C185.011 259.41 183.986 261.402 183.986 264.742V264.762C183.986 268.102 185.011 270.113 186.808 270.113ZM199.709 272.154C196.359 272.154 194.348 269.312 194.348 264.762V264.742C194.348 260.191 196.359 257.359 199.709 257.359C203.059 257.359 205.09 260.191 205.09 264.742V264.762C205.09 269.312 203.059 272.154 199.709 272.154ZM199.709 270.113C201.506 270.113 202.551 268.102 202.551 264.762V264.742C202.551 261.402 201.506 259.41 199.709 259.41C197.912 259.41 196.887 261.402 196.887 264.742V264.762C196.887 268.102 197.912 270.113 199.709 270.113ZM212.61 272.154C209.26 272.154 207.249 269.312 207.249 264.762V264.742C207.249 260.191 209.26 257.359 212.61 257.359C215.959 257.359 217.991 260.191 217.991 264.742V264.762C217.991 269.312 215.959 272.154 212.61 272.154ZM212.61 270.113C214.407 270.113 215.452 268.102 215.452 264.762V264.742C215.452 261.402 214.407 259.41 212.61 259.41C210.813 259.41 209.788 261.402 209.788 264.742V264.762C209.788 268.102 210.813 270.113 212.61 270.113ZM219.095 275.523L219.944 269.654H222.454L220.755 275.523H219.095ZM229.876 272.154C226.527 272.154 224.515 269.312 224.515 264.762V264.742C224.515 260.191 226.527 257.359 229.876 257.359C233.226 257.359 235.257 260.191 235.257 264.742V264.762C235.257 269.312 233.226 272.154 229.876 272.154ZM229.876 270.113C231.673 270.113 232.718 268.102 232.718 264.762V264.742C232.718 261.402 231.673 259.41 229.876 259.41C228.079 259.41 227.054 261.402 227.054 264.742V264.762C227.054 268.102 228.079 270.113 229.876 270.113ZM242.777 272.154C239.427 272.154 237.416 269.312 237.416 264.762V264.742C237.416 260.191 239.427 257.359 242.777 257.359C246.127 257.359 248.158 260.191 248.158 264.742V264.762C248.158 269.312 246.127 272.154 242.777 272.154ZM242.777 270.113C244.574 270.113 245.619 268.102 245.619 264.762V264.742C245.619 261.402 244.574 259.41 242.777 259.41C240.98 259.41 239.955 261.402 239.955 264.742V264.762C239.955 268.102 240.98 270.113 242.777 270.113ZM255.678 272.154C252.328 272.154 250.317 269.312 250.317 264.762V264.742C250.317 260.191 252.328 257.359 255.678 257.359C259.027 257.359 261.059 260.191 261.059 264.742V264.762C261.059 269.312 259.027 272.154 255.678 272.154ZM255.678 270.113C257.475 270.113 258.52 268.102 258.52 264.762V264.742C258.52 261.402 257.475 259.41 255.678 259.41C253.881 259.41 252.856 261.402 252.856 264.742V264.762C252.856 268.102 253.881 270.113 255.678 270.113Z" fill="black"/>
<path d="M178.286 233.922H191.358V234.994H178.286V233.922ZM184.174 232.146H185.486V234.418H184.174V232.146ZM184.174 226.386H185.486V228.402H184.174V226.386ZM184.11 228.53H185.278V228.77C185.278 231.138 182.622 232.514 179.454 232.834L179.054 231.81C181.854 231.57 184.11 230.418 184.11 228.77V228.53ZM184.382 228.53H185.55V228.77C185.55 230.418 187.806 231.57 190.606 231.81L190.206 232.834C187.038 232.514 184.382 231.138 184.382 228.77V228.53ZM179.63 227.842H190.03V228.898H179.63V227.842ZM184.814 236.082C187.934 236.082 189.774 236.93 189.774 238.482C189.774 240.034 187.934 240.866 184.814 240.866C181.694 240.866 179.854 240.034 179.854 238.482C179.854 236.93 181.694 236.082 184.814 236.082ZM184.814 237.09C182.526 237.09 181.198 237.57 181.198 238.482C181.198 239.362 182.526 239.858 184.814 239.858C187.102 239.858 188.43 239.362 188.43 238.482C188.43 237.57 187.102 237.09 184.814 237.09ZM204.433 229.09H208.305V230.178H204.433V229.09ZM204.305 232.098H208.209V233.186H204.305V232.098ZM208.081 226.434H209.409V235.106H208.081V226.434ZM203.553 227.522H204.977C204.977 231.25 202.401 233.858 198.241 235.106L197.697 234.034C201.393 232.962 203.553 230.834 203.553 228.098V227.522ZM198.449 227.522H204.465V228.61H198.449V227.522ZM204.705 235.266C207.633 235.266 209.489 236.306 209.489 238.05C209.489 239.794 207.633 240.834 204.705 240.834C201.777 240.834 199.921 239.794 199.921 238.05C199.921 236.306 201.777 235.266 204.705 235.266ZM204.705 236.306C202.593 236.306 201.233 236.962 201.233 238.05C201.233 239.138 202.593 239.778 204.705 239.778C206.833 239.778 208.193 239.138 208.193 238.05C208.193 236.962 206.833 236.306 204.705 236.306ZM222.736 226.418H224.064V240.914H222.736V226.418ZM213.056 227.65H214.368V231.474H218.544V227.65H219.872V237.426H213.056V227.65ZM214.368 232.53V236.338H218.544V232.53H214.368Z" fill="#282828"/>
<path d="M116.774 297.02C116.774 316.724 100.818 332.697 81.137 332.697C61.4557 332.697 45.5 316.724 45.5 297.02C45.5 277.315 61.4557 261.342 81.137 261.342C100.818 261.342 116.774 277.315 116.774 297.02Z" fill="white" stroke="#E8E8E8"/>
<path d="M70.6994 282.089H77.6834V282.917H70.6994V282.089ZM69.6914 289.517H79.4954V290.345H69.6914V289.517ZM72.0914 285.929H73.0754V289.817H72.0914V285.929ZM77.3594 282.089H78.3434V283.289C78.3434 284.669 78.3434 286.085 77.9714 288.113L76.9754 287.993C77.3594 286.073 77.3594 284.633 77.3594 283.289V282.089ZM74.7674 285.929H75.7514V289.817H74.7674V285.929ZM80.7184 286.757H90.5224V287.561H80.7184V286.757ZM85.1224 285.353H86.1064V287.093H85.1224V285.353ZM82.0144 284.909H89.3704V285.689H82.0144V284.909ZM82.0144 281.321H89.3224V282.101H82.9984V285.329H82.0144V281.321ZM82.7104 283.097H89.0344V283.865H82.7104V283.097ZM85.6144 288.365C87.9784 288.365 89.3344 288.965 89.3344 290.105C89.3344 291.233 87.9784 291.833 85.6144 291.833C83.2504 291.833 81.8944 291.233 81.8944 290.105C81.8944 288.965 83.2504 288.365 85.6144 288.365ZM85.6144 289.121C83.8744 289.121 82.9024 289.469 82.9024 290.105C82.9024 290.753 83.8744 291.089 85.6144 291.089C87.3544 291.089 88.3264 290.753 88.3264 290.105C88.3264 289.469 87.3544 289.121 85.6144 289.121Z" fill="black"/>
<path d="M69.6767 312.218C67.5165 312.218 66.1015 311.042 65.9716 309.354L65.9648 309.271H67.6464L67.6533 309.347C67.749 310.181 68.5214 310.775 69.6767 310.775C70.8183 310.775 71.5771 310.14 71.5771 309.224V309.21C71.5771 308.171 70.8115 307.597 69.5468 307.597H68.3847V306.284H69.5126C70.5995 306.284 71.3242 305.669 71.3242 304.808V304.794C71.3242 303.892 70.7158 303.358 69.663 303.358C68.624 303.358 67.9062 303.912 67.8173 304.794L67.8105 304.862H66.1699L66.1767 304.787C66.3271 303.078 67.6738 301.957 69.663 301.957C71.6933 301.957 73.0126 303.017 73.0126 304.562V304.575C73.0126 305.799 72.1308 306.612 70.9482 306.858V306.893C72.3974 307.029 73.3613 307.891 73.3613 309.258V309.271C73.3613 311.008 71.8642 312.218 69.6767 312.218ZM78.5637 312.266C76.219 312.266 74.8108 310.276 74.8108 307.091V307.077C74.8108 303.892 76.219 301.909 78.5637 301.909C80.9084 301.909 82.3303 303.892 82.3303 307.077V307.091C82.3303 310.276 80.9084 312.266 78.5637 312.266ZM78.5637 310.837C79.8215 310.837 80.5529 309.429 80.5529 307.091V307.077C80.5529 304.739 79.8215 303.345 78.5637 303.345C77.3059 303.345 76.5881 304.739 76.5881 307.077V307.091C76.5881 309.429 77.3059 310.837 78.5637 310.837ZM86.0562 307.48C84.6753 307.48 83.8413 306.435 83.8413 304.753V304.746C83.8413 303.064 84.6753 302.019 86.0562 302.019C87.4302 302.019 88.271 303.064 88.271 304.746V304.753C88.271 306.435 87.4302 307.48 86.0562 307.48ZM87.2866 312.02H85.8784L92.5435 302.155H93.9517L87.2866 312.02ZM86.0562 306.489C86.6782 306.489 87.0405 305.854 87.0405 304.753V304.746C87.0405 303.639 86.6782 303.01 86.0562 303.01C85.4272 303.01 85.0786 303.639 85.0786 304.746V304.753C85.0786 305.854 85.4272 306.489 86.0562 306.489ZM93.7739 312.156C92.3931 312.156 91.5522 311.104 91.5522 309.422V309.415C91.5522 307.733 92.3931 306.694 93.7739 306.694C95.1479 306.694 95.9888 307.733 95.9888 309.415V309.422C95.9888 311.104 95.1479 312.156 93.7739 312.156ZM93.7739 311.165C94.396 311.165 94.7583 310.529 94.7583 309.422V309.415C94.7583 308.314 94.396 307.686 93.7739 307.686C93.145 307.686 92.7895 308.314 92.7895 309.415V309.422C92.7895 310.529 93.145 311.165 93.7739 311.165Z" fill="#00B2FF"/>
<mask id="mask0_666_1028" style="mask-type:alpha" maskUnits="userSpaceOnUse" x="193" y="292" width="147" height="88">
<path fill-rule="evenodd" clip-rule="evenodd" d="M193.618 318.288L327.644 292.119L339.616 353.574L205.59 379.742L193.618 318.288Z" fill="white"/>
</mask>
<g mask="url(#mask0_666_1028)">
<path fill-rule="evenodd" clip-rule="evenodd" d="M301.303 309.947C299.976 312.205 299.914 314.643 298.507 316.6C297.143 318.502 295.225 319.728 293.083 321.49C298.336 322.451 302.202 324.837 304.758 329.26C306.458 323.16 306.976 321.918 312.903 317.496C307.614 316.669 303.856 314.355 301.303 309.947ZM227.454 333.471C226.986 331.553 226.638 329.603 226.315 327.654C226.067 326.16 225.477 324.923 224.055 324.025L207.974 327.165C207.466 327.588 207.079 328.201 206.796 328.859C206.783 329.083 206.736 329.294 206.77 329.487C207.338 332.448 207.882 335.417 208.501 338.368C209.065 341.054 210.192 341.822 212.91 341.32C217.254 340.515 221.589 339.634 226.028 338.768C227.667 337.145 227.933 335.432 227.454 333.471ZM238.994 309.426C251.33 307.042 263.671 304.661 276.006 302.268C280.016 301.491 284.018 300.691 288.026 299.902C291.406 299.236 294.784 298.571 298.163 297.905L323.066 293.042C325.415 293.796 327.277 294.823 328.576 296.904L339.589 353.436C332.262 354.882 324.938 356.344 317.608 357.775C292.72 362.64 267.832 367.5 242.941 372.344C241.821 372.563 224.461 375.912 221.48 376.534C216.226 377.635 210.957 378.663 205.698 379.721C205.466 378.709 205.208 377.706 205.009 376.687C202.18 362.196 199.356 347.7 196.533 333.208C196.036 330.656 195.517 328.108 195.048 325.553C194.215 321.002 196.348 317.852 200.873 316.944C206.345 315.85 211.82 314.782 217.291 313.701C224.525 312.276 231.756 310.852 238.994 309.426Z" fill="#00B2FF"/>
</g>
<mask id="mask1_666_1028" style="mask-type:alpha" maskUnits="userSpaceOnUse" x="207" y="362" width="138" height="43">
<path fill-rule="evenodd" clip-rule="evenodd" d="M207.315 388.886L341.614 362.665L344.581 377.893L210.281 404.114L207.315 388.886Z" fill="white"/>
</mask>
<g mask="url(#mask1_666_1028)">
<path fill-rule="evenodd" clip-rule="evenodd" d="M323.217 382.064C327.84 381.145 332.468 380.213 337.094 379.31C339.222 378.894 340.949 377.93 342.126 376.004C343.04 374.505 343.41 373.001 343.072 371.216C342.546 368.417 341.692 365.666 341.638 362.787L341.372 362.839C340.131 363.069 338.885 363.29 337.646 363.531C295.418 371.776 253.19 380.021 210.958 388.264C209.825 388.485 208.679 388.651 207.538 388.842C207.756 391.819 208.466 394.719 209.12 397.608C209.842 400.783 213.545 403.19 216.744 402.785C217.576 402.68 218.397 402.475 219.223 402.314C252.747 395.769 286.277 389.222 319.804 382.679C320.936 382.458 322.078 382.27 323.217 382.064Z" fill="#00B2FF"/>
</g>
<path fill-rule="evenodd" clip-rule="evenodd" d="M207.441 388.637C208.587 388.444 209.737 388.272 210.874 388.05C253.286 379.775 295.699 371.491 338.11 363.214C339.355 362.971 340.602 362.749 341.848 362.518C341.5 359.405 340.831 356.352 340.108 353.312C332.749 354.764 325.39 356.232 318.029 357.669C293.037 362.555 210.92 378.647 205.635 379.71C206.125 382.708 206.59 385.712 207.441 388.637Z" fill="#006F9F"/>
<path fill-rule="evenodd" clip-rule="evenodd" d="M226.789 338.835C228.483 337.132 228.756 335.337 228.253 333.275C227.763 331.26 227.399 329.21 227.055 327.159C226.796 325.592 226.184 324.29 224.703 323.344L208.044 326.597C207.515 327.04 207.116 327.68 206.824 328.374C206.814 328.608 206.763 328.827 206.799 329.033C207.396 332.145 207.971 335.264 208.618 338.367C209.209 341.186 210.38 341.996 213.197 341.476C217.701 340.642 222.19 339.733 226.789 338.835Z" fill="#D9C974"/>
<rect x="287.921" y="305.06" width="34.1294" height="30.1477" fill="#00B2FF"/>
</svg>
